999
"DXF R12 Output" (www.mydxf.blogspot.com)
 0 
SECTION
 2 
HEADER
 9 
$ACADVER
 1 
AC1009
 9 
$EXTMIN
 10 
 0 
 20 
 0 
 9 
$EXTMAX
 10 
 8.5 
 20 
 11 
 0 
ENDSEC
 0 
SECTION
 2 
ENTITIES
0
POLYLINE
8
Layer 1
62
7
70
0
10
0.000000
20
0.000000
66
1
0
VERTEX
8
Layer 1
10
64.097933
20
295.066595
70
0
0
VERTEX
8
Layer 1
10
64.011666
20
295.065651
70
0
0
VERTEX
8
Layer 1
10
63.914527
20
295.036817
70
0
0
VERTEX
8
Layer 1
10
63.676761
20
294.916279
70
0
0
VERTEX
8
Layer 1
10
63.349528
20
294.337836
70
0
0
VERTEX
8
Layer 1
10
63.122763
20
293.084112
70
0
0
VERTEX
8
Layer 1
10
63.118987
20
293.052442
70
0
0
VERTEX
8
Layer 1
10
63.000104
20
291.878503
70
0
0
VERTEX
8
Layer 1
10
62.942672
20
288.197152
70
0
0
VERTEX
8
Layer 1
10
62.953781
20
284.889939
70
0
0
VERTEX
8
Layer 1
10
63.053993
20
279.232958
70
0
0
VERTEX
8
Layer 1
10
63.195801
20
276.500543
70
0
0
VERTEX
8
Layer 1
10
63.247088
20
275.602657
70
0
0
VERTEX
8
Layer 1
10
63.275213
20
275.213156
70
0
0
VERTEX
8
Layer 1
10
63.839570
20
268.577372
70
0
0
VERTEX
8
Layer 1
10
64.458135
20
264.693558
70
0
0
VERTEX
8
Layer 1
10
64.462152
20
264.675833
70
0
0
VERTEX
8
Layer 1
10
64.473503
20
264.594293
70
0
0
VERTEX
8
Layer 1
10
64.060367
20
264.594777
70
0
0
VERTEX
8
Layer 1
10
62.017341
20
264.858806
70
0
0
VERTEX
8
Layer 1
10
59.292315
20
264.944589
70
0
0
VERTEX
8
Layer 1
10
56.189652
20
264.852452
70
0
0
VERTEX
8
Layer 1
10
53.013714
20
264.582724
70
0
0
VERTEX
8
Layer 1
10
50.524626
20
264.193111
70
0
0
VERTEX
8
Layer 1
10
47.894321
20
263.618489
70
0
0
VERTEX
8
Layer 1
10
45.544198
20
262.962946
70
0
0
VERTEX
8
Layer 1
10
43.895658
20
262.330567
70
0
0
VERTEX
8
Layer 1
10
43.758575
20
262.261081
70
0
0
VERTEX
8
Layer 1
10
43.411854
20
262.141016
70
0
0
VERTEX
8
Layer 1
10
43.159198
20
262.132509
70
0
0
VERTEX
8
Layer 1
10
42.851474
20
262.336004
70
0
0
VERTEX
8
Layer 1
10
39.047695
20
264.428626
70
0
0
VERTEX
8
Layer 1
10
38.544510
20
264.686482
70
0
0
VERTEX
8
Layer 1
10
36.865497
20
265.486282
70
0
0
VERTEX
8
Layer 1
10
35.390687
20
266.146638
70
0
0
VERTEX
8
Layer 1
10
30.109365
20
268.122417
70
0
0
VERTEX
8
Layer 1
10
24.546218
20
269.737600
70
0
0
VERTEX
8
Layer 1
10
18.968186
20
270.925045
70
0
0
VERTEX
8
Layer 1
10
13.642212
20
271.617613
70
0
0
VERTEX
8
Layer 1
10
11.011662
20
271.716880
70
0
0
VERTEX
8
Layer 1
10
10.357925
20
271.727988
70
0
0
VERTEX
8
Layer 1
10
9.363610
20
271.700808
70
0
0
VERTEX
8
Layer 1
10
8.762815
20
271.674574
70
0
0
VERTEX
8
Layer 1
10
7.223010
20
271.484078
70
0
0
VERTEX
8
Layer 1
10
6.937029
20
271.312254
70
0
0
VERTEX
8
Layer 1
10
6.667120
20
270.932679
70
0
0
VERTEX
8
Layer 1
10
6.730698
20
270.698222
70
0
0
VERTEX
8
Layer 1
10
6.843671
20
270.431385
70
0
0
VERTEX
8
Layer 1
10
7.867294
20
269.213249
70
0
0
VERTEX
8
Layer 1
10
9.250873
20
267.872450
70
0
0
VERTEX
8
Layer 1
10
10.515569
20
266.805340
70
0
0
VERTEX
8
Layer 1
10
14.119871
20
264.348742
70
0
0
VERTEX
8
Layer 1
10
14.558768
20
264.088287
70
0
0
VERTEX
8
Layer 1
10
17.153866
20
262.566681
70
0
0
VERTEX
8
Layer 1
10
19.035666
20
261.560076
70
0
0
VERTEX
8
Layer 1
10
26.452255
20
257.929304
70
0
0
VERTEX
8
Layer 1
10
28.244007
20
257.177009
70
0
0
VERTEX
8
Layer 1
10
29.593079
20
256.626319
70
0
0
VERTEX
8
Layer 1
10
35.629398
20
254.376052
70
0
0
VERTEX
8
Layer 1
10
36.246738
20
254.109689
70
0
0
VERTEX
8
Layer 1
10
36.193087
20
253.791801
70
0
0
VERTEX
8
Layer 1
10
35.466114
20
250.393077
70
0
0
VERTEX
8
Layer 1
10
35.106597
20
246.651029
70
0
0
VERTEX
8
Layer 1
10
35.097852
20
246.353704
70
0
0
VERTEX
8
Layer 1
10
35.083435
20
246.221586
70
0
0
VERTEX
8
Layer 1
10
34.965025
20
245.854538
70
0
0
VERTEX
8
Layer 1
10
34.578123
20
245.994693
70
0
0
VERTEX
8
Layer 1
10
33.756815
20
246.361504
70
0
0
VERTEX
8
Layer 1
10
32.319822
20
246.983335
70
0
0
VERTEX
8
Layer 1
10
31.413901
20
247.351800
70
0
0
VERTEX
8
Layer 1
10
27.299561
20
248.894678
70
0
0
VERTEX
8
Layer 1
10
23.057885
20
250.227544
70
0
0
VERTEX
8
Layer 1
10
18.662273
20
251.366173
70
0
0
VERTEX
8
Layer 1
10
14.274324
20
252.272942
70
0
0
VERTEX
8
Layer 1
10
10.055636
20
252.910224
70
0
0
VERTEX
8
Layer 1
10
7.411143
20
253.136882
70
0
0
VERTEX
8
Layer 1
10
5.055939
20
253.280817
70
0
0
VERTEX
8
Layer 1
10
4.153799
20
253.308470
70
0
0
VERTEX
8
Layer 1
10
3.110797
20
253.298076
70
0
0
VERTEX
8
Layer 1
10
2.945354
20
253.089618
70
0
0
VERTEX
8
Layer 1
10
2.916046
20
252.906921
70
0
0
VERTEX
8
Layer 1
10
2.916288
20
252.901487
70
0
0
VERTEX
8
Layer 1
10
2.916046
20
252.896054
70
0
0
VERTEX
8
Layer 1
10
2.958353
20
252.645762
70
0
0
VERTEX
8
Layer 1
10
3.384960
20
251.152990
70
0
0
VERTEX
8
Layer 1
10
5.167960
20
246.432569
70
0
0
VERTEX
8
Layer 1
10
7.420124
20
241.239860
70
0
0
VERTEX
8
Layer 1
10
7.420124
20
241.239618
70
0
0
VERTEX
8
Layer 1
10
7.846495
20
240.315500
70
0
0
VERTEX
8
Layer 1
10
9.814131
20
236.299343
70
0
0
VERTEX
8
Layer 1
10
11.602768
20
233.067661
70
0
0
VERTEX
8
Layer 1
10
12.414859
20
231.831090
70
0
0
VERTEX
8
Layer 1
10
12.519088
20
231.710080
70
0
0
VERTEX
8
Layer 1
10
12.580302
20
231.699686
70
0
0
VERTEX
8
Layer 1
10
13.233714
20
231.561967
70
0
0
VERTEX
8
Layer 1
10
14.472501
20
231.611292
70
0
0
VERTEX
8
Layer 1
10
15.237795
20
231.625945
70
0
0
VERTEX
8
Layer 1
10
17.309618
20
231.604674
70
0
0
VERTEX
8
Layer 1
10
19.251451
20
231.584112
70
0
0
VERTEX
8
Layer 1
10
25.363401
20
231.381561
70
0
0
VERTEX
8
Layer 1
10
27.027288
20
231.255825
70
0
0
VERTEX
8
Layer 1
10
27.460750
20
231.218245
70
0
0
VERTEX
8
Layer 1
10
28.177829
20
231.059893
70
0
0
VERTEX
8
Layer 1
10
28.141904
20
230.827563
70
0
0
VERTEX
8
Layer 1
10
28.018294
20
230.405445
70
0
0
VERTEX
8
Layer 1
10
24.697846
20
218.797230
70
0
0
VERTEX
8
Layer 1
10
24.707773
20
218.728926
70
0
0
VERTEX
8
Layer 1
10
24.697846
20
218.676930
70
0
0
VERTEX
8
Layer 1
10
24.838000
20
218.546938
70
0
0
VERTEX
8
Layer 1
10
26.997036
20
217.633927
70
0
0
VERTEX
8
Layer 1
10
32.646927
20
215.530670
70
0
0
VERTEX
8
Layer 1
10
32.714522
20
215.493799
70
0
0
VERTEX
8
Layer 1
10
33.073298
20
215.117297
70
0
0
VERTEX
8
Layer 1
10
33.168073
20
214.886859
70
0
0
VERTEX
8
Layer 1
10
33.554974
20
213.796115
70
0
0
VERTEX
8
Layer 1
10
33.595863
20
213.687394
70
0
0
VERTEX
8
Layer 1
10
33.730108
20
213.079981
70
0
0
VERTEX
8
Layer 1
10
33.657549
20
212.810544
70
0
0
VERTEX
8
Layer 1
10
33.421683
20
212.505446
70
0
0
VERTEX
8
Layer 1
10
32.826551
20
212.375428
70
0
0
VERTEX
8
Layer 1
10
31.655212
20
212.080702
70
0
0
VERTEX
8
Layer 1
10
30.928916
20
211.765414
70
0
0
VERTEX
8
Layer 1
10
30.056974
20
211.217435
70
0
0
VERTEX
8
Layer 1
10
29.496176
20
210.618656
70
0
0
VERTEX
8
Layer 1
10
29.105966
20
210.341657
70
0
0
VERTEX
8
Layer 1
10
28.691176
20
210.889038
70
0
0
VERTEX
8
Layer 1
10
27.573961
20
212.214239
70
0
0
VERTEX
8
Layer 1
10
27.390555
20
212.408517
70
0
0
VERTEX
8
Layer 1
10
27.285853
20
212.519601
70
0
0
VERTEX
8
Layer 1
10
26.410113
20
213.344116
70
0
0
VERTEX
8
Layer 1
10
25.900383
20
213.523605
70
0
0
VERTEX
8
Layer 1
10
25.894002
20
213.524573
70
0
0
VERTEX
8
Layer 1
10
25.888093
20
213.524331
70
0
0
VERTEX
8
Layer 1
10
25.882893
20
213.524573
70
0
0
VERTEX
8
Layer 1
10
25.868240
20
213.524089
70
0
0
VERTEX
8
Layer 1
10
25.862804
20
213.524573
70
0
0
VERTEX
8
Layer 1
10
25.837751
20
213.522685
70
0
0
VERTEX
8
Layer 1
10
25.259821
20
213.286136
70
0
0
VERTEX
8
Layer 1
10
24.975082
20
212.604475
70
0
0
VERTEX
8
Layer 1
10
24.741570
20
212.010533
70
0
0
VERTEX
8
Layer 1
10
24.641123
20
211.901813
70
0
0
VERTEX
8
Layer 1
10
24.372918
20
211.342333
70
0
0
VERTEX
8
Layer 1
10
24.239332
20
210.447093
70
0
0
VERTEX
8
Layer 1
10
24.213806
20
209.960453
70
0
0
VERTEX
8
Layer 1
10
24.239568
20
209.257083
70
0
0
VERTEX
8
Layer 1
10
24.552142
20
206.609308
70
0
0
VERTEX
8
Layer 1
10
25.253972
20
203.541015
70
0
0
VERTEX
8
Layer 1
10
25.729031
20
201.828912
70
0
0
VERTEX
8
Layer 1
10
27.043833
20
198.139762
70
0
0
VERTEX
8
Layer 1
10
27.863250
20
196.266942
70
0
0
VERTEX
8
Layer 1
10
29.109511
20
193.860215
70
0
0
VERTEX
8
Layer 1
10
30.653357
20
191.710632
70
0
0
VERTEX
8
Layer 1
10
31.356048
20
191.048549
70
0
0
VERTEX
8
Layer 1
10
32.039277
20
190.632178
70
0
0
VERTEX
8
Layer 1
10
32.819523
20
190.465460
70
0
0
VERTEX
8
Layer 1
10
33.430419
20
190.794312
70
0
0
VERTEX
8
Layer 1
10
33.685911
20
191.049804
70
0
0
VERTEX
8
Layer 1
10
34.486184
20
190.788641
70
0
0
VERTEX
8
Layer 1
10
34.549053
20
190.769733
70
0
0
VERTEX
8
Layer 1
10
35.515715
20
190.510459
70
0
0
VERTEX
8
Layer 1
10
36.012281
20
190.407884
70
0
0
VERTEX
8
Layer 1
10
39.158515
20
190.295234
70
0
0
VERTEX
8
Layer 1
10
43.030861
20
190.412615
70
0
0
VERTEX
8
Layer 1
10
45.956372
20
190.610438
70
0
0
VERTEX
8
Layer 1
10
47.429763
20
190.689851
70
0
0
VERTEX
8
Layer 1
10
47.361933
20
190.185013
70
0
0
VERTEX
8
Layer 1
10
47.445363
20
189.520403
70
0
0
VERTEX
8
Layer 1
10
47.665545
20
189.295604
70
0
0
VERTEX
8
Layer 1
10
48.016379
20
189.217169
70
0
0
VERTEX
8
Layer 1
10
49.034564
20
189.460843
70
0
0
VERTEX
8
Layer 1
10
49.637488
20
189.720116
70
0
0
VERTEX
8
Layer 1
10
50.032188
20
189.289491
70
0
0
VERTEX
8
Layer 1
10
50.260500
20
189.054561
70
0
0
VERTEX
8
Layer 1
10
50.527572
20
188.838303
70
0
0
VERTEX
8
Layer 1
10
51.404895
20
189.352832
70
0
0
VERTEX
8
Layer 1
10
51.541977
20
189.477623
70
0
0
VERTEX
8
Layer 1
10
51.675986
20
189.540729
70
0
0
VERTEX
8
Layer 1
10
51.746654
20
189.519694
70
0
0
VERTEX
8
Layer 1
10
52.053433
20
189.212914
70
0
0
VERTEX
8
Layer 1
10
52.347797
20
188.968087
70
0
0
VERTEX
8
Layer 1
10
52.630041
20
188.909586
70
0
0
VERTEX
8
Layer 1
10
53.558731
20
189.401756
70
0
0
VERTEX
8
Layer 1
10
54.159055
20
189.805911
70
0
0
VERTEX
8
Layer 1
10
54.239412
20
189.717989
70
0
0
VERTEX
8
Layer 1
10
54.567227
20
189.323761
70
0
0
VERTEX
8
Layer 1
10
54.984537
20
188.928228
70
0
0
VERTEX
8
Layer 1
10
55.386903
20
188.825465
70
0
0
VERTEX
8
Layer 1
10
55.844681
20
189.023256
70
0
0
VERTEX
8
Layer 1
10
56.428228
20
189.529384
70
0
0
VERTEX
8
Layer 1
10
56.961428
20
190.057149
70
0
0
VERTEX
8
Layer 1
10
57.193050
20
190.201557
70
0
0
VERTEX
8
Layer 1
10
57.702379
20
190.057149
70
0
0
VERTEX
8
Layer 1
10
58.391332
20
189.884851
70
0
0
VERTEX
8
Layer 1
10
58.812504
20
189.760768
70
0
0
VERTEX
8
Layer 1
10
59.104629
20
189.911322
70
0
0
VERTEX
8
Layer 1
10
59.547308
20
190.108199
70
0
0
VERTEX
8
Layer 1
10
60.186392
20
190.431995
70
0
0
VERTEX
8
Layer 1
10
60.865892
20
189.768803
70
0
0
VERTEX
8
Layer 1
10
60.915762
20
189.721771
70
0
0
VERTEX
8
Layer 1
10
61.332679
20
189.354959
70
0
0
VERTEX
8
Layer 1
10
61.826928
20
189.043652
70
0
0
VERTEX
8
Layer 1
10
62.215935
20
188.976289
70
0
0
VERTEX
8
Layer 1
10
62.508027
20
189.152443
70
0
0
VERTEX
8
Layer 1
10
62.711531
20
189.571690
70
0
0
VERTEX
8
Layer 1
10
62.773690
20
189.763605
70
0
0
VERTEX
8
Layer 1
10
62.898955
20
190.039422
70
0
0
VERTEX
8
Layer 1
10
63.738461
20
189.564363
70
0
0
VERTEX
8
Layer 1
10
64.740812
20
189.080323
70
0
0
VERTEX
8
Layer 1
10
65.136608
20
189.286549
70
0
0
VERTEX
8
Layer 1
10
65.357206
20
189.656539
70
0
0
VERTEX
8
Layer 1
10
65.357448
20
189.659371
70
0
0
VERTEX
8
Layer 1
10
65.514856
20
189.760054
70
0
0
VERTEX
8
Layer 1
10
65.568979
20
189.743274
70
0
0
VERTEX
8
Layer 1
10
66.420775
20
189.593902
70
0
0
VERTEX
8
Layer 1
10
66.994702
20
189.592092
70
0
0
VERTEX
8
Layer 1
10
67.203560
20
189.912262
70
0
0
VERTEX
8
Layer 1
10
67.347731
20
190.185244
70
0
0
VERTEX
8
Layer 1
10
67.363803
20
190.195880
70
0
0
VERTEX
8
Layer 1
10
67.668928
20
190.282856
70
0
0
VERTEX
8
Layer 1
10
67.720925
20
190.286874
70
0
0
VERTEX
8
Layer 1
10
67.722583
20
190.286874
70
0
0
VERTEX
8
Layer 1
10
67.876208
20
190.289706
70
0
0
VERTEX
8
Layer 1
10
67.879984
20
190.289948
70
0
0
VERTEX
8
Layer 1
10
67.945689
20
190.290432
70
0
0
VERTEX
8
Layer 1
10
68.062680
20
190.295865
70
0
0
VERTEX
8
Layer 1
10
68.118696
20
190.298467
70
0
0
VERTEX
8
Layer 1
10
68.760972
20
190.494131
70
0
0
VERTEX
8
Layer 1
10
68.987746
20
190.944405
70
0
0
VERTEX
8
Layer 1
10
69.097145
20
191.114741
70
0
0
VERTEX
8
Layer 1
10
69.822525
20
191.186425
70
0
0
VERTEX
8
Layer 1
10
70.837166
20
191.159718
70
0
0
VERTEX
8
Layer 1
10
74.663162
20
191.239603
70
0
0
VERTEX
8
Layer 1
10
77.206365
20
191.389182
70
0
0
VERTEX
8
Layer 1
10
80.120429
20
191.735460
70
0
0
VERTEX
8
Layer 1
10
81.520553
20
191.924775
70
0
0
VERTEX
8
Layer 1
10
81.751464
20
191.954082
70
0
0
VERTEX
8
Layer 1
10
81.775572
20
191.933047
70
0
0
VERTEX
8
Layer 1
10
82.056589
20
191.624377
70
0
0
VERTEX
8
Layer 1
10
82.520028
20
191.236008
70
0
0
VERTEX
8
Layer 1
10
83.028687
20
191.037999
70
0
0
VERTEX
8
Layer 1
10
83.043814
20
191.035869
70
0
0
VERTEX
8
Layer 1
10
83.565800
20
191.027383
70
0
0
VERTEX
8
Layer 1
10
84.129358
20
191.187367
70
0
0
VERTEX
8
Layer 1
10
84.842824
20
191.679220
70
0
0
VERTEX
8
Layer 1
10
85.656400
20
192.555348
70
0
0
VERTEX
8
Layer 1
10
86.662769
20
193.974615
70
0
0
VERTEX
8
Layer 1
10
87.789675
20
196.068184
70
0
0
VERTEX
8
Layer 1
10
88.961065
20
199.072582
70
0
0
VERTEX
8
Layer 1
10
89.872980
20
202.248100
70
0
0
VERTEX
8
Layer 1
10
90.493232
20
205.359855
70
0
0
VERTEX
8
Layer 1
10
90.789635
20
208.172964
70
0
0
VERTEX
8
Layer 1
10
90.827923
20
209.337922
70
0
0
VERTEX
8
Layer 1
10
90.803107
20
209.488712
70
0
0
VERTEX
8
Layer 1
10
90.576947
20
211.246139
70
0
0
VERTEX
8
Layer 1
10
90.339967
20
211.863545
70
0
0
VERTEX
8
Layer 1
10
90.016069
20
212.276668
70
0
0
VERTEX
8
Layer 1
10
89.557318
20
212.880301
70
0
0
VERTEX
8
Layer 1
10
89.355241
20
213.236477
70
0
0
VERTEX
8
Layer 1
10
88.961959
20
213.482987
70
0
0
VERTEX
8
Layer 1
10
88.810459
20
213.519148
70
0
0
VERTEX
8
Layer 1
10
88.787770
20
213.521278
70
0
0
VERTEX
8
Layer 1
10
88.752082
20
213.524582
70
0
0
VERTEX
8
Layer 1
10
88.746878
20
213.523613
70
0
0
VERTEX
8
Layer 1
10
88.736011
20
213.524582
70
0
0
VERTEX
8
Layer 1
10
88.583095
20
213.503548
70
0
0
VERTEX
8
Layer 1
10
87.973554
20
213.105537
70
0
0
VERTEX
8
Layer 1
10
87.743115
20
212.893298
70
0
0
VERTEX
8
Layer 1
10
87.558291
20
212.768978
70
0
0
VERTEX
8
Layer 1
10
87.412937
20
212.732345
70
0
0
VERTEX
8
Layer 1
10
87.183160
20
212.701829
70
0
0
VERTEX
8
Layer 1
10
86.894391
20
212.470944
70
0
0
VERTEX
8
Layer 1
10
86.430203
20
211.865658
70
0
0
VERTEX
8
Layer 1
10
85.755904
20
210.657212
70
0
0
VERTEX
8
Layer 1
10
85.097675
20
209.338865
70
0
0
VERTEX
8
Layer 1
10
85.008336
20
209.198238
70
0
0
VERTEX
8
Layer 1
10
84.218934
20
209.923117
70
0
0
VERTEX
8
Layer 1
10
82.198293
20
211.622327
70
0
0
VERTEX
8
Layer 1
10
81.279907
20
212.168985
70
0
0
VERTEX
8
Layer 1
10
80.481332
20
212.473780
70
0
0
VERTEX
8
Layer 1
10
80.176235
20
212.678607
70
0
0
VERTEX
8
Layer 1
10
79.870138
20
213.187077
70
0
0
VERTEX
8
Layer 1
10
78.645384
20
215.642257
70
0
0
VERTEX
8
Layer 1
10
77.497232
20
218.120512
70
0
0
VERTEX
8
Layer 1
10
76.622884
20
220.473517
70
0
0
VERTEX
8
Layer 1
10
76.024391
20
222.694955
70
0
0
VERTEX
8
Layer 1
10
75.703802
20
224.778512
70
0
0
VERTEX
8
Layer 1
10
75.570029
20
226.080315
70
0
0
VERTEX
8
Layer 1
10
75.551357
20
226.356605
70
0
0
VERTEX
8
Layer 1
10
75.642824
20
226.663621
70
0
0
VERTEX
8
Layer 1
10
76.454678
20
227.592940
70
0
0
VERTEX
8
Layer 1
10
77.820531
20
229.134872
70
0
0
VERTEX
8
Layer 1
10
78.306934
20
229.739922
70
0
0
VERTEX
8
Layer 1
10
79.663334
20
231.841762
70
0
0
VERTEX
8
Layer 1
10
80.409483
20
233.234558
70
0
0
VERTEX
8
Layer 1
10
80.939375
20
234.398807
70
0
0
VERTEX
8
Layer 1
10
81.311536
20
235.970071
70
0
0
VERTEX
8
Layer 1
10
81.440904
20
237.624007
70
0
0
VERTEX
8
Layer 1
10
81.122669
20
240.130208
70
0
0
VERTEX
8
Layer 1
10
80.000602
20
243.656072
70
0
0
VERTEX
8
Layer 1
10
78.810757
20
247.254778
70
0
0
VERTEX
8
Layer 1
10
77.929960
20
250.977177
70
0
0
VERTEX
8
Layer 1
10
77.208786
20
253.899305
70
0
0
VERTEX
8
Layer 1
10
76.278126
20
256.422627
70
0
0
VERTEX
8
Layer 1
10
75.691511
20
257.812351
70
0
0
VERTEX
8
Layer 1
10
75.653695
20
258.499651
70
0
0
VERTEX
8
Layer 1
10
75.650392
20
258.671239
70
0
0
VERTEX
8
Layer 1
10
75.642829
20
259.508855
70
0
0
VERTEX
8
Layer 1
10
75.607850
20
261.447378
70
0
0
VERTEX
8
Layer 1
10
75.546871
20
263.239603
70
0
0
VERTEX
8
Layer 1
10
75.345596
20
266.423748
70
0
0
VERTEX
8
Layer 1
10
74.989220
20
269.461444
70
0
0
VERTEX
8
Layer 1
10
74.452741
20
272.543815
70
0
0
VERTEX
8
Layer 1
10
73.711159
20
275.861985
70
0
0
VERTEX
8
Layer 1
10
72.223016
20
280.918737
70
0
0
VERTEX
8
Layer 1
10
70.317600
20
285.767209
70
0
0
VERTEX
8
Layer 1
10
68.143319
20
290.074321
70
0
0
VERTEX
8
Layer 1
10
67.001732
20
291.920780
70
0
0
VERTEX
8
Layer 1
10
65.848582
20
293.506993
70
0
0
VERTEX
8
Layer 1
10
65.024730
20
294.437941
70
0
0
VERTEX
8
Layer 1
10
64.376845
20
294.941150
70
0
0
VERTEX
8
Layer 1
10
64.098192
20
295.066651
70
0
0
VERTEX
8
Layer 1
10
64.097933
20
295.066595
70
0
0
SEQEND
8
Layer 1
0
POLYLINE
8
Layer 1
62
7
70
1
10
0.000000
20
0.000000
66
1
0
VERTEX
8
Layer 1
10
36.777089
20
228.933921
70
0
0
VERTEX
8
Layer 1
10
37.755096
20
226.978144
70
0
0
VERTEX
8
Layer 1
10
35.921511
20
219.521612
70
0
0
VERTEX
8
Layer 1
10
32.009721
20
221.477389
70
0
0
VERTEX
8
Layer 1
10
36.777089
20
228.933921
70
0
0
SEQEND
8
Layer 1
0
POLYLINE
8
Layer 1
62
7
70
0
10
0.000000
20
0.000000
66
1
0
VERTEX
8
Layer 1
10
50.596809
20
188.850304
70
0
0
VERTEX
8
Layer 1
10
50.527323
20
188.838481
70
0
0
VERTEX
8
Layer 1
10
50.527565
20
188.838239
70
0
0
VERTEX
8
Layer 1
10
50.596815
20
188.850292
70
0
0
VERTEX
8
Layer 1
10
50.596809
20
188.850304
70
0
0
SEQEND
8
Layer 1
0
POLYLINE
8
Layer 1
62
7
70
0
10
0.000000
20
0.000000
66
1
0
VERTEX
8
Layer 1
10
55.721063
20
188.945316
70
0
0
VERTEX
8
Layer 1
10
55.493224
20
188.846522
70
0
0
VERTEX
8
Layer 1
10
55.721063
20
188.945316
70
0
0
VERTEX
8
Layer 1
10
55.721063
20
188.945316
70
0
0
SEQEND
8
Layer 1
0
POLYLINE
8
Layer 1
62
7
70
0
10
0.000000
20
0.000000
66
1
0
VERTEX
8
Layer 1
10
52.893872
20
188.995657
70
0
0
VERTEX
8
Layer 1
10
52.629872
20
188.909626
70
0
0
VERTEX
8
Layer 1
10
52.893872
20
188.995657
70
0
0
VERTEX
8
Layer 1
10
52.893872
20
188.995657
70
0
0
SEQEND
8
Layer 1
0
POLYLINE
8
Layer 1
62
7
70
0
10
0.000000
20
0.000000
66
1
0
VERTEX
8
Layer 1
10
52.279132
20
189.012438
70
0
0
VERTEX
8
Layer 1
10
52.415505
20
188.935625
70
0
0
VERTEX
8
Layer 1
10
52.279132
20
189.012438
70
0
0
VERTEX
8
Layer 1
10
52.279132
20
189.012438
70
0
0
SEQEND
8
Layer 1
0
POLYLINE
8
Layer 1
62
7
70
0
10
0.000000
20
0.000000
66
1
0
VERTEX
8
Layer 1
10
54.782054
20
189.089960
70
0
0
VERTEX
8
Layer 1
10
54.984367
20
188.928298
70
0
0
VERTEX
8
Layer 1
10
54.782054
20
189.089960
70
0
0
VERTEX
8
Layer 1
10
54.782054
20
189.089960
70
0
0
SEQEND
8
Layer 1
0
POLYLINE
8
Layer 1
62
7
70
0
10
0.000000
20
0.000000
66
1
0
VERTEX
8
Layer 1
10
64.688801
20
189.090196
70
0
0
VERTEX
8
Layer 1
10
64.740798
20
189.080274
70
0
0
VERTEX
8
Layer 1
10
64.786177
20
189.084533
70
0
0
VERTEX
8
Layer 1
10
64.740562
20
189.080516
70
0
0
VERTEX
8
Layer 1
10
64.688801
20
189.090208
70
0
0
VERTEX
8
Layer 1
10
64.688801
20
189.090196
70
0
0
SEQEND
8
Layer 1
0
POLYLINE
8
Layer 1
62
7
70
0
10
0.000000
20
0.000000
66
1
0
VERTEX
8
Layer 1
10
65.038361
20
189.205061
70
0
0
VERTEX
8
Layer 1
10
64.834156
20
189.096105
70
0
0
VERTEX
8
Layer 1
10
65.038361
20
189.205061
70
0
0
VERTEX
8
Layer 1
10
65.038361
20
189.205061
70
0
0
SEQEND
8
Layer 1
0
POLYLINE
8
Layer 1
62
7
70
0
10
0.000000
20
0.000000
66
1
0
VERTEX
8
Layer 1
10
48.230969
20
189.226097
70
0
0
VERTEX
8
Layer 1
10
48.016130
20
189.217348
70
0
0
VERTEX
8
Layer 1
10
47.916627
20
189.223023
70
0
0
VERTEX
8
Layer 1
10
48.016366
20
189.217118
70
0
0
VERTEX
8
Layer 1
10
48.230969
20
189.226097
70
0
0
VERTEX
8
Layer 1
10
48.230969
20
189.226097
70
0
0
SEQEND
8
Layer 1
0
POLYLINE
8
Layer 1
62
7
70
0
10
0.000000
20
0.000000
66
1
0
VERTEX
8
Layer 1
10
48.603453
20
189.303855
70
0
0
VERTEX
8
Layer 1
10
48.348434
20
189.243350
70
0
0
VERTEX
8
Layer 1
10
48.603453
20
189.303855
70
0
0
VERTEX
8
Layer 1
10
48.603453
20
189.303855
70
0
0
SEQEND
8
Layer 1
0
POLYLINE
8
Layer 1
62
7
70
0
10
0.000000
20
0.000000
66
1
0
VERTEX
8
Layer 1
10
48.884235
20
189.399575
70
0
0
VERTEX
8
Layer 1
10
48.603453
20
189.303855
70
0
0
VERTEX
8
Layer 1
10
48.884235
20
189.399575
70
0
0
VERTEX
8
Layer 1
10
48.884235
20
189.399575
70
0
0
SEQEND
8
Layer 1
0
POLYLINE
8
Layer 1
62
7
70
0
10
0.000000
20
0.000000
66
1
0
VERTEX
8
Layer 1
10
51.616177
20
189.520349
70
0
0
VERTEX
8
Layer 1
10
51.541727
20
189.477807
70
0
0
VERTEX
8
Layer 1
10
51.404646
20
189.353016
70
0
0
VERTEX
8
Layer 1
10
50.920606
20
189.003220
70
0
0
VERTEX
8
Layer 1
10
51.404881
20
189.352778
70
0
0
VERTEX
8
Layer 1
10
51.541964
20
189.477570
70
0
0
VERTEX
8
Layer 1
10
51.616177
20
189.520349
70
0
0
VERTEX
8
Layer 1
10
51.616177
20
189.520349
70
0
0
SEQEND
8
Layer 1
0
POLYLINE
8
Layer 1
62
7
70
0
10
0.000000
20
0.000000
66
1
0
VERTEX
8
Layer 1
10
51.675737
20
189.540911
70
0
0
VERTEX
8
Layer 1
10
51.616177
20
189.520349
70
0
0
VERTEX
8
Layer 1
10
51.675973
20
189.540675
70
0
0
VERTEX
8
Layer 1
10
51.746640
20
189.519640
70
0
0
VERTEX
8
Layer 1
10
51.746398
20
189.519882
70
0
0
VERTEX
8
Layer 1
10
51.675731
20
189.540917
70
0
0
VERTEX
8
Layer 1
10
51.675737
20
189.540911
70
0
0
SEQEND
8
Layer 1
0
POLYLINE
8
Layer 1
62
7
70
0
10
0.000000
20
0.000000
66
1
0
VERTEX
8
Layer 1
10
66.953959
20
189.579200
70
0
0
VERTEX
8
Layer 1
10
66.787570
20
189.566673
70
0
0
VERTEX
8
Layer 1
10
66.953959
20
189.579200
70
0
0
VERTEX
8
Layer 1
10
66.953959
20
189.579200
70
0
0
SEQEND
8
Layer 1
0
POLYLINE
8
Layer 1
62
7
70
0
10
0.000000
20
0.000000
66
1
0
VERTEX
8
Layer 1
10
67.029353
20
189.609925
70
0
0
VERTEX
8
Layer 1
10
66.954195
20
189.579200
70
0
0
VERTEX
8
Layer 1
10
67.029353
20
189.609925
70
0
0
VERTEX
8
Layer 1
10
67.029353
20
189.609925
70
0
0
SEQEND
8
Layer 1
0
POLYLINE
8
Layer 1
62
7
70
0
10
0.000000
20
0.000000
66
1
0
VERTEX
8
Layer 1
10
67.086076
20
189.662395
70
0
0
VERTEX
8
Layer 1
10
67.059369
20
189.633087
70
0
0
VERTEX
8
Layer 1
10
67.086076
20
189.662395
70
0
0
VERTEX
8
Layer 1
10
67.086076
20
189.662395
70
0
0
SEQEND
8
Layer 1
0
POLYLINE
8
Layer 1
62
7
70
0
10
0.000000
20
0.000000
66
1
0
VERTEX
8
Layer 1
10
65.396900
20
189.699974
70
0
0
VERTEX
8
Layer 1
10
65.357193
20
189.659322
70
0
0
VERTEX
8
Layer 1
10
65.356951
20
189.656720
70
0
0
VERTEX
8
Layer 1
10
65.352691
20
189.614178
70
0
0
VERTEX
8
Layer 1
10
65.357181
20
189.656484
70
0
0
VERTEX
8
Layer 1
10
65.357423
20
189.659316
70
0
0
VERTEX
8
Layer 1
10
65.396893
20
189.699968
70
0
0
VERTEX
8
Layer 1
10
65.396900
20
189.699974
70
0
0
SEQEND
8
Layer 1
0
POLYLINE
8
Layer 1
62
7
70
0
10
0.000000
20
0.000000
66
1
0
VERTEX
8
Layer 1
10
65.701552
20
189.703755
70
0
0
VERTEX
8
Layer 1
10
66.393341
20
189.596926
70
0
0
VERTEX
8
Layer 1
10
65.701552
20
189.703755
70
0
0
VERTEX
8
Layer 1
10
65.701552
20
189.703755
70
0
0
SEQEND
8
Layer 1
0
POLYLINE
8
Layer 1
62
7
70
0
10
0.000000
20
0.000000
66
1
0
VERTEX
8
Layer 1
10
49.637238
20
189.720299
70
0
0
VERTEX
8
Layer 1
10
49.034315
20
189.461027
70
0
0
VERTEX
8
Layer 1
10
48.884471
20
189.399575
70
0
0
VERTEX
8
Layer 1
10
49.034551
20
189.460789
70
0
0
VERTEX
8
Layer 1
10
49.637475
20
189.720063
70
0
0
VERTEX
8
Layer 1
10
49.637238
20
189.720299
70
0
0
SEQEND
8
Layer 1
0
POLYLINE
8
Layer 1
62
7
70
0
10
0.000000
20
0.000000
66
1
0
VERTEX
8
Layer 1
10
54.158805
20
189.806094
70
0
0
VERTEX
8
Layer 1
10
53.558482
20
189.401939
70
0
0
VERTEX
8
Layer 1
10
53.249576
20
189.198681
70
0
0
VERTEX
8
Layer 1
10
53.558718
20
189.401703
70
0
0
VERTEX
8
Layer 1
10
54.159041
20
189.805858
70
0
0
VERTEX
8
Layer 1
10
54.158805
20
189.806094
70
0
0
SEQEND
8
Layer 1
0
POLYLINE
8
Layer 1
62
7
70
0
10
0.000000
20
0.000000
66
1
0
VERTEX
8
Layer 1
10
62.668266
20
189.444245
70
0
0
VERTEX
8
Layer 1
10
62.507786
20
189.152593
70
0
0
VERTEX
8
Layer 1
10
62.668266
20
189.444245
70
0
0
VERTEX
8
Layer 1
10
62.668266
20
189.444245
70
0
0
SEQEND
8
Layer 1
0
POLYLINE
8
Layer 1
62
7
70
0
10
0.000000
20
0.000000
66
1
0
VERTEX
8
Layer 1
10
62.844345
20
189.943175
70
0
0
VERTEX
8
Layer 1
10
62.773441
20
189.763788
70
0
0
VERTEX
8
Layer 1
10
62.711281
20
189.571873
70
0
0
VERTEX
8
Layer 1
10
62.668266
20
189.444245
70
0
0
VERTEX
8
Layer 1
10
62.711517
20
189.571637
70
0
0
VERTEX
8
Layer 1
10
62.773677
20
189.763552
70
0
0
VERTEX
8
Layer 1
10
62.844345
20
189.943175
70
0
0
VERTEX
8
Layer 1
10
62.844345
20
189.943175
70
0
0
SEQEND
8
Layer 1
0
POLYLINE
8
Layer 1
62
7
70
0
10
0.000000
20
0.000000
66
1
0
VERTEX
8
Layer 1
10
62.898705
20
190.039606
70
0
0
VERTEX
8
Layer 1
10
62.874361
20
190.003680
70
0
0
VERTEX
8
Layer 1
10
62.898941
20
190.039369
70
0
0
VERTEX
8
Layer 1
10
62.898699
20
190.039611
70
0
0
VERTEX
8
Layer 1
10
62.898705
20
190.039606
70
0
0
SEQEND
8
Layer 1
0
POLYLINE
8
Layer 1
62
7
70
0
10
0.000000
20
0.000000
66
1
0
VERTEX
8
Layer 1
10
67.272791
20
190.076948
70
0
0
VERTEX
8
Layer 1
10
67.203305
20
189.912214
70
0
0
VERTEX
8
Layer 1
10
67.155326
20
189.789785
70
0
0
VERTEX
8
Layer 1
10
67.203542
20
189.912214
70
0
0
VERTEX
8
Layer 1
10
67.272791
20
190.076948
70
0
0
VERTEX
8
Layer 1
10
67.272791
20
190.076948
70
0
0
SEQEND
8
Layer 1
0
POLYLINE
8
Layer 1
62
7
70
0
10
0.000000
20
0.000000
66
1
0
VERTEX
8
Layer 1
10
67.347477
20
190.185195
70
0
0
VERTEX
8
Layer 1
10
67.272791
20
190.076948
70
0
0
VERTEX
8
Layer 1
10
67.347713
20
190.185195
70
0
0
VERTEX
8
Layer 1
10
67.347471
20
190.185195
70
0
0
VERTEX
8
Layer 1
10
67.347477
20
190.185195
70
0
0
SEQEND
8
Layer 1
0
POLYLINE
8
Layer 1
62
7
70
0
10
0.000000
20
0.000000
66
1
0
VERTEX
8
Layer 1
10
67.668673
20
190.282807
70
0
0
VERTEX
8
Layer 1
10
67.420508
20
190.222538
70
0
0
VERTEX
8
Layer 1
10
67.668673
20
190.282807
70
0
0
VERTEX
8
Layer 1
10
67.668673
20
190.282807
70
0
0
SEQEND
8
Layer 1
0
POLYLINE
8
Layer 1
62
7
70
0
10
0.000000
20
0.000000
66
1
0
VERTEX
8
Layer 1
10
67.873350
20
190.289661
70
0
0
VERTEX
8
Layer 1
10
67.722561
20
190.287059
70
0
0
VERTEX
8
Layer 1
10
67.720673
20
190.287059
70
0
0
VERTEX
8
Layer 1
10
67.668913
20
190.282800
70
0
0
VERTEX
8
Layer 1
10
67.720910
20
190.286817
70
0
0
VERTEX
8
Layer 1
10
67.722326
20
190.286817
70
0
0
VERTEX
8
Layer 1
10
67.873353
20
190.289649
70
0
0
VERTEX
8
Layer 1
10
67.873350
20
190.289661
70
0
0
SEQEND
8
Layer 1
0
POLYLINE
8
Layer 1
62
7
70
0
10
0.000000
20
0.000000
66
1
0
VERTEX
8
Layer 1
10
68.315084
20
190.322041
70
0
0
VERTEX
8
Layer 1
10
68.118443
20
190.298642
70
0
0
VERTEX
8
Layer 1
10
68.062664
20
190.295810
70
0
0
VERTEX
8
Layer 1
10
68.118680
20
190.298412
70
0
0
VERTEX
8
Layer 1
10
68.315084
20
190.322047
70
0
0
VERTEX
8
Layer 1
10
68.315084
20
190.322041
70
0
0
SEQEND
8
Layer 1
0
POLYLINE
8
Layer 1
62
7
70
0
10
0.000000
20
0.000000
66
1
0
VERTEX
8
Layer 1
10
56.266554
20
189.373578
70
0
0
VERTEX
8
Layer 1
10
55.975845
20
189.120686
70
0
0
VERTEX
8
Layer 1
10
56.266554
20
189.373578
70
0
0
VERTEX
8
Layer 1
10
56.266554
20
189.373578
70
0
0
SEQEND
8
Layer 1
0
POLYLINE
8
Layer 1
62
7
70
0
10
0.000000
20
0.000000
66
1
0
VERTEX
8
Layer 1
10
57.087625
20
190.145252
70
0
0
VERTEX
8
Layer 1
10
56.961179
20
190.057331
70
0
0
VERTEX
8
Layer 1
10
56.427979
20
189.529567
70
0
0
VERTEX
8
Layer 1
10
56.266554
20
189.373578
70
0
0
VERTEX
8
Layer 1
10
56.428215
20
189.529331
70
0
0
VERTEX
8
Layer 1
10
56.961415
20
190.057095
70
0
0
VERTEX
8
Layer 1
10
57.087625
20
190.145252
70
0
0
VERTEX
8
Layer 1
10
57.087625
20
190.145252
70
0
0
SEQEND
8
Layer 1
0
POLYLINE
8
Layer 1
62
7
70
0
10
0.000000
20
0.000000
66
1
0
VERTEX
8
Layer 1
10
60.186143
20
190.432179
70
0
0
VERTEX
8
Layer 1
10
59.547059
20
190.108383
70
0
0
VERTEX
8
Layer 1
10
59.104380
20
189.911505
70
0
0
VERTEX
8
Layer 1
10
58.812253
20
189.760951
70
0
0
VERTEX
8
Layer 1
10
58.391083
20
189.885034
70
0
0
VERTEX
8
Layer 1
10
57.702129
20
190.057331
70
0
0
VERTEX
8
Layer 1
10
57.192799
20
190.201740
70
0
0
VERTEX
8
Layer 1
10
57.087625
20
190.145252
70
0
0
VERTEX
8
Layer 1
10
57.193037
20
190.201504
70
0
0
VERTEX
8
Layer 1
10
57.702365
20
190.057095
70
0
0
VERTEX
8
Layer 1
10
58.391319
20
189.884798
70
0
0
VERTEX
8
Layer 1
10
58.812490
20
189.760715
70
0
0
VERTEX
8
Layer 1
10
59.104616
20
189.911269
70
0
0
VERTEX
8
Layer 1
10
59.547295
20
190.108146
70
0
0
VERTEX
8
Layer 1
10
60.186379
20
190.431942
70
0
0
VERTEX
8
Layer 1
10
60.186143
20
190.432179
70
0
0
SEQEND
8
Layer 1
0
POLYLINE
8
Layer 1
62
7
70
0
10
0.000000
20
0.000000
66
1
0
VERTEX
8
Layer 1
10
68.813069
20
190.537117
70
0
0
VERTEX
8
Layer 1
10
68.636990
20
190.420361
70
0
0
VERTEX
8
Layer 1
10
68.813069
20
190.537117
70
0
0
VERTEX
8
Layer 1
10
68.813069
20
190.537117
70
0
0
SEQEND
8
Layer 1
0
POLYLINE
8
Layer 1
62
7
70
0
10
0.000000
20
0.000000
66
1
0
VERTEX
8
Layer 1
10
32.461145
20
190.488193
70
0
0
VERTEX
8
Layer 1
10
32.646914
20
190.461485
70
0
0
VERTEX
8
Layer 1
10
32.461145
20
190.488193
70
0
0
VERTEX
8
Layer 1
10
32.461145
20
190.488193
70
0
0
SEQEND
8
Layer 1
0
POLYLINE
8
Layer 1
62
7
70
0
10
0.000000
20
0.000000
66
1
0
VERTEX
8
Layer 1
10
32.283884
20
190.537354
70
0
0
VERTEX
8
Layer 1
10
32.461145
20
190.488193
70
0
0
VERTEX
8
Layer 1
10
32.283884
20
190.537354
70
0
0
VERTEX
8
Layer 1
10
32.283884
20
190.537354
70
0
0
SEQEND
8
Layer 1
0
POLYLINE
8
Layer 1
62
7
70
0
10
0.000000
20
0.000000
66
1
0
VERTEX
8
Layer 1
10
36.222618
20
190.381127
70
0
0
VERTEX
8
Layer 1
10
36.841376
20
190.338585
70
0
0
VERTEX
8
Layer 1
10
36.222618
20
190.381127
70
0
0
VERTEX
8
Layer 1
10
36.222618
20
190.381127
70
0
0
SEQEND
8
Layer 1
0
POLYLINE
8
Layer 1
62
7
70
0
10
0.000000
20
0.000000
66
1
0
VERTEX
8
Layer 1
10
35.295426
20
190.551534
70
0
0
VERTEX
8
Layer 1
10
35.515702
20
190.510410
70
0
0
VERTEX
8
Layer 1
10
36.012268
20
190.407834
70
0
0
VERTEX
8
Layer 1
10
36.222618
20
190.381127
70
0
0
VERTEX
8
Layer 1
10
36.012032
20
190.408071
70
0
0
VERTEX
8
Layer 1
10
35.515465
20
190.510646
70
0
0
VERTEX
8
Layer 1
10
35.295426
20
190.551534
70
0
0
VERTEX
8
Layer 1
10
35.295426
20
190.551534
70
0
0
SEQEND
8
Layer 1
0
POLYLINE
8
Layer 1
62
7
70
0
10
0.000000
20
0.000000
66
1
0
VERTEX
8
Layer 1
10
44.489113
20
190.519627
70
0
0
VERTEX
8
Layer 1
10
43.030612
20
190.412798
70
0
0
VERTEX
8
Layer 1
10
42.223485
20
190.361984
70
0
0
VERTEX
8
Layer 1
10
43.030848
20
190.412562
70
0
0
VERTEX
8
Layer 1
10
44.489113
20
190.519627
70
0
0
VERTEX
8
Layer 1
10
44.489113
20
190.519627
70
0
0
SEQEND
8
Layer 1
0
POLYLINE
8
Layer 1
62
7
70
0
10
0.000000
20
0.000000
66
1
0
VERTEX
8
Layer 1
10
47.429514
20
190.690034
70
0
0
VERTEX
8
Layer 1
10
45.956123
20
190.610622
70
0
0
VERTEX
8
Layer 1
10
44.489113
20
190.519627
70
0
0
VERTEX
8
Layer 1
10
45.956359
20
190.610384
70
0
0
VERTEX
8
Layer 1
10
47.429514
20
190.689797
70
0
0
VERTEX
8
Layer 1
10
47.429514
20
190.690034
70
0
0
SEQEND
8
Layer 1
0
POLYLINE
8
Layer 1
62
7
70
0
10
0.000000
20
0.000000
66
1
0
VERTEX
8
Layer 1
10
31.698687
20
190.811044
70
0
0
VERTEX
8
Layer 1
10
32.039028
20
190.632365
70
0
0
VERTEX
8
Layer 1
10
31.698687
20
190.811044
70
0
0
VERTEX
8
Layer 1
10
31.698687
20
190.811044
70
0
0
SEQEND
8
Layer 1
0
POLYLINE
8
Layer 1
62
7
70
0
10
0.000000
20
0.000000
66
1
0
VERTEX
8
Layer 1
10
68.989856
20
190.998940
70
0
0
VERTEX
8
Layer 1
10
68.987497
20
190.944580
70
0
0
VERTEX
8
Layer 1
10
68.983951
20
190.875331
70
0
0
VERTEX
8
Layer 1
10
68.987726
20
190.944344
70
0
0
VERTEX
8
Layer 1
10
68.989856
20
190.998940
70
0
0
VERTEX
8
Layer 1
10
68.989856
20
190.998940
70
0
0
SEQEND
8
Layer 1
0
POLYLINE
8
Layer 1
62
7
70
0
10
0.000000
20
0.000000
66
1
0
VERTEX
8
Layer 1
10
32.981346
20
190.500483
70
0
0
VERTEX
8
Layer 1
10
32.819448
20
190.465504
70
0
0
VERTEX
8
Layer 1
10
32.981346
20
190.500483
70
0
0
VERTEX
8
Layer 1
10
32.981346
20
190.500483
70
0
0
SEQEND
8
Layer 1
0
POLYLINE
8
Layer 1
62
7
70
0
10
0.000000
20
0.000000
66
1
0
VERTEX
8
Layer 1
10
33.357375
20
190.725486
70
0
0
VERTEX
8
Layer 1
10
32.981346
20
190.500483
70
0
0
VERTEX
8
Layer 1
10
33.357375
20
190.725486
70
0
0
VERTEX
8
Layer 1
10
33.357375
20
190.725486
70
0
0
SEQEND
8
Layer 1
0
POLYLINE
8
Layer 1
62
7
70
0
10
0.000000
20
0.000000
66
1
0
VERTEX
8
Layer 1
10
33.685662
20
191.049991
70
0
0
VERTEX
8
Layer 1
10
33.430170
20
190.794500
70
0
0
VERTEX
8
Layer 1
10
33.357375
20
190.725486
70
0
0
VERTEX
8
Layer 1
10
33.430406
20
190.794263
70
0
0
VERTEX
8
Layer 1
10
33.685898
20
191.049755
70
0
0
VERTEX
8
Layer 1
10
34.486171
20
190.788591
70
0
0
VERTEX
8
Layer 1
10
34.549040
20
190.769683
70
0
0
VERTEX
8
Layer 1
10
34.548798
20
190.769925
70
0
0
VERTEX
8
Layer 1
10
34.485929
20
190.788833
70
0
0
VERTEX
8
Layer 1
10
33.685662
20
191.049991
70
0
0
SEQEND
8
Layer 1
0
POLYLINE
8
Layer 1
62
7
70
0
10
0.000000
20
0.000000
66
1
0
VERTEX
8
Layer 1
10
83.043798
20
191.035811
70
0
0
VERTEX
8
Layer 1
10
83.565654
20
191.027304
70
0
0
VERTEX
8
Layer 1
10
83.043798
20
191.035811
70
0
0
VERTEX
8
Layer 1
10
83.043798
20
191.035811
70
0
0
SEQEND
8
Layer 1
0
POLYLINE
8
Layer 1
62
7
70
0
10
0.000000
20
0.000000
66
1
0
VERTEX
8
Layer 1
10
82.897026
20
191.069845
70
0
0
VERTEX
8
Layer 1
10
83.028672
20
191.037938
70
0
0
VERTEX
8
Layer 1
10
83.043798
20
191.035808
70
0
0
VERTEX
8
Layer 1
10
83.028434
20
191.038168
70
0
0
VERTEX
8
Layer 1
10
82.897026
20
191.069839
70
0
0
VERTEX
8
Layer 1
10
82.897026
20
191.069845
70
0
0
SEQEND
8
Layer 1
0
POLYLINE
8
Layer 1
62
7
70
0
10
0.000000
20
0.000000
66
1
0
VERTEX
8
Layer 1
10
69.035235
20
191.083317
70
0
0
VERTEX
8
Layer 1
10
69.015855
20
191.064881
70
0
0
VERTEX
8
Layer 1
10
69.035235
20
191.083317
70
0
0
VERTEX
8
Layer 1
10
69.035235
20
191.083317
70
0
0
SEQEND
8
Layer 1
0
POLYLINE
8
Layer 1
62
7
70
0
10
0.000000
20
0.000000
66
1
0
VERTEX
8
Layer 1
10
69.345323
20
191.160129
70
0
0
VERTEX
8
Layer 1
10
69.035235
20
191.083317
70
0
0
VERTEX
8
Layer 1
10
69.345323
20
191.160129
70
0
0
VERTEX
8
Layer 1
10
69.345323
20
191.160129
70
0
0
SEQEND
8
Layer 1
0
POLYLINE
8
Layer 1
62
7
70
0
10
0.000000
20
0.000000
66
1
0
VERTEX
8
Layer 1
10
69.822273
20
191.186600
70
0
0
VERTEX
8
Layer 1
10
69.550710
20
191.175249
70
0
0
VERTEX
8
Layer 1
10
69.822509
20
191.186358
70
0
0
VERTEX
8
Layer 1
10
70.837150
20
191.159651
70
0
0
VERTEX
8
Layer 1
10
72.625829
20
191.160135
70
0
0
VERTEX
8
Layer 1
10
70.836914
20
191.159893
70
0
0
VERTEX
8
Layer 1
10
69.822273
20
191.186600
70
0
0
SEQEND
8
Layer 1
0
POLYLINE
8
Layer 1
62
7
70
0
10
0.000000
20
0.000000
66
1
0
VERTEX
8
Layer 1
10
84.129342
20
191.187309
70
0
0
VERTEX
8
Layer 1
10
83.842180
20
191.086152
70
0
0
VERTEX
8
Layer 1
10
84.129342
20
191.187309
70
0
0
VERTEX
8
Layer 1
10
84.129342
20
191.187309
70
0
0
SEQEND
8
Layer 1
0
POLYLINE
8
Layer 1
62
7
70
0
10
0.000000
20
0.000000
66
1
0
VERTEX
8
Layer 1
10
75.326574
20
191.262941
70
0
0
VERTEX
8
Layer 1
10
74.662909
20
191.239778
70
0
0
VERTEX
8
Layer 1
10
73.621798
20
191.190618
70
0
0
VERTEX
8
Layer 1
10
74.663146
20
191.239542
70
0
0
VERTEX
8
Layer 1
10
75.326574
20
191.262941
70
0
0
VERTEX
8
Layer 1
10
75.326574
20
191.262941
70
0
0
SEQEND
8
Layer 1
0
POLYLINE
8
Layer 1
62
7
70
0
10
0.000000
20
0.000000
66
1
0
VERTEX
8
Layer 1
10
82.282522
20
191.406404
70
0
0
VERTEX
8
Layer 1
10
82.642715
20
191.168875
70
0
0
VERTEX
8
Layer 1
10
82.282522
20
191.406404
70
0
0
VERTEX
8
Layer 1
10
82.282522
20
191.406404
70
0
0
SEQEND
8
Layer 1
0
POLYLINE
8
Layer 1
62
7
70
0
10
0.000000
20
0.000000
66
1
0
VERTEX
8
Layer 1
10
30.831764
20
191.521032
70
0
0
VERTEX
8
Layer 1
10
31.008316
20
191.347553
70
0
0
VERTEX
8
Layer 1
10
30.831764
20
191.521032
70
0
0
VERTEX
8
Layer 1
10
30.831764
20
191.521032
70
0
0
SEQEND
8
Layer 1
0
POLYLINE
8
Layer 1
62
7
70
0
10
0.000000
20
0.000000
66
1
0
VERTEX
8
Layer 1
10
78.545393
20
191.532850
70
0
0
VERTEX
8
Layer 1
10
75.959749
20
191.294847
70
0
0
VERTEX
8
Layer 1
10
78.545393
20
191.532850
70
0
0
VERTEX
8
Layer 1
10
78.545393
20
191.532850
70
0
0
SEQEND
8
Layer 1
0
POLYLINE
8
Layer 1
62
7
70
0
10
0.000000
20
0.000000
66
1
0
VERTEX
8
Layer 1
10
84.842639
20
191.679148
70
0
0
VERTEX
8
Layer 1
10
84.469210
20
191.379224
70
0
0
VERTEX
8
Layer 1
10
84.842639
20
191.679148
70
0
0
VERTEX
8
Layer 1
10
84.842639
20
191.679148
70
0
0
SEQEND
8
Layer 1
0
POLYLINE
8
Layer 1
62
7
70
0
10
0.000000
20
0.000000
66
1
0
VERTEX
8
Layer 1
10
81.751211
20
191.954257
70
0
0
VERTEX
8
Layer 1
10
81.520300
20
191.924950
70
0
0
VERTEX
8
Layer 1
10
80.120177
20
191.735636
70
0
0
VERTEX
8
Layer 1
10
79.294378
20
191.626207
70
0
0
VERTEX
8
Layer 1
10
80.120413
20
191.735400
70
0
0
VERTEX
8
Layer 1
10
81.520537
20
191.924714
70
0
0
VERTEX
8
Layer 1
10
81.751449
20
191.954021
70
0
0
VERTEX
8
Layer 1
10
81.751211
20
191.954257
70
0
0
SEQEND
8
Layer 1
0
POLYLINE
8
Layer 1
62
7
70
0
10
0.000000
20
0.000000
66
1
0
VERTEX
8
Layer 1
10
85.912348
20
192.875778
70
0
0
VERTEX
8
Layer 1
10
85.656148
20
192.555290
70
0
0
VERTEX
8
Layer 1
10
85.447216
20
192.305470
70
0
0
VERTEX
8
Layer 1
10
85.656384
20
192.555290
70
0
0
VERTEX
8
Layer 1
10
85.912348
20
192.875778
70
0
0
VERTEX
8
Layer 1
10
85.912348
20
192.875778
70
0
0
SEQEND
8
Layer 1
0
POLYLINE
8
Layer 1
62
7
70
0
10
0.000000
20
0.000000
66
1
0
VERTEX
8
Layer 1
10
90.493003
20
205.359660
70
0
0
VERTEX
8
Layer 1
10
90.221439
20
203.826709
70
0
0
VERTEX
8
Layer 1
10
90.493003
20
205.359660
70
0
0
VERTEX
8
Layer 1
10
90.493003
20
205.359660
70
0
0
SEQEND
8
Layer 1
0
POLYLINE
8
Layer 1
62
7
70
0
10
0.000000
20
0.000000
66
1
0
VERTEX
8
Layer 1
10
90.802855
20
209.488654
70
0
0
VERTEX
8
Layer 1
10
90.827671
20
209.337864
70
0
0
VERTEX
8
Layer 1
10
90.838779
20
208.944582
70
0
0
VERTEX
8
Layer 1
10
90.827913
20
209.337864
70
0
0
VERTEX
8
Layer 1
10
90.802860
20
209.488654
70
0
0
VERTEX
8
Layer 1
10
90.802855
20
209.488654
70
0
0
SEQEND
8
Layer 1
0
POLYLINE
8
Layer 1
62
7
70
0
10
0.000000
20
0.000000
66
1
0
VERTEX
8
Layer 1
10
29.022523
20
210.438535
70
0
0
VERTEX
8
Layer 1
10
29.105717
20
210.341633
70
0
0
VERTEX
8
Layer 1
10
29.105959
20
210.341633
70
0
0
VERTEX
8
Layer 1
10
29.022528
20
210.438535
70
0
0
VERTEX
8
Layer 1
10
29.022523
20
210.438535
70
0
0
SEQEND
8
Layer 1
0
POLYLINE
8
Layer 1
62
7
70
0
10
0.000000
20
0.000000
66
1
0
VERTEX
8
Layer 1
10
90.669082
20
210.837490
70
0
0
VERTEX
8
Layer 1
10
90.726277
20
210.473751
70
0
0
VERTEX
8
Layer 1
10
90.669082
20
210.837490
70
0
0
VERTEX
8
Layer 1
10
90.669082
20
210.837490
70
0
0
SEQEND
8
Layer 1
0
POLYLINE
8
Layer 1
62
7
70
0
10
0.000000
20
0.000000
66
1
0
VERTEX
8
Layer 1
10
28.581261
20
211.036731
70
0
0
VERTEX
8
Layer 1
10
28.690927
20
210.889014
70
0
0
VERTEX
8
Layer 1
10
28.922311
20
210.565927
70
0
0
VERTEX
8
Layer 1
10
28.691163
20
210.889014
70
0
0
VERTEX
8
Layer 1
10
28.581261
20
211.036731
70
0
0
VERTEX
8
Layer 1
10
28.581261
20
211.036731
70
0
0
SEQEND
8
Layer 1
0
POLYLINE
8
Layer 1
62
7
70
0
10
0.000000
20
0.000000
66
1
0
VERTEX
8
Layer 1
10
90.339849
20
211.863475
70
0
0
VERTEX
8
Layer 1
10
90.468895
20
211.578913
70
0
0
VERTEX
8
Layer 1
10
90.339849
20
211.863475
70
0
0
VERTEX
8
Layer 1
10
90.339849
20
211.863475
70
0
0
SEQEND
8
Layer 1
0
POLYLINE
8
Layer 1
62
7
70
0
10
0.000000
20
0.000000
66
1
0
VERTEX
8
Layer 1
10
90.105156
20
212.193653
70
0
0
VERTEX
8
Layer 1
10
90.267054
20
211.986848
70
0
0
VERTEX
8
Layer 1
10
90.105156
20
212.193653
70
0
0
VERTEX
8
Layer 1
10
90.105156
20
212.193653
70
0
0
SEQEND
8
Layer 1
0
POLYLINE
8
Layer 1
62
7
70
0
10
0.000000
20
0.000000
66
1
0
VERTEX
8
Layer 1
10
80.134358
20
212.732525
70
0
0
VERTEX
8
Layer 1
10
80.213771
20
212.639640
70
0
0
VERTEX
8
Layer 1
10
80.134358
20
212.732525
70
0
0
VERTEX
8
Layer 1
10
80.134358
20
212.732525
70
0
0
SEQEND
8
Layer 1
0
POLYLINE
8
Layer 1
62
7
70
0
10
0.000000
20
0.000000
66
1
0
VERTEX
8
Layer 1
10
26.998441
20
212.810757
70
0
0
VERTEX
8
Layer 1
10
27.285604
20
212.519577
70
0
0
VERTEX
8
Layer 1
10
27.390306
20
212.408493
70
0
0
VERTEX
8
Layer 1
10
27.573712
20
212.214215
70
0
0
VERTEX
8
Layer 1
10
28.232885
20
211.472793
70
0
0
VERTEX
8
Layer 1
10
27.573948
20
212.214215
70
0
0
VERTEX
8
Layer 1
10
27.390542
20
212.408493
70
0
0
VERTEX
8
Layer 1
10
27.285840
20
212.519577
70
0
0
VERTEX
8
Layer 1
10
26.998441
20
212.810757
70
0
0
VERTEX
8
Layer 1
10
26.998441
20
212.810757
70
0
0
SEQEND
8
Layer 1
0
POLYLINE
8
Layer 1
62
7
70
0
10
0.000000
20
0.000000
66
1
0
VERTEX
8
Layer 1
10
89.540994
20
212.960364
70
0
0
VERTEX
8
Layer 1
10
89.557066
20
212.880243
70
0
0
VERTEX
8
Layer 1
10
89.540994
20
212.960364
70
0
0
VERTEX
8
Layer 1
10
89.540994
20
212.960364
70
0
0
SEQEND
8
Layer 1
0
POLYLINE
8
Layer 1
62
7
70
0
10
0.000000
20
0.000000
66
1
0
VERTEX
8
Layer 1
10
32.818030
20
215.424762
70
0
0
VERTEX
8
Layer 1
10
32.909733
20
215.343457
70
0
0
VERTEX
8
Layer 1
10
32.818030
20
215.424762
70
0
0
VERTEX
8
Layer 1
10
32.818030
20
215.424762
70
0
0
SEQEND
8
Layer 1
0
POLYLINE
8
Layer 1
62
7
70
0
10
0.000000
20
0.000000
66
1
0
VERTEX
8
Layer 1
10
28.715980
20
217.014672
70
0
0
VERTEX
8
Layer 1
10
31.793699
20
215.868387
70
0
0
VERTEX
8
Layer 1
10
28.715980
20
217.014672
70
0
0
VERTEX
8
Layer 1
10
28.715980
20
217.014672
70
0
0
SEQEND
8
Layer 1
0
POLYLINE
8
Layer 1
62
7
70
0
10
0.000000
20
0.000000
66
1
0
VERTEX
8
Layer 1
10
25.509451
20
218.192156
70
0
0
VERTEX
8
Layer 1
10
26.133409
20
217.947300
70
0
0
VERTEX
8
Layer 1
10
25.509451
20
218.192156
70
0
0
VERTEX
8
Layer 1
10
25.509451
20
218.192156
70
0
0
SEQEND
8
Layer 1
0
POLYLINE
8
Layer 1
62
7
70
0
10
0.000000
20
0.000000
66
1
0
VERTEX
8
Layer 1
10
25.089225
20
218.386198
70
0
0
VERTEX
8
Layer 1
10
25.509451
20
218.192156
70
0
0
VERTEX
8
Layer 1
10
25.089225
20
218.386198
70
0
0
VERTEX
8
Layer 1
10
25.089225
20
218.386198
70
0
0
SEQEND
8
Layer 1
0
POLYLINE
8
Layer 1
62
7
70
0
10
0.000000
20
0.000000
66
1
0
VERTEX
8
Layer 1
10
77.323475
20
218.547150
70
0
0
VERTEX
8
Layer 1
10
77.758591
20
217.512420
70
0
0
VERTEX
8
Layer 1
10
77.323475
20
218.547150
70
0
0
VERTEX
8
Layer 1
10
77.323475
20
218.547150
70
0
0
SEQEND
8
Layer 1
0
POLYLINE
8
Layer 1
62
7
70
0
10
0.000000
20
0.000000
66
1
0
VERTEX
8
Layer 1
10
24.732813
20
218.621364
70
0
0
VERTEX
8
Layer 1
10
24.776773
20
218.586384
70
0
0
VERTEX
8
Layer 1
10
24.732813
20
218.621364
70
0
0
VERTEX
8
Layer 1
10
24.732813
20
218.621364
70
0
0
SEQEND
8
Layer 1
0
POLYLINE
8
Layer 1
62
7
70
0
10
0.000000
20
0.000000
66
1
0
VERTEX
8
Layer 1
10
75.691258
20
226.738723
70
0
0
VERTEX
8
Layer 1
10
75.642571
20
226.663565
70
0
0
VERTEX
8
Layer 1
10
75.587265
20
226.517739
70
0
0
VERTEX
8
Layer 1
10
75.642807
20
226.663565
70
0
0
VERTEX
8
Layer 1
10
75.691258
20
226.738723
70
0
0
VERTEX
8
Layer 1
10
75.691258
20
226.738723
70
0
0
SEQEND
8
Layer 1
0
POLYLINE
8
Layer 1
62
7
70
0
10
0.000000
20
0.000000
66
1
0
VERTEX
8
Layer 1
10
76.855506
20
228.023036
70
0
0
VERTEX
8
Layer 1
10
76.454425
20
227.592885
70
0
0
VERTEX
8
Layer 1
10
76.148591
20
227.269560
70
0
0
VERTEX
8
Layer 1
10
76.454661
20
227.592885
70
0
0
VERTEX
8
Layer 1
10
76.855506
20
228.023036
70
0
0
VERTEX
8
Layer 1
10
76.855506
20
228.023036
70
0
0
SEQEND
8
Layer 1
0
POLYLINE
8
Layer 1
62
7
70
0
10
0.000000
20
0.000000
66
1
0
VERTEX
8
Layer 1
10
78.135802
20
229.537080
70
0
0
VERTEX
8
Layer 1
10
77.820278
20
229.134816
70
0
0
VERTEX
8
Layer 1
10
77.583222
20
228.844818
70
0
0
VERTEX
8
Layer 1
10
77.820514
20
229.134816
70
0
0
VERTEX
8
Layer 1
10
78.135802
20
229.537080
70
0
0
VERTEX
8
Layer 1
10
78.135802
20
229.537080
70
0
0
SEQEND
8
Layer 1
0
POLYLINE
8
Layer 1
62
7
70
0
10
0.000000
20
0.000000
66
1
0
VERTEX
8
Layer 1
10
78.407838
20
229.847877
70
0
0
VERTEX
8
Layer 1
10
78.306681
20
229.739866
70
0
0
VERTEX
8
Layer 1
10
78.135802
20
229.537317
70
0
0
VERTEX
8
Layer 1
10
78.306917
20
229.739866
70
0
0
VERTEX
8
Layer 1
10
78.407838
20
229.847877
70
0
0
VERTEX
8
Layer 1
10
78.407838
20
229.847877
70
0
0
SEQEND
8
Layer 1
0
POLYLINE
8
Layer 1
62
7
70
0
10
0.000000
20
0.000000
66
1
0
VERTEX
8
Layer 1
10
78.689328
20
230.232651
70
0
0
VERTEX
8
Layer 1
10
78.407838
20
229.847877
70
0
0
VERTEX
8
Layer 1
10
78.689328
20
230.232651
70
0
0
VERTEX
8
Layer 1
10
78.689328
20
230.232651
70
0
0
SEQEND
8
Layer 1
0
POLYLINE
8
Layer 1
62
7
70
0
10
0.000000
20
0.000000
66
1
0
VERTEX
8
Layer 1
10
27.726156
20
231.179932
70
0
0
VERTEX
8
Layer 1
10
28.088004
20
231.100756
70
0
0
VERTEX
8
Layer 1
10
27.726156
20
231.179932
70
0
0
VERTEX
8
Layer 1
10
27.726156
20
231.179932
70
0
0
SEQEND
8
Layer 1
0
POLYLINE
8
Layer 1
62
7
70
0
10
0.000000
20
0.000000
66
1
0
VERTEX
8
Layer 1
10
24.377582
20
231.437551
70
0
0
VERTEX
8
Layer 1
10
25.363388
20
231.381537
70
0
0
VERTEX
8
Layer 1
10
24.377582
20
231.437551
70
0
0
VERTEX
8
Layer 1
10
24.377582
20
231.437551
70
0
0
SEQEND
8
Layer 1
0
POLYLINE
8
Layer 1
62
7
70
1
10
0.000000
20
0.000000
66
1
0
VERTEX
8
Layer 1
10
21.138438
20
231.542490
70
0
0
VERTEX
8
Layer 1
10
24.377582
20
231.437551
70
0
0
VERTEX
8
Layer 1
10
21.138438
20
231.542490
70
0
0
VERTEX
8
Layer 1
10
21.138438
20
231.542490
70
0
0
SEQEND
8
Layer 1
0
POLYLINE
8
Layer 1
62
7
70
0
10
0.000000
20
0.000000
66
1
0
VERTEX
8
Layer 1
10
14.799357
20
231.620958
70
0
0
VERTEX
8
Layer 1
10
14.472488
20
231.611507
70
0
0
VERTEX
8
Layer 1
10
13.754937
20
231.576055
70
0
0
VERTEX
8
Layer 1
10
14.472488
20
231.611271
70
0
0
VERTEX
8
Layer 1
10
14.799357
20
231.620964
70
0
0
VERTEX
8
Layer 1
10
14.799357
20
231.620958
70
0
0
SEQEND
8
Layer 1
0
POLYLINE
8
Layer 1
62
7
70
0
10
0.000000
20
0.000000
66
1
0
VERTEX
8
Layer 1
10
15.237782
20
231.626156
70
0
0
VERTEX
8
Layer 1
10
14.799357
20
231.620953
70
0
0
VERTEX
8
Layer 1
10
15.237782
20
231.625914
70
0
0
VERTEX
8
Layer 1
10
17.309605
20
231.604643
70
0
0
VERTEX
8
Layer 1
10
19.251438
20
231.584081
70
0
0
VERTEX
8
Layer 1
10
17.309605
20
231.604879
70
0
0
VERTEX
8
Layer 1
10
15.237782
20
231.626150
70
0
0
VERTEX
8
Layer 1
10
15.237782
20
231.626156
70
0
0
SEQEND
8
Layer 1
0
POLYLINE
8
Layer 1
62
7
70
0
10
0.000000
20
0.000000
66
1
0
VERTEX
8
Layer 1
10
12.477714
20
231.750712
70
0
0
VERTEX
8
Layer 1
10
12.519074
20
231.710060
70
0
0
VERTEX
8
Layer 1
10
12.580288
20
231.699665
70
0
0
VERTEX
8
Layer 1
10
12.643394
20
231.665394
70
0
0
VERTEX
8
Layer 1
10
12.580288
20
231.699901
70
0
0
VERTEX
8
Layer 1
10
12.519074
20
231.710296
70
0
0
VERTEX
8
Layer 1
10
12.477714
20
231.750711
70
0
0
VERTEX
8
Layer 1
10
12.477714
20
231.750712
70
0
0
SEQEND
8
Layer 1
0
POLYLINE
8
Layer 1
62
7
70
0
10
0.000000
20
0.000000
66
1
0
VERTEX
8
Layer 1
10
12.250347
20
232.025348
70
0
0
VERTEX
8
Layer 1
10
12.414846
20
231.831307
70
0
0
VERTEX
8
Layer 1
10
12.250347
20
232.025348
70
0
0
VERTEX
8
Layer 1
10
12.250347
20
232.025348
70
0
0
SEQEND
8
Layer 1
0
POLYLINE
8
Layer 1
62
7
70
0
10
0.000000
20
0.000000
66
1
0
VERTEX
8
Layer 1
10
79.869412
20
232.197174
70
0
0
VERTEX
8
Layer 1
10
79.663081
20
231.841707
70
0
0
VERTEX
8
Layer 1
10
79.247817
20
231.123918
70
0
0
VERTEX
8
Layer 1
10
79.663317
20
231.841707
70
0
0
VERTEX
8
Layer 1
10
79.869412
20
232.197174
70
0
0
VERTEX
8
Layer 1
10
79.869412
20
232.197174
70
0
0
SEQEND
8
Layer 1
0
POLYLINE
8
Layer 1
62
7
70
0
10
0.000000
20
0.000000
66
1
0
VERTEX
8
Layer 1
10
80.242605
20
232.894162
70
0
0
VERTEX
8
Layer 1
10
79.869412
20
232.197174
70
0
0
VERTEX
8
Layer 1
10
80.242605
20
232.894162
70
0
0
VERTEX
8
Layer 1
10
80.242605
20
232.894162
70
0
0
SEQEND
8
Layer 1
0
POLYLINE
8
Layer 1
62
7
70
0
10
0.000000
20
0.000000
66
1
0
VERTEX
8
Layer 1
10
80.577273
20
233.573898
70
0
0
VERTEX
8
Layer 1
10
80.409230
20
233.234503
70
0
0
VERTEX
8
Layer 1
10
80.242605
20
232.894162
70
0
0
VERTEX
8
Layer 1
10
80.409466
20
233.234503
70
0
0
VERTEX
8
Layer 1
10
80.577273
20
233.573898
70
0
0
VERTEX
8
Layer 1
10
80.577273
20
233.573898
70
0
0
SEQEND
8
Layer 1
0
POLYLINE
8
Layer 1
62
7
70
0
10
0.000000
20
0.000000
66
1
0
VERTEX
8
Layer 1
10
80.846473
20
234.163586
70
0
0
VERTEX
8
Layer 1
10
80.577273
20
233.573898
70
0
0
VERTEX
8
Layer 1
10
80.846473
20
234.163586
70
0
0
VERTEX
8
Layer 1
10
80.846473
20
234.163586
70
0
0
SEQEND
8
Layer 1
0
POLYLINE
8
Layer 1
62
7
70
0
10
0.000000
20
0.000000
66
1
0
VERTEX
8
Layer 1
10
81.047605
20
234.736256
70
0
0
VERTEX
8
Layer 1
10
80.939122
20
234.398751
70
0
0
VERTEX
8
Layer 1
10
80.846473
20
234.163586
70
0
0
VERTEX
8
Layer 1
10
80.939358
20
234.398751
70
0
0
VERTEX
8
Layer 1
10
81.047605
20
234.736256
70
0
0
VERTEX
8
Layer 1
10
81.047605
20
234.736256
70
0
0
SEQEND
8
Layer 1
0
POLYLINE
8
Layer 1
62
7
70
0
10
0.000000
20
0.000000
66
1
0
VERTEX
8
Layer 1
10
81.429780
20
237.936403
70
0
0
VERTEX
8
Layer 1
10
81.440647
20
237.623952
70
0
0
VERTEX
8
Layer 1
10
81.438517
20
237.250522
70
0
0
VERTEX
8
Layer 1
10
81.440876
20
237.623952
70
0
0
VERTEX
8
Layer 1
10
81.429768
20
237.936403
70
0
0
VERTEX
8
Layer 1
10
81.429780
20
237.936403
70
0
0
SEQEND
8
Layer 1
0
POLYLINE
8
Layer 1
62
7
70
0
10
0.000000
20
0.000000
66
1
0
VERTEX
8
Layer 1
10
81.356748
20
238.840433
70
0
0
VERTEX
8
Layer 1
10
81.411344
20
238.260435
70
0
0
VERTEX
8
Layer 1
10
81.356748
20
238.840433
70
0
0
VERTEX
8
Layer 1
10
81.356748
20
238.840433
70
0
0
SEQEND
8
Layer 1
0
POLYLINE
8
Layer 1
62
7
70
0
10
0.000000
20
0.000000
66
1
0
VERTEX
8
Layer 1
10
80.957083
20
240.762175
70
0
0
VERTEX
8
Layer 1
10
81.122527
20
240.130183
70
0
0
VERTEX
8
Layer 1
10
80.957083
20
240.762175
70
0
0
VERTEX
8
Layer 1
10
80.957083
20
240.762175
70
0
0
SEQEND
8
Layer 1
0
POLYLINE
8
Layer 1
62
7
70
0
10
0.000000
20
0.000000
66
1
0
VERTEX
8
Layer 1
10
35.056951
20
246.084725
70
0
0
VERTEX
8
Layer 1
10
34.997864
20
245.901792
70
0
0
VERTEX
8
Layer 1
10
35.056951
20
246.084725
70
0
0
VERTEX
8
Layer 1
10
35.056951
20
246.084725
70
0
0
SEQEND
8
Layer 1
0
POLYLINE
8
Layer 1
62
7
70
0
10
0.000000
20
0.000000
66
1
0
VERTEX
8
Layer 1
10
4.664061
20
247.687871
70
0
0
VERTEX
8
Layer 1
10
5.700917
20
245.147843
70
0
0
VERTEX
8
Layer 1
10
4.664061
20
247.687871
70
0
0
VERTEX
8
Layer 1
10
4.664061
20
247.687871
70
0
0
SEQEND
8
Layer 1
0
POLYLINE
8
Layer 1
62
7
70
0
10
0.000000
20
0.000000
66
1
0
VERTEX
8
Layer 1
10
77.746301
20
251.820409
70
0
0
VERTEX
8
Layer 1
10
77.929707
20
250.977121
70
0
0
VERTEX
8
Layer 1
10
78.167708
20
249.869832
70
0
0
VERTEX
8
Layer 1
10
77.929943
20
250.977121
70
0
0
VERTEX
8
Layer 1
10
77.746301
20
251.820409
70
0
0
VERTEX
8
Layer 1
10
77.746301
20
251.820409
70
0
0
SEQEND
8
Layer 1
0
POLYLINE
8
Layer 1
62
7
70
0
10
0.000000
20
0.000000
66
1
0
VERTEX
8
Layer 1
10
30.123903
20
256.415954
70
0
0
VERTEX
8
Layer 1
10
32.347461
20
255.543594
70
0
0
VERTEX
8
Layer 1
10
30.123903
20
256.415954
70
0
0
VERTEX
8
Layer 1
10
30.123903
20
256.415954
70
0
0
SEQEND
8
Layer 1
0
POLYLINE
8
Layer 1
62
7
70
0
10
0.000000
20
0.000000
66
1
0
VERTEX
8
Layer 1
10
75.668569
20
258.113402
70
0
0
VERTEX
8
Layer 1
10
75.691258
20
257.812296
70
0
0
VERTEX
8
Layer 1
10
76.277873
20
256.422571
70
0
0
VERTEX
8
Layer 1
10
75.691494
20
257.812296
70
0
0
VERTEX
8
Layer 1
10
75.668569
20
258.113402
70
0
0
VERTEX
8
Layer 1
10
75.668569
20
258.113402
70
0
0
SEQEND
8
Layer 1
0
POLYLINE
8
Layer 1
62
7
70
0
10
0.000000
20
0.000000
66
1
0
VERTEX
8
Layer 1
10
75.607828
20
261.447322
70
0
0
VERTEX
8
Layer 1
10
75.642807
20
259.508799
70
0
0
VERTEX
8
Layer 1
10
75.607828
20
261.447322
70
0
0
VERTEX
8
Layer 1
10
75.607828
20
261.447322
70
0
0
SEQEND
8
Layer 1
0
POLYLINE
8
Layer 1
62
7
70
0
10
0.000000
20
0.000000
66
1
0
VERTEX
8
Layer 1
10
64.383441
20
264.971739
70
0
0
VERTEX
8
Layer 1
10
64.458127
20
264.693557
70
0
0
VERTEX
8
Layer 1
10
64.462375
20
264.676068
70
0
0
VERTEX
8
Layer 1
10
64.458357
20
264.693557
70
0
0
VERTEX
8
Layer 1
10
64.383435
20
264.971739
70
0
0
VERTEX
8
Layer 1
10
64.383441
20
264.971739
70
0
0
SEQEND
8
Layer 1
0
POLYLINE
8
Layer 1
62
7
70
0
10
0.000000
20
0.000000
66
1
0
VERTEX
8
Layer 1
10
10.718105
20
266.658079
70
0
0
VERTEX
8
Layer 1
10
11.549340
20
266.062720
70
0
0
VERTEX
8
Layer 1
10
10.718105
20
266.658079
70
0
0
VERTEX
8
Layer 1
10
10.718105
20
266.658079
70
0
0
SEQEND
8
Layer 1
0
POLYLINE
8
Layer 1
62
7
70
0
10
0.000000
20
0.000000
66
1
0
VERTEX
8
Layer 1
10
73.711138
20
275.861929
70
0
0
VERTEX
8
Layer 1
10
74.065186
20
274.353559
70
0
0
VERTEX
8
Layer 1
10
73.711138
20
275.861929
70
0
0
VERTEX
8
Layer 1
10
73.711138
20
275.861929
70
0
0
SEQEND
8
Layer 1
0
POLYLINE
8
Layer 1
62
7
70
0
10
0.000000
20
0.000000
66
1
0
VERTEX
8
Layer 1
10
63.917363
20
267.907413
70
0
0
VERTEX
8
Layer 1
10
64.383441
20
264.971975
70
0
0
VERTEX
8
Layer 1
10
63.917363
20
267.907413
70
0
0
VERTEX
8
Layer 1
10
63.917363
20
267.907413
70
0
0
SEQEND
8
Layer 1
0
POLYLINE
8
Layer 1
62
7
70
0
10
0.000000
20
0.000000
66
1
0
VERTEX
8
Layer 1
10
63.540862
20
271.655178
70
0
0
VERTEX
8
Layer 1
10
63.917363
20
267.907413
70
0
0
VERTEX
8
Layer 1
10
63.540862
20
271.655178
70
0
0
VERTEX
8
Layer 1
10
63.540862
20
271.655178
70
0
0
SEQEND
8
Layer 1
0
POLYLINE
8
Layer 1
62
7
70
0
10
0.000000
20
0.000000
66
1
0
VERTEX
8
Layer 1
10
63.120871
20
277.858594
70
0
0
VERTEX
8
Layer 1
10
63.195793
20
276.500542
70
0
0
VERTEX
8
Layer 1
10
63.247081
20
275.602656
70
0
0
VERTEX
8
Layer 1
10
63.275206
20
275.213155
70
0
0
VERTEX
8
Layer 1
10
63.540862
20
271.655178
70
0
0
VERTEX
8
Layer 1
10
63.275443
20
275.213155
70
0
0
VERTEX
8
Layer 1
10
63.247318
20
275.602656
70
0
0
VERTEX
8
Layer 1
10
63.196031
20
276.500542
70
0
0
VERTEX
8
Layer 1
10
63.120871
20
277.858594
70
0
0
VERTEX
8
Layer 1
10
63.120871
20
277.858594
70
0
0
SEQEND
8
Layer 1
0
POLYLINE
8
Layer 1
62
7
70
0
10
0.000000
20
0.000000
66
1
0
VERTEX
8
Layer 1
10
73.028565
20
278.395577
70
0
0
VERTEX
8
Layer 1
10
73.338181
20
277.302469
70
0
0
VERTEX
8
Layer 1
10
73.028565
20
278.395577
70
0
0
VERTEX
8
Layer 1
10
73.028565
20
278.395577
70
0
0
SEQEND
8
Layer 1
0
POLYLINE
8
Layer 1
62
7
70
0
10
0.000000
20
0.000000
66
1
0
VERTEX
8
Layer 1
10
72.687279
20
279.510429
70
0
0
VERTEX
8
Layer 1
10
73.028565
20
278.395577
70
0
0
VERTEX
8
Layer 1
10
72.687279
20
279.510429
70
0
0
VERTEX
8
Layer 1
10
72.687279
20
279.510429
70
0
0
SEQEND
8
Layer 1
0
POLYLINE
8
Layer 1
62
7
70
0
10
0.000000
20
0.000000
66
1
0
VERTEX
8
Layer 1
10
71.779940
20
282.163431
70
0
0
VERTEX
8
Layer 1
10
72.381446
20
280.449674
70
0
0
VERTEX
8
Layer 1
10
71.779940
20
282.163431
70
0
0
VERTEX
8
Layer 1
10
71.779940
20
282.163431
70
0
0
SEQEND
8
Layer 1
0
POLYLINE
8
Layer 1
62
7
70
0
10
0.000000
20
0.000000
66
1
0
VERTEX
8
Layer 1
10
70.317658
20
285.767260
70
0
0
VERTEX
8
Layer 1
10
71.071607
20
283.994653
70
0
0
VERTEX
8
Layer 1
10
70.317658
20
285.767260
70
0
0
VERTEX
8
Layer 1
10
70.317658
20
285.767260
70
0
0
SEQEND
8
Layer 1
0
POLYLINE
8
Layer 1
62
7
70
0
10
0.000000
20
0.000000
66
1
0
VERTEX
8
Layer 1
10
69.793439
20
286.907874
70
0
0
VERTEX
8
Layer 1
10
70.317658
20
285.767260
70
0
0
VERTEX
8
Layer 1
10
69.793439
20
286.907874
70
0
0
VERTEX
8
Layer 1
10
69.793439
20
286.907874
70
0
0
SEQEND
8
Layer 1
0
POLYLINE
8
Layer 1
62
7
70
0
10
0.000000
20
0.000000
66
1
0
VERTEX
8
Layer 1
10
69.254803
20
288.009254
70
0
0
VERTEX
8
Layer 1
10
69.793439
20
286.907874
70
0
0
VERTEX
8
Layer 1
10
69.254803
20
288.009254
70
0
0
VERTEX
8
Layer 1
10
69.254803
20
288.009254
70
0
0
SEQEND
8
Layer 1
0
POLYLINE
8
Layer 1
62
7
70
0
10
0.000000
20
0.000000
66
1
0
VERTEX
8
Layer 1
10
67.575316
20
291.027413
70
0
0
VERTEX
8
Layer 1
10
68.143259
20
290.074460
70
0
0
VERTEX
8
Layer 1
10
67.575316
20
291.027413
70
0
0
VERTEX
8
Layer 1
10
67.575316
20
291.027413
70
0
0
SEQEND
8
Layer 1
0
POLYLINE
8
Layer 1
62
7
70
0
10
0.000000
20
0.000000
66
1
0
VERTEX
8
Layer 1
10
66.713829
20
292.343397
70
0
0
VERTEX
8
Layer 1
10
67.575080
20
291.027650
70
0
0
VERTEX
8
Layer 1
10
66.713829
20
292.343397
70
0
0
VERTEX
8
Layer 1
10
66.713829
20
292.343397
70
0
0
SEQEND
8
Layer 1
0
POLYLINE
8
Layer 1
62
7
70
0
10
0.000000
20
0.000000
66
1
0
VERTEX
8
Layer 1
10
65.624975
20
293.780627
70
0
0
VERTEX
8
Layer 1
10
65.848560
20
293.506937
70
0
0
VERTEX
8
Layer 1
10
66.136904
20
293.137289
70
0
0
VERTEX
8
Layer 1
10
65.848796
20
293.506937
70
0
0
VERTEX
8
Layer 1
10
65.624975
20
293.780627
70
0
0
VERTEX
8
Layer 1
10
65.624975
20
293.780627
70
0
0
SEQEND
8
Layer 1
0
POLYLINE
8
Layer 1
62
7
70
0
10
0.000000
20
0.000000
66
1
0
VERTEX
8
Layer 1
10
65.024653
20
294.437910
70
0
0
VERTEX
8
Layer 1
10
65.624975
20
293.780627
70
0
0
VERTEX
8
Layer 1
10
65.024653
20
294.437910
70
0
0
VERTEX
8
Layer 1
10
65.024653
20
294.437910
70
0
0
SEQEND
8
Layer 1
0
POLYLINE
8
Layer 1
62
7
70
0
10
0.000000
20
0.000000
66
1
0
VERTEX
8
Layer 1
10
62.969609
20
283.190598
70
0
0
VERTEX
8
Layer 1
10
63.053985
20
279.232956
70
0
0
VERTEX
8
Layer 1
10
63.120871
20
277.858832
70
0
0
VERTEX
8
Layer 1
10
63.054221
20
279.232956
70
0
0
VERTEX
8
Layer 1
10
62.969609
20
283.190598
70
0
0
VERTEX
8
Layer 1
10
62.969609
20
283.190598
70
0
0
SEQEND
8
Layer 1
0
POLYLINE
8
Layer 1
62
7
70
0
10
0.000000
20
0.000000
66
1
0
VERTEX
8
Layer 1
10
62.958737
20
290.557554
70
0
0
VERTEX
8
Layer 1
10
62.942666
20
288.197150
70
0
0
VERTEX
8
Layer 1
10
62.953775
20
284.889938
70
0
0
VERTEX
8
Layer 1
10
62.969610
20
283.190598
70
0
0
VERTEX
8
Layer 1
10
62.954012
20
284.889938
70
0
0
VERTEX
8
Layer 1
10
62.942903
20
288.197150
70
0
0
VERTEX
8
Layer 1
10
62.958738
20
290.557554
70
0
0
VERTEX
8
Layer 1
10
62.958737
20
290.557554
70
0
0
SEQEND
8
Layer 1
0
POLYLINE
8
Layer 1
62
7
70
0
10
0.000000
20
0.000000
66
1
0
VERTEX
8
Layer 1
10
62.987335
20
291.674770
70
0
0
VERTEX
8
Layer 1
10
62.958737
20
290.557554
70
0
0
VERTEX
8
Layer 1
10
62.987335
20
291.674770
70
0
0
VERTEX
8
Layer 1
10
62.987335
20
291.674770
70
0
0
SEQEND
8
Layer 1
0
POLYLINE
8
Layer 1
62
7
70
0
10
0.000000
20
0.000000
66
1
0
VERTEX
8
Layer 1
10
63.676761
20
294.916278
70
0
0
VERTEX
8
Layer 1
10
63.349527
20
294.337834
70
0
0
VERTEX
8
Layer 1
10
63.122763
20
293.084111
70
0
0
VERTEX
8
Layer 1
10
63.118987
20
293.052440
70
0
0
VERTEX
8
Layer 1
10
63.000104
20
291.878501
70
0
0
VERTEX
8
Layer 1
10
62.987342
20
291.674770
70
0
0
VERTEX
8
Layer 1
10
63.000340
20
291.878501
70
0
0
VERTEX
8
Layer 1
10
63.119223
20
293.052440
70
0
0
VERTEX
8
Layer 1
10
63.122999
20
293.084111
70
0
0
VERTEX
8
Layer 1
10
63.349763
20
294.337833
70
0
0
VERTEX
8
Layer 1
10
63.676998
20
294.916278
70
0
0
VERTEX
8
Layer 1
10
63.676756
20
294.916278
70
0
0
VERTEX
8
Layer 1
10
63.676761
20
294.916278
70
0
0
SEQEND
8
Layer 1
0
POLYLINE
8
Layer 1
62
7
70
0
10
0.000000
20
0.000000
66
1
0
VERTEX
8
Layer 1
10
63.905255
20
284.802406
70
0
0
VERTEX
8
Layer 1
10
63.906170
20
283.881123
70
0
0
VERTEX
8
Layer 1
10
63.916552
20
283.097629
70
0
0
VERTEX
8
Layer 1
10
63.935212
20
282.394497
70
0
0
VERTEX
8
Layer 1
10
64.446669
20
273.003000
70
0
0
VERTEX
8
Layer 1
10
64.571697
20
271.611387
70
0
0
VERTEX
8
Layer 1
10
65.355425
20
265.507718
70
0
0
VERTEX
8
Layer 1
10
65.685168
20
264.650394
70
0
0
VERTEX
8
Layer 1
10
66.532198
20
264.240660
70
0
0
VERTEX
8
Layer 1
10
67.585612
20
263.832388
70
0
0
VERTEX
8
Layer 1
10
68.296291
20
263.425498
70
0
0
VERTEX
8
Layer 1
10
68.494826
20
263.241147
70
0
0
VERTEX
8
Layer 1
10
68.548599
20
263.036066
70
0
0
VERTEX
8
Layer 1
10
68.300311
20
262.921842
70
0
0
VERTEX
8
Layer 1
10
67.392735
20
263.078540
70
0
0
VERTEX
8
Layer 1
10
64.832928
20
263.654568
70
0
0
VERTEX
8
Layer 1
10
62.204205
20
264.075689
70
0
0
VERTEX
8
Layer 1
10
61.631060
20
264.118703
70
0
0
VERTEX
8
Layer 1
10
58.882816
20
264.157464
70
0
0
VERTEX
8
Layer 1
10
56.915697
20
264.130521
70
0
0
VERTEX
8
Layer 1
10
53.074577
20
263.807671
70
0
0
VERTEX
8
Layer 1
10
49.257627
20
263.178938
70
0
0
VERTEX
8
Layer 1
10
46.116512
20
262.332154
70
0
0
VERTEX
8
Layer 1
10
44.840711
20
261.924219
70
0
0
VERTEX
8
Layer 1
10
44.641472
20
261.840788
70
0
0
VERTEX
8
Layer 1
10
44.451053
20
261.699794
70
0
0
VERTEX
8
Layer 1
10
44.448669
20
261.542140
70
0
0
VERTEX
8
Layer 1
10
44.878764
20
261.040989
70
0
0
VERTEX
8
Layer 1
10
44.945415
20
260.968666
70
0
0
VERTEX
8
Layer 1
10
45.288828
20
260.582476
70
0
0
VERTEX
8
Layer 1
10
45.654730
20
260.056386
70
0
0
VERTEX
8
Layer 1
10
45.691323
20
259.750060
70
0
0
VERTEX
8
Layer 1
10
45.551235
20
259.643451
70
0
0
VERTEX
8
Layer 1
10
45.335456
20
259.672347
70
0
0
VERTEX
8
Layer 1
10
44.623273
20
260.157050
70
0
0
VERTEX
8
Layer 1
10
42.709193
20
261.500252
70
0
0
VERTEX
8
Layer 1
10
39.994254
20
263.063647
70
0
0
VERTEX
8
Layer 1
10
36.881326
20
264.630825
70
0
0
VERTEX
8
Layer 1
10
33.773276
20
265.985375
70
0
0
VERTEX
8
Layer 1
10
30.050299
20
267.346770
70
0
0
VERTEX
8
Layer 1
10
26.268057
20
268.507182
70
0
0
VERTEX
8
Layer 1
10
22.426615
20
269.466590
70
0
0
VERTEX
8
Layer 1
10
18.526037
20
270.224973
70
0
0
VERTEX
8
Layer 1
10
17.275665
20
270.352575
70
0
0
VERTEX
8
Layer 1
10
17.094424
20
270.133405
70
0
0
VERTEX
8
Layer 1
10
17.029487
20
269.624651
70
0
0
VERTEX
8
Layer 1
10
17.013433
20
268.485221
70
0
0
VERTEX
8
Layer 1
10
17.025736
20
267.397314
70
0
0
VERTEX
8
Layer 1
10
17.411466
20
265.532829
70
0
0
VERTEX
8
Layer 1
10
18.157840
20
263.861795
70
0
0
VERTEX
8
Layer 1
10
18.403639
20
263.447714
70
0
0
VERTEX
8
Layer 1
10
18.819374
20
262.999363
70
0
0
VERTEX
8
Layer 1
10
19.350447
20
262.708420
70
0
0
VERTEX
8
Layer 1
10
21.955231
20
261.410163
70
0
0
VERTEX
8
Layer 1
10
25.343505
20
259.752423
70
0
0
VERTEX
8
Layer 1
10
26.352711
20
259.312581
70
0
0
VERTEX
8
Layer 1
10
33.127350
20
256.567523
70
0
0
VERTEX
8
Layer 1
10
36.433716
20
255.420591
70
0
0
VERTEX
8
Layer 1
10
38.651043
20
254.803547
70
0
0
VERTEX
8
Layer 1
10
39.388478
20
254.628478
70
0
0
VERTEX
8
Layer 1
10
39.577289
20
254.386866
70
0
0
VERTEX
8
Layer 1
10
39.582000
20
254.362288
70
0
0
VERTEX
8
Layer 1
10
39.579713
20
254.341963
70
0
0
VERTEX
8
Layer 1
10
39.582000
20
254.299895
70
0
0
VERTEX
8
Layer 1
10
39.514206
20
254.118721
70
0
0
VERTEX
8
Layer 1
10
39.309729
20
254.045821
70
0
0
VERTEX
8
Layer 1
10
38.909832
20
254.038732
70
0
0
VERTEX
8
Layer 1
10
38.361269
20
254.056222
70
0
0
VERTEX
8
Layer 1
10
37.599994
20
254.120508
70
0
0
VERTEX
8
Layer 1
10
37.404770
20
254.127126
70
0
0
VERTEX
8
Layer 1
10
37.055832
20
253.417441
70
0
0
VERTEX
8
Layer 1
10
36.629787
20
251.430404
70
0
0
VERTEX
8
Layer 1
10
36.283080
20
248.936519
70
0
0
VERTEX
8
Layer 1
10
36.100132
20
246.305685
70
0
0
VERTEX
8
Layer 1
10
36.178363
20
242.574470
70
0
0
VERTEX
8
Layer 1
10
36.209784
20
242.279033
70
0
0
VERTEX
8
Layer 1
10
36.431713
20
238.568385
70
0
0
VERTEX
8
Layer 1
10
36.846888
20
233.266892
70
0
0
VERTEX
8
Layer 1
10
37.196729
20
231.528282
70
0
0
VERTEX
8
Layer 1
10
37.700425
20
229.999375
70
0
0
VERTEX
8
Layer 1
10
38.902724
20
227.621953
70
0
0
VERTEX
8
Layer 1
10
40.427873
20
225.741577
70
0
0
VERTEX
8
Layer 1
10
41.861555
20
224.495788
70
0
0
VERTEX
8
Layer 1
10
44.205653
20
223.059033
70
0
0
VERTEX
8
Layer 1
10
45.846373
20
222.360630
70
0
0
VERTEX
8
Layer 1
10
46.535326
20
222.020053
70
0
0
VERTEX
8
Layer 1
10
46.600559
20
221.866663
70
0
0
VERTEX
8
Layer 1
10
46.591595
20
221.809466
70
0
0
VERTEX
8
Layer 1
10
46.495535
20
221.639100
70
0
0
VERTEX
8
Layer 1
10
46.220732
20
221.579635
70
0
0
VERTEX
8
Layer 1
10
45.027447
20
221.783488
70
0
0
VERTEX
8
Layer 1
10
43.453184
20
222.379218
70
0
0
VERTEX
8
Layer 1
10
41.780882
20
223.358024
70
0
0
VERTEX
8
Layer 1
10
40.200568
20
224.590731
70
0
0
VERTEX
8
Layer 1
10
38.902271
20
225.948167
70
0
0
VERTEX
8
Layer 1
10
38.417758
20
226.557704
70
0
0
VERTEX
8
Layer 1
10
38.295332
20
226.586289
70
0
0
VERTEX
8
Layer 1
10
38.225136
20
226.129432
70
0
0
VERTEX
8
Layer 1
10
38.014787
20
224.478070
70
0
0
VERTEX
8
Layer 1
10
37.593039
20
222.241498
70
0
0
VERTEX
8
Layer 1
10
36.821774
20
219.252216
70
0
0
VERTEX
8
Layer 1
10
35.878119
20
216.140377
70
0
0
VERTEX
8
Layer 1
10
34.939201
20
213.536134
70
0
0
VERTEX
8
Layer 1
10
34.649912
20
212.773679
70
0
0
VERTEX
8
Layer 1
10
34.626266
20
212.651724
70
0
0
VERTEX
8
Layer 1
10
35.134887
20
212.432630
70
0
0
VERTEX
8
Layer 1
10
36.705973
20
211.781594
70
0
0
VERTEX
8
Layer 1
10
37.960183
20
210.893065
70
0
0
VERTEX
8
Layer 1
10
38.466452
20
210.228880
70
0
0
VERTEX
8
Layer 1
10
38.498130
20
210.044476
70
0
0
VERTEX
8
Layer 1
10
38.391515
20
209.965163
70
0
0
VERTEX
8
Layer 1
10
38.114181
20
209.973064
70
0
0
VERTEX
8
Layer 1
10
37.741560
20
210.167006
70
0
0
VERTEX
8
Layer 1
10
37.338590
20
210.392242
70
0
0
VERTEX
8
Layer 1
10
35.564092
20
211.258221
70
0
0
VERTEX
8
Layer 1
10
35.464118
20
211.287035
70
0
0
VERTEX
8
Layer 1
10
34.923120
20
211.422697
70
0
0
VERTEX
8
Layer 1
10
33.692421
20
211.588015
70
0
0
VERTEX
8
Layer 1
10
32.574260
20
211.526290
70
0
0
VERTEX
8
Layer 1
10
31.588888
20
211.243485
70
0
0
VERTEX
8
Layer 1
10
30.756553
20
210.745561
70
0
0
VERTEX
8
Layer 1
10
30.498222
20
210.503069
70
0
0
VERTEX
8
Layer 1
10
30.288349
20
210.287520
70
0
0
VERTEX
8
Layer 1
10
30.088633
20
210.026592
70
0
0
VERTEX
8
Layer 1
10
29.804782
20
209.475903
70
0
0
VERTEX
8
Layer 1
10
29.897191
20
209.246884
70
0
0
VERTEX
8
Layer 1
10
29.931951
20
209.189216
70
0
0
VERTEX
8
Layer 1
10
30.690702
20
207.782008
70
0
0
VERTEX
8
Layer 1
10
31.327818
20
206.259692
70
0
0
VERTEX
8
Layer 1
10
31.737054
20
204.768704
70
0
0
VERTEX
8
Layer 1
10
31.696139
20
204.434153
70
0
0
VERTEX
8
Layer 1
10
31.495386
20
204.329912
70
0
0
VERTEX
8
Layer 1
10
31.242416
20
204.512180
70
0
0
VERTEX
8
Layer 1
10
30.920589
20
205.086225
70
0
0
VERTEX
8
Layer 1
10
28.801265
20
209.093733
70
0
0
VERTEX
8
Layer 1
10
27.449831
20
211.104100
70
0
0
VERTEX
8
Layer 1
10
27.386962
20
211.087543
70
0
0
VERTEX
8
Layer 1
10
28.045190
20
208.337881
70
0
0
VERTEX
8
Layer 1
10
28.195268
20
207.690525
70
0
0
VERTEX
8
Layer 1
10
28.100732
20
207.446615
70
0
0
VERTEX
8
Layer 1
10
27.899903
20
207.411935
70
0
0
VERTEX
8
Layer 1
10
27.561623
20
207.736851
70
0
0
VERTEX
8
Layer 1
10
27.093687
20
208.509510
70
0
0
VERTEX
8
Layer 1
10
26.679596
20
209.596819
70
0
0
VERTEX
8
Layer 1
10
26.383846
20
210.791472
70
0
0
VERTEX
8
Layer 1
10
26.270930
20
211.886162
70
0
0
VERTEX
8
Layer 1
10
26.180410
20
212.420071
70
0
0
VERTEX
8
Layer 1
10
26.103596
20
212.535879
70
0
0
VERTEX
8
Layer 1
10
25.986603
20
212.629473
70
0
0
VERTEX
8
Layer 1
10
25.932951
20
212.585292
70
0
0
VERTEX
8
Layer 1
10
25.910265
20
212.256770
70
0
0
VERTEX
8
Layer 1
10
25.944750
20
211.744372
70
0
0
VERTEX
8
Layer 1
10
26.168000
20
210.211092
70
0
0
VERTEX
8
Layer 1
10
26.651193
20
208.470250
70
0
0
VERTEX
8
Layer 1
10
26.830584
20
207.532424
70
0
0
VERTEX
8
Layer 1
10
26.615011
20
207.361176
70
0
0
VERTEX
8
Layer 1
10
26.291186
20
207.545088
70
0
0
VERTEX
8
Layer 1
10
25.560925
20
208.746775
70
0
0
VERTEX
8
Layer 1
10
25.351279
20
209.206155
70
0
0
VERTEX
8
Layer 1
10
25.309450
20
208.970598
70
0
0
VERTEX
8
Layer 1
10
25.726295
20
206.194271
70
0
0
VERTEX
8
Layer 1
10
26.832472
20
201.970465
70
0
0
VERTEX
8
Layer 1
10
28.081501
20
198.448406
70
0
0
VERTEX
8
Layer 1
10
29.524018
20
195.381239
70
0
0
VERTEX
8
Layer 1
10
30.999672
20
193.064760
70
0
0
VERTEX
8
Layer 1
10
31.699815
20
192.280464
70
0
0
VERTEX
8
Layer 1
10
32.348110
20
191.794763
70
0
0
VERTEX
8
Layer 1
10
32.708066
20
191.718663
70
0
0
VERTEX
8
Layer 1
10
32.794805
20
191.809892
70
0
0
VERTEX
8
Layer 1
10
32.892652
20
191.949808
70
0
0
VERTEX
8
Layer 1
10
33.076648
20
192.655725
70
0
0
VERTEX
8
Layer 1
10
33.147201
20
194.724762
70
0
0
VERTEX
8
Layer 1
10
33.211240
20
196.648897
70
0
0
VERTEX
8
Layer 1
10
33.339585
20
197.230043
70
0
0
VERTEX
8
Layer 1
10
33.617443
20
197.197219
70
0
0
VERTEX
8
Layer 1
10
33.844832
20
196.876443
70
0
0
VERTEX
8
Layer 1
10
34.133950
20
195.427422
70
0
0
VERTEX
8
Layer 1
10
34.237707
20
193.260355
70
0
0
VERTEX
8
Layer 1
10
34.199655
20
192.246186
70
0
0
VERTEX
8
Layer 1
10
34.247161
20
192.217327
70
0
0
VERTEX
8
Layer 1
10
34.620591
20
192.059922
70
0
0
VERTEX
8
Layer 1
10
35.841754
20
191.676187
70
0
0
VERTEX
8
Layer 1
10
37.791659
20
191.570446
70
0
0
VERTEX
8
Layer 1
10
39.279465
20
191.565461
70
0
0
VERTEX
8
Layer 1
10
42.903475
20
191.638770
70
0
0
VERTEX
8
Layer 1
10
45.153408
20
191.807953
70
0
0
VERTEX
8
Layer 1
10
46.690138
20
191.929675
70
0
0
VERTEX
8
Layer 1
10
47.787105
20
192.038524
70
0
0
VERTEX
8
Layer 1
10
48.087185
20
192.213997
70
0
0
VERTEX
8
Layer 1
10
47.898577
20
192.806011
70
0
0
VERTEX
8
Layer 1
10
46.540531
20
195.072621
70
0
0
VERTEX
8
Layer 1
10
43.826192
20
199.735786
70
0
0
VERTEX
8
Layer 1
10
41.672921
20
203.939255
70
0
0
VERTEX
8
Layer 1
10
40.099960
20
207.642227
70
0
0
VERTEX
8
Layer 1
10
39.126552
20
210.803898
70
0
0
VERTEX
8
Layer 1
10
38.831591
20
212.609354
70
0
0
VERTEX
8
Layer 1
10
38.755248
20
213.532055
70
0
0
VERTEX
8
Layer 1
10
38.785480
20
213.950864
70
0
0
VERTEX
8
Layer 1
10
38.845037
20
214.064545
70
0
0
VERTEX
8
Layer 1
10
38.967701
20
214.091484
70
0
0
VERTEX
8
Layer 1
10
39.002918
20
214.106622
70
0
0
VERTEX
8
Layer 1
10
39.168374
20
214.066252
70
0
0
VERTEX
8
Layer 1
10
39.276374
20
213.858221
70
0
0
VERTEX
8
Layer 1
10
39.339951
20
213.635821
70
0
0
VERTEX
8
Layer 1
10
39.348458
20
213.578147
70
0
0
VERTEX
8
Layer 1
10
41.237346
20
207.476133
70
0
0
VERTEX
8
Layer 1
10
42.966464
20
203.459885
70
0
0
VERTEX
8
Layer 1
10
43.369201
20
202.645194
70
0
0
VERTEX
8
Layer 1
10
43.991028
20
201.486148
70
0
0
VERTEX
8
Layer 1
10
44.770502
20
200.034030
70
0
0
VERTEX
8
Layer 1
10
45.387842
20
198.944942
70
0
0
VERTEX
8
Layer 1
10
45.995490
20
197.916357
70
0
0
VERTEX
8
Layer 1
10
46.507656
20
197.069290
70
0
0
VERTEX
8
Layer 1
10
47.977026
20
194.634438
70
0
0
VERTEX
8
Layer 1
10
49.096606
20
192.582945
70
0
0
VERTEX
8
Layer 1
10
49.141748
20
192.438300
70
0
0
VERTEX
8
Layer 1
10
49.139461
20
192.418222
70
0
0
VERTEX
8
Layer 1
10
49.141748
20
192.395766
70
0
0
VERTEX
8
Layer 1
10
48.783918
20
191.291077
70
0
0
VERTEX
8
Layer 1
10
48.502665
20
190.559347
70
0
0
VERTEX
8
Layer 1
10
48.792187
20
190.659559
70
0
0
VERTEX
8
Layer 1
10
49.124020
20
190.838707
70
0
0
VERTEX
8
Layer 1
10
49.662205
20
191.090447
70
0
0
VERTEX
8
Layer 1
10
50.043177
20
191.116178
70
0
0
VERTEX
8
Layer 1
10
50.390135
20
190.810108
70
0
0
VERTEX
8
Layer 1
10
50.444254
20
190.712969
70
0
0
VERTEX
8
Layer 1
10
50.500271
20
190.604017
70
0
0
VERTEX
8
Layer 1
10
50.632389
20
190.366487
70
0
0
VERTEX
8
Layer 1
10
50.778452
20
190.384233
70
0
0
VERTEX
8
Layer 1
10
51.162044
20
190.712992
70
0
0
VERTEX
8
Layer 1
10
51.466458
20
190.943666
70
0
0
VERTEX
8
Layer 1
10
51.478258
20
190.951716
70
0
0
VERTEX
8
Layer 1
10
51.641810
20
191.056181
70
0
0
VERTEX
8
Layer 1
10
51.798744
20
191.140084
70
0
0
VERTEX
8
Layer 1
10
51.818822
20
191.133727
70
0
0
VERTEX
8
Layer 1
10
51.852392
20
191.139855
70
0
0
VERTEX
8
Layer 1
10
52.076919
20
191.007029
70
0
0
VERTEX
8
Layer 1
10
52.372118
20
190.648491
70
0
0
VERTEX
8
Layer 1
10
52.440896
20
190.542845
70
0
0
VERTEX
8
Layer 1
10
52.697571
20
190.295390
70
0
0
VERTEX
8
Layer 1
10
52.966530
20
190.435544
70
0
0
VERTEX
8
Layer 1
10
53.451753
20
190.776826
70
0
0
VERTEX
8
Layer 1
10
54.260772
20
191.246923
70
0
0
VERTEX
8
Layer 1
10
54.287711
20
191.254973
70
0
0
VERTEX
8
Layer 1
10
54.303535
20
191.261102
70
0
0
VERTEX
8
Layer 1
10
54.303535
20
191.260864
70
0
0
VERTEX
8
Layer 1
10
54.306280
20
191.259492
70
0
0
VERTEX
8
Layer 1
10
54.311951
20
191.260864
70
0
0
VERTEX
8
Layer 1
10
54.319726
20
191.258577
70
0
0
VERTEX
8
Layer 1
10
54.334133
20
191.260864
70
0
0
VERTEX
8
Layer 1
10
54.950764
20
190.715608
70
0
0
VERTEX
8
Layer 1
10
55.334933
20
190.290887
70
0
0
VERTEX
8
Layer 1
10
55.736856
20
190.427741
70
0
0
VERTEX
8
Layer 1
10
55.849591
20
190.533149
70
0
0
VERTEX
8
Layer 1
10
56.245477
20
190.947229
70
0
0
VERTEX
8
Layer 1
10
56.994459
20
191.484920
70
0
0
VERTEX
8
Layer 1
10
57.054254
20
191.502894
70
0
0
VERTEX
8
Layer 1
10
57.078586
20
191.499235
70
0
0
VERTEX
8
Layer 1
10
57.896112
20
191.321505
70
0
0
VERTEX
8
Layer 1
10
58.256068
20
191.181823
70
0
0
VERTEX
8
Layer 1
10
58.392915
20
191.185482
70
0
0
VERTEX
8
Layer 1
10
58.173583
20
191.641630
70
0
0
VERTEX
8
Layer 1
10
57.930144
20
192.065639
70
0
0
VERTEX
8
Layer 1
10
57.793773
20
192.271497
70
0
0
VERTEX
8
Layer 1
10
57.792401
20
192.320658
70
0
0
VERTEX
8
Layer 1
10
57.672811
20
192.531716
70
0
0
VERTEX
8
Layer 1
10
57.642305
20
194.951910
70
0
0
VERTEX
8
Layer 1
10
57.318021
20
200.534102
70
0
0
VERTEX
8
Layer 1
10
56.488459
20
207.177925
70
0
0
VERTEX
8
Layer 1
10
55.668096
20
211.559566
70
0
0
VERTEX
8
Layer 1
10
55.303887
20
213.136237
70
0
0
VERTEX
8
Layer 1
10
55.028543
20
214.376588
70
0
0
VERTEX
8
Layer 1
10
54.864277
20
215.188443
70
0
0
VERTEX
8
Layer 1
10
54.864277
20
215.189358
70
0
0
VERTEX
8
Layer 1
10
54.863820
20
215.191188
70
0
0
VERTEX
8
Layer 1
10
54.898808
20
215.441949
70
0
0
VERTEX
8
Layer 1
10
54.917971
20
215.479773
70
0
0
VERTEX
8
Layer 1
10
55.150554
20
215.529254
70
0
0
VERTEX
8
Layer 1
10
55.438881
20
215.167794
70
0
0
VERTEX
8
Layer 1
10
55.760785
20
214.528477
70
0
0
VERTEX
8
Layer 1
10
55.763529
20
214.523264
70
0
0
VERTEX
8
Layer 1
10
56.409500
20
212.682009
70
0
0
VERTEX
8
Layer 1
10
57.012625
20
209.957503
70
0
0
VERTEX
8
Layer 1
10
57.378019
20
208.400210
70
0
0
VERTEX
8
Layer 1
10
57.551025
20
208.884253
70
0
0
VERTEX
8
Layer 1
10
58.054920
20
210.846338
70
0
0
VERTEX
8
Layer 1
10
58.720947
20
212.718279
70
0
0
VERTEX
8
Layer 1
10
59.116353
20
213.140866
70
0
0
VERTEX
8
Layer 1
10
59.366410
20
213.044674
70
0
0
VERTEX
8
Layer 1
10
59.359550
20
212.884428
70
0
0
VERTEX
8
Layer 1
10
59.345829
20
212.695118
70
0
0
VERTEX
8
Layer 1
10
59.013525
20
210.865079
70
0
0
VERTEX
8
Layer 1
10
57.990043
20
205.708449
70
0
0
VERTEX
8
Layer 1
10
57.938566
20
204.311336
70
0
0
VERTEX
8
Layer 1
10
58.090824
20
202.800436
70
0
0
VERTEX
8
Layer 1
10
58.516891
20
198.360282
70
0
0
VERTEX
8
Layer 1
10
58.701308
20
194.380324
70
0
0
VERTEX
8
Layer 1
10
58.751375
20
192.972713
70
0
0
VERTEX
8
Layer 1
10
59.029359
20
192.171897
70
0
0
VERTEX
8
Layer 1
10
59.303872
20
191.682705
70
0
0
VERTEX
8
Layer 1
10
59.530182
20
191.525483
70
0
0
VERTEX
8
Layer 1
10
59.765109
20
191.616717
70
0
0
VERTEX
8
Layer 1
10
59.858232
20
191.681237
70
0
0
VERTEX
8
Layer 1
10
60.289802
20
191.860861
70
0
0
VERTEX
8
Layer 1
10
60.417190
20
191.921603
70
0
0
VERTEX
8
Layer 1
10
60.426886
20
191.927045
70
0
0
VERTEX
8
Layer 1
10
60.427343
20
191.926588
70
0
0
VERTEX
8
Layer 1
10
60.428258
20
191.926826
70
0
0
VERTEX
8
Layer 1
10
60.559905
20
191.781472
70
0
0
VERTEX
8
Layer 1
10
61.143446
20
191.201000
70
0
0
VERTEX
8
Layer 1
10
61.547601
20
190.720982
70
0
0
VERTEX
8
Layer 1
10
61.787729
20
190.560028
70
0
0
VERTEX
8
Layer 1
10
61.848000
20
190.906515
70
0
0
VERTEX
8
Layer 1
10
61.980489
20
191.508447
70
0
0
VERTEX
8
Layer 1
10
62.316675
20
191.745546
70
0
0
VERTEX
8
Layer 1
10
63.371022
20
191.203602
70
0
0
VERTEX
8
Layer 1
10
64.273393
20
190.659060
70
0
0
VERTEX
8
Layer 1
10
64.333898
20
191.291758
70
0
0
VERTEX
8
Layer 1
10
64.333898
20
191.352500
70
0
0
VERTEX
8
Layer 1
10
64.336642
20
191.541815
70
0
0
VERTEX
8
Layer 1
10
64.381923
20
191.840050
70
0
0
VERTEX
8
Layer 1
10
64.517916
20
191.949986
70
0
0
VERTEX
8
Layer 1
10
64.654054
20
191.987581
70
0
0
VERTEX
8
Layer 1
10
64.701560
20
191.960872
70
0
0
VERTEX
8
Layer 1
10
65.038356
20
191.582241
70
0
0
VERTEX
8
Layer 1
10
65.283993
20
191.237297
70
0
0
VERTEX
8
Layer 1
10
65.619299
20
191.030844
70
0
0
VERTEX
8
Layer 1
10
65.994142
20
190.939143
70
0
0
VERTEX
8
Layer 1
10
66.006674
20
190.939600
70
0
0
VERTEX
8
Layer 1
10
66.043765
20
191.024212
70
0
0
VERTEX
8
Layer 1
10
65.839563
20
191.507308
70
0
0
VERTEX
8
Layer 1
10
65.650195
20
191.968042
70
0
0
VERTEX
8
Layer 1
10
65.769839
20
192.209968
70
0
0
VERTEX
8
Layer 1
10
66.004909
20
192.298593
70
0
0
VERTEX
8
Layer 1
10
66.429251
20
191.944077
70
0
0
VERTEX
8
Layer 1
10
66.991758
20
191.541578
70
0
0
VERTEX
8
Layer 1
10
66.991992
20
191.541578
70
0
0
VERTEX
8
Layer 1
10
67.064314
20
191.528360
70
0
0
VERTEX
8
Layer 1
10
67.101406
20
191.522460
70
0
0
VERTEX
8
Layer 1
10
67.102321
20
191.522460
70
0
0
VERTEX
8
Layer 1
10
67.334179
20
191.525661
70
0
0
VERTEX
8
Layer 1
10
67.767167
20
191.563942
70
0
0
VERTEX
8
Layer 1
10
67.753949
20
191.584981
70
0
0
VERTEX
8
Layer 1
10
67.604104
20
191.781147
70
0
0
VERTEX
8
Layer 1
10
67.296616
20
192.152213
70
0
0
VERTEX
8
Layer 1
10
66.911135
20
192.714958
70
0
0
VERTEX
8
Layer 1
10
66.879714
20
192.776171
70
0
0
VERTEX
8
Layer 1
10
66.809519
20
192.984864
70
0
0
VERTEX
8
Layer 1
10
66.812720
20
193.004027
70
0
0
VERTEX
8
Layer 1
10
66.809519
20
193.022459
70
0
0
VERTEX
8
Layer 1
10
67.189091
20
193.944451
70
0
0
VERTEX
8
Layer 1
10
68.021271
20
195.557519
70
0
0
VERTEX
8
Layer 1
10
69.749862
20
198.731476
70
0
0
VERTEX
8
Layer 1
10
71.648965
20
202.757604
70
0
0
VERTEX
8
Layer 1
10
72.801365
20
205.924216
70
0
0
VERTEX
8
Layer 1
10
73.630732
20
209.054563
70
0
0
VERTEX
8
Layer 1
10
74.209278
20
212.485210
70
0
0
VERTEX
8
Layer 1
10
74.609214
20
216.552725
70
0
0
VERTEX
8
Layer 1
10
74.774184
20
218.436413
70
0
0
VERTEX
8
Layer 1
10
74.870851
20
219.002231
70
0
0
VERTEX
8
Layer 1
10
75.023575
20
219.205886
70
0
0
VERTEX
8
Layer 1
10
75.254206
20
219.050917
70
0
0
VERTEX
8
Layer 1
10
75.430461
20
218.391074
70
0
0
VERTEX
8
Layer 1
10
75.508419
20
217.054468
70
0
0
VERTEX
8
Layer 1
10
75.349218
20
213.523937
70
0
0
VERTEX
8
Layer 1
10
74.851044
20
210.063754
70
0
0
VERTEX
8
Layer 1
10
74.099278
20
206.810195
70
0
0
VERTEX
8
Layer 1
10
73.036014
20
203.593299
70
0
0
VERTEX
8
Layer 1
10
71.603348
20
200.243108
70
0
0
VERTEX
8
Layer 1
10
70.923382
20
198.824784
70
0
0
VERTEX
8
Layer 1
10
70.809225
20
198.619635
70
0
0
VERTEX
8
Layer 1
10
69.244133
20
195.678531
70
0
0
VERTEX
8
Layer 1
10
67.930042
20
193.211065
70
0
0
VERTEX
8
Layer 1
10
67.916824
20
193.174431
70
0
0
VERTEX
8
Layer 1
10
67.905939
20
193.126216
70
0
0
VERTEX
8
Layer 1
10
68.086271
20
192.778549
70
0
0
VERTEX
8
Layer 1
10
68.689887
20
192.550481
70
0
0
VERTEX
8
Layer 1
10
69.974450
20
192.420482
70
0
0
VERTEX
8
Layer 1
10
71.946999
20
192.411014
70
0
0
VERTEX
8
Layer 1
10
73.656030
20
192.428486
70
0
0
VERTEX
8
Layer 1
10
79.372797
20
192.867144
70
0
0
VERTEX
8
Layer 1
10
80.941670
20
193.072769
70
0
0
VERTEX
8
Layer 1
10
81.309405
20
193.214677
70
0
0
VERTEX
8
Layer 1
10
81.449111
20
193.505285
70
0
0
VERTEX
8
Layer 1
10
81.451855
20
193.553024
70
0
0
VERTEX
8
Layer 1
10
81.484465
20
193.786772
70
0
0
VERTEX
8
Layer 1
10
81.554804
20
194.019776
70
0
0
VERTEX
8
Layer 1
10
81.713488
20
194.099697
70
0
0
VERTEX
8
Layer 1
10
81.930217
20
194.093066
70
0
0
VERTEX
8
Layer 1
10
82.105049
20
193.977887
70
0
0
VERTEX
8
Layer 1
10
82.223997
20
193.681583
70
0
0
VERTEX
8
Layer 1
10
82.632642
20
192.815848
70
0
0
VERTEX
8
Layer 1
10
83.161823
20
192.279336
70
0
0
VERTEX
8
Layer 1
10
83.228945
20
192.255690
70
0
0
VERTEX
8
Layer 1
10
83.250441
20
192.250019
70
0
0
VERTEX
8
Layer 1
10
83.251356
20
192.250019
70
0
0
VERTEX
8
Layer 1
10
83.616172
20
192.311902
70
0
0
VERTEX
8
Layer 1
10
84.055913
20
192.581014
70
0
0
VERTEX
8
Layer 1
10
85.099827
20
193.693868
70
0
0
VERTEX
8
Layer 1
10
85.959213
20
194.977315
70
0
0
VERTEX
8
Layer 1
10
86.766047
20
196.488751
70
0
0
VERTEX
8
Layer 1
10
88.166413
20
200.019466
70
0
0
VERTEX
8
Layer 1
10
89.189639
20
203.933773
70
0
0
VERTEX
8
Layer 1
10
89.724436
20
207.879433
70
0
0
VERTEX
8
Layer 1
10
89.741679
20
208.323767
70
0
0
VERTEX
8
Layer 1
10
89.786820
20
209.857423
70
0
0
VERTEX
8
Layer 1
10
89.783618
20
209.927148
70
0
0
VERTEX
8
Layer 1
10
89.764226
20
210.022160
70
0
0
VERTEX
8
Layer 1
10
89.616746
20
209.215034
70
0
0
VERTEX
8
Layer 1
10
89.153033
20
207.164245
70
0
0
VERTEX
8
Layer 1
10
88.902976
20
206.609065
70
0
0
VERTEX
8
Layer 1
10
88.591473
20
206.327103
70
0
0
VERTEX
8
Layer 1
10
88.492917
20
206.385956
70
0
0
VERTEX
8
Layer 1
10
88.373559
20
206.560379
70
0
0
VERTEX
8
Layer 1
10
88.410194
20
207.325437
70
0
0
VERTEX
8
Layer 1
10
88.488658
20
208.153830
70
0
0
VERTEX
8
Layer 1
10
88.594780
20
209.270338
70
0
0
VERTEX
8
Layer 1
10
88.708993
20
211.276392
70
0
0
VERTEX
8
Layer 1
10
88.626475
20
212.556039
70
0
0
VERTEX
8
Layer 1
10
88.465992
20
212.459372
70
0
0
VERTEX
8
Layer 1
10
88.176940
20
210.981257
70
0
0
VERTEX
8
Layer 1
10
87.910742
20
208.908718
70
0
0
VERTEX
8
Layer 1
10
87.492716
20
207.291638
70
0
0
VERTEX
8
Layer 1
10
87.414485
20
207.088849
70
0
0
VERTEX
8
Layer 1
10
87.413570
20
207.086105
70
0
0
VERTEX
8
Layer 1
10
87.186313
20
206.662584
70
0
0
VERTEX
8
Layer 1
10
86.961913
20
206.508711
70
0
0
VERTEX
8
Layer 1
10
86.960998
20
206.508711
70
0
0
VERTEX
8
Layer 1
10
86.736233
20
206.644140
70
0
0
VERTEX
8
Layer 1
10
86.825098
20
207.973356
70
0
0
VERTEX
8
Layer 1
10
87.076806
20
210.260014
70
0
0
VERTEX
8
Layer 1
10
87.140860
20
211.312706
70
0
0
VERTEX
8
Layer 1
10
87.042065
20
211.201151
70
0
0
VERTEX
8
Layer 1
10
86.659891
20
210.441527
70
0
0
VERTEX
8
Layer 1
10
84.876638
20
206.167101
70
0
0
VERTEX
8
Layer 1
10
83.398772
20
201.305285
70
0
0
VERTEX
8
Layer 1
10
82.997725
20
199.854513
70
0
0
VERTEX
8
Layer 1
10
82.722346
20
199.550646
70
0
0
VERTEX
8
Layer 1
10
82.716217
20
199.551104
70
0
0
VERTEX
8
Layer 1
10
82.711644
20
199.550646
70
0
0
VERTEX
8
Layer 1
10
82.584255
20
199.582067
70
0
0
VERTEX
8
Layer 1
10
82.560152
20
199.602648
70
0
0
VERTEX
8
Layer 1
10
82.482392
20
199.799286
70
0
0
VERTEX
8
Layer 1
10
82.440086
20
200.611379
70
0
0
VERTEX
8
Layer 1
10
82.866560
20
203.151166
70
0
0
VERTEX
8
Layer 1
10
84.080810
20
206.865127
70
0
0
VERTEX
8
Layer 1
10
84.562488
20
208.156529
70
0
0
VERTEX
8
Layer 1
10
84.487291
20
208.427683
70
0
0
VERTEX
8
Layer 1
10
84.120514
20
208.870299
70
0
0
VERTEX
8
Layer 1
10
83.276520
20
209.677425
70
0
0
VERTEX
8
Layer 1
10
82.193239
20
210.631252
70
0
0
VERTEX
8
Layer 1
10
81.216796
20
211.304427
70
0
0
VERTEX
8
Layer 1
10
80.303672
20
211.716503
70
0
0
VERTEX
8
Layer 1
10
79.410351
20
211.887036
70
0
0
VERTEX
8
Layer 1
10
79.165256
20
211.890695
70
0
0
VERTEX
8
Layer 1
10
78.823265
20
211.877934
70
0
0
VERTEX
8
Layer 1
10
78.372313
20
211.816246
70
0
0
VERTEX
8
Layer 1
10
77.055296
20
211.412954
70
0
0
VERTEX
8
Layer 1
10
76.090379
20
210.892127
70
0
0
VERTEX
8
Layer 1
10
75.888074
20
210.753012
70
0
0
VERTEX
8
Layer 1
10
75.735856
20
210.862810
70
0
0
VERTEX
8
Layer 1
10
75.656212
20
210.974132
70
0
0
VERTEX
8
Layer 1
10
75.652402
20
211.251042
70
0
0
VERTEX
8
Layer 1
10
76.152068
20
211.783622
70
0
0
VERTEX
8
Layer 1
10
76.216587
20
211.841762
70
0
0
VERTEX
8
Layer 1
10
76.230537
20
211.854980
70
0
0
VERTEX
8
Layer 1
10
76.245904
20
211.867969
70
0
0
VERTEX
8
Layer 1
10
77.200614
20
212.506572
70
0
0
VERTEX
8
Layer 1
10
78.456700
20
212.857321
70
0
0
VERTEX
8
Layer 1
10
78.910484
20
213.055143
70
0
0
VERTEX
8
Layer 1
10
78.023708
20
214.895106
70
0
0
VERTEX
8
Layer 1
10
76.759538
20
217.535740
70
0
0
VERTEX
8
Layer 1
10
75.814472
20
219.956931
70
0
0
VERTEX
8
Layer 1
10
75.164949
20
222.227994
70
0
0
VERTEX
8
Layer 1
10
74.787406
20
224.418247
70
0
0
VERTEX
8
Layer 1
10
74.567603
20
225.772522
70
0
0
VERTEX
8
Layer 1
10
73.465041
20
225.004862
70
0
0
VERTEX
8
Layer 1
10
71.950530
20
223.832108
70
0
0
VERTEX
8
Layer 1
10
71.016011
20
223.166082
70
0
0
VERTEX
8
Layer 1
10
69.293059
20
222.124361
70
0
0
VERTEX
8
Layer 1
10
67.419989
20
221.265377
70
0
0
VERTEX
8
Layer 1
10
66.698826
20
221.058083
70
0
0
VERTEX
8
Layer 1
10
66.452622
20
221.141057
70
0
0
VERTEX
8
Layer 1
10
66.408899
20
221.258996
70
0
0
VERTEX
8
Layer 1
10
66.381732
20
221.386152
70
0
0
VERTEX
8
Layer 1
10
66.401810
20
221.405041
70
0
0
VERTEX
8
Layer 1
10
66.576233
20
221.635006
70
0
0
VERTEX
8
Layer 1
10
69.895263
20
223.608976
70
0
0
VERTEX
8
Layer 1
10
72.574611
20
225.602221
70
0
0
VERTEX
8
Layer 1
10
75.071500
20
227.803905
70
0
0
VERTEX
8
Layer 1
10
76.315158
20
229.123672
70
0
0
VERTEX
8
Layer 1
10
78.156544
20
231.473670
70
0
0
VERTEX
8
Layer 1
10
78.493101
20
231.981582
70
0
0
VERTEX
8
Layer 1
10
78.521915
20
232.041144
70
0
0
VERTEX
8
Layer 1
10
78.805771
20
232.539836
70
0
0
VERTEX
8
Layer 1
10
78.998155
20
232.818016
70
0
0
VERTEX
8
Layer 1
10
79.016358
20
232.857029
70
0
0
VERTEX
8
Layer 1
10
78.428326
20
232.926753
70
0
0
VERTEX
8
Layer 1
10
77.087954
20
233.373806
70
0
0
VERTEX
8
Layer 1
10
75.927065
20
234.266370
70
0
0
VERTEX
8
Layer 1
10
75.376691
20
235.008131
70
0
0
VERTEX
8
Layer 1
10
74.987384
20
235.835091
70
0
0
VERTEX
8
Layer 1
10
74.754344
20
236.760270
70
0
0
VERTEX
8
Layer 1
10
74.672769
20
237.796690
70
0
0
VERTEX
8
Layer 1
10
74.671854
20
237.887211
70
0
0
VERTEX
8
Layer 1
10
74.671621
20
237.908021
70
0
0
VERTEX
8
Layer 1
10
74.672993
20
237.977979
70
0
0
VERTEX
8
Layer 1
10
74.675280
20
238.097098
70
0
0
VERTEX
8
Layer 1
10
74.904093
20
239.627705
70
0
0
VERTEX
8
Layer 1
10
75.503440
20
240.821473
70
0
0
VERTEX
8
Layer 1
10
75.832670
20
241.222321
70
0
0
VERTEX
8
Layer 1
10
75.840445
20
241.231057
70
0
0
VERTEX
8
Layer 1
10
75.871637
20
241.263895
70
0
0
VERTEX
8
Layer 1
10
76.474885
20
241.811962
70
0
0
VERTEX
8
Layer 1
10
77.131860
20
242.192679
70
0
0
VERTEX
8
Layer 1
10
77.865460
20
242.417792
70
0
0
VERTEX
8
Layer 1
10
78.698584
20
242.499046
70
0
0
VERTEX
8
Layer 1
10
79.385886
20
242.576331
70
0
0
VERTEX
8
Layer 1
10
79.391329
20
242.597141
70
0
0
VERTEX
8
Layer 1
10
79.079588
20
243.493132
70
0
0
VERTEX
8
Layer 1
10
77.983573
20
246.740044
70
0
0
VERTEX
8
Layer 1
10
77.217172
20
249.830312
70
0
0
VERTEX
8
Layer 1
10
76.047488
20
254.489191
70
0
0
VERTEX
8
Layer 1
10
75.135940
20
256.719549
70
0
0
VERTEX
8
Layer 1
10
74.133313
20
258.555311
70
0
0
VERTEX
8
Layer 1
10
73.706939
20
259.209520
70
0
0
VERTEX
8
Layer 1
10
73.041384
20
260.137656
70
0
0
VERTEX
8
Layer 1
10
72.390012
20
261.254870
70
0
0
VERTEX
8
Layer 1
10
72.417549
20
261.399003
70
0
0
VERTEX
8
Layer 1
10
72.561600
20
261.447256
70
0
0
VERTEX
8
Layer 1
10
72.582181
20
261.445838
70
0
0
VERTEX
8
Layer 1
10
72.597548
20
261.447256
70
0
0
VERTEX
8
Layer 1
10
72.609851
20
261.444421
70
0
0
VERTEX
8
Layer 1
10
72.668704
20
261.447256
70
0
0
VERTEX
8
Layer 1
10
73.092815
20
261.230978
70
0
0
VERTEX
8
Layer 1
10
73.823497
20
260.511322
70
0
0
VERTEX
8
Layer 1
10
74.685927
20
259.575386
70
0
0
VERTEX
8
Layer 1
10
74.669371
20
261.052320
70
0
0
VERTEX
8
Layer 1
10
74.637950
20
262.173788
70
0
0
VERTEX
8
Layer 1
10
74.601544
20
263.153212
70
0
0
VERTEX
8
Layer 1
10
74.163317
20
268.102347
70
0
0
VERTEX
8
Layer 1
10
73.451476
20
272.830217
70
0
0
VERTEX
8
Layer 1
10
73.360955
20
273.281640
70
0
0
VERTEX
8
Layer 1
10
71.545337
20
280.047079
70
0
0
VERTEX
8
Layer 1
10
71.143403
20
281.234578
70
0
0
VERTEX
8
Layer 1
10
70.790982
20
281.944565
70
0
0
VERTEX
8
Layer 1
10
70.294474
20
282.455444
70
0
0
VERTEX
8
Layer 1
10
69.460281
20
283.045618
70
0
0
VERTEX
8
Layer 1
10
68.292020
20
283.755344
70
0
0
VERTEX
8
Layer 1
10
67.162755
20
284.264289
70
0
0
VERTEX
8
Layer 1
10
66.012866
20
284.594406
70
0
0
VERTEX
8
Layer 1
10
64.782732
20
284.767647
70
0
0
VERTEX
8
Layer 1
10
64.347143
20
284.802132
70
0
0
VERTEX
8
Layer 1
10
63.905255
20
284.802406
70
0
0
SEQEND
8
Layer 1
0
POLYLINE
8
Layer 1
62
7
70
0
10
0.000000
20
0.000000
66
1
0
VERTEX
8
Layer 1
10
71.400061
20
252.905678
70
0
0
VERTEX
8
Layer 1
10
71.400299
20
252.905678
70
0
0
VERTEX
8
Layer 1
10
72.491968
20
252.730853
70
0
0
VERTEX
8
Layer 1
10
73.498611
20
252.248126
70
0
0
VERTEX
8
Layer 1
10
74.360776
20
251.480322
70
0
0
VERTEX
8
Layer 1
10
75.019013
20
250.450266
70
0
0
VERTEX
8
Layer 1
10
75.269965
20
249.648729
70
0
0
VERTEX
8
Layer 1
10
75.351776
20
248.750947
70
0
0
VERTEX
8
Layer 1
10
75.264725
20
247.852092
70
0
0
VERTEX
8
Layer 1
10
75.009088
20
247.047336
70
0
0
VERTEX
8
Layer 1
10
74.181734
20
245.897785
70
0
0
VERTEX
8
Layer 1
10
73.043154
20
245.098889
70
0
0
VERTEX
8
Layer 1
10
71.683641
20
244.794599
70
0
0
VERTEX
8
Layer 1
10
70.420884
20
244.909338
70
0
0
VERTEX
8
Layer 1
10
69.553607
20
245.318266
70
0
0
VERTEX
8
Layer 1
10
68.833393
20
245.844662
70
0
0
VERTEX
8
Layer 1
10
68.250824
20
246.497042
70
0
0
VERTEX
8
Layer 1
10
67.796483
20
247.283920
70
0
0
VERTEX
8
Layer 1
10
67.559618
20
248.042454
70
0
0
VERTEX
8
Layer 1
10
67.473527
20
248.894113
70
0
0
VERTEX
8
Layer 1
10
67.539343
20
249.741302
70
0
0
VERTEX
8
Layer 1
10
67.758202
20
250.486427
70
0
0
VERTEX
8
Layer 1
10
68.539991
20
251.690500
70
0
0
VERTEX
8
Layer 1
10
69.662690
20
252.506488
70
0
0
VERTEX
8
Layer 1
10
70.524963
20
252.812825
70
0
0
VERTEX
8
Layer 1
10
71.400074
20
252.905678
70
0
0
VERTEX
8
Layer 1
10
71.400061
20
252.905678
70
0
0
SEQEND
8
Layer 1
0
POLYLINE
8
Layer 1
62
7
70
0
10
0.000000
20
0.000000
66
1
0
VERTEX
8
Layer 1
10
4.429159
20
252.577391
70
0
0
VERTEX
8
Layer 1
10
4.093782
20
252.532488
70
0
0
VERTEX
8
Layer 1
10
5.539282
20
248.438952
70
0
0
VERTEX
8
Layer 1
10
7.936319
20
242.751491
70
0
0
VERTEX
8
Layer 1
10
9.943430
20
238.496863
70
0
0
VERTEX
8
Layer 1
10
11.695421
20
235.124798
70
0
0
VERTEX
8
Layer 1
10
12.234058
20
234.166409
70
0
0
VERTEX
8
Layer 1
10
12.257200
20
234.114179
70
0
0
VERTEX
8
Layer 1
10
12.600852
20
233.546233
70
0
0
VERTEX
8
Layer 1
10
12.684279
20
233.417660
70
0
0
VERTEX
8
Layer 1
10
12.900774
20
233.091265
70
0
0
VERTEX
8
Layer 1
10
13.098596
20
232.799612
70
0
0
VERTEX
8
Layer 1
10
14.120092
20
232.786394
70
0
0
VERTEX
8
Layer 1
10
14.892710
20
232.822800
70
0
0
VERTEX
8
Layer 1
10
20.185279
20
232.778576
70
0
0
VERTEX
8
Layer 1
10
26.984714
20
232.486242
70
0
0
VERTEX
8
Layer 1
10
27.333798
20
232.461636
70
0
0
VERTEX
8
Layer 1
10
28.783939
20
232.360131
70
0
0
VERTEX
8
Layer 1
10
29.277043
20
232.203310
70
0
0
VERTEX
8
Layer 1
10
29.338732
20
232.140913
70
0
0
VERTEX
8
Layer 1
10
29.306645
20
231.546413
70
0
0
VERTEX
8
Layer 1
10
28.844294
20
229.902231
70
0
0
VERTEX
8
Layer 1
10
25.914533
20
219.703135
70
0
0
VERTEX
8
Layer 1
10
25.869849
20
219.343888
70
0
0
VERTEX
8
Layer 1
10
27.029133
20
218.903574
70
0
0
VERTEX
8
Layer 1
10
31.544448
20
217.271356
70
0
0
VERTEX
8
Layer 1
10
33.598642
20
216.378439
70
0
0
VERTEX
8
Layer 1
10
33.679710
20
216.306117
70
0
0
VERTEX
8
Layer 1
10
33.837115
20
216.232610
70
0
0
VERTEX
8
Layer 1
10
33.936618
20
215.916853
70
0
0
VERTEX
8
Layer 1
10
34.074882
20
215.589512
70
0
0
VERTEX
8
Layer 1
10
34.358500
20
214.979732
70
0
0
VERTEX
8
Layer 1
10
34.894298
20
216.280587
70
0
0
VERTEX
8
Layer 1
10
35.682279
20
219.041125
70
0
0
VERTEX
8
Layer 1
10
33.356388
20
220.177011
70
0
0
VERTEX
8
Layer 1
10
31.012295
20
221.331332
70
0
0
VERTEX
8
Layer 1
10
30.997774
20
221.817562
70
0
0
VERTEX
8
Layer 1
10
31.376033
20
222.615878
70
0
0
VERTEX
8
Layer 1
10
31.873545
20
223.450423
70
0
0
VERTEX
8
Layer 1
10
34.138222
20
226.700437
70
0
0
VERTEX
8
Layer 1
10
35.225893
20
228.216604
70
0
0
VERTEX
8
Layer 1
10
35.989057
20
229.287494
70
0
0
VERTEX
8
Layer 1
10
36.434810
20
229.906723
70
0
0
VERTEX
8
Layer 1
10
36.555347
20
230.147088
70
0
0
VERTEX
8
Layer 1
10
36.330815
20
230.917342
70
0
0
VERTEX
8
Layer 1
10
35.726929
20
233.802882
70
0
0
VERTEX
8
Layer 1
10
35.474056
20
236.761502
70
0
0
VERTEX
8
Layer 1
10
35.345959
20
239.786751
70
0
0
VERTEX
8
Layer 1
10
35.147190
20
243.394594
70
0
0
VERTEX
8
Layer 1
10
35.073212
20
244.779585
70
0
0
VERTEX
8
Layer 1
10
35.066352
20
244.885235
70
0
0
VERTEX
8
Layer 1
10
34.378112
20
245.232664
70
0
0
VERTEX
8
Layer 1
10
32.188588
20
246.204288
70
0
0
VERTEX
8
Layer 1
10
27.289013
20
248.085761
70
0
0
VERTEX
8
Layer 1
10
22.444615
20
249.621530
70
0
0
VERTEX
8
Layer 1
10
17.513814
20
250.851696
70
0
0
VERTEX
8
Layer 1
10
12.355030
20
251.816355
70
0
0
VERTEX
8
Layer 1
10
8.190914
20
252.325017
70
0
0
VERTEX
8
Layer 1
10
4.656014
20
252.576922
70
0
0
VERTEX
8
Layer 1
10
4.429123
20
252.577379
70
0
0
VERTEX
8
Layer 1
10
4.429159
20
252.577391
70
0
0
SEQEND
8
Layer 1
0
POLYLINE
8
Layer 1
62
7
70
0
10
0.000000
20
0.000000
66
1
0
VERTEX
8
Layer 1
10
47.541038
20
251.586152
70
0
0
VERTEX
8
Layer 1
10
47.541276
20
251.586152
70
0
0
VERTEX
8
Layer 1
10
47.784239
20
251.583316
70
0
0
VERTEX
8
Layer 1
10
48.599831
20
251.511140
70
0
0
VERTEX
8
Layer 1
10
49.290952
20
251.260229
70
0
0
VERTEX
8
Layer 1
10
50.119701
20
250.731582
70
0
0
VERTEX
8
Layer 1
10
50.820593
20
250.001443
70
0
0
VERTEX
8
Layer 1
10
51.189298
20
249.431374
70
0
0
VERTEX
8
Layer 1
10
51.294944
20
249.225514
70
0
0
VERTEX
8
Layer 1
10
51.552040
20
248.493025
70
0
0
VERTEX
8
Layer 1
10
51.605976
20
247.531377
70
0
0
VERTEX
8
Layer 1
10
51.539448
20
246.560085
70
0
0
VERTEX
8
Layer 1
10
51.253109
20
245.794696
70
0
0
VERTEX
8
Layer 1
10
50.407806
20
244.660287
70
0
0
VERTEX
8
Layer 1
10
49.202325
20
243.825450
70
0
0
VERTEX
8
Layer 1
10
48.449015
20
243.596726
70
0
0
VERTEX
8
Layer 1
10
47.568691
20
243.520484
70
0
0
VERTEX
8
Layer 1
10
46.688367
20
243.596726
70
0
0
VERTEX
8
Layer 1
10
45.935059
20
243.825450
70
0
0
VERTEX
8
Layer 1
10
45.191834
20
244.268914
70
0
0
VERTEX
8
Layer 1
10
44.568480
20
244.830675
70
0
0
VERTEX
8
Layer 1
10
44.076073
20
245.487487
70
0
0
VERTEX
8
Layer 1
10
43.725686
20
246.216104
70
0
0
VERTEX
8
Layer 1
10
43.628547
20
246.518866
70
0
0
VERTEX
8
Layer 1
10
43.487587
20
247.536726
70
0
0
VERTEX
8
Layer 1
10
43.630377
20
248.570596
70
0
0
VERTEX
8
Layer 1
10
43.969136
20
249.442717
70
0
0
VERTEX
8
Layer 1
10
44.450664
20
250.175224
70
0
0
VERTEX
8
Layer 1
10
45.083137
20
250.777944
70
0
0
VERTEX
8
Layer 1
10
45.874729
20
251.260701
70
0
0
VERTEX
8
Layer 1
10
46.591104
20
251.522243
70
0
0
VERTEX
8
Layer 1
10
47.510962
20
251.584734
70
0
0
VERTEX
8
Layer 1
10
47.540965
20
251.586152
70
0
0
VERTEX
8
Layer 1
10
47.541038
20
251.586152
70
0
0
SEQEND
8
Layer 1
0
POLYLINE
8
Layer 1
62
7
70
0
10
0.000000
20
0.000000
66
1
0
VERTEX
8
Layer 1
10
62.707448
20
246.525719
70
0
0
VERTEX
8
Layer 1
10
62.707681
20
246.525719
70
0
0
VERTEX
8
Layer 1
10
63.235891
20
246.412852
70
0
0
VERTEX
8
Layer 1
10
63.421451
20
246.129600
70
0
0
VERTEX
8
Layer 1
10
63.215810
20
245.561192
70
0
0
VERTEX
8
Layer 1
10
62.790170
20
245.058001
70
0
0
VERTEX
8
Layer 1
10
62.506081
20
244.912649
70
0
0
VERTEX
8
Layer 1
10
62.464965
20
244.900849
70
0
0
VERTEX
8
Layer 1
10
62.436608
20
244.895636
70
0
0
VERTEX
8
Layer 1
10
62.380358
20
244.890925
70
0
0
VERTEX
8
Layer 1
10
61.775778
20
245.071729
70
0
0
VERTEX
8
Layer 1
10
61.196728
20
245.604219
70
0
0
VERTEX
8
Layer 1
10
61.073593
20
245.998448
70
0
0
VERTEX
8
Layer 1
10
61.077252
20
246.015466
70
0
0
VERTEX
8
Layer 1
10
61.221188
20
246.178073
70
0
0
VERTEX
8
Layer 1
10
61.225304
20
246.182555
70
0
0
VERTEX
8
Layer 1
10
62.186057
20
246.499970
70
0
0
VERTEX
8
Layer 1
10
62.707439
20
246.525733
70
0
0
VERTEX
8
Layer 1
10
62.707448
20
246.525719
70
0
0
SEQEND
8
Layer 1
0
POLYLINE
8
Layer 1
62
7
70
0
10
0.000000
20
0.000000
66
1
0
VERTEX
8
Layer 1
10
62.582890
20
243.320611
70
0
0
VERTEX
8
Layer 1
10
62.583128
20
243.320611
70
0
0
VERTEX
8
Layer 1
10
62.985628
20
243.271687
70
0
0
VERTEX
8
Layer 1
10
65.472239
20
242.239559
70
0
0
VERTEX
8
Layer 1
10
67.873763
20
241.305753
70
0
0
VERTEX
8
Layer 1
10
68.794338
20
241.304838
70
0
0
VERTEX
8
Layer 1
10
69.488253
20
241.528423
70
0
0
VERTEX
8
Layer 1
10
70.297850
20
241.822004
70
0
0
VERTEX
8
Layer 1
10
70.480436
20
241.670232
70
0
0
VERTEX
8
Layer 1
10
70.268987
20
241.157154
70
0
0
VERTEX
8
Layer 1
10
69.550884
20
240.614229
70
0
0
VERTEX
8
Layer 1
10
68.971126
20
240.190933
70
0
0
VERTEX
8
Layer 1
10
68.850822
20
239.697204
70
0
0
VERTEX
8
Layer 1
10
68.813730
20
239.378840
70
0
0
VERTEX
8
Layer 1
10
68.461362
20
237.492532
70
0
0
VERTEX
8
Layer 1
10
67.718023
20
234.825373
70
0
0
VERTEX
8
Layer 1
10
66.910517
20
232.497734
70
0
0
VERTEX
8
Layer 1
10
66.005098
20
230.442081
70
0
0
VERTEX
8
Layer 1
10
65.034860
20
228.724933
70
0
0
VERTEX
8
Layer 1
10
64.032895
20
227.412812
70
0
0
VERTEX
8
Layer 1
10
63.037155
20
226.524053
70
0
0
VERTEX
8
Layer 1
10
62.039484
20
226.016863
70
0
0
VERTEX
8
Layer 1
10
61.019802
20
225.884857
70
0
0
VERTEX
8
Layer 1
10
59.958033
20
226.121648
70
0
0
VERTEX
8
Layer 1
10
59.566167
20
226.303636
70
0
0
VERTEX
8
Layer 1
10
59.204084
20
226.517058
70
0
0
VERTEX
8
Layer 1
10
58.263341
20
227.296627
70
0
0
VERTEX
8
Layer 1
10
57.357453
20
228.356651
70
0
0
VERTEX
8
Layer 1
10
56.503623
20
229.663048
70
0
0
VERTEX
8
Layer 1
10
55.719058
20
231.181733
70
0
0
VERTEX
8
Layer 1
10
54.426540
20
234.719636
70
0
0
VERTEX
8
Layer 1
10
53.952998
20
236.670686
70
0
0
VERTEX
8
Layer 1
10
53.617541
20
238.697690
70
0
0
VERTEX
8
Layer 1
10
53.431066
20
239.631733
70
0
0
VERTEX
8
Layer 1
10
53.422559
20
239.651811
70
0
0
VERTEX
8
Layer 1
10
53.386611
20
239.731223
70
0
0
VERTEX
8
Layer 1
10
53.379293
20
239.742794
70
0
0
VERTEX
8
Layer 1
10
53.287830
20
239.847259
70
0
0
VERTEX
8
Layer 1
10
52.810406
20
240.225180
70
0
0
VERTEX
8
Layer 1
10
52.810173
20
240.225180
70
0
0
VERTEX
8
Layer 1
10
52.607860
20
240.403857
70
0
0
VERTEX
8
Layer 1
10
52.263049
20
240.778521
70
0
0
VERTEX
8
Layer 1
10
52.205593
20
241.037978
70
0
0
VERTEX
8
Layer 1
10
52.208337
20
241.050052
70
0
0
VERTEX
8
Layer 1
10
52.209252
20
241.052796
70
0
0
VERTEX
8
Layer 1
10
52.209490
20
241.053711
70
0
0
VERTEX
8
Layer 1
10
52.229568
20
241.101455
70
0
0
VERTEX
8
Layer 1
10
52.394067
20
241.207100
70
0
0
VERTEX
8
Layer 1
10
52.595433
20
241.163148
70
0
0
VERTEX
8
Layer 1
10
52.597263
20
241.162691
70
0
0
VERTEX
8
Layer 1
10
52.650911
20
241.144945
70
0
0
VERTEX
8
Layer 1
10
53.534142
20
240.823513
70
0
0
VERTEX
8
Layer 1
10
54.369490
20
240.582144
70
0
0
VERTEX
8
Layer 1
10
55.237497
20
240.512951
70
0
0
VERTEX
8
Layer 1
10
55.975792
20
240.565065
70
0
0
VERTEX
8
Layer 1
10
56.764440
20
240.785299
70
0
0
VERTEX
8
Layer 1
10
59.518459
20
242.113496
70
0
0
VERTEX
8
Layer 1
10
59.747007
20
242.230727
70
0
0
VERTEX
8
Layer 1
10
60.063001
20
242.392861
70
0
0
VERTEX
8
Layer 1
10
61.630566
20
243.115594
70
0
0
VERTEX
8
Layer 1
10
62.582698
20
243.320762
70
0
0
VERTEX
8
Layer 1
10
62.582890
20
243.320611
70
0
0
SEQEND
8
Layer 1
0
POLYLINE
8
Layer 1
62
7
70
0
10
0.000000
20
0.000000
66
1
0
VERTEX
8
Layer 1
10
42.221571
20
240.343582
70
0
0
VERTEX
8
Layer 1
10
43.518166
20
240.144225
70
0
0
VERTEX
8
Layer 1
10
44.736543
20
239.581126
70
0
0
VERTEX
8
Layer 1
10
45.465774
20
239.042825
70
0
0
VERTEX
8
Layer 1
10
46.067415
20
238.359211
70
0
0
VERTEX
8
Layer 1
10
46.571545
20
237.518286
70
0
0
VERTEX
8
Layer 1
10
46.864378
20
236.509794
70
0
0
VERTEX
8
Layer 1
10
46.965773
20
235.582110
70
0
0
VERTEX
8
Layer 1
10
46.888481
20
234.669592
70
0
0
VERTEX
8
Layer 1
10
46.788635
20
234.012182
70
0
0
VERTEX
8
Layer 1
10
46.494489
20
233.344862
70
0
0
VERTEX
8
Layer 1
10
45.799305
20
232.302088
70
0
0
VERTEX
8
Layer 1
10
44.889155
20
231.502113
70
0
0
VERTEX
8
Layer 1
10
43.779678
20
230.955359
70
0
0
VERTEX
8
Layer 1
10
42.486510
20
230.672247
70
0
0
VERTEX
8
Layer 1
10
41.397422
20
230.721647
70
0
0
VERTEX
8
Layer 1
10
39.840129
20
231.272098
70
0
0
VERTEX
8
Layer 1
10
39.485135
20
231.457868
70
0
0
VERTEX
8
Layer 1
10
39.295820
20
231.616691
70
0
0
VERTEX
8
Layer 1
10
38.461115
20
232.413676
70
0
0
VERTEX
8
Layer 1
10
37.834249
20
233.420496
70
0
0
VERTEX
8
Layer 1
10
37.819339
20
233.448166
70
0
0
VERTEX
8
Layer 1
10
37.554390
20
234.146098
70
0
0
VERTEX
8
Layer 1
10
37.392732
20
234.776674
70
0
0
VERTEX
8
Layer 1
10
37.303456
20
235.503933
70
0
0
VERTEX
8
Layer 1
10
37.380429
20
236.202086
70
0
0
VERTEX
8
Layer 1
10
37.896350
20
237.702454
70
0
0
VERTEX
8
Layer 1
10
38.767022
20
238.897132
70
0
0
VERTEX
8
Layer 1
10
39.967959
20
239.761763
70
0
0
VERTEX
8
Layer 1
10
41.474674
20
240.271987
70
0
0
VERTEX
8
Layer 1
10
42.221534
20
240.343600
70
0
0
VERTEX
8
Layer 1
10
42.221571
20
240.343582
70
0
0
SEQEND
8
Layer 1
0
POLYLINE
8
Layer 1
62
7
70
0
10
0.000000
20
0.000000
66
1
0
VERTEX
8
Layer 1
10
78.878879
20
241.509651
70
0
0
VERTEX
8
Layer 1
10
77.518935
20
241.248014
70
0
0
VERTEX
8
Layer 1
10
76.547801
20
240.529578
70
0
0
VERTEX
8
Layer 1
10
75.880572
20
239.448463
70
0
0
VERTEX
8
Layer 1
10
75.650754
20
237.871053
70
0
0
VERTEX
8
Layer 1
10
75.919806
20
236.213336
70
0
0
VERTEX
8
Layer 1
10
76.139610
20
235.715824
70
0
0
VERTEX
8
Layer 1
10
76.814914
20
234.809483
70
0
0
VERTEX
8
Layer 1
10
77.639945
20
234.167747
70
0
0
VERTEX
8
Layer 1
10
78.540562
20
233.985545
70
0
0
VERTEX
8
Layer 1
10
79.444695
20
234.116459
70
0
0
VERTEX
8
Layer 1
10
79.854540
20
234.652911
70
0
0
VERTEX
8
Layer 1
10
80.197068
20
235.701856
70
0
0
VERTEX
8
Layer 1
10
80.410098
20
237.000574
70
0
0
VERTEX
8
Layer 1
10
80.431447
20
238.286342
70
0
0
VERTEX
8
Layer 1
10
80.119152
20
240.229111
70
0
0
VERTEX
8
Layer 1
10
79.685061
20
241.323172
70
0
0
VERTEX
8
Layer 1
10
78.878879
20
241.509651
70
0
0
VERTEX
8
Layer 1
10
78.878879
20
241.509651
70
0
0
SEQEND
8
Layer 1
0
POLYLINE
8
Layer 1
62
7
70
0
10
0.000000
20
0.000000
66
1
0
VERTEX
8
Layer 1
10
42.247119
20
239.437355
70
0
0
VERTEX
8
Layer 1
10
41.645851
20
239.379685
70
0
0
VERTEX
8
Layer 1
10
40.432869
20
238.968927
70
0
0
VERTEX
8
Layer 1
10
39.466042
20
238.272849
70
0
0
VERTEX
8
Layer 1
10
38.765095
20
237.311067
70
0
0
VERTEX
8
Layer 1
10
38.349747
20
236.103198
70
0
0
VERTEX
8
Layer 1
10
38.359669
20
234.955730
70
0
0
VERTEX
8
Layer 1
10
38.489661
20
234.448056
70
0
0
VERTEX
8
Layer 1
10
38.703083
20
233.886021
70
0
0
VERTEX
8
Layer 1
10
38.714905
20
233.863804
70
0
0
VERTEX
8
Layer 1
10
39.219632
20
233.053282
70
0
0
VERTEX
8
Layer 1
10
39.891680
20
232.411684
70
0
0
VERTEX
8
Layer 1
10
40.044124
20
232.283820
70
0
0
VERTEX
8
Layer 1
10
40.329868
20
232.134212
70
0
0
VERTEX
8
Layer 1
10
41.583456
20
231.691060
70
0
0
VERTEX
8
Layer 1
10
42.460306
20
231.651354
70
0
0
VERTEX
8
Layer 1
10
43.501367
20
231.879254
70
0
0
VERTEX
8
Layer 1
10
44.394551
20
232.319381
70
0
0
VERTEX
8
Layer 1
10
45.127267
20
232.963362
70
0
0
VERTEX
8
Layer 1
10
45.686924
20
233.802827
70
0
0
VERTEX
8
Layer 1
10
45.923724
20
234.340136
70
0
0
VERTEX
8
Layer 1
10
46.004104
20
234.869464
70
0
0
VERTEX
8
Layer 1
10
45.984723
20
236.350891
70
0
0
VERTEX
8
Layer 1
10
45.748847
20
237.162745
70
0
0
VERTEX
8
Layer 1
10
45.343038
20
237.839644
70
0
0
VERTEX
8
Layer 1
10
44.858714
20
238.389976
70
0
0
VERTEX
8
Layer 1
10
44.271675
20
238.823324
70
0
0
VERTEX
8
Layer 1
10
43.290882
20
239.276634
70
0
0
VERTEX
8
Layer 1
10
42.247121
20
239.437118
70
0
0
VERTEX
8
Layer 1
10
42.247119
20
239.437355
70
0
0
SEQEND
8
Layer 1
0
POLYLINE
8
Layer 1
62
7
70
0
10
0.000000
20
0.000000
66
1
0
VERTEX
8
Layer 1
10
70.706214
20
251.766194
70
0
0
VERTEX
8
Layer 1
10
70.203788
20
251.649791
70
0
0
VERTEX
8
Layer 1
10
69.771030
20
251.339565
70
0
0
VERTEX
8
Layer 1
10
69.467059
20
250.896168
70
0
0
VERTEX
8
Layer 1
10
69.350996
20
250.380251
70
0
0
VERTEX
8
Layer 1
10
69.351238
20
250.359453
70
0
0
VERTEX
8
Layer 1
10
69.694888
20
249.464641
70
0
0
VERTEX
8
Layer 1
10
69.711432
20
249.444551
70
0
0
VERTEX
8
Layer 1
10
69.820625
20
249.332286
70
0
0
VERTEX
8
Layer 1
10
70.045391
20
249.133281
70
0
0
VERTEX
8
Layer 1
10
70.791623
20
248.992545
70
0
0
VERTEX
8
Layer 1
10
71.537454
20
249.231602
70
0
0
VERTEX
8
Layer 1
10
71.847808
20
249.548775
70
0
0
VERTEX
8
Layer 1
10
72.030561
20
249.946824
70
0
0
VERTEX
8
Layer 1
10
72.075303
20
250.387399
70
0
0
VERTEX
8
Layer 1
10
71.971625
20
250.832148
70
0
0
VERTEX
8
Layer 1
10
71.432858
20
251.479123
70
0
0
VERTEX
8
Layer 1
10
70.706220
20
251.766194
70
0
0
VERTEX
8
Layer 1
10
70.706214
20
251.766194
70
0
0
SEQEND
8
Layer 1
0
POLYLINE
8
Layer 1
62
7
70
0
10
0.000000
20
0.000000
66
1
0
VERTEX
8
Layer 1
10
47.726367
20
250.552312
70
0
0
VERTEX
8
Layer 1
10
47.616702
20
250.547109
70
0
0
VERTEX
8
Layer 1
10
46.962471
20
250.317910
70
0
0
VERTEX
8
Layer 1
10
46.529684
20
249.846134
70
0
0
VERTEX
8
Layer 1
10
46.368489
20
249.222724
70
0
0
VERTEX
8
Layer 1
10
46.529030
20
248.538626
70
0
0
VERTEX
8
Layer 1
10
47.014015
20
247.977065
70
0
0
VERTEX
8
Layer 1
10
47.823260
20
247.770087
70
0
0
VERTEX
8
Layer 1
10
48.647413
20
248.110600
70
0
0
VERTEX
8
Layer 1
10
48.987759
20
248.501813
70
0
0
VERTEX
8
Layer 1
10
49.111838
20
249.075845
70
0
0
VERTEX
8
Layer 1
10
49.130036
20
249.298957
70
0
0
VERTEX
8
Layer 1
10
48.996972
20
249.855792
70
0
0
VERTEX
8
Layer 1
10
48.745734
20
250.130192
70
0
0
VERTEX
8
Layer 1
10
48.312037
20
250.471242
70
0
0
VERTEX
8
Layer 1
10
47.726367
20
250.552309
70
0
0
VERTEX
8
Layer 1
10
47.726367
20
250.552312
70
0
0
SEQEND
8
Layer 1
0
POLYLINE
8
Layer 1
62
7
70
0
10
0.000000
20
0.000000
66
1
0
VERTEX
8
Layer 1
10
60.989592
20
237.253374
70
0
0
VERTEX
8
Layer 1
10
59.527551
20
237.030783
70
0
0
VERTEX
8
Layer 1
10
58.142104
20
236.426927
70
0
0
VERTEX
8
Layer 1
10
56.822556
20
235.494873
70
0
0
VERTEX
8
Layer 1
10
55.558211
20
234.287687
70
0
0
VERTEX
8
Layer 1
10
56.380346
20
232.009903
70
0
0
VERTEX
8
Layer 1
10
57.339540
20
230.046556
70
0
0
VERTEX
8
Layer 1
10
58.399547
20
228.477198
70
0
0
VERTEX
8
Layer 1
10
59.524125
20
227.381382
70
0
0
VERTEX
8
Layer 1
10
59.852404
20
227.167960
70
0
0
VERTEX
8
Layer 1
10
60.207681
20
226.985971
70
0
0
VERTEX
8
Layer 1
10
61.170322
20
226.749181
70
0
0
VERTEX
8
Layer 1
10
62.094802
20
226.881187
70
0
0
VERTEX
8
Layer 1
10
62.999326
20
227.388378
70
0
0
VERTEX
8
Layer 1
10
63.902099
20
228.277140
70
0
0
VERTEX
8
Layer 1
10
64.679015
20
229.371418
70
0
0
VERTEX
8
Layer 1
10
65.437987
20
230.768638
70
0
0
VERTEX
8
Layer 1
10
66.827892
20
234.304701
70
0
0
VERTEX
8
Layer 1
10
65.244986
20
235.656117
70
0
0
VERTEX
8
Layer 1
10
63.748939
20
236.574902
70
0
0
VERTEX
8
Layer 1
10
62.332793
20
237.095755
70
0
0
VERTEX
8
Layer 1
10
60.989592
20
237.253374
70
0
0
VERTEX
8
Layer 1
10
60.989592
20
237.253374
70
0
0
SEQEND
8
Layer 1
 0 
ENDSEC
 0 
EOF