999
"DXF R12 Output" (www.mydxf.blogspot.com)
 0 
SECTION
 2 
HEADER
 9 
$ACADVER
 1 
AC1009
 9 
$EXTMIN
 10 
 0 
 20 
 0 
 9 
$EXTMAX
 10 
 8.5 
 20 
 11 
 0 
ENDSEC
 0 
SECTION
 2 
ENTITIES
0
POLYLINE
8
Layer 1
62
7
70
1
10
0.000000
20
0.000000
66
1
0
VERTEX
8
Layer 1
10
0.000000
20
55.033300
70
0
0
VERTEX
8
Layer 1
10
55.033264
20
55.033300
70
0
0
VERTEX
8
Layer 1
10
55.033264
20
0.000036
70
0
0
VERTEX
8
Layer 1
10
0.000000
20
0.000036
70
0
0
VERTEX
8
Layer 1
10
0.000000
20
55.033300
70
0
0
VERTEX
8
Layer 1
10
0.000000
20
55.033300
70
0
0
SEQEND
8
Layer 1
0
POLYLINE
8
Layer 1
62
7
70
1
10
0.000000
20
0.000000
66
1
0
VERTEX
8
Layer 1
10
0.000000
20
55.033300
70
0
0
VERTEX
8
Layer 1
10
55.033264
20
55.033300
70
0
0
VERTEX
8
Layer 1
10
55.033264
20
11.641688
70
0
0
VERTEX
8
Layer 1
10
52.459593
20
12.008496
70
0
0
VERTEX
8
Layer 1
10
51.887583
20
12.264059
70
0
0
VERTEX
8
Layer 1
10
51.329102
20
12.700020
70
0
0
VERTEX
8
Layer 1
10
50.189121
20
14.287518
70
0
0
VERTEX
8
Layer 1
10
49.192468
20
15.186008
70
0
0
VERTEX
8
Layer 1
10
48.032150
20
15.872949
70
0
0
VERTEX
8
Layer 1
10
47.624940
20
16.139599
70
0
0
VERTEX
8
Layer 1
10
47.624940
20
16.668765
70
0
0
VERTEX
8
Layer 1
10
44.979110
20
16.404182
70
0
0
VERTEX
8
Layer 1
10
45.243693
20
21.695842
70
0
0
VERTEX
8
Layer 1
10
44.377634
20
21.302731
70
0
0
VERTEX
8
Layer 1
10
43.798349
20
20.896190
70
0
0
VERTEX
8
Layer 1
10
42.862446
20
19.579178
70
0
0
VERTEX
8
Layer 1
10
41.225339
20
19.827225
70
0
0
VERTEX
8
Layer 1
10
40.481199
20
20.372927
70
0
0
VERTEX
8
Layer 1
10
40.481199
20
21.166676
70
0
0
VERTEX
8
Layer 1
10
41.407240
20
21.480868
70
0
0
VERTEX
8
Layer 1
10
42.872921
20
22.152395
70
0
0
VERTEX
8
Layer 1
10
44.248406
20
22.996019
70
0
0
VERTEX
8
Layer 1
10
45.508276
20
23.547923
70
0
0
VERTEX
8
Layer 1
10
45.541349
20
26.474872
70
0
0
VERTEX
8
Layer 1
10
45.554785
20
27.307379
70
0
0
VERTEX
8
Layer 1
10
45.459935
20
29.428400
70
0
0
VERTEX
8
Layer 1
10
44.979110
20
31.485413
70
0
0
VERTEX
8
Layer 1
10
44.731063
20
32.361844
70
0
0
VERTEX
8
Layer 1
10
44.421549
20
33.108051
70
0
0
VERTEX
8
Layer 1
10
43.656195
20
33.602077
70
0
0
VERTEX
8
Layer 1
10
41.497186
20
33.699008
70
0
0
VERTEX
8
Layer 1
10
39.233919
20
33.426840
70
0
0
VERTEX
8
Layer 1
10
36.998980
20
32.911562
70
0
0
VERTEX
8
Layer 1
10
34.924956
20
32.279162
70
0
0
VERTEX
8
Layer 1
10
34.660373
20
31.749996
70
0
0
VERTEX
8
Layer 1
10
34.131207
20
32.014579
70
0
0
VERTEX
8
Layer 1
10
33.833551
20
34.230462
70
0
0
VERTEX
8
Layer 1
10
33.765468
20
34.881971
70
0
0
VERTEX
8
Layer 1
10
33.600411
20
37.281783
70
0
0
VERTEX
8
Layer 1
10
33.602041
20
39.687486
70
0
0
VERTEX
8
Layer 1
10
32.279126
20
39.687486
70
0
0
VERTEX
8
Layer 1
10
32.312199
20
39.059101
70
0
0
VERTEX
8
Layer 1
10
32.217114
20
38.385242
70
0
0
VERTEX
8
Layer 1
10
31.749960
20
37.835405
70
0
0
VERTEX
8
Layer 1
10
30.679237
20
37.731654
70
0
0
VERTEX
8
Layer 1
10
29.633296
20
37.835405
70
0
0
VERTEX
8
Layer 1
10
28.624145
20
39.028714
70
0
0
VERTEX
8
Layer 1
10
28.020777
20
40.362051
70
0
0
VERTEX
8
Layer 1
10
27.694502
20
41.821125
70
0
0
VERTEX
8
Layer 1
10
27.516632
20
43.391648
70
0
0
VERTEX
8
Layer 1
10
27.500096
20
45.772895
70
0
0
VERTEX
8
Layer 1
10
27.503713
20
46.394045
70
0
0
VERTEX
8
Layer 1
10
27.516632
20
47.889559
70
0
0
VERTEX
8
Layer 1
10
25.929134
20
47.889559
70
0
0
VERTEX
8
Layer 1
10
25.850586
20
47.065838
70
0
0
VERTEX
8
Layer 1
10
25.516201
20
44.644057
70
0
0
VERTEX
8
Layer 1
10
24.941127
20
42.405991
70
0
0
VERTEX
8
Layer 1
10
23.980525
20
40.322531
70
0
0
VERTEX
8
Layer 1
10
22.489555
20
38.364571
70
0
0
VERTEX
8
Layer 1
10
21.360897
20
37.834478
70
0
0
VERTEX
8
Layer 1
10
20.108308
20
37.835405
70
0
0
VERTEX
8
Layer 1
10
18.520810
20
38.364571
70
0
0
VERTEX
8
Layer 1
10
18.775058
20
37.569788
70
0
0
VERTEX
8
Layer 1
10
19.085891
20
36.006571
70
0
0
VERTEX
8
Layer 1
10
19.215340
20
34.412362
70
0
0
VERTEX
8
Layer 1
10
19.246346
20
33.864076
70
0
0
VERTEX
8
Layer 1
10
19.314559
20
32.543745
70
0
0
VERTEX
8
Layer 1
10
18.256227
20
32.808328
70
0
0
VERTEX
8
Layer 1
10
18.785393
20
32.808328
70
0
0
VERTEX
8
Layer 1
10
18.437161
20
33.291750
70
0
0
VERTEX
8
Layer 1
10
18.004618
20
33.585413
70
0
0
VERTEX
8
Layer 1
10
16.900239
20
33.982415
70
0
0
VERTEX
8
Layer 1
10
14.138654
20
35.139966
70
0
0
VERTEX
8
Layer 1
10
12.116795
20
35.579064
70
0
0
VERTEX
8
Layer 1
10
11.087229
20
35.593832
70
0
0
VERTEX
8
Layer 1
10
10.054154
20
35.454158
70
0
0
VERTEX
8
Layer 1
10
9.304251
20
34.596023
70
0
0
VERTEX
8
Layer 1
10
8.683084
20
33.629993
70
0
0
VERTEX
8
Layer 1
10
7.623298
20
31.584632
70
0
0
VERTEX
8
Layer 1
10
7.262080
20
30.896302
70
0
0
VERTEX
8
Layer 1
10
6.631484
20
29.543484
70
0
0
VERTEX
8
Layer 1
10
6.221192
20
28.248467
70
0
0
VERTEX
8
Layer 1
10
6.037176
20
26.903293
70
0
0
VERTEX
8
Layer 1
10
6.085409
20
25.400004
70
0
0
VERTEX
8
Layer 1
10
6.644397
20
24.582943
70
0
0
VERTEX
8
Layer 1
10
7.320282
20
23.959534
70
0
0
VERTEX
8
Layer 1
10
8.995822
20
23.018757
70
0
0
VERTEX
8
Layer 1
10
10.583320
20
23.018757
70
0
0
VERTEX
8
Layer 1
10
10.864439
20
21.861206
70
0
0
VERTEX
8
Layer 1
10
11.022569
20
21.210084
70
0
0
VERTEX
8
Layer 1
10
11.068174
20
20.642936
70
0
0
VERTEX
8
Layer 1
10
10.847903
20
20.108344
70
0
0
VERTEX
8
Layer 1
10
7.747640
20
20.154067
70
0
0
VERTEX
8
Layer 1
10
6.270494
20
20.406909
70
0
0
VERTEX
8
Layer 1
10
4.762494
20
20.902093
70
0
0
VERTEX
8
Layer 1
10
4.762494
20
20.108344
70
0
0
VERTEX
8
Layer 1
10
5.407415
20
19.876834
70
0
0
VERTEX
8
Layer 1
10
6.033733
20
19.550239
70
0
0
VERTEX
8
Layer 1
10
6.349992
20
19.050012
70
0
0
VERTEX
8
Layer 1
10
5.797055
20
18.941492
70
0
0
VERTEX
8
Layer 1
10
4.077375
20
18.389476
70
0
0
VERTEX
8
Layer 1
10
2.627633
20
17.604949
70
0
0
VERTEX
8
Layer 1
10
1.313339
20
16.589782
70
0
0
VERTEX
8
Layer 1
10
0.000000
20
15.345850
70
0
0
VERTEX
8
Layer 1
10
0.000000
20
55.033300
70
0
0
VERTEX
8
Layer 1
10
0.000000
20
55.033300
70
0
0
SEQEND
8
Layer 1
0
POLYLINE
8
Layer 1
62
7
70
1
10
0.000000
20
0.000000
66
1
0
VERTEX
8
Layer 1
10
7.937500
20
19.314600
70
0
0
VERTEX
8
Layer 1
10
9.856246
20
19.220317
70
0
0
VERTEX
8
Layer 1
10
10.732434
20
18.960466
70
0
0
VERTEX
8
Layer 1
10
11.641662
20
18.520851
70
0
0
VERTEX
8
Layer 1
10
12.170828
20
17.197936
70
0
0
VERTEX
8
Layer 1
10
10.318747
20
15.345855
70
0
0
VERTEX
8
Layer 1
10
10.035595
20
14.242307
70
0
0
VERTEX
8
Layer 1
10
9.906694
20
13.113704
70
0
0
VERTEX
8
Layer 1
10
10.054164
20
10.847944
70
0
0
VERTEX
8
Layer 1
10
11.185973
20
9.308794
70
0
0
VERTEX
8
Layer 1
10
12.620108
20
8.055744
70
0
0
VERTEX
8
Layer 1
10
14.272727
20
7.087236
70
0
0
VERTEX
8
Layer 1
10
16.059991
20
6.401709
70
0
0
VERTEX
8
Layer 1
10
17.727071
20
6.085450
70
0
0
VERTEX
8
Layer 1
10
17.727071
20
5.556284
70
0
0
VERTEX
8
Layer 1
10
20.005088
20
5.558623
70
0
0
VERTEX
8
Layer 1
10
21.508567
20
5.724767
70
0
0
VERTEX
8
Layer 1
10
22.907233
20
6.203544
70
0
0
VERTEX
8
Layer 1
10
24.870812
20
7.143782
70
0
0
VERTEX
8
Layer 1
10
26.722893
20
7.143782
70
0
0
VERTEX
8
Layer 1
10
26.458310
20
7.937531
70
0
0
VERTEX
8
Layer 1
10
26.392335
20
9.122254
70
0
0
VERTEX
8
Layer 1
10
26.472179
20
10.265955
70
0
0
VERTEX
8
Layer 1
10
26.743526
20
11.369922
70
0
0
VERTEX
8
Layer 1
10
27.252059
20
12.435442
70
0
0
VERTEX
8
Layer 1
10
28.406386
20
13.757960
70
0
0
VERTEX
8
Layer 1
10
29.670598
20
14.902849
70
0
0
VERTEX
8
Layer 1
10
31.110597
20
15.753964
70
0
0
VERTEX
8
Layer 1
10
32.792282
20
16.195156
70
0
0
VERTEX
8
Layer 1
10
34.787518
20
16.246099
70
0
0
VERTEX
8
Layer 1
10
36.698893
20
16.089299
70
0
0
VERTEX
8
Layer 1
10
38.579195
20
15.706956
70
0
0
VERTEX
8
Layer 1
10
40.481209
20
15.081272
70
0
0
VERTEX
8
Layer 1
10
41.162304
20
14.834259
70
0
0
VERTEX
8
Layer 1
10
42.597873
20
14.287523
70
0
0
VERTEX
8
Layer 1
10
42.086277
20
15.060601
70
0
0
VERTEX
8
Layer 1
10
41.423786
20
16.073458
70
0
0
VERTEX
8
Layer 1
10
41.086339
20
16.581954
70
0
0
VERTEX
8
Layer 1
10
40.763362
20
17.078047
70
0
0
VERTEX
8
Layer 1
10
40.465254
20
17.531507
70
0
0
VERTEX
8
Layer 1
10
39.952043
20
19.050017
70
0
0
VERTEX
8
Layer 1
10
40.745792
20
18.785434
70
0
0
VERTEX
8
Layer 1
10
42.382899
20
18.768898
70
0
0
VERTEX
8
Layer 1
10
43.254163
20
18.776132
70
0
0
VERTEX
8
Layer 1
10
43.920788
20
18.785434
70
0
0
VERTEX
8
Layer 1
10
43.391622
20
15.610438
70
0
0
VERTEX
8
Layer 1
10
44.127493
20
15.724126
70
0
0
VERTEX
8
Layer 1
10
45.870932
20
15.916014
70
0
0
VERTEX
8
Layer 1
10
46.890466
20
15.919902
70
0
0
VERTEX
8
Layer 1
10
47.580644
20
15.681726
70
0
0
VERTEX
8
Layer 1
10
48.336017
20
15.147418
70
0
0
VERTEX
8
Layer 1
10
49.212448
20
14.287523
70
0
0
VERTEX
8
Layer 1
10
49.664099
20
13.886514
70
0
0
VERTEX
8
Layer 1
10
49.963435
20
13.443648
70
0
0
VERTEX
8
Layer 1
10
50.006197
20
12.700025
70
0
0
VERTEX
8
Layer 1
10
46.037452
20
13.229191
70
0
0
VERTEX
8
Layer 1
10
46.037452
20
12.700025
70
0
0
VERTEX
8
Layer 1
10
46.649300
20
12.600806
70
0
0
VERTEX
8
Layer 1
10
50.535363
20
11.906276
70
0
0
VERTEX
8
Layer 1
10
50.907143
20
10.719414
70
0
0
VERTEX
8
Layer 1
10
51.100070
20
9.536840
70
0
0
VERTEX
8
Layer 1
10
51.214390
20
7.094173
70
0
0
VERTEX
8
Layer 1
10
51.238162
20
6.438916
70
0
0
VERTEX
8
Layer 1
10
51.253148
20
5.848126
70
0
0
VERTEX
8
Layer 1
10
51.475671
20
5.013224
70
0
0
VERTEX
8
Layer 1
10
51.858278
20
4.233369
70
0
0
VERTEX
8
Layer 1
10
51.933358
20
3.184640
70
0
0
VERTEX
8
Layer 1
10
51.858278
20
2.116705
70
0
0
VERTEX
8
Layer 1
10
50.723789
20
1.331721
70
0
0
VERTEX
8
Layer 1
10
49.410885
20
0.876472
70
0
0
VERTEX
8
Layer 1
10
48.695684
20
0.674934
70
0
0
VERTEX
8
Layer 1
10
48.154116
20
0.529207
70
0
0
VERTEX
8
Layer 1
10
48.154116
20
0.000041
70
0
0
VERTEX
8
Layer 1
10
0.000010
20
0.000041
70
0
0
VERTEX
8
Layer 1
10
0.016546
20
7.222330
70
0
0
VERTEX
8
Layer 1
10
0.132301
20
11.145600
70
0
0
VERTEX
8
Layer 1
10
0.446494
20
13.134106
70
0
0
VERTEX
8
Layer 1
10
1.058342
20
14.552106
70
0
0
VERTEX
8
Layer 1
10
1.317757
20
15.276609
70
0
0
VERTEX
8
Layer 1
10
1.916448
20
16.210424
70
0
0
VERTEX
8
Layer 1
10
2.728522
20
16.982962
70
0
0
VERTEX
8
Layer 1
10
3.337270
20
17.523497
70
0
0
VERTEX
8
Layer 1
10
4.161578
20
18.041194
70
0
0
VERTEX
8
Layer 1
10
4.987191
20
18.378682
70
0
0
VERTEX
8
Layer 1
10
6.829559
20
18.686215
70
0
0
VERTEX
8
Layer 1
10
7.611939
20
18.746160
70
0
0
VERTEX
8
Layer 1
10
8.202083
20
18.785434
70
0
0
VERTEX
8
Layer 1
10
7.937500
20
19.314600
70
0
0
VERTEX
8
Layer 1
10
7.937500
20
19.314600
70
0
0
SEQEND
8
Layer 1
0
POLYLINE
8
Layer 1
62
7
70
1
10
0.000000
20
0.000000
66
1
0
VERTEX
8
Layer 1
10
44.232000
20
33.519400
70
0
0
VERTEX
8
Layer 1
10
45.070852
20
32.407800
70
0
0
VERTEX
8
Layer 1
10
45.540324
20
31.104352
70
0
0
VERTEX
8
Layer 1
10
45.758969
20
29.705926
70
0
0
VERTEX
8
Layer 1
10
45.845336
20
28.309389
70
0
0
VERTEX
8
Layer 1
10
45.872208
20
26.838679
70
0
0
VERTEX
8
Layer 1
10
45.902180
20
26.090922
70
0
0
VERTEX
8
Layer 1
10
45.827895
20
24.614704
70
0
0
VERTEX
8
Layer 1
10
45.616051
20
23.980914
70
0
0
VERTEX
8
Layer 1
10
45.197315
20
23.297815
70
0
0
VERTEX
8
Layer 1
10
42.978331
20
21.877748
70
0
0
VERTEX
8
Layer 1
10
42.233158
20
21.467438
70
0
0
VERTEX
8
Layer 1
10
41.494057
20
21.204276
70
0
0
VERTEX
8
Layer 1
10
40.481329
20
21.166681
70
0
0
VERTEX
8
Layer 1
10
40.644125
20
20.624809
70
0
0
VERTEX
8
Layer 1
10
41.010495
20
20.108349
70
0
0
VERTEX
8
Layer 1
10
42.862576
20
19.843766
70
0
0
VERTEX
8
Layer 1
10
43.114757
20
20.248909
70
0
0
VERTEX
8
Layer 1
10
43.457888
20
20.769807
70
0
0
VERTEX
8
Layer 1
10
43.792751
20
21.290704
70
0
0
VERTEX
8
Layer 1
10
44.185491
20
21.695847
70
0
0
VERTEX
8
Layer 1
10
45.243823
20
21.695847
70
0
0
VERTEX
8
Layer 1
10
45.243823
20
16.668770
70
0
0
VERTEX
8
Layer 1
10
47.625070
20
16.668770
70
0
0
VERTEX
8
Layer 1
10
47.625070
20
16.139604
70
0
0
VERTEX
8
Layer 1
10
48.170773
20
15.974240
70
0
0
VERTEX
8
Layer 1
10
49.899504
20
14.890956
70
0
0
VERTEX
8
Layer 1
10
50.603351
20
14.172482
70
0
0
VERTEX
8
Layer 1
10
51.163868
20
13.311873
70
0
0
VERTEX
8
Layer 1
10
51.932615
20
12.593736
70
0
0
VERTEX
8
Layer 1
10
52.905670
20
12.155123
70
0
0
VERTEX
8
Layer 1
10
55.033394
20
11.641693
70
0
0
VERTEX
8
Layer 1
10
55.033394
20
0.000041
70
0
0
VERTEX
8
Layer 1
10
48.154236
20
0.000041
70
0
0
VERTEX
8
Layer 1
10
48.154236
20
0.529207
70
0
0
VERTEX
8
Layer 1
10
48.839465
20
0.809293
70
0
0
VERTEX
8
Layer 1
10
49.725198
20
1.174128
70
0
0
VERTEX
8
Layer 1
10
50.608864
20
1.536896
70
0
0
VERTEX
8
Layer 1
10
51.245607
20
1.795041
70
0
0
VERTEX
8
Layer 1
10
51.593815
20
2.116705
70
0
0
VERTEX
8
Layer 1
10
51.650380
20
3.457484
70
0
0
VERTEX
8
Layer 1
10
51.331687
20
4.725070
70
0
0
VERTEX
8
Layer 1
10
51.047294
20
5.563762
70
0
0
VERTEX
8
Layer 1
10
50.964397
20
6.448218
70
0
0
VERTEX
8
Layer 1
10
50.937009
20
7.107092
70
0
0
VERTEX
8
Layer 1
10
50.915821
20
7.788703
70
0
0
VERTEX
8
Layer 1
10
50.826925
20
9.726839
70
0
0
VERTEX
8
Layer 1
10
50.535483
20
11.641693
70
0
0
VERTEX
8
Layer 1
10
49.820282
20
11.806024
70
0
0
VERTEX
8
Layer 1
10
48.881840
20
12.022031
70
0
0
VERTEX
8
Layer 1
10
47.951665
20
12.235971
70
0
0
VERTEX
8
Layer 1
10
46.037572
20
12.700025
70
0
0
VERTEX
8
Layer 1
10
46.037572
20
13.229191
70
0
0
VERTEX
8
Layer 1
10
48.041139
20
13.132533
70
0
0
VERTEX
8
Layer 1
10
50.006317
20
12.700025
70
0
0
VERTEX
8
Layer 1
10
49.475196
20
13.637190
70
0
0
VERTEX
8
Layer 1
10
48.822043
20
14.433176
70
0
0
VERTEX
8
Layer 1
10
48.033424
20
15.090190
70
0
0
VERTEX
8
Layer 1
10
47.095904
20
15.610438
70
0
0
VERTEX
8
Layer 1
10
45.244442
20
15.694669
70
0
0
VERTEX
8
Layer 1
10
43.391742
20
15.610438
70
0
0
VERTEX
8
Layer 1
10
43.656325
20
17.708203
70
0
0
VERTEX
8
Layer 1
10
43.920908
20
18.785434
70
0
0
VERTEX
8
Layer 1
10
43.524034
20
18.653143
70
0
0
VERTEX
8
Layer 1
10
41.677097
20
18.471467
70
0
0
VERTEX
8
Layer 1
10
40.805779
20
18.633206
70
0
0
VERTEX
8
Layer 1
10
39.952163
20
19.050017
70
0
0
VERTEX
8
Layer 1
10
40.922896
20
17.299726
70
0
0
VERTEX
8
Layer 1
10
42.019218
20
15.626975
70
0
0
VERTEX
8
Layer 1
10
42.525646
20
14.851829
70
0
0
VERTEX
8
Layer 1
10
42.597993
20
14.287523
70
0
0
VERTEX
8
Layer 1
10
40.765742
20
14.684195
70
0
0
VERTEX
8
Layer 1
10
39.016821
20
15.362392
70
0
0
VERTEX
8
Layer 1
10
37.215770
20
15.853594
70
0
0
VERTEX
8
Layer 1
10
35.266275
20
16.057672
70
0
0
VERTEX
8
Layer 1
10
33.303540
20
15.989299
70
0
0
VERTEX
8
Layer 1
10
31.462770
20
15.663148
70
0
0
VERTEX
8
Layer 1
10
30.053058
20
14.877847
70
0
0
VERTEX
8
Layer 1
10
28.767604
20
13.870211
70
0
0
VERTEX
8
Layer 1
10
27.673733
20
12.666864
70
0
0
VERTEX
8
Layer 1
10
26.838768
20
11.294428
70
0
0
VERTEX
8
Layer 1
10
26.703751
20
9.221995
70
0
0
VERTEX
8
Layer 1
10
26.723013
20
7.143782
70
0
0
VERTEX
8
Layer 1
10
25.896191
20
7.077636
70
0
0
VERTEX
8
Layer 1
10
24.516891
20
6.609104
70
0
0
VERTEX
8
Layer 1
10
23.283434
20
5.820867
70
0
0
VERTEX
8
Layer 1
10
21.535970
20
5.550138
70
0
0
VERTEX
8
Layer 1
10
19.761173
20
5.539748
70
0
0
VERTEX
8
Layer 1
10
19.167412
20
5.543365
70
0
0
VERTEX
8
Layer 1
10
17.727191
20
5.556284
70
0
0
VERTEX
8
Layer 1
10
17.727191
20
6.085450
70
0
0
VERTEX
8
Layer 1
10
16.718469
20
6.118523
70
0
0
VERTEX
8
Layer 1
10
14.929554
20
6.546655
70
0
0
VERTEX
8
Layer 1
10
13.308500
20
7.353905
70
0
0
VERTEX
8
Layer 1
10
11.858675
20
8.461236
70
0
0
VERTEX
8
Layer 1
10
10.583450
20
9.789612
70
0
0
VERTEX
8
Layer 1
10
10.142134
20
10.268135
70
0
0
VERTEX
8
Layer 1
10
9.739940
20
11.361713
70
0
0
VERTEX
8
Layer 1
10
9.707019
20
12.551197
70
0
0
VERTEX
8
Layer 1
10
9.710120
20
13.443131
70
0
0
VERTEX
8
Layer 1
10
10.062580
20
15.007561
70
0
0
VERTEX
8
Layer 1
10
10.439411
20
15.645010
70
0
0
VERTEX
8
Layer 1
10
11.013398
20
16.288432
70
0
0
VERTEX
8
Layer 1
10
11.655556
20
16.967226
70
0
0
VERTEX
8
Layer 1
10
11.641782
20
17.991685
70
0
0
VERTEX
8
Layer 1
10
11.346514
20
18.549540
70
0
0
VERTEX
8
Layer 1
10
10.666132
20
18.818507
70
0
0
VERTEX
8
Layer 1
10
9.443345
20
19.035865
70
0
0
VERTEX
8
Layer 1
10
8.202203
20
19.050017
70
0
0
VERTEX
8
Layer 1
10
8.466786
20
18.520851
70
0
0
VERTEX
8
Layer 1
10
7.846670
20
18.500181
70
0
0
VERTEX
8
Layer 1
10
6.120354
20
18.318070
70
0
0
VERTEX
8
Layer 1
10
4.598816
20
17.910643
70
0
0
VERTEX
8
Layer 1
10
3.218869
20
17.184070
70
0
0
VERTEX
8
Layer 1
10
1.917323
20
16.044520
70
0
0
VERTEX
8
Layer 1
10
1.267757
20
14.947082
70
0
0
VERTEX
8
Layer 1
10
0.793879
20
13.758357
70
0
0
VERTEX
8
Layer 1
10
0.479687
20
12.981145
70
0
0
VERTEX
8
Layer 1
10
0.264713
20
12.435442
70
0
0
VERTEX
8
Layer 1
10
0.000130
20
12.435442
70
0
0
VERTEX
8
Layer 1
10
-0.115109
20
14.243240
70
0
0
VERTEX
8
Layer 1
10
0.005916
20
15.112935
70
0
0
VERTEX
8
Layer 1
10
0.338094
20
15.963905
70
0
0
VERTEX
8
Layer 1
10
1.567741
20
17.210249
70
0
0
VERTEX
8
Layer 1
10
2.911826
20
18.164913
70
0
0
VERTEX
8
Layer 1
10
4.405906
20
18.856747
70
0
0
VERTEX
8
Layer 1
10
6.085539
20
19.314600
70
0
0
VERTEX
8
Layer 1
10
5.424082
20
19.661865
70
0
0
VERTEX
8
Layer 1
10
4.762624
20
20.108349
70
0
0
VERTEX
8
Layer 1
10
4.762624
20
20.902098
70
0
0
VERTEX
8
Layer 1
10
7.507673
20
20.505224
70
0
0
VERTEX
8
Layer 1
10
9.568526
20
20.232372
70
0
0
VERTEX
8
Layer 1
10
10.293675
20
20.161576
70
0
0
VERTEX
8
Layer 1
10
10.848033
20
20.108349
70
0
0
VERTEX
8
Layer 1
10
10.835437
20
20.584805
70
0
0
VERTEX
8
Layer 1
10
10.798424
20
22.754179
70
0
0
VERTEX
8
Layer 1
10
10.778270
20
23.503487
70
0
0
VERTEX
8
Layer 1
10
10.892183
20
25.308194
70
0
0
VERTEX
8
Layer 1
10
11.305832
20
26.840893
70
0
0
VERTEX
8
Layer 1
10
12.064576
20
28.238126
70
0
0
VERTEX
8
Layer 1
10
13.213777
20
29.636438
70
0
0
VERTEX
8
Layer 1
10
14.636439
20
30.800331
70
0
0
VERTEX
8
Layer 1
10
15.422971
20
31.112658
70
0
0
VERTEX
8
Layer 1
10
16.404276
20
31.220835
70
0
0
VERTEX
8
Layer 1
10
16.404276
20
30.691669
70
0
0
VERTEX
8
Layer 1
10
15.395554
20
29.782165
70
0
0
VERTEX
8
Layer 1
10
14.150511
20
28.589274
70
0
0
VERTEX
8
Layer 1
10
13.285006
20
27.367643
70
0
0
VERTEX
8
Layer 1
10
12.742263
20
25.974807
70
0
0
VERTEX
8
Layer 1
10
12.465504
20
24.268297
70
0
0
VERTEX
8
Layer 1
10
12.435531
20
23.812511
70
0
0
VERTEX
8
Layer 1
10
14.080907
20
23.452844
70
0
0
VERTEX
8
Layer 1
10
15.019047
20
23.240210
70
0
0
VERTEX
8
Layer 1
10
15.712611
20
22.929082
70
0
0
VERTEX
8
Layer 1
10
16.303457
20
22.440586
70
0
0
VERTEX
8
Layer 1
10
16.933442
20
21.695847
70
0
0
VERTEX
8
Layer 1
10
19.050106
20
21.166681
70
0
0
VERTEX
8
Layer 1
10
19.050106
20
19.843766
70
0
0
VERTEX
8
Layer 1
10
25.929264
20
19.843766
70
0
0
VERTEX
8
Layer 1
10
26.193847
20
20.637515
70
0
0
VERTEX
8
Layer 1
10
26.723013
20
20.637515
70
0
0
VERTEX
8
Layer 1
10
27.781345
20
23.018762
70
0
0
VERTEX
8
Layer 1
10
28.277438
20
22.787252
70
0
0
VERTEX
8
Layer 1
10
29.995205
20
22.301798
70
0
0
VERTEX
8
Layer 1
10
31.750090
20
21.960430
70
0
0
VERTEX
8
Layer 1
10
32.014673
20
20.637515
70
0
0
VERTEX
8
Layer 1
10
32.543839
20
20.637515
70
0
0
VERTEX
8
Layer 1
10
32.543839
20
20.108349
70
0
0
VERTEX
8
Layer 1
10
33.073005
20
20.108349
70
0
0
VERTEX
8
Layer 1
10
33.221833
20
19.347673
70
0
0
VERTEX
8
Layer 1
10
33.621735
20
18.502585
70
0
0
VERTEX
8
Layer 1
10
34.561285
20
18.157050
70
0
0
VERTEX
8
Layer 1
10
35.454252
20
17.991685
70
0
0
VERTEX
8
Layer 1
10
35.189669
20
17.462519
70
0
0
VERTEX
8
Layer 1
10
33.602171
20
17.197936
70
0
0
VERTEX
8
Layer 1
10
33.602171
20
16.933353
70
0
0
VERTEX
8
Layer 1
10
34.578855
20
16.836202
70
0
0
VERTEX
8
Layer 1
10
35.867663
20
16.701843
70
0
0
VERTEX
8
Layer 1
10
36.508967
20
16.638798
70
0
0
VERTEX
8
Layer 1
10
38.383071
20
16.353791
70
0
0
VERTEX
8
Layer 1
10
40.216746
20
15.875021
70
0
0
VERTEX
8
Layer 1
10
39.753726
20
16.705977
70
0
0
VERTEX
8
Layer 1
10
39.158414
20
17.793248
70
0
0
VERTEX
8
Layer 1
10
38.852490
20
18.339984
70
0
0
VERTEX
8
Layer 1
10
38.563103
20
18.872250
70
0
0
VERTEX
8
Layer 1
10
38.294385
20
19.359300
70
0
0
VERTEX
8
Layer 1
10
38.124370
20
19.915499
70
0
0
VERTEX
8
Layer 1
10
38.100082
20
20.902098
70
0
0
VERTEX
8
Layer 1
10
37.124432
20
20.852489
70
0
0
VERTEX
8
Layer 1
10
35.811330
20
21.022105
70
0
0
VERTEX
8
Layer 1
10
34.660503
20
21.695847
70
0
0
VERTEX
8
Layer 1
10
34.131337
20
22.754179
70
0
0
VERTEX
8
Layer 1
10
35.016510
20
22.508359
70
0
0
VERTEX
8
Layer 1
10
35.834590
20
22.076185
70
0
0
VERTEX
8
Layer 1
10
37.377179
20
21.648025
70
0
0
VERTEX
8
Layer 1
10
38.915922
20
21.577907
70
0
0
VERTEX
8
Layer 1
10
40.447753
20
21.818940
70
0
0
VERTEX
8
Layer 1
10
41.969609
20
22.324232
70
0
0
VERTEX
8
Layer 1
10
44.185491
20
23.547928
70
0
0
VERTEX
8
Layer 1
10
44.251637
20
25.118890
70
0
0
VERTEX
8
Layer 1
10
44.239235
20
25.969483
70
0
0
VERTEX
8
Layer 1
10
44.181553
20
26.742709
70
0
0
VERTEX
8
Layer 1
10
43.920908
20
27.516673
70
0
0
VERTEX
8
Layer 1
10
43.639789
20
29.467973
70
0
0
VERTEX
8
Layer 1
10
43.498196
20
30.515970
70
0
0
VERTEX
8
Layer 1
10
43.391742
20
32.808333
70
0
0
VERTEX
8
Layer 1
10
40.729376
20
32.576823
70
0
0
VERTEX
8
Layer 1
10
39.973351
20
32.513778
70
0
0
VERTEX
8
Layer 1
10
37.956845
20
32.237006
70
0
0
VERTEX
8
Layer 1
10
35.983418
20
31.750001
70
0
0
VERTEX
8
Layer 1
10
34.925086
20
31.750001
70
0
0
VERTEX
8
Layer 1
10
34.925086
20
32.279167
70
0
0
VERTEX
8
Layer 1
10
37.047331
20
33.094423
70
0
0
VERTEX
8
Layer 1
10
39.554520
20
33.824399
70
0
0
VERTEX
8
Layer 1
10
40.835927
20
34.039508
70
0
0
VERTEX
8
Layer 1
10
42.073720
20
34.091818
70
0
0
VERTEX
8
Layer 1
10
43.221284
20
33.934168
70
0
0
VERTEX
8
Layer 1
10
44.232000
20
33.519400
70
0
0
VERTEX
8
Layer 1
10
44.232000
20
33.519400
70
0
0
SEQEND
8
Layer 1
0
POLYLINE
8
Layer 1
62
7
70
1
10
0.000000
20
0.000000
66
1
0
VERTEX
8
Layer 1
10
44.232000
20
33.519400
70
0
0
VERTEX
8
Layer 1
10
45.070852
20
32.407800
70
0
0
VERTEX
8
Layer 1
10
45.540324
20
31.104352
70
0
0
VERTEX
8
Layer 1
10
45.758969
20
29.705926
70
0
0
VERTEX
8
Layer 1
10
45.845336
20
28.309389
70
0
0
VERTEX
8
Layer 1
10
45.872208
20
26.838679
70
0
0
VERTEX
8
Layer 1
10
45.902180
20
26.090922
70
0
0
VERTEX
8
Layer 1
10
45.827895
20
24.614704
70
0
0
VERTEX
8
Layer 1
10
45.616051
20
23.980914
70
0
0
VERTEX
8
Layer 1
10
45.197315
20
23.297815
70
0
0
VERTEX
8
Layer 1
10
42.978331
20
21.877748
70
0
0
VERTEX
8
Layer 1
10
42.233158
20
21.467438
70
0
0
VERTEX
8
Layer 1
10
41.494057
20
21.204276
70
0
0
VERTEX
8
Layer 1
10
40.481329
20
21.166681
70
0
0
VERTEX
8
Layer 1
10
40.644125
20
20.624809
70
0
0
VERTEX
8
Layer 1
10
41.010495
20
20.108349
70
0
0
VERTEX
8
Layer 1
10
42.862576
20
19.843766
70
0
0
VERTEX
8
Layer 1
10
43.114757
20
20.248909
70
0
0
VERTEX
8
Layer 1
10
43.457888
20
20.769807
70
0
0
VERTEX
8
Layer 1
10
43.792751
20
21.290704
70
0
0
VERTEX
8
Layer 1
10
44.185491
20
21.695847
70
0
0
VERTEX
8
Layer 1
10
45.243823
20
21.695847
70
0
0
VERTEX
8
Layer 1
10
45.243823
20
16.668770
70
0
0
VERTEX
8
Layer 1
10
47.625070
20
16.668770
70
0
0
VERTEX
8
Layer 1
10
47.625070
20
16.139604
70
0
0
VERTEX
8
Layer 1
10
48.170773
20
15.974240
70
0
0
VERTEX
8
Layer 1
10
49.899504
20
14.890956
70
0
0
VERTEX
8
Layer 1
10
50.603351
20
14.172482
70
0
0
VERTEX
8
Layer 1
10
51.163868
20
13.311873
70
0
0
VERTEX
8
Layer 1
10
51.932615
20
12.593736
70
0
0
VERTEX
8
Layer 1
10
52.905670
20
12.155123
70
0
0
VERTEX
8
Layer 1
10
55.033394
20
11.641693
70
0
0
VERTEX
8
Layer 1
10
55.033394
20
0.000041
70
0
0
VERTEX
8
Layer 1
10
48.154236
20
0.000041
70
0
0
VERTEX
8
Layer 1
10
48.154236
20
0.529207
70
0
0
VERTEX
8
Layer 1
10
48.839465
20
0.809293
70
0
0
VERTEX
8
Layer 1
10
49.725198
20
1.174128
70
0
0
VERTEX
8
Layer 1
10
50.608864
20
1.536896
70
0
0
VERTEX
8
Layer 1
10
51.245607
20
1.795041
70
0
0
VERTEX
8
Layer 1
10
51.593815
20
2.116705
70
0
0
VERTEX
8
Layer 1
10
51.650380
20
3.457484
70
0
0
VERTEX
8
Layer 1
10
51.331687
20
4.725070
70
0
0
VERTEX
8
Layer 1
10
51.047294
20
5.563762
70
0
0
VERTEX
8
Layer 1
10
50.964397
20
6.448218
70
0
0
VERTEX
8
Layer 1
10
50.937009
20
7.107092
70
0
0
VERTEX
8
Layer 1
10
50.915821
20
7.788703
70
0
0
VERTEX
8
Layer 1
10
50.826925
20
9.726839
70
0
0
VERTEX
8
Layer 1
10
50.535483
20
11.641693
70
0
0
VERTEX
8
Layer 1
10
49.820282
20
11.806024
70
0
0
VERTEX
8
Layer 1
10
48.881840
20
12.022031
70
0
0
VERTEX
8
Layer 1
10
47.951665
20
12.235971
70
0
0
VERTEX
8
Layer 1
10
46.037572
20
12.700025
70
0
0
VERTEX
8
Layer 1
10
46.037572
20
13.229191
70
0
0
VERTEX
8
Layer 1
10
48.041139
20
13.132533
70
0
0
VERTEX
8
Layer 1
10
50.006317
20
12.700025
70
0
0
VERTEX
8
Layer 1
10
49.475196
20
13.637190
70
0
0
VERTEX
8
Layer 1
10
48.822043
20
14.433176
70
0
0
VERTEX
8
Layer 1
10
48.033424
20
15.090190
70
0
0
VERTEX
8
Layer 1
10
47.095904
20
15.610438
70
0
0
VERTEX
8
Layer 1
10
45.244442
20
15.694669
70
0
0
VERTEX
8
Layer 1
10
43.391742
20
15.610438
70
0
0
VERTEX
8
Layer 1
10
43.656325
20
17.708203
70
0
0
VERTEX
8
Layer 1
10
43.920908
20
18.785434
70
0
0
VERTEX
8
Layer 1
10
43.524034
20
18.653143
70
0
0
VERTEX
8
Layer 1
10
41.677097
20
18.471467
70
0
0
VERTEX
8
Layer 1
10
40.805779
20
18.633206
70
0
0
VERTEX
8
Layer 1
10
39.952163
20
19.050017
70
0
0
VERTEX
8
Layer 1
10
40.922896
20
17.299726
70
0
0
VERTEX
8
Layer 1
10
42.019218
20
15.626975
70
0
0
VERTEX
8
Layer 1
10
42.525646
20
14.851829
70
0
0
VERTEX
8
Layer 1
10
42.597993
20
14.287523
70
0
0
VERTEX
8
Layer 1
10
40.765742
20
14.684195
70
0
0
VERTEX
8
Layer 1
10
39.016821
20
15.362392
70
0
0
VERTEX
8
Layer 1
10
37.215770
20
15.853594
70
0
0
VERTEX
8
Layer 1
10
35.266275
20
16.057672
70
0
0
VERTEX
8
Layer 1
10
33.303540
20
15.989299
70
0
0
VERTEX
8
Layer 1
10
31.462770
20
15.663148
70
0
0
VERTEX
8
Layer 1
10
30.050009
20
14.860186
70
0
0
VERTEX
8
Layer 1
10
28.782108
20
13.840689
70
0
0
VERTEX
8
Layer 1
10
27.669599
20
12.648510
70
0
0
VERTEX
8
Layer 1
10
26.723013
20
11.327501
70
0
0
VERTEX
8
Layer 1
10
26.193847
20
8.995863
70
0
0
VERTEX
8
Layer 1
10
25.664681
20
8.995863
70
0
0
VERTEX
8
Layer 1
10
25.781545
20
11.292869
70
0
0
VERTEX
8
Layer 1
10
26.103829
20
12.338270
70
0
0
VERTEX
8
Layer 1
10
26.739550
20
13.328410
70
0
0
VERTEX
8
Layer 1
10
28.260744
20
14.672755
70
0
0
VERTEX
8
Layer 1
10
29.898009
20
15.875021
70
0
0
VERTEX
8
Layer 1
10
29.021578
20
16.056922
70
0
0
VERTEX
8
Layer 1
10
27.905669
20
16.654290
70
0
0
VERTEX
8
Layer 1
10
27.252179
20
17.727102
70
0
0
VERTEX
8
Layer 1
10
26.458430
20
18.520851
70
0
0
VERTEX
8
Layer 1
10
27.516762
20
19.050017
70
0
0
VERTEX
8
Layer 1
10
27.516762
20
20.108349
70
0
0
VERTEX
8
Layer 1
10
28.392734
20
20.399278
70
0
0
VERTEX
8
Layer 1
10
29.331962
20
20.491504
70
0
0
VERTEX
8
Layer 1
10
31.220924
20
20.372932
70
0
0
VERTEX
8
Layer 1
10
32.073832
20
19.949132
70
0
0
VERTEX
8
Layer 1
10
32.808422
20
19.314600
70
0
0
VERTEX
8
Layer 1
10
32.808422
20
18.520851
70
0
0
VERTEX
8
Layer 1
10
35.454252
20
17.991685
70
0
0
VERTEX
8
Layer 1
10
35.189669
20
17.462519
70
0
0
VERTEX
8
Layer 1
10
33.602171
20
17.197936
70
0
0
VERTEX
8
Layer 1
10
33.602171
20
16.933353
70
0
0
VERTEX
8
Layer 1
10
34.578855
20
16.836202
70
0
0
VERTEX
8
Layer 1
10
35.867663
20
16.701843
70
0
0
VERTEX
8
Layer 1
10
36.508967
20
16.638798
70
0
0
VERTEX
8
Layer 1
10
38.383071
20
16.353791
70
0
0
VERTEX
8
Layer 1
10
40.216746
20
15.875021
70
0
0
VERTEX
8
Layer 1
10
39.753726
20
16.705977
70
0
0
VERTEX
8
Layer 1
10
39.158414
20
17.793248
70
0
0
VERTEX
8
Layer 1
10
38.852490
20
18.339984
70
0
0
VERTEX
8
Layer 1
10
38.563103
20
18.872250
70
0
0
VERTEX
8
Layer 1
10
38.294385
20
19.359300
70
0
0
VERTEX
8
Layer 1
10
38.124370
20
19.915499
70
0
0
VERTEX
8
Layer 1
10
38.100082
20
20.902098
70
0
0
VERTEX
8
Layer 1
10
37.124432
20
20.852489
70
0
0
VERTEX
8
Layer 1
10
35.811330
20
21.022105
70
0
0
VERTEX
8
Layer 1
10
34.660503
20
21.695847
70
0
0
VERTEX
8
Layer 1
10
34.131337
20
22.754179
70
0
0
VERTEX
8
Layer 1
10
35.016510
20
22.508359
70
0
0
VERTEX
8
Layer 1
10
35.834590
20
22.076185
70
0
0
VERTEX
8
Layer 1
10
37.377179
20
21.648025
70
0
0
VERTEX
8
Layer 1
10
38.915922
20
21.577907
70
0
0
VERTEX
8
Layer 1
10
40.447753
20
21.818940
70
0
0
VERTEX
8
Layer 1
10
41.969609
20
22.324232
70
0
0
VERTEX
8
Layer 1
10
44.185491
20
23.547928
70
0
0
VERTEX
8
Layer 1
10
44.251637
20
25.118890
70
0
0
VERTEX
8
Layer 1
10
44.239235
20
25.969483
70
0
0
VERTEX
8
Layer 1
10
44.181553
20
26.742709
70
0
0
VERTEX
8
Layer 1
10
43.920908
20
27.516673
70
0
0
VERTEX
8
Layer 1
10
43.639789
20
29.467973
70
0
0
VERTEX
8
Layer 1
10
43.498196
20
30.515970
70
0
0
VERTEX
8
Layer 1
10
43.391742
20
32.808333
70
0
0
VERTEX
8
Layer 1
10
40.729376
20
32.576823
70
0
0
VERTEX
8
Layer 1
10
39.973351
20
32.513778
70
0
0
VERTEX
8
Layer 1
10
37.956845
20
32.237006
70
0
0
VERTEX
8
Layer 1
10
35.983418
20
31.750001
70
0
0
VERTEX
8
Layer 1
10
34.925086
20
31.750001
70
0
0
VERTEX
8
Layer 1
10
34.925086
20
32.279167
70
0
0
VERTEX
8
Layer 1
10
37.047331
20
33.094423
70
0
0
VERTEX
8
Layer 1
10
39.554520
20
33.824399
70
0
0
VERTEX
8
Layer 1
10
40.835927
20
34.039508
70
0
0
VERTEX
8
Layer 1
10
42.073720
20
34.091818
70
0
0
VERTEX
8
Layer 1
10
43.221284
20
33.934168
70
0
0
VERTEX
8
Layer 1
10
44.232000
20
33.519400
70
0
0
VERTEX
8
Layer 1
10
44.232000
20
33.519400
70
0
0
SEQEND
8
Layer 1
0
POLYLINE
8
Layer 1
62
7
70
1
10
0.000000
20
0.000000
66
1
0
VERTEX
8
Layer 1
10
25.929200
20
47.889600
70
0
0
VERTEX
8
Layer 1
10
27.516698
20
47.889600
70
0
0
VERTEX
8
Layer 1
10
27.552678
20
47.315992
70
0
0
VERTEX
8
Layer 1
10
27.731672
20
44.714604
70
0
0
VERTEX
8
Layer 1
10
27.787999
20
43.812335
70
0
0
VERTEX
8
Layer 1
10
28.203541
20
41.084183
70
0
0
VERTEX
8
Layer 1
10
29.153805
20
38.496904
70
0
0
VERTEX
8
Layer 1
10
29.753732
20
38.147936
70
0
0
VERTEX
8
Layer 1
10
30.373440
20
38.026925
70
0
0
VERTEX
8
Layer 1
10
31.750026
20
38.100029
70
0
0
VERTEX
8
Layer 1
10
32.279192
20
39.687527
70
0
0
VERTEX
8
Layer 1
10
33.602107
20
39.687527
70
0
0
VERTEX
8
Layer 1
10
33.866690
20
36.744041
70
0
0
VERTEX
8
Layer 1
10
33.943171
20
35.904817
70
0
0
VERTEX
8
Layer 1
10
34.131273
20
32.014620
70
0
0
VERTEX
8
Layer 1
10
35.189605
20
31.485454
70
0
0
VERTEX
8
Layer 1
10
33.606248
20
31.247223
70
0
0
VERTEX
8
Layer 1
10
32.003305
20
31.251360
70
0
0
VERTEX
8
Layer 1
10
29.211622
20
31.190870
70
0
0
VERTEX
8
Layer 1
10
27.898175
20
30.929003
70
0
0
VERTEX
8
Layer 1
10
26.555518
20
30.402317
70
0
0
VERTEX
8
Layer 1
10
25.568802
20
30.124920
70
0
0
VERTEX
8
Layer 1
10
24.544139
20
30.009632
70
0
0
VERTEX
8
Layer 1
10
22.489621
20
30.162539
70
0
0
VERTEX
8
Layer 1
10
21.166706
20
31.220871
70
0
0
VERTEX
8
Layer 1
10
20.174520
20
31.634282
70
0
0
VERTEX
8
Layer 1
10
19.314625
20
32.014620
70
0
0
VERTEX
8
Layer 1
10
19.026377
20
33.287222
70
0
0
VERTEX
8
Layer 1
10
18.917751
20
34.594304
70
0
0
VERTEX
8
Layer 1
10
18.520876
20
38.364612
70
0
0
VERTEX
8
Layer 1
10
19.843791
20
38.364612
70
0
0
VERTEX
8
Layer 1
10
20.108374
20
38.100029
70
0
0
VERTEX
8
Layer 1
10
21.284374
20
38.078709
70
0
0
VERTEX
8
Layer 1
10
22.373866
20
38.496904
70
0
0
VERTEX
8
Layer 1
10
23.228558
20
39.504881
70
0
0
VERTEX
8
Layer 1
10
23.913176
20
40.577401
70
0
0
VERTEX
8
Layer 1
10
24.877895
20
42.881905
70
0
0
VERTEX
8
Layer 1
10
25.479433
20
45.342082
70
0
0
VERTEX
8
Layer 1
10
25.929200
20
47.889600
70
0
0
VERTEX
8
Layer 1
10
25.929200
20
47.889600
70
0
0
SEQEND
8
Layer 1
0
POLYLINE
8
Layer 1
62
7
70
1
10
0.000000
20
0.000000
66
1
0
VERTEX
8
Layer 1
10
24.341700
20
18.520800
70
0
0
VERTEX
8
Layer 1
10
25.939781
20
18.311779
70
0
0
VERTEX
8
Layer 1
10
26.458364
20
17.991634
70
0
0
VERTEX
8
Layer 1
10
26.458364
20
16.404136
70
0
0
VERTEX
8
Layer 1
10
27.516696
20
16.404136
70
0
0
VERTEX
8
Layer 1
10
26.987530
20
14.816638
70
0
0
VERTEX
8
Layer 1
10
27.516696
20
14.552055
70
0
0
VERTEX
8
Layer 1
10
27.285849
20
13.685964
70
0
0
VERTEX
8
Layer 1
10
26.739483
20
12.964557
70
0
0
VERTEX
8
Layer 1
10
26.245137
20
12.036022
70
0
0
VERTEX
8
Layer 1
10
25.955435
20
11.065055
70
0
0
VERTEX
8
Layer 1
10
25.664615
20
8.995812
70
0
0
VERTEX
8
Layer 1
10
26.193781
20
8.995812
70
0
0
VERTEX
8
Layer 1
10
26.233055
20
9.507408
70
0
0
VERTEX
8
Layer 1
10
26.293000
20
10.169899
70
0
0
VERTEX
8
Layer 1
10
26.348810
20
10.830323
70
0
0
VERTEX
8
Layer 1
10
26.458364
20
11.377059
70
0
0
VERTEX
8
Layer 1
10
26.987530
20
11.641642
70
0
0
VERTEX
8
Layer 1
10
26.856272
20
11.084571
70
0
0
VERTEX
8
Layer 1
10
26.706411
20
8.648547
70
0
0
VERTEX
8
Layer 1
10
26.713645
20
7.791753
70
0
0
VERTEX
8
Layer 1
10
26.722947
20
7.143731
70
0
0
VERTEX
8
Layer 1
10
25.896125
20
7.077585
70
0
0
VERTEX
8
Layer 1
10
24.516825
20
6.609053
70
0
0
VERTEX
8
Layer 1
10
23.283368
20
5.820816
70
0
0
VERTEX
8
Layer 1
10
21.535904
20
5.550087
70
0
0
VERTEX
8
Layer 1
10
19.761107
20
5.539697
70
0
0
VERTEX
8
Layer 1
10
19.167345
20
5.543314
70
0
0
VERTEX
8
Layer 1
10
17.727125
20
5.556233
70
0
0
VERTEX
8
Layer 1
10
18.520874
20
6.085399
70
0
0
VERTEX
8
Layer 1
10
18.035116
20
6.203221
70
0
0
VERTEX
8
Layer 1
10
15.986505
20
6.900036
70
0
0
VERTEX
8
Layer 1
10
14.231032
20
7.855856
70
0
0
VERTEX
8
Layer 1
10
12.713105
20
9.146527
70
0
0
VERTEX
8
Layer 1
10
11.377133
20
10.847893
70
0
0
VERTEX
8
Layer 1
10
11.050952
20
11.843582
70
0
0
VERTEX
8
Layer 1
10
10.950148
20
12.926079
70
0
0
VERTEX
8
Layer 1
10
11.112550
20
15.081221
70
0
0
VERTEX
8
Layer 1
10
11.831885
20
15.796422
70
0
0
VERTEX
8
Layer 1
10
12.700048
20
16.139553
70
0
0
VERTEX
8
Layer 1
10
14.287546
20
15.874970
70
0
0
VERTEX
8
Layer 1
10
14.552129
20
14.816638
70
0
0
VERTEX
8
Layer 1
10
15.577388
20
14.717419
70
0
0
VERTEX
8
Layer 1
10
16.548904
20
14.556189
70
0
0
VERTEX
8
Layer 1
10
17.197959
20
14.022889
70
0
0
VERTEX
8
Layer 1
10
17.098740
20
12.137735
70
0
0
VERTEX
8
Layer 1
10
17.009857
20
11.110409
70
0
0
VERTEX
8
Layer 1
10
16.933376
20
10.318727
70
0
0
VERTEX
8
Layer 1
10
18.057921
20
10.132077
70
0
0
VERTEX
8
Layer 1
10
19.198868
20
10.335263
70
0
0
VERTEX
8
Layer 1
10
20.064964
20
10.523365
70
0
0
VERTEX
8
Layer 1
10
20.670611
20
10.351800
70
0
0
VERTEX
8
Layer 1
10
21.166704
20
10.054144
70
0
0
VERTEX
8
Layer 1
10
22.489619
20
10.054144
70
0
0
VERTEX
8
Layer 1
10
22.812668
20
10.447379
70
0
0
VERTEX
8
Layer 1
10
22.820348
20
11.294377
70
0
0
VERTEX
8
Layer 1
10
22.740158
20
12.204267
70
0
0
VERTEX
8
Layer 1
10
22.511519
20
13.016847
70
0
0
VERTEX
8
Layer 1
10
22.110700
20
13.759874
70
0
0
VERTEX
8
Layer 1
10
21.513969
20
14.461105
70
0
0
VERTEX
8
Layer 1
10
20.360966
20
14.855244
70
0
0
VERTEX
8
Layer 1
10
19.116186
20
14.866247
70
0
0
VERTEX
8
Layer 1
10
18.177743
20
14.844543
70
0
0
VERTEX
8
Layer 1
10
17.462542
20
14.816638
70
0
0
VERTEX
8
Layer 1
10
18.069477
20
15.745959
70
0
0
VERTEX
8
Layer 1
10
18.750022
20
16.527226
70
0
0
VERTEX
8
Layer 1
10
19.569983
20
17.156256
70
0
0
VERTEX
8
Layer 1
10
20.595163
20
17.628866
70
0
0
VERTEX
8
Layer 1
10
21.614471
20
17.701002
70
0
0
VERTEX
8
Layer 1
10
22.638447
20
17.627832
70
0
0
VERTEX
8
Layer 1
10
23.400157
20
17.555485
70
0
0
VERTEX
8
Layer 1
10
24.870866
20
17.197885
70
0
0
VERTEX
8
Layer 1
10
24.077117
20
18.256217
70
0
0
VERTEX
8
Layer 1
10
24.341700
20
18.520800
70
0
0
VERTEX
8
Layer 1
10
24.341700
20
18.520800
70
0
0
SEQEND
8
Layer 1
0
POLYLINE
8
Layer 1
62
7
70
1
10
0.000000
20
0.000000
66
1
0
VERTEX
8
Layer 1
10
12.170800
20
25.664600
70
0
0
VERTEX
8
Layer 1
10
12.435383
20
25.664600
70
0
0
VERTEX
8
Layer 1
10
12.435383
20
23.812519
70
0
0
VERTEX
8
Layer 1
10
14.080759
20
23.452851
70
0
0
VERTEX
8
Layer 1
10
15.018899
20
23.240218
70
0
0
VERTEX
8
Layer 1
10
15.712463
20
22.929090
70
0
0
VERTEX
8
Layer 1
10
16.303308
20
22.440594
70
0
0
VERTEX
8
Layer 1
10
16.933294
20
21.695855
70
0
0
VERTEX
8
Layer 1
10
19.049958
20
21.166689
70
0
0
VERTEX
8
Layer 1
10
19.049958
20
19.843774
70
0
0
VERTEX
8
Layer 1
10
25.929116
20
19.843774
70
0
0
VERTEX
8
Layer 1
10
26.193699
20
20.637523
70
0
0
VERTEX
8
Layer 1
10
26.722865
20
20.637523
70
0
0
VERTEX
8
Layer 1
10
27.781197
20
23.018770
70
0
0
VERTEX
8
Layer 1
10
28.277290
20
22.787260
70
0
0
VERTEX
8
Layer 1
10
29.995057
20
22.301806
70
0
0
VERTEX
8
Layer 1
10
31.749942
20
21.960438
70
0
0
VERTEX
8
Layer 1
10
32.014525
20
20.637523
70
0
0
VERTEX
8
Layer 1
10
32.543691
20
20.637523
70
0
0
VERTEX
8
Layer 1
10
32.543691
20
20.108357
70
0
0
VERTEX
8
Layer 1
10
33.072857
20
20.108357
70
0
0
VERTEX
8
Layer 1
10
33.337440
20
18.520859
70
0
0
VERTEX
8
Layer 1
10
32.808274
20
18.520859
70
0
0
VERTEX
8
Layer 1
10
32.609837
20
19.016952
70
0
0
VERTEX
8
Layer 1
10
32.045059
20
19.719551
70
0
0
VERTEX
8
Layer 1
10
31.220776
20
20.108357
70
0
0
VERTEX
8
Layer 1
10
29.302549
20
20.141430
70
0
0
VERTEX
8
Layer 1
10
28.289692
20
20.126960
70
0
0
VERTEX
8
Layer 1
10
27.516614
20
20.108357
70
0
0
VERTEX
8
Layer 1
10
27.516614
20
19.050025
70
0
0
VERTEX
8
Layer 1
10
26.722865
20
18.520859
70
0
0
VERTEX
8
Layer 1
10
26.722865
20
17.991693
70
0
0
VERTEX
8
Layer 1
10
27.516614
20
17.727110
70
0
0
VERTEX
8
Layer 1
10
27.847343
20
17.065652
70
0
0
VERTEX
8
Layer 1
10
28.347494
20
16.379416
70
0
0
VERTEX
8
Layer 1
10
29.286013
20
16.189221
70
0
0
VERTEX
8
Layer 1
10
30.162444
20
16.139612
70
0
0
VERTEX
8
Layer 1
10
28.926211
20
14.969634
70
0
0
VERTEX
8
Layer 1
10
27.516614
20
14.022948
70
0
0
VERTEX
8
Layer 1
10
27.516614
20
14.552114
70
0
0
VERTEX
8
Layer 1
10
26.722865
20
14.816697
70
0
0
VERTEX
8
Layer 1
10
27.252031
20
15.081280
70
0
0
VERTEX
8
Layer 1
10
26.987448
20
15.875029
70
0
0
VERTEX
8
Layer 1
10
27.516614
20
15.875029
70
0
0
VERTEX
8
Layer 1
10
27.516614
20
16.404195
70
0
0
VERTEX
8
Layer 1
10
26.458282
20
16.404195
70
0
0
VERTEX
8
Layer 1
10
26.193699
20
17.991693
70
0
0
VERTEX
8
Layer 1
10
24.341618
20
18.256276
70
0
0
VERTEX
8
Layer 1
10
24.870784
20
17.197944
70
0
0
VERTEX
8
Layer 1
10
23.179339
20
17.215645
70
0
0
VERTEX
8
Layer 1
10
21.497351
20
17.379845
70
0
0
VERTEX
8
Layer 1
10
20.623822
20
17.439029
70
0
0
VERTEX
8
Layer 1
10
19.810634
20
17.148335
70
0
0
VERTEX
8
Layer 1
10
19.314541
20
16.668778
70
0
0
VERTEX
8
Layer 1
10
18.031538
20
15.831388
70
0
0
VERTEX
8
Layer 1
10
17.371042
20
15.673480
70
0
0
VERTEX
8
Layer 1
10
16.518850
20
15.661089
70
0
0
VERTEX
8
Layer 1
10
13.758298
20
16.139612
70
0
0
VERTEX
8
Layer 1
10
13.758298
20
16.668778
70
0
0
VERTEX
8
Layer 1
10
12.435383
20
16.933361
70
0
0
VERTEX
8
Layer 1
10
12.699966
20
17.727110
70
0
0
VERTEX
8
Layer 1
10
13.493715
20
17.197944
70
0
0
VERTEX
8
Layer 1
10
15.064677
20
17.098725
70
0
0
VERTEX
8
Layer 1
10
15.898733
20
17.075988
70
0
0
VERTEX
8
Layer 1
10
16.934373
20
17.458621
70
0
0
VERTEX
8
Layer 1
10
17.727043
20
18.256276
70
0
0
VERTEX
8
Layer 1
10
18.520792
20
18.520859
70
0
0
VERTEX
8
Layer 1
10
17.991626
20
20.108357
70
0
0
VERTEX
8
Layer 1
10
17.197877
20
20.108357
70
0
0
VERTEX
8
Layer 1
10
17.197877
20
20.637523
70
0
0
VERTEX
8
Layer 1
10
15.395405
20
20.670596
70
0
0
VERTEX
8
Layer 1
10
14.381515
20
20.689199
70
0
0
VERTEX
8
Layer 1
10
13.478920
20
20.632570
70
0
0
VERTEX
8
Layer 1
10
12.699966
20
20.108357
70
0
0
VERTEX
8
Layer 1
10
12.699966
20
20.637523
70
0
0
VERTEX
8
Layer 1
10
12.170800
20
20.637523
70
0
0
VERTEX
8
Layer 1
10
12.170800
20
25.664600
70
0
0
VERTEX
8
Layer 1
10
12.170800
20
25.664600
70
0
0
SEQEND
8
Layer 1
0
POLYLINE
8
Layer 1
62
7
70
1
10
0.000000
20
0.000000
66
1
0
VERTEX
8
Layer 1
10
52.122900
20
11.112500
70
0
0
VERTEX
8
Layer 1
10
55.033313
20
10.847917
70
0
0
VERTEX
8
Layer 1
10
55.033313
20
0.000014
70
0
0
VERTEX
8
Layer 1
10
48.154155
20
0.000014
70
0
0
VERTEX
8
Layer 1
10
48.154155
20
0.529180
70
0
0
VERTEX
8
Layer 1
10
48.839384
20
0.809266
70
0
0
VERTEX
8
Layer 1
10
49.725117
20
1.174101
70
0
0
VERTEX
8
Layer 1
10
50.608782
20
1.536869
70
0
0
VERTEX
8
Layer 1
10
51.245526
20
1.795014
70
0
0
VERTEX
8
Layer 1
10
51.593734
20
2.116678
70
0
0
VERTEX
8
Layer 1
10
51.653972
20
3.449244
70
0
0
VERTEX
8
Layer 1
10
51.328117
20
4.703597
70
0
0
VERTEX
8
Layer 1
10
51.026293
20
5.999062
70
0
0
VERTEX
8
Layer 1
10
51.031495
20
7.342192
70
0
0
VERTEX
8
Layer 1
10
51.038730
20
7.901331
70
0
0
VERTEX
8
Layer 1
10
51.064568
20
9.260419
70
0
0
VERTEX
8
Layer 1
10
51.329151
20
9.260419
70
0
0
VERTEX
8
Layer 1
10
51.593734
20
6.350006
70
0
0
VERTEX
8
Layer 1
10
52.122900
20
6.350006
70
0
0
VERTEX
8
Layer 1
10
52.122900
20
11.112500
70
0
0
VERTEX
8
Layer 1
10
52.122900
20
11.112500
70
0
0
SEQEND
8
Layer 1
0
POLYLINE
8
Layer 1
62
7
70
1
10
0.000000
20
0.000000
66
1
0
VERTEX
8
Layer 1
10
25.929200
20
47.889600
70
0
0
VERTEX
8
Layer 1
10
27.516698
20
47.889600
70
0
0
VERTEX
8
Layer 1
10
27.552678
20
47.315992
70
0
0
VERTEX
8
Layer 1
10
27.731672
20
44.714604
70
0
0
VERTEX
8
Layer 1
10
27.787999
20
43.812335
70
0
0
VERTEX
8
Layer 1
10
28.203541
20
41.084183
70
0
0
VERTEX
8
Layer 1
10
29.153805
20
38.496904
70
0
0
VERTEX
8
Layer 1
10
29.753732
20
38.147936
70
0
0
VERTEX
8
Layer 1
10
30.373440
20
38.026925
70
0
0
VERTEX
8
Layer 1
10
31.750026
20
38.100029
70
0
0
VERTEX
8
Layer 1
10
32.279192
20
39.687527
70
0
0
VERTEX
8
Layer 1
10
33.337524
20
39.687527
70
0
0
VERTEX
8
Layer 1
10
33.548729
20
35.985967
70
0
0
VERTEX
8
Layer 1
10
33.602107
20
32.279203
70
0
0
VERTEX
8
Layer 1
10
32.543775
20
32.808369
70
0
0
VERTEX
8
Layer 1
10
32.327099
20
33.844722
70
0
0
VERTEX
8
Layer 1
10
32.249375
20
34.906583
70
0
0
VERTEX
8
Layer 1
10
32.279192
20
37.041697
70
0
0
VERTEX
8
Layer 1
10
31.756227
20
37.004490
70
0
0
VERTEX
8
Layer 1
10
30.688308
20
36.994646
70
0
0
VERTEX
8
Layer 1
10
29.770136
20
37.117890
70
0
0
VERTEX
8
Layer 1
10
28.917420
20
37.458319
70
0
0
VERTEX
8
Layer 1
10
28.045864
20
38.100029
70
0
0
VERTEX
8
Layer 1
10
27.384440
20
39.173446
70
0
0
VERTEX
8
Layer 1
10
26.953950
20
40.353759
70
0
0
VERTEX
8
Layer 1
10
26.738687
20
41.597831
70
0
0
VERTEX
8
Layer 1
10
26.722949
20
42.862523
70
0
0
VERTEX
8
Layer 1
10
26.193783
20
42.862523
70
0
0
VERTEX
8
Layer 1
10
26.028419
20
42.085310
70
0
0
VERTEX
8
Layer 1
10
25.440351
20
40.612632
70
0
0
VERTEX
8
Layer 1
10
24.618580
20
39.353276
70
0
0
VERTEX
8
Layer 1
10
23.573621
20
38.264921
70
0
0
VERTEX
8
Layer 1
10
22.315988
20
37.305246
70
0
0
VERTEX
8
Layer 1
10
21.574949
20
37.074641
70
0
0
VERTEX
8
Layer 1
10
20.108374
20
37.041697
70
0
0
VERTEX
8
Layer 1
10
20.108374
20
32.808369
70
0
0
VERTEX
8
Layer 1
10
19.579208
20
32.808369
70
0
0
VERTEX
8
Layer 1
10
19.264046
20
33.868610
70
0
0
VERTEX
8
Layer 1
10
19.182334
20
34.991179
70
0
0
VERTEX
8
Layer 1
10
18.785459
20
38.364612
70
0
0
VERTEX
8
Layer 1
10
19.375603
20
38.269527
70
0
0
VERTEX
8
Layer 1
10
20.951523
20
38.117301
70
0
0
VERTEX
8
Layer 1
10
22.456548
20
38.480367
70
0
0
VERTEX
8
Layer 1
10
23.897850
20
40.644053
70
0
0
VERTEX
8
Layer 1
10
24.840055
20
42.924787
70
0
0
VERTEX
8
Layer 1
10
25.458670
20
45.335618
70
0
0
VERTEX
8
Layer 1
10
25.929200
20
47.889600
70
0
0
VERTEX
8
Layer 1
10
25.929200
20
47.889600
70
0
0
SEQEND
8
Layer 1
0
POLYLINE
8
Layer 1
62
7
70
1
10
0.000000
20
0.000000
66
1
0
VERTEX
8
Layer 1
10
16.404200
20
31.220800
70
0
0
VERTEX
8
Layer 1
10
16.404200
20
30.691634
70
0
0
VERTEX
8
Layer 1
10
15.395477
20
29.782130
70
0
0
VERTEX
8
Layer 1
10
13.791606
20
28.190066
70
0
0
VERTEX
8
Layer 1
10
13.214456
20
27.303495
70
0
0
VERTEX
8
Layer 1
10
12.700038
20
26.193723
70
0
0
VERTEX
8
Layer 1
10
12.435455
20
25.664557
70
0
0
VERTEX
8
Layer 1
10
12.351739
20
24.513208
70
0
0
VERTEX
8
Layer 1
10
12.318150
20
23.831079
70
0
0
VERTEX
8
Layer 1
10
12.286627
20
23.117946
70
0
0
VERTEX
8
Layer 1
10
12.252004
20
22.398611
70
0
0
VERTEX
8
Layer 1
10
12.170872
20
20.637480
70
0
0
VERTEX
8
Layer 1
10
13.229204
20
20.637480
70
0
0
VERTEX
8
Layer 1
10
13.493787
20
20.902063
70
0
0
VERTEX
8
Layer 1
10
15.353104
20
20.880654
70
0
0
VERTEX
8
Layer 1
10
17.197949
20
20.637480
70
0
0
VERTEX
8
Layer 1
10
17.197949
20
20.108314
70
0
0
VERTEX
8
Layer 1
10
17.991698
20
20.108314
70
0
0
VERTEX
8
Layer 1
10
18.785447
20
18.256233
70
0
0
VERTEX
8
Layer 1
10
18.322427
20
18.190087
70
0
0
VERTEX
8
Layer 1
10
17.710603
20
17.980714
70
0
0
VERTEX
8
Layer 1
10
17.257894
20
17.459383
70
0
0
VERTEX
8
Layer 1
10
16.565780
20
17.000872
70
0
0
VERTEX
8
Layer 1
10
15.863387
20
16.808285
70
0
0
VERTEX
8
Layer 1
10
14.266865
20
16.813429
70
0
0
VERTEX
8
Layer 1
10
13.507243
20
16.988193
70
0
0
VERTEX
8
Layer 1
10
12.931440
20
17.262153
70
0
0
VERTEX
8
Layer 1
10
11.906289
20
18.256233
70
0
0
VERTEX
8
Layer 1
10
11.188976
20
20.263721
70
0
0
VERTEX
8
Layer 1
10
10.778929
20
22.455529
70
0
0
VERTEX
8
Layer 1
10
10.734126
20
24.676756
70
0
0
VERTEX
8
Layer 1
10
11.112540
20
26.772498
70
0
0
VERTEX
8
Layer 1
10
11.990397
20
28.329873
70
0
0
VERTEX
8
Layer 1
10
13.219162
20
29.763163
70
0
0
VERTEX
8
Layer 1
10
14.717532
20
30.813196
70
0
0
VERTEX
8
Layer 1
10
15.542410
20
31.113499
70
0
0
VERTEX
8
Layer 1
10
16.404200
20
31.220800
70
0
0
VERTEX
8
Layer 1
10
16.404200
20
31.220800
70
0
0
SEQEND
8
Layer 1
0
POLYLINE
8
Layer 1
62
7
70
1
10
0.000000
20
0.000000
66
1
0
VERTEX
8
Layer 1
10
31.220800
20
20.372900
70
0
0
VERTEX
8
Layer 1
10
32.073708
20
19.949100
70
0
0
VERTEX
8
Layer 1
10
32.808298
20
19.314568
70
0
0
VERTEX
8
Layer 1
10
32.808298
20
18.520819
70
0
0
VERTEX
8
Layer 1
10
35.454128
20
17.991653
70
0
0
VERTEX
8
Layer 1
10
35.189545
20
17.462487
70
0
0
VERTEX
8
Layer 1
10
33.602047
20
17.197904
70
0
0
VERTEX
8
Layer 1
10
33.602047
20
16.933321
70
0
0
VERTEX
8
Layer 1
10
34.615937
20
16.826868
70
0
0
VERTEX
8
Layer 1
10
35.933685
20
16.685274
70
0
0
VERTEX
8
Layer 1
10
36.601860
20
16.615511
70
0
0
VERTEX
8
Layer 1
10
37.245231
20
16.545748
70
0
0
VERTEX
8
Layer 1
10
37.837248
20
16.482768
70
0
0
VERTEX
8
Layer 1
10
39.158290
20
16.139572
70
0
0
VERTEX
8
Layer 1
10
39.158290
20
15.610406
70
0
0
VERTEX
8
Layer 1
10
40.481205
20
15.345823
70
0
0
VERTEX
8
Layer 1
10
39.493015
20
15.146965
70
0
0
VERTEX
8
Layer 1
10
38.463760
20
15.461578
70
0
0
VERTEX
8
Layer 1
10
36.618260
20
15.931051
70
0
0
VERTEX
8
Layer 1
10
34.615231
20
16.095239
70
0
0
VERTEX
8
Layer 1
10
32.622374
20
15.917791
70
0
0
VERTEX
8
Layer 1
10
30.807389
20
15.362359
70
0
0
VERTEX
8
Layer 1
10
29.462201
20
14.435025
70
0
0
VERTEX
8
Layer 1
10
28.222503
20
13.322317
70
0
0
VERTEX
8
Layer 1
10
27.187977
20
12.034872
70
0
0
VERTEX
8
Layer 1
10
26.458306
20
10.583329
70
0
0
VERTEX
8
Layer 1
10
26.193723
20
8.995831
70
0
0
VERTEX
8
Layer 1
10
25.664557
20
8.995831
70
0
0
VERTEX
8
Layer 1
10
25.781421
20
11.292837
70
0
0
VERTEX
8
Layer 1
10
26.103705
20
12.338238
70
0
0
VERTEX
8
Layer 1
10
26.739425
20
13.328378
70
0
0
VERTEX
8
Layer 1
10
28.260620
20
14.672723
70
0
0
VERTEX
8
Layer 1
10
29.897885
20
15.874989
70
0
0
VERTEX
8
Layer 1
10
29.021454
20
16.056890
70
0
0
VERTEX
8
Layer 1
10
27.905544
20
16.654258
70
0
0
VERTEX
8
Layer 1
10
27.252055
20
17.727070
70
0
0
VERTEX
8
Layer 1
10
26.458306
20
18.520819
70
0
0
VERTEX
8
Layer 1
10
27.516638
20
19.049985
70
0
0
VERTEX
8
Layer 1
10
27.516638
20
20.108317
70
0
0
VERTEX
8
Layer 1
10
28.392610
20
20.399245
70
0
0
VERTEX
8
Layer 1
10
29.331838
20
20.491472
70
0
0
VERTEX
8
Layer 1
10
31.220800
20
20.372900
70
0
0
VERTEX
8
Layer 1
10
31.220800
20
20.372900
70
0
0
SEQEND
8
Layer 1
0
POLYLINE
8
Layer 1
62
7
70
1
10
0.000000
20
0.000000
66
1
0
VERTEX
8
Layer 1
10
44.232000
20
33.519400
70
0
0
VERTEX
8
Layer 1
10
45.070852
20
32.407800
70
0
0
VERTEX
8
Layer 1
10
45.540324
20
31.104352
70
0
0
VERTEX
8
Layer 1
10
45.758969
20
29.705926
70
0
0
VERTEX
8
Layer 1
10
45.845336
20
28.309389
70
0
0
VERTEX
8
Layer 1
10
45.872208
20
26.838679
70
0
0
VERTEX
8
Layer 1
10
45.902180
20
26.090922
70
0
0
VERTEX
8
Layer 1
10
45.827895
20
24.614704
70
0
0
VERTEX
8
Layer 1
10
45.616051
20
23.980914
70
0
0
VERTEX
8
Layer 1
10
45.197315
20
23.297815
70
0
0
VERTEX
8
Layer 1
10
42.978331
20
21.877748
70
0
0
VERTEX
8
Layer 1
10
42.233158
20
21.467438
70
0
0
VERTEX
8
Layer 1
10
41.494057
20
21.204276
70
0
0
VERTEX
8
Layer 1
10
40.481329
20
21.166681
70
0
0
VERTEX
8
Layer 1
10
40.216746
20
20.372932
70
0
0
VERTEX
8
Layer 1
10
38.182764
20
20.587906
70
0
0
VERTEX
8
Layer 1
10
37.604506
20
20.644233
70
0
0
VERTEX
8
Layer 1
10
36.056008
20
20.948495
70
0
0
VERTEX
8
Layer 1
10
34.660503
20
21.695847
70
0
0
VERTEX
8
Layer 1
10
34.131337
20
22.754179
70
0
0
VERTEX
8
Layer 1
10
35.016510
20
22.508359
70
0
0
VERTEX
8
Layer 1
10
35.834590
20
22.076185
70
0
0
VERTEX
8
Layer 1
10
37.377179
20
21.648025
70
0
0
VERTEX
8
Layer 1
10
38.915922
20
21.577907
70
0
0
VERTEX
8
Layer 1
10
40.447753
20
21.818940
70
0
0
VERTEX
8
Layer 1
10
41.969609
20
22.324232
70
0
0
VERTEX
8
Layer 1
10
44.185491
20
23.547928
70
0
0
VERTEX
8
Layer 1
10
44.251637
20
25.118890
70
0
0
VERTEX
8
Layer 1
10
44.239235
20
25.969483
70
0
0
VERTEX
8
Layer 1
10
44.181553
20
26.742709
70
0
0
VERTEX
8
Layer 1
10
43.920908
20
27.516673
70
0
0
VERTEX
8
Layer 1
10
43.639789
20
29.467973
70
0
0
VERTEX
8
Layer 1
10
43.498196
20
30.515970
70
0
0
VERTEX
8
Layer 1
10
43.391742
20
32.808333
70
0
0
VERTEX
8
Layer 1
10
40.729376
20
32.576823
70
0
0
VERTEX
8
Layer 1
10
39.973351
20
32.513778
70
0
0
VERTEX
8
Layer 1
10
37.956845
20
32.237006
70
0
0
VERTEX
8
Layer 1
10
35.983418
20
31.750001
70
0
0
VERTEX
8
Layer 1
10
34.925086
20
31.750001
70
0
0
VERTEX
8
Layer 1
10
34.925086
20
32.279167
70
0
0
VERTEX
8
Layer 1
10
37.047331
20
33.094423
70
0
0
VERTEX
8
Layer 1
10
39.554520
20
33.824399
70
0
0
VERTEX
8
Layer 1
10
40.835927
20
34.039508
70
0
0
VERTEX
8
Layer 1
10
42.073720
20
34.091818
70
0
0
VERTEX
8
Layer 1
10
43.221284
20
33.934168
70
0
0
VERTEX
8
Layer 1
10
44.232000
20
33.519400
70
0
0
VERTEX
8
Layer 1
10
44.232000
20
33.519400
70
0
0
SEQEND
8
Layer 1
0
POLYLINE
8
Layer 1
62
7
70
1
10
0.000000
20
0.000000
66
1
0
VERTEX
8
Layer 1
10
11.525900
20
35.818000
70
0
0
VERTEX
8
Layer 1
10
12.645790
20
35.731652
70
0
0
VERTEX
8
Layer 1
10
13.648065
20
35.512811
70
0
0
VERTEX
8
Layer 1
10
15.610400
20
34.660449
70
0
0
VERTEX
8
Layer 1
10
17.082143
20
33.932846
70
0
0
VERTEX
8
Layer 1
10
18.256230
20
33.337534
70
0
0
VERTEX
8
Layer 1
10
17.366961
20
33.125004
70
0
0
VERTEX
8
Layer 1
10
16.455825
20
33.317897
70
0
0
VERTEX
8
Layer 1
10
15.643473
20
33.684800
70
0
0
VERTEX
8
Layer 1
10
13.314708
20
34.652596
70
0
0
VERTEX
8
Layer 1
10
10.847906
20
34.925032
70
0
0
VERTEX
8
Layer 1
10
10.273800
20
34.246854
70
0
0
VERTEX
8
Layer 1
10
9.861645
20
33.453733
70
0
0
VERTEX
8
Layer 1
10
9.260408
20
31.750036
70
0
0
VERTEX
8
Layer 1
10
8.731242
20
31.750036
70
0
0
VERTEX
8
Layer 1
10
8.576213
20
31.284949
70
0
0
VERTEX
8
Layer 1
10
8.367440
20
30.658631
70
0
0
VERTEX
8
Layer 1
10
8.149366
20
29.993040
70
0
0
VERTEX
8
Layer 1
10
7.623301
20
28.608113
70
0
0
VERTEX
8
Layer 1
10
7.319424
20
26.750776
70
0
0
VERTEX
8
Layer 1
10
7.408327
20
24.870878
70
0
0
VERTEX
8
Layer 1
10
7.981069
20
24.351858
70
0
0
VERTEX
8
Layer 1
10
8.731242
20
24.077129
70
0
0
VERTEX
8
Layer 1
10
10.318740
20
23.018797
70
0
0
VERTEX
8
Layer 1
10
10.318740
20
22.754214
70
0
0
VERTEX
8
Layer 1
10
8.971350
20
22.852187
70
0
0
VERTEX
8
Layer 1
10
7.772129
20
23.481818
70
0
0
VERTEX
8
Layer 1
10
7.166482
20
23.891094
70
0
0
VERTEX
8
Layer 1
10
6.228455
20
24.809504
70
0
0
VERTEX
8
Layer 1
10
5.668901
20
25.981920
70
0
0
VERTEX
8
Layer 1
10
5.711349
20
27.211878
70
0
0
VERTEX
8
Layer 1
10
5.932463
20
28.444954
70
0
0
VERTEX
8
Layer 1
10
6.804532
20
30.869086
70
0
0
VERTEX
8
Layer 1
10
8.072808
20
33.151558
70
0
0
VERTEX
8
Layer 1
10
9.524991
20
35.189615
70
0
0
VERTEX
8
Layer 1
10
9.994531
20
35.579127
70
0
0
VERTEX
8
Layer 1
10
10.422833
20
35.759673
70
0
0
VERTEX
8
Layer 1
10
11.525900
20
35.818000
70
0
0
VERTEX
8
Layer 1
10
11.525900
20
35.818000
70
0
0
SEQEND
8
Layer 1
0
POLYLINE
8
Layer 1
62
7
70
1
10
0.000000
20
0.000000
66
1
0
VERTEX
8
Layer 1
10
44.185400
20
21.695800
70
0
0
VERTEX
8
Layer 1
10
45.243732
20
21.695800
70
0
0
VERTEX
8
Layer 1
10
45.293341
20
19.909865
70
0
0
VERTEX
8
Layer 1
10
45.321247
20
18.905276
70
0
0
VERTEX
8
Layer 1
10
45.110639
20
17.807716
70
0
0
VERTEX
8
Layer 1
10
44.449983
20
16.933306
70
0
0
VERTEX
8
Layer 1
10
43.920817
20
16.933306
70
0
0
VERTEX
8
Layer 1
10
43.920817
20
18.785387
70
0
0
VERTEX
8
Layer 1
10
43.523943
20
18.653095
70
0
0
VERTEX
8
Layer 1
10
41.677006
20
18.471420
70
0
0
VERTEX
8
Layer 1
10
40.805687
20
18.633158
70
0
0
VERTEX
8
Layer 1
10
39.952072
20
19.049970
70
0
0
VERTEX
8
Layer 1
10
40.922805
20
17.299679
70
0
0
VERTEX
8
Layer 1
10
42.019127
20
15.626927
70
0
0
VERTEX
8
Layer 1
10
42.525555
20
14.851782
70
0
0
VERTEX
8
Layer 1
10
42.597902
20
14.287476
70
0
0
VERTEX
8
Layer 1
10
41.192305
20
14.527254
70
0
0
VERTEX
8
Layer 1
10
40.481238
20
14.816642
70
0
0
VERTEX
8
Layer 1
10
40.481238
20
15.345808
70
0
0
VERTEX
8
Layer 1
10
39.158323
20
15.610391
70
0
0
VERTEX
8
Layer 1
10
40.216655
20
15.874974
70
0
0
VERTEX
8
Layer 1
10
39.753635
20
16.715232
70
0
0
VERTEX
8
Layer 1
10
39.158323
20
17.809737
70
0
0
VERTEX
8
Layer 1
10
38.852399
20
18.363191
70
0
0
VERTEX
8
Layer 1
10
38.194042
20
19.690434
70
0
0
VERTEX
8
Layer 1
10
38.099991
20
20.637468
70
0
0
VERTEX
8
Layer 1
10
39.902602
20
20.576677
70
0
0
VERTEX
8
Layer 1
10
40.677361
20
20.324584
70
0
0
VERTEX
8
Layer 1
10
41.539570
20
19.843719
70
0
0
VERTEX
8
Layer 1
10
42.201028
20
19.678355
70
0
0
VERTEX
8
Layer 1
10
42.862485
20
19.843719
70
0
0
VERTEX
8
Layer 1
10
43.839168
20
21.290657
70
0
0
VERTEX
8
Layer 1
10
44.185400
20
21.695800
70
0
0
VERTEX
8
Layer 1
10
44.185400
20
21.695800
70
0
0
SEQEND
8
Layer 1
0
POLYLINE
8
Layer 1
62
7
70
1
10
0.000000
20
0.000000
66
1
0
VERTEX
8
Layer 1
10
29.947700
20
21.481000
70
0
0
VERTEX
8
Layer 1
10
30.548696
20
21.393667
70
0
0
VERTEX
8
Layer 1
10
32.014755
20
21.166808
70
0
0
VERTEX
8
Layer 1
10
32.014755
20
20.637642
70
0
0
VERTEX
8
Layer 1
10
32.543921
20
20.637642
70
0
0
VERTEX
8
Layer 1
10
32.543921
20
20.108476
70
0
0
VERTEX
8
Layer 1
10
33.073087
20
20.108476
70
0
0
VERTEX
8
Layer 1
10
33.337670
20
18.520978
70
0
0
VERTEX
8
Layer 1
10
32.808504
20
18.520978
70
0
0
VERTEX
8
Layer 1
10
32.610066
20
19.017071
70
0
0
VERTEX
8
Layer 1
10
32.045289
20
19.719669
70
0
0
VERTEX
8
Layer 1
10
31.221006
20
20.108476
70
0
0
VERTEX
8
Layer 1
10
29.302779
20
20.141549
70
0
0
VERTEX
8
Layer 1
10
28.289922
20
20.127079
70
0
0
VERTEX
8
Layer 1
10
27.516844
20
20.108476
70
0
0
VERTEX
8
Layer 1
10
27.516844
20
19.050144
70
0
0
VERTEX
8
Layer 1
10
26.723095
20
18.520978
70
0
0
VERTEX
8
Layer 1
10
26.723095
20
17.991812
70
0
0
VERTEX
8
Layer 1
10
27.516844
20
17.727229
70
0
0
VERTEX
8
Layer 1
10
27.847572
20
17.065771
70
0
0
VERTEX
8
Layer 1
10
28.347724
20
16.379534
70
0
0
VERTEX
8
Layer 1
10
29.286243
20
16.189340
70
0
0
VERTEX
8
Layer 1
10
30.162674
20
16.139731
70
0
0
VERTEX
8
Layer 1
10
28.926441
20
14.969753
70
0
0
VERTEX
8
Layer 1
10
27.516844
20
14.023067
70
0
0
VERTEX
8
Layer 1
10
27.516844
20
14.552233
70
0
0
VERTEX
8
Layer 1
10
26.723095
20
14.816816
70
0
0
VERTEX
8
Layer 1
10
27.252261
20
15.081399
70
0
0
VERTEX
8
Layer 1
10
26.987678
20
15.875148
70
0
0
VERTEX
8
Layer 1
10
27.516844
20
15.875148
70
0
0
VERTEX
8
Layer 1
10
27.516844
20
16.404314
70
0
0
VERTEX
8
Layer 1
10
26.458512
20
16.404314
70
0
0
VERTEX
8
Layer 1
10
26.193929
20
17.991812
70
0
0
VERTEX
8
Layer 1
10
22.489767
20
19.050144
70
0
0
VERTEX
8
Layer 1
10
22.489767
20
19.314727
70
0
0
VERTEX
8
Layer 1
10
26.458512
20
19.314727
70
0
0
VERTEX
8
Layer 1
10
26.987678
20
20.902225
70
0
0
VERTEX
8
Layer 1
10
27.573905
20
21.515020
70
0
0
VERTEX
8
Layer 1
10
28.288115
20
21.703223
70
0
0
VERTEX
8
Layer 1
10
29.947700
20
21.481000
70
0
0
VERTEX
8
Layer 1
10
29.947700
20
21.481000
70
0
0
SEQEND
8
Layer 1
0
POLYLINE
8
Layer 1
62
7
70
1
10
0.000000
20
0.000000
66
1
0
VERTEX
8
Layer 1
10
29.666400
20
20.124700
70
0
0
VERTEX
8
Layer 1
10
30.396070
20
20.117465
70
0
0
VERTEX
8
Layer 1
10
30.956242
20
20.108164
70
0
0
VERTEX
8
Layer 1
10
30.956242
20
19.578998
70
0
0
VERTEX
8
Layer 1
10
32.014574
20
19.578998
70
0
0
VERTEX
8
Layer 1
10
32.246084
20
19.066368
70
0
0
VERTEX
8
Layer 1
10
32.538594
20
18.525631
70
0
0
VERTEX
8
Layer 1
10
33.072906
20
18.256083
70
0
0
VERTEX
8
Layer 1
10
32.543740
20
16.668585
70
0
0
VERTEX
8
Layer 1
10
27.781246
20
16.668585
70
0
0
VERTEX
8
Layer 1
10
27.252080
20
17.726917
70
0
0
VERTEX
8
Layer 1
10
26.458331
20
18.520666
70
0
0
VERTEX
8
Layer 1
10
26.970961
20
18.735639
70
0
0
VERTEX
8
Layer 1
10
27.547269
20
19.087289
70
0
0
VERTEX
8
Layer 1
10
27.781246
20
19.843581
70
0
0
VERTEX
8
Layer 1
10
28.695224
20
20.112970
70
0
0
VERTEX
8
Layer 1
10
29.666400
20
20.124700
70
0
0
VERTEX
8
Layer 1
10
29.666400
20
20.124700
70
0
0
SEQEND
8
Layer 1
0
POLYLINE
8
Layer 1
62
7
70
1
10
0.000000
20
0.000000
66
1
0
VERTEX
8
Layer 1
10
16.404200
20
31.220800
70
0
0
VERTEX
8
Layer 1
10
16.404200
20
30.691634
70
0
0
VERTEX
8
Layer 1
10
15.395477
20
29.782130
70
0
0
VERTEX
8
Layer 1
10
13.791606
20
28.190066
70
0
0
VERTEX
8
Layer 1
10
13.214456
20
27.303495
70
0
0
VERTEX
8
Layer 1
10
12.700038
20
26.193723
70
0
0
VERTEX
8
Layer 1
10
12.435455
20
25.664557
70
0
0
VERTEX
8
Layer 1
10
12.409617
20
23.992310
70
0
0
VERTEX
8
Layer 1
10
12.412201
20
22.984621
70
0
0
VERTEX
8
Layer 1
10
12.418919
20
21.927322
70
0
0
VERTEX
8
Layer 1
10
12.422536
20
20.863822
70
0
0
VERTEX
8
Layer 1
10
12.435455
20
18.256233
70
0
0
VERTEX
8
Layer 1
10
11.906289
20
18.256233
70
0
0
VERTEX
8
Layer 1
10
11.209177
20
20.281171
70
0
0
VERTEX
8
Layer 1
10
10.793105
20
22.458748
70
0
0
VERTEX
8
Layer 1
10
10.735189
20
24.664134
70
0
0
VERTEX
8
Layer 1
10
11.112540
20
26.772498
70
0
0
VERTEX
8
Layer 1
10
11.990397
20
28.329873
70
0
0
VERTEX
8
Layer 1
10
13.219162
20
29.763163
70
0
0
VERTEX
8
Layer 1
10
14.717532
20
30.813196
70
0
0
VERTEX
8
Layer 1
10
15.542410
20
31.113499
70
0
0
VERTEX
8
Layer 1
10
16.404200
20
31.220800
70
0
0
VERTEX
8
Layer 1
10
16.404200
20
31.220800
70
0
0
SEQEND
8
Layer 1
0
POLYLINE
8
Layer 1
62
7
70
1
10
0.000000
20
0.000000
66
1
0
VERTEX
8
Layer 1
10
4.497920
20
20.902100
70
0
0
VERTEX
8
Layer 1
10
4.762503
20
20.108351
70
0
0
VERTEX
8
Layer 1
10
6.085418
20
19.579185
70
0
0
VERTEX
8
Layer 1
10
6.350001
20
19.050019
70
0
0
VERTEX
8
Layer 1
10
5.797064
20
18.941499
70
0
0
VERTEX
8
Layer 1
10
4.077384
20
18.389483
70
0
0
VERTEX
8
Layer 1
10
2.627642
20
17.604956
70
0
0
VERTEX
8
Layer 1
10
1.313348
20
16.589789
70
0
0
VERTEX
8
Layer 1
10
0.000009
20
15.345857
70
0
0
VERTEX
8
Layer 1
10
0.000009
20
20.637517
70
0
0
VERTEX
8
Layer 1
10
2.886799
20
20.632792
70
0
0
VERTEX
8
Layer 1
10
4.497920
20
20.372934
70
0
0
VERTEX
8
Layer 1
10
4.497920
20
20.902100
70
0
0
VERTEX
8
Layer 1
10
4.497920
20
20.902100
70
0
0
SEQEND
8
Layer 1
0
POLYLINE
8
Layer 1
62
7
70
1
10
0.000000
20
0.000000
66
1
0
VERTEX
8
Layer 1
10
12.170800
20
21.960400
70
0
0
VERTEX
8
Layer 1
10
12.435383
20
21.166651
70
0
0
VERTEX
8
Layer 1
10
13.112343
20
21.588330
70
0
0
VERTEX
8
Layer 1
10
13.862224
20
21.829713
70
0
0
VERTEX
8
Layer 1
10
14.492679
20
21.882234
70
0
0
VERTEX
8
Layer 1
10
15.891498
20
21.563526
70
0
0
VERTEX
8
Layer 1
10
16.843377
20
21.290674
70
0
0
VERTEX
8
Layer 1
10
18.061494
20
20.583638
70
0
0
VERTEX
8
Layer 1
10
19.049958
20
19.579153
70
0
0
VERTEX
8
Layer 1
10
19.049958
20
18.785404
70
0
0
VERTEX
8
Layer 1
10
22.489537
20
18.256238
70
0
0
VERTEX
8
Layer 1
10
22.489537
20
17.991655
70
0
0
VERTEX
8
Layer 1
10
21.822912
20
17.989588
70
0
0
VERTEX
8
Layer 1
10
19.314541
20
17.727072
70
0
0
VERTEX
8
Layer 1
10
18.794965
20
16.969379
70
0
0
VERTEX
8
Layer 1
10
18.520792
20
16.139574
70
0
0
VERTEX
8
Layer 1
10
17.607547
20
15.679900
70
0
0
VERTEX
8
Layer 1
10
16.548822
20
15.674487
70
0
0
VERTEX
8
Layer 1
10
15.544233
20
15.841918
70
0
0
VERTEX
8
Layer 1
10
14.531376
20
16.005215
70
0
0
VERTEX
8
Layer 1
10
13.758298
20
16.139574
70
0
0
VERTEX
8
Layer 1
10
13.758298
20
16.668740
70
0
0
VERTEX
8
Layer 1
10
12.435383
20
16.933323
70
0
0
VERTEX
8
Layer 1
10
12.699966
20
17.727072
70
0
0
VERTEX
8
Layer 1
10
13.493715
20
17.197906
70
0
0
VERTEX
8
Layer 1
10
15.064677
20
17.098687
70
0
0
VERTEX
8
Layer 1
10
15.898733
20
17.075950
70
0
0
VERTEX
8
Layer 1
10
16.934373
20
17.458583
70
0
0
VERTEX
8
Layer 1
10
17.727043
20
18.256238
70
0
0
VERTEX
8
Layer 1
10
18.520792
20
18.520821
70
0
0
VERTEX
8
Layer 1
10
17.991626
20
20.108319
70
0
0
VERTEX
8
Layer 1
10
17.197877
20
20.108319
70
0
0
VERTEX
8
Layer 1
10
17.197877
20
20.637485
70
0
0
VERTEX
8
Layer 1
10
15.395405
20
20.670558
70
0
0
VERTEX
8
Layer 1
10
14.381515
20
20.689161
70
0
0
VERTEX
8
Layer 1
10
13.478920
20
20.632532
70
0
0
VERTEX
8
Layer 1
10
12.699966
20
20.108319
70
0
0
VERTEX
8
Layer 1
10
12.699966
20
20.637485
70
0
0
VERTEX
8
Layer 1
10
12.170800
20
20.637485
70
0
0
VERTEX
8
Layer 1
10
12.170800
20
21.960400
70
0
0
VERTEX
8
Layer 1
10
12.170800
20
21.960400
70
0
0
SEQEND
8
Layer 1
0
POLYLINE
8
Layer 1
62
7
70
1
10
0.000000
20
0.000000
66
1
0
VERTEX
8
Layer 1
10
0.000000
20
8.466670
70
0
0
VERTEX
8
Layer 1
10
0.545572
20
7.639688
70
0
0
VERTEX
8
Layer 1
10
0.790849
20
6.970341
70
0
0
VERTEX
8
Layer 1
10
0.793749
20
5.291674
70
0
0
VERTEX
8
Layer 1
10
3.174996
20
4.762508
70
0
0
VERTEX
8
Layer 1
10
3.174996
20
3.968759
70
0
0
VERTEX
8
Layer 1
10
2.645830
20
3.968759
70
0
0
VERTEX
8
Layer 1
10
2.531108
20
3.395151
70
0
0
VERTEX
8
Layer 1
10
1.852081
20
0.000014
70
0
0
VERTEX
8
Layer 1
10
0.000000
20
0.000014
70
0
0
VERTEX
8
Layer 1
10
0.000000
20
8.466670
70
0
0
VERTEX
8
Layer 1
10
0.000000
20
8.466670
70
0
0
SEQEND
8
Layer 1
0
POLYLINE
8
Layer 1
62
7
70
1
10
0.000000
20
0.000000
66
1
0
VERTEX
8
Layer 1
10
34.693500
20
16.205700
70
0
0
VERTEX
8
Layer 1
10
35.322918
20
16.201566
70
0
0
VERTEX
8
Layer 1
10
36.853250
20
16.128195
70
0
0
VERTEX
8
Layer 1
10
38.364589
20
15.874971
70
0
0
VERTEX
8
Layer 1
10
38.364589
20
15.610388
70
0
0
VERTEX
8
Layer 1
10
34.660427
20
15.874971
70
0
0
VERTEX
8
Layer 1
10
34.925010
20
13.229141
70
0
0
VERTEX
8
Layer 1
10
34.341494
20
13.043753
70
0
0
VERTEX
8
Layer 1
10
33.789512
20
13.049776
70
0
0
VERTEX
8
Layer 1
10
32.609909
20
13.328360
70
0
0
VERTEX
8
Layer 1
10
29.104184
20
14.022890
70
0
0
VERTEX
8
Layer 1
10
30.344143
20
15.162040
70
0
0
VERTEX
8
Layer 1
10
31.625272
20
15.839610
70
0
0
VERTEX
8
Layer 1
10
33.043185
20
16.154524
70
0
0
VERTEX
8
Layer 1
10
34.693500
20
16.205700
70
0
0
VERTEX
8
Layer 1
10
34.693500
20
16.205700
70
0
0
SEQEND
8
Layer 1
0
POLYLINE
8
Layer 1
62
7
70
1
10
0.000000
20
0.000000
66
1
0
VERTEX
8
Layer 1
10
44.239100
20
33.504900
70
0
0
VERTEX
8
Layer 1
10
44.760138
20
32.894400
70
0
0
VERTEX
8
Layer 1
10
45.064759
20
32.236327
70
0
0
VERTEX
8
Layer 1
10
45.302600
20
30.704041
70
0
0
VERTEX
8
Layer 1
10
45.291750
20
28.659502
70
0
0
VERTEX
8
Layer 1
10
45.143212
20
28.223457
70
0
0
VERTEX
8
Layer 1
10
44.841646
20
27.817399
70
0
0
VERTEX
8
Layer 1
10
44.449940
20
27.516643
70
0
0
VERTEX
8
Layer 1
10
44.196052
20
29.250508
70
0
0
VERTEX
8
Layer 1
10
44.253569
20
31.015133
70
0
0
VERTEX
8
Layer 1
10
44.198180
20
31.709993
70
0
0
VERTEX
8
Layer 1
10
43.900103
20
32.238829
70
0
0
VERTEX
8
Layer 1
10
43.225218
20
32.535958
70
0
0
VERTEX
8
Layer 1
10
42.456654
20
32.700674
70
0
0
VERTEX
8
Layer 1
10
40.755855
20
32.721337
70
0
0
VERTEX
8
Layer 1
10
39.032448
20
32.477750
70
0
0
VERTEX
8
Layer 1
10
37.521172
20
32.146845
70
0
0
VERTEX
8
Layer 1
10
36.699518
20
31.923603
70
0
0
VERTEX
8
Layer 1
10
35.940521
20
31.771675
70
0
0
VERTEX
8
Layer 1
10
34.924952
20
31.749971
70
0
0
VERTEX
8
Layer 1
10
34.924952
20
32.279137
70
0
0
VERTEX
8
Layer 1
10
37.047692
20
33.094888
70
0
0
VERTEX
8
Layer 1
10
39.562655
20
33.827058
70
0
0
VERTEX
8
Layer 1
10
40.847677
20
34.041819
70
0
0
VERTEX
8
Layer 1
10
42.087303
20
34.091707
70
0
0
VERTEX
8
Layer 1
10
43.233717
20
33.928732
70
0
0
VERTEX
8
Layer 1
10
44.239100
20
33.504900
70
0
0
VERTEX
8
Layer 1
10
44.239100
20
33.504900
70
0
0
SEQEND
8
Layer 1
0
POLYLINE
8
Layer 1
62
7
70
1
10
0.000000
20
0.000000
66
1
0
VERTEX
8
Layer 1
10
20.554800
20
14.271100
70
0
0
VERTEX
8
Layer 1
10
21.342345
20
13.859692
70
0
0
VERTEX
8
Layer 1
10
21.960397
20
13.229304
70
0
0
VERTEX
8
Layer 1
10
22.226596
20
11.794247
70
0
0
VERTEX
8
Layer 1
10
22.224980
20
10.318891
70
0
0
VERTEX
8
Layer 1
10
21.519081
20
10.376769
70
0
0
VERTEX
8
Layer 1
10
20.587873
20
10.451183
70
0
0
VERTEX
8
Layer 1
10
19.667000
20
10.525597
70
0
0
VERTEX
8
Layer 1
10
17.462486
20
10.583474
70
0
0
VERTEX
8
Layer 1
10
17.462486
20
12.170972
70
0
0
VERTEX
8
Layer 1
10
19.049984
20
11.906389
70
0
0
VERTEX
8
Layer 1
10
19.049984
20
12.964721
70
0
0
VERTEX
8
Layer 1
10
18.256235
20
13.229304
70
0
0
VERTEX
8
Layer 1
10
19.582433
20
14.156807
70
0
0
VERTEX
8
Layer 1
10
20.554800
20
14.271100
70
0
0
VERTEX
8
Layer 1
10
20.554800
20
14.271100
70
0
0
SEQEND
8
Layer 1
0
POLYLINE
8
Layer 1
62
7
70
1
10
0.000000
20
0.000000
66
1
0
VERTEX
8
Layer 1
10
34.660400
20
15.875000
70
0
0
VERTEX
8
Layer 1
10
35.983315
20
15.875000
70
0
0
VERTEX
8
Layer 1
10
35.983315
20
14.287502
70
0
0
VERTEX
8
Layer 1
10
36.512481
20
14.287502
70
0
0
VERTEX
8
Layer 1
10
37.292056
20
12.444870
70
0
0
VERTEX
8
Layer 1
10
37.306230
20
11.112506
70
0
0
VERTEX
8
Layer 1
10
36.247898
20
10.583340
70
0
0
VERTEX
8
Layer 1
10
35.983315
20
11.377089
70
0
0
VERTEX
8
Layer 1
10
35.404540
20
11.327480
70
0
0
VERTEX
8
Layer 1
10
34.319875
20
11.598088
70
0
0
VERTEX
8
Layer 1
10
33.337485
20
12.170838
70
0
0
VERTEX
8
Layer 1
10
31.749987
20
12.435421
70
0
0
VERTEX
8
Layer 1
10
31.749987
20
13.229170
70
0
0
VERTEX
8
Layer 1
10
31.220821
20
13.493753
70
0
0
VERTEX
8
Layer 1
10
34.660400
20
13.229170
70
0
0
VERTEX
8
Layer 1
10
34.660400
20
15.875000
70
0
0
VERTEX
8
Layer 1
10
34.660400
20
15.875000
70
0
0
SEQEND
8
Layer 1
0
POLYLINE
8
Layer 1
62
7
70
1
10
0.000000
20
0.000000
66
1
0
VERTEX
8
Layer 1
10
4.762500
20
20.902100
70
0
0
VERTEX
8
Layer 1
10
6.583035
20
20.695236
70
0
0
VERTEX
8
Layer 1
10
7.408330
20
20.224106
70
0
0
VERTEX
8
Layer 1
10
7.672913
20
19.843768
70
0
0
VERTEX
8
Layer 1
10
7.143747
20
19.843768
70
0
0
VERTEX
8
Layer 1
10
7.143747
20
19.314602
70
0
0
VERTEX
8
Layer 1
10
8.466662
20
18.785436
70
0
0
VERTEX
8
Layer 1
10
8.466662
20
18.520853
70
0
0
VERTEX
8
Layer 1
10
7.846546
20
18.500182
70
0
0
VERTEX
8
Layer 1
10
6.120229
20
18.318072
70
0
0
VERTEX
8
Layer 1
10
4.598692
20
17.910645
70
0
0
VERTEX
8
Layer 1
10
3.218745
20
17.184072
70
0
0
VERTEX
8
Layer 1
10
1.917199
20
16.044521
70
0
0
VERTEX
8
Layer 1
10
1.267633
20
14.947084
70
0
0
VERTEX
8
Layer 1
10
0.793755
20
13.758359
70
0
0
VERTEX
8
Layer 1
10
0.479563
20
12.981146
70
0
0
VERTEX
8
Layer 1
10
0.264589
20
12.435444
70
0
0
VERTEX
8
Layer 1
10
0.000006
20
12.435444
70
0
0
VERTEX
8
Layer 1
10
-0.115233
20
14.243242
70
0
0
VERTEX
8
Layer 1
10
0.005792
20
15.112936
70
0
0
VERTEX
8
Layer 1
10
0.337969
20
15.963906
70
0
0
VERTEX
8
Layer 1
10
1.567617
20
17.210251
70
0
0
VERTEX
8
Layer 1
10
2.911701
20
18.164915
70
0
0
VERTEX
8
Layer 1
10
4.405782
20
18.856749
70
0
0
VERTEX
8
Layer 1
10
6.085415
20
19.314602
70
0
0
VERTEX
8
Layer 1
10
5.423958
20
19.661867
70
0
0
VERTEX
8
Layer 1
10
4.762500
20
20.108351
70
0
0
VERTEX
8
Layer 1
10
4.762500
20
20.902100
70
0
0
VERTEX
8
Layer 1
10
4.762500
20
20.902100
70
0
0
SEQEND
8
Layer 1
0
POLYLINE
8
Layer 1
62
7
70
1
10
0.000000
20
0.000000
66
1
0
VERTEX
8
Layer 1
10
10.583300
20
15.345800
70
0
0
VERTEX
8
Layer 1
10
10.847883
20
15.345800
70
0
0
VERTEX
8
Layer 1
10
10.849950
20
14.686410
70
0
0
VERTEX
8
Layer 1
10
11.002811
20
12.980937
70
0
0
VERTEX
8
Layer 1
10
11.388658
20
11.473996
70
0
0
VERTEX
8
Layer 1
10
12.088319
20
10.097126
70
0
0
VERTEX
8
Layer 1
10
13.182621
20
8.781868
70
0
0
VERTEX
8
Layer 1
10
14.528017
20
7.866913
70
0
0
VERTEX
8
Layer 1
10
15.979270
20
7.158433
70
0
0
VERTEX
8
Layer 1
10
19.049956
20
6.085395
70
0
0
VERTEX
8
Layer 1
10
19.049956
20
5.820812
70
0
0
VERTEX
8
Layer 1
10
16.833256
20
6.083358
70
0
0
VERTEX
8
Layer 1
10
14.798035
20
6.700689
70
0
0
VERTEX
8
Layer 1
10
12.932824
20
7.712396
70
0
0
VERTEX
8
Layer 1
10
11.226154
20
9.158072
70
0
0
VERTEX
8
Layer 1
10
10.490509
20
10.232109
70
0
0
VERTEX
8
Layer 1
10
10.118095
20
11.310134
70
0
0
VERTEX
8
Layer 1
10
10.006706
20
12.462185
70
0
0
VERTEX
8
Layer 1
10
10.054134
20
13.758302
70
0
0
VERTEX
8
Layer 1
10
10.583300
20
15.345800
70
0
0
VERTEX
8
Layer 1
10
10.583300
20
15.345800
70
0
0
SEQEND
8
Layer 1
0
POLYLINE
8
Layer 1
62
7
70
1
10
0.000000
20
0.000000
66
1
0
VERTEX
8
Layer 1
10
38.364600
20
19.314600
70
0
0
VERTEX
8
Layer 1
10
39.985171
20
17.256099
70
0
0
VERTEX
8
Layer 1
10
40.187742
20
16.642112
70
0
0
VERTEX
8
Layer 1
10
40.216681
20
15.875021
70
0
0
VERTEX
8
Layer 1
10
39.446703
20
15.989743
70
0
0
VERTEX
8
Layer 1
10
35.867598
20
16.420723
70
0
0
VERTEX
8
Layer 1
10
35.204590
20
16.493587
70
0
0
VERTEX
8
Layer 1
10
33.602106
20
16.668770
70
0
0
VERTEX
8
Layer 1
10
33.602106
20
17.462519
70
0
0
VERTEX
8
Layer 1
10
35.189604
20
17.727102
70
0
0
VERTEX
8
Layer 1
10
33.602106
20
18.256268
70
0
0
VERTEX
8
Layer 1
10
33.602106
20
18.520851
70
0
0
VERTEX
8
Layer 1
10
35.989529
20
18.488645
70
0
0
VERTEX
8
Layer 1
10
38.364600
20
18.256268
70
0
0
VERTEX
8
Layer 1
10
38.364600
20
19.314600
70
0
0
VERTEX
8
Layer 1
10
38.364600
20
19.314600
70
0
0
SEQEND
8
Layer 1
0
POLYLINE
8
Layer 1
62
7
70
1
10
0.000000
20
0.000000
66
1
0
VERTEX
8
Layer 1
10
21.745400
20
14.502300
70
0
0
VERTEX
8
Layer 1
10
22.382329
20
13.772304
70
0
0
VERTEX
8
Layer 1
10
22.783684
20
13.062875
70
0
0
VERTEX
8
Layer 1
10
23.000759
20
12.279409
70
0
0
VERTEX
8
Layer 1
10
23.084851
20
11.327304
70
0
0
VERTEX
8
Layer 1
10
22.960828
20
10.378526
70
0
0
VERTEX
8
Layer 1
10
22.489540
20
9.789415
70
0
0
VERTEX
8
Layer 1
10
21.268930
20
9.944581
70
0
0
VERTEX
8
Layer 1
10
20.075220
20
10.235899
70
0
0
VERTEX
8
Layer 1
10
19.528987
20
10.313161
70
0
0
VERTEX
8
Layer 1
10
18.917669
20
10.053998
70
0
0
VERTEX
8
Layer 1
10
18.054546
20
9.844739
70
0
0
VERTEX
8
Layer 1
10
17.197880
20
10.053998
70
0
0
VERTEX
8
Layer 1
10
17.762811
20
10.509524
70
0
0
VERTEX
8
Layer 1
10
18.320203
20
10.748147
70
0
0
VERTEX
8
Layer 1
10
19.678345
20
10.897357
70
0
0
VERTEX
8
Layer 1
10
20.977233
20
10.718464
70
0
0
VERTEX
8
Layer 1
10
22.224957
20
10.318581
70
0
0
VERTEX
8
Layer 1
10
22.026519
20
11.724179
70
0
0
VERTEX
8
Layer 1
10
21.914898
20
12.514827
70
0
0
VERTEX
8
Layer 1
10
21.467236
20
13.429288
70
0
0
VERTEX
8
Layer 1
10
20.637459
20
14.022743
70
0
0
VERTEX
8
Layer 1
10
19.526144
20
13.797007
70
0
0
VERTEX
8
Layer 1
10
18.520795
20
13.228994
70
0
0
VERTEX
8
Layer 1
10
19.049961
20
12.964411
70
0
0
VERTEX
8
Layer 1
10
19.049961
20
11.906079
70
0
0
VERTEX
8
Layer 1
10
17.727046
20
12.170662
70
0
0
VERTEX
8
Layer 1
10
18.163717
20
13.402626
70
0
0
VERTEX
8
Layer 1
10
18.785378
20
14.551909
70
0
0
VERTEX
8
Layer 1
10
18.256212
20
14.816492
70
0
0
VERTEX
8
Layer 1
10
19.589849
20
15.103953
70
0
0
VERTEX
8
Layer 1
10
20.397851
20
15.167045
70
0
0
VERTEX
8
Layer 1
10
21.007331
20
14.976312
70
0
0
VERTEX
8
Layer 1
10
21.745400
20
14.502300
70
0
0
VERTEX
8
Layer 1
10
21.745400
20
14.502300
70
0
0
SEQEND
8
Layer 1
0
POLYLINE
8
Layer 1
62
7
70
1
10
0.000000
20
0.000000
66
1
0
VERTEX
8
Layer 1
10
7.937500
20
19.314600
70
0
0
VERTEX
8
Layer 1
10
9.856246
20
19.220317
70
0
0
VERTEX
8
Layer 1
10
10.732434
20
18.960466
70
0
0
VERTEX
8
Layer 1
10
11.641662
20
18.520851
70
0
0
VERTEX
8
Layer 1
10
12.170828
20
17.197936
70
0
0
VERTEX
8
Layer 1
10
10.318747
20
15.345855
70
0
0
VERTEX
8
Layer 1
10
9.789581
20
14.287523
70
0
0
VERTEX
8
Layer 1
10
9.524998
20
18.520851
70
0
0
VERTEX
8
Layer 1
10
8.731249
20
17.727102
70
0
0
VERTEX
8
Layer 1
10
7.160287
20
17.793248
70
0
0
VERTEX
8
Layer 1
10
6.326231
20
17.880064
70
0
0
VERTEX
8
Layer 1
10
4.497921
20
18.256268
70
0
0
VERTEX
8
Layer 1
10
5.633163
20
18.536717
70
0
0
VERTEX
8
Layer 1
10
6.796486
20
18.669679
70
0
0
VERTEX
8
Layer 1
10
7.593335
20
18.736858
70
0
0
VERTEX
8
Layer 1
10
8.202083
20
18.785434
70
0
0
VERTEX
8
Layer 1
10
7.937500
20
19.314600
70
0
0
VERTEX
8
Layer 1
10
7.937500
20
19.314600
70
0
0
SEQEND
8
Layer 1
0
POLYLINE
8
Layer 1
62
7
70
1
10
0.000000
20
0.000000
66
1
0
VERTEX
8
Layer 1
10
39.952100
20
19.050000
70
0
0
VERTEX
8
Layer 1
10
40.745849
20
18.785417
70
0
0
VERTEX
8
Layer 1
10
42.382956
20
18.768881
70
0
0
VERTEX
8
Layer 1
10
43.254220
20
18.776115
70
0
0
VERTEX
8
Layer 1
10
43.920845
20
18.785417
70
0
0
VERTEX
8
Layer 1
10
43.391679
20
15.610421
70
0
0
VERTEX
8
Layer 1
10
42.597930
20
15.345838
70
0
0
VERTEX
8
Layer 1
10
42.862513
20
14.022923
70
0
0
VERTEX
8
Layer 1
10
41.804181
20
14.287506
70
0
0
VERTEX
8
Layer 1
10
42.597930
20
14.287506
70
0
0
VERTEX
8
Layer 1
10
42.086334
20
15.060584
70
0
0
VERTEX
8
Layer 1
10
41.423843
20
16.073441
70
0
0
VERTEX
8
Layer 1
10
41.086396
20
16.581937
70
0
0
VERTEX
8
Layer 1
10
40.763419
20
17.078030
70
0
0
VERTEX
8
Layer 1
10
40.465311
20
17.531490
70
0
0
VERTEX
8
Layer 1
10
39.952100
20
19.050000
70
0
0
VERTEX
8
Layer 1
10
39.952100
20
19.050000
70
0
0
SEQEND
8
Layer 1
0
POLYLINE
8
Layer 1
62
7
70
1
10
0.000000
20
0.000000
66
1
0
VERTEX
8
Layer 1
10
44.450000
20
24.341700
70
0
0
VERTEX
8
Layer 1
10
44.714583
20
23.812534
70
0
0
VERTEX
8
Layer 1
10
45.508332
20
23.547951
70
0
0
VERTEX
8
Layer 1
10
42.279071
20
21.464360
70
0
0
VERTEX
8
Layer 1
10
41.436876
20
21.203911
70
0
0
VERTEX
8
Layer 1
10
40.481255
20
21.166704
70
0
0
VERTEX
8
Layer 1
10
40.216672
20
20.372955
70
0
0
VERTEX
8
Layer 1
10
38.182690
20
20.587929
70
0
0
VERTEX
8
Layer 1
10
37.604432
20
20.644256
70
0
0
VERTEX
8
Layer 1
10
36.055934
20
20.948518
70
0
0
VERTEX
8
Layer 1
10
34.660429
20
21.695870
70
0
0
VERTEX
8
Layer 1
10
34.131263
20
22.754202
70
0
0
VERTEX
8
Layer 1
10
35.016436
20
22.508381
70
0
0
VERTEX
8
Layer 1
10
35.834516
20
22.076208
70
0
0
VERTEX
8
Layer 1
10
37.377105
20
21.648048
70
0
0
VERTEX
8
Layer 1
10
38.915847
20
21.577930
70
0
0
VERTEX
8
Layer 1
10
40.447679
20
21.818962
70
0
0
VERTEX
8
Layer 1
10
41.969534
20
22.324255
70
0
0
VERTEX
8
Layer 1
10
44.185417
20
23.547951
70
0
0
VERTEX
8
Layer 1
10
44.450000
20
24.341700
70
0
0
VERTEX
8
Layer 1
10
44.450000
20
24.341700
70
0
0
SEQEND
8
Layer 1
0
POLYLINE
8
Layer 1
62
7
70
1
10
0.000000
20
0.000000
66
1
0
VERTEX
8
Layer 1
10
14.469400
20
20.935200
70
0
0
VERTEX
8
Layer 1
10
17.197912
20
20.637544
70
0
0
VERTEX
8
Layer 1
10
17.197912
20
20.108378
70
0
0
VERTEX
8
Layer 1
10
17.991661
20
20.108378
70
0
0
VERTEX
8
Layer 1
10
18.520827
20
18.785463
70
0
0
VERTEX
8
Layer 1
10
17.462495
20
19.050046
70
0
0
VERTEX
8
Layer 1
10
17.462495
20
19.579212
70
0
0
VERTEX
8
Layer 1
10
15.775779
20
19.595749
70
0
0
VERTEX
8
Layer 1
10
14.827000
20
19.605050
70
0
0
VERTEX
8
Layer 1
10
14.073312
20
19.591967
70
0
0
VERTEX
8
Layer 1
10
13.493750
20
19.314629
70
0
0
VERTEX
8
Layer 1
10
13.493750
20
17.727131
70
0
0
VERTEX
8
Layer 1
10
14.552082
20
17.197965
70
0
0
VERTEX
8
Layer 1
10
14.084928
20
17.003662
70
0
0
VERTEX
8
Layer 1
10
13.493750
20
16.933382
70
0
0
VERTEX
8
Layer 1
10
12.770281
20
17.470816
70
0
0
VERTEX
8
Layer 1
10
12.170835
20
18.256297
70
0
0
VERTEX
8
Layer 1
10
12.224668
20
19.454646
70
0
0
VERTEX
8
Layer 1
10
12.435418
20
20.637544
70
0
0
VERTEX
8
Layer 1
10
13.229167
20
20.637544
70
0
0
VERTEX
8
Layer 1
10
13.582634
20
20.873188
70
0
0
VERTEX
8
Layer 1
10
14.469400
20
20.935200
70
0
0
VERTEX
8
Layer 1
10
14.469400
20
20.935200
70
0
0
SEQEND
8
Layer 1
0
POLYLINE
8
Layer 1
62
7
70
1
10
0.000000
20
0.000000
66
1
0
VERTEX
8
Layer 1
10
55.033300
20
11.641700
70
0
0
VERTEX
8
Layer 1
10
55.033300
20
10.847951
70
0
0
VERTEX
8
Layer 1
10
52.122887
20
11.112534
70
0
0
VERTEX
8
Layer 1
10
52.122887
20
6.350040
70
0
0
VERTEX
8
Layer 1
10
51.329138
20
6.085457
70
0
0
VERTEX
8
Layer 1
10
51.064555
20
11.377117
70
0
0
VERTEX
8
Layer 1
10
52.050677
20
11.767545
70
0
0
VERTEX
8
Layer 1
10
53.014191
20
11.934932
70
0
0
VERTEX
8
Layer 1
10
53.995073
20
11.889557
70
0
0
VERTEX
8
Layer 1
10
55.033300
20
11.641700
70
0
0
VERTEX
8
Layer 1
10
55.033300
20
11.641700
70
0
0
SEQEND
8
Layer 1
0
POLYLINE
8
Layer 1
62
7
70
1
10
0.000000
20
0.000000
66
1
0
VERTEX
8
Layer 1
10
32.279200
20
39.687500
70
0
0
VERTEX
8
Layer 1
10
33.337532
20
39.687500
70
0
0
VERTEX
8
Layer 1
10
33.548737
20
35.985940
70
0
0
VERTEX
8
Layer 1
10
33.602115
20
32.279176
70
0
0
VERTEX
8
Layer 1
10
32.543783
20
32.808342
70
0
0
VERTEX
8
Layer 1
10
32.543783
20
37.570836
70
0
0
VERTEX
8
Layer 1
10
32.014617
20
37.570836
70
0
0
VERTEX
8
Layer 1
10
32.279200
20
39.687500
70
0
0
VERTEX
8
Layer 1
10
32.279200
20
39.687500
70
0
0
SEQEND
8
Layer 1
0
POLYLINE
8
Layer 1
62
7
70
1
10
0.000000
20
0.000000
66
1
0
VERTEX
8
Layer 1
10
26.193800
20
47.889600
70
0
0
VERTEX
8
Layer 1
10
27.252132
20
47.889600
70
0
0
VERTEX
8
Layer 1
10
27.252132
20
43.127106
70
0
0
VERTEX
8
Layer 1
10
25.929217
20
42.597940
70
0
0
VERTEX
8
Layer 1
10
25.664634
20
41.804191
70
0
0
VERTEX
8
Layer 1
10
25.135468
20
41.804191
70
0
0
VERTEX
8
Layer 1
10
25.232620
20
42.329223
70
0
0
VERTEX
8
Layer 1
10
26.193800
20
47.889600
70
0
0
VERTEX
8
Layer 1
10
26.193800
20
47.889600
70
0
0
SEQEND
8
Layer 1
0
POLYLINE
8
Layer 1
62
7
70
1
10
0.000000
20
0.000000
66
1
0
VERTEX
8
Layer 1
10
49.741700
20
14.287500
70
0
0
VERTEX
8
Layer 1
10
50.800032
20
14.022917
70
0
0
VERTEX
8
Layer 1
10
51.593781
20
12.700002
70
0
0
VERTEX
8
Layer 1
10
52.652113
20
11.906253
70
0
0
VERTEX
8
Layer 1
10
52.023728
20
11.707816
70
0
0
VERTEX
8
Layer 1
10
51.228261
20
11.170979
70
0
0
VERTEX
8
Layer 1
10
50.800032
20
10.318755
70
0
0
VERTEX
8
Layer 1
10
50.535449
20
11.641670
70
0
0
VERTEX
8
Layer 1
10
49.820248
20
11.806001
70
0
0
VERTEX
8
Layer 1
10
48.881805
20
12.022008
70
0
0
VERTEX
8
Layer 1
10
47.951631
20
12.235948
70
0
0
VERTEX
8
Layer 1
10
46.037538
20
12.700002
70
0
0
VERTEX
8
Layer 1
10
46.037538
20
13.229168
70
0
0
VERTEX
8
Layer 1
10
48.041105
20
13.132510
70
0
0
VERTEX
8
Layer 1
10
50.006283
20
12.700002
70
0
0
VERTEX
8
Layer 1
10
49.741700
20
14.287500
70
0
0
VERTEX
8
Layer 1
10
49.741700
20
14.287500
70
0
0
SEQEND
8
Layer 1
0
POLYLINE
8
Layer 1
62
7
70
1
10
0.000000
20
0.000000
66
1
0
VERTEX
8
Layer 1
10
6.350000
20
29.633300
70
0
0
VERTEX
8
Layer 1
10
6.535443
20
28.878973
70
0
0
VERTEX
8
Layer 1
10
6.504807
20
28.173374
70
0
0
VERTEX
8
Layer 1
10
6.085417
20
26.722887
70
0
0
VERTEX
8
Layer 1
10
6.614583
20
26.722887
70
0
0
VERTEX
8
Layer 1
10
7.143749
20
28.839551
70
0
0
VERTEX
8
Layer 1
10
7.355389
20
27.576589
70
0
0
VERTEX
8
Layer 1
10
7.342186
20
26.309476
70
0
0
VERTEX
8
Layer 1
10
7.408332
20
24.870806
70
0
0
VERTEX
8
Layer 1
10
7.981074
20
24.351786
70
0
0
VERTEX
8
Layer 1
10
8.731247
20
24.077057
70
0
0
VERTEX
8
Layer 1
10
10.318745
20
23.018725
70
0
0
VERTEX
8
Layer 1
10
10.318745
20
22.754142
70
0
0
VERTEX
8
Layer 1
10
8.971355
20
22.852115
70
0
0
VERTEX
8
Layer 1
10
7.772134
20
23.481745
70
0
0
VERTEX
8
Layer 1
10
7.166487
20
23.891022
70
0
0
VERTEX
8
Layer 1
10
6.195535
20
24.842648
70
0
0
VERTEX
8
Layer 1
10
5.897684
20
25.394052
70
0
0
VERTEX
8
Layer 1
10
5.724716
20
26.093469
70
0
0
VERTEX
8
Layer 1
10
5.738152
20
26.838642
70
0
0
VERTEX
8
Layer 1
10
5.741252
20
27.581748
70
0
0
VERTEX
8
Layer 1
10
5.957642
20
28.632878
70
0
0
VERTEX
8
Layer 1
10
6.350000
20
29.633300
70
0
0
VERTEX
8
Layer 1
10
6.350000
20
29.633300
70
0
0
SEQEND
8
Layer 1
0
POLYLINE
8
Layer 1
62
7
70
1
10
0.000000
20
0.000000
66
1
0
VERTEX
8
Layer 1
10
36.512500
20
30.162500
70
0
0
VERTEX
8
Layer 1
10
36.214458
20
29.727193
70
0
0
VERTEX
8
Layer 1
10
35.862003
20
29.466630
70
0
0
VERTEX
8
Layer 1
10
34.925002
20
29.104168
70
0
0
VERTEX
8
Layer 1
10
34.476248
20
28.480789
70
0
0
VERTEX
8
Layer 1
10
34.253998
20
27.802133
70
0
0
VERTEX
8
Layer 1
10
34.098180
20
26.292974
70
0
0
VERTEX
8
Layer 1
10
34.028934
20
25.650120
70
0
0
VERTEX
8
Layer 1
10
33.866670
20
24.077091
70
0
0
VERTEX
8
Layer 1
10
32.808338
20
24.341674
70
0
0
VERTEX
8
Layer 1
10
32.713952
20
27.700555
70
0
0
VERTEX
8
Layer 1
10
32.938311
20
28.401824
70
0
0
VERTEX
8
Layer 1
10
33.420186
20
29.038022
70
0
0
VERTEX
8
Layer 1
10
34.170549
20
29.616761
70
0
0
VERTEX
8
Layer 1
10
34.842209
20
29.974591
70
0
0
VERTEX
8
Layer 1
10
35.575935
20
30.145256
70
0
0
VERTEX
8
Layer 1
10
36.512500
20
30.162500
70
0
0
VERTEX
8
Layer 1
10
36.512500
20
30.162500
70
0
0
SEQEND
8
Layer 1
0
POLYLINE
8
Layer 1
62
7
70
1
10
0.000000
20
0.000000
66
1
0
VERTEX
8
Layer 1
10
0.000000
20
8.466670
70
0
0
VERTEX
8
Layer 1
10
0.545572
20
7.639688
70
0
0
VERTEX
8
Layer 1
10
0.790849
20
6.970341
70
0
0
VERTEX
8
Layer 1
10
0.793749
20
5.291674
70
0
0
VERTEX
8
Layer 1
10
3.174996
20
4.762508
70
0
0
VERTEX
8
Layer 1
10
3.174996
20
3.968759
70
0
0
VERTEX
8
Layer 1
10
2.645830
20
3.968759
70
0
0
VERTEX
8
Layer 1
10
2.381247
20
2.645844
70
0
0
VERTEX
8
Layer 1
10
1.852081
20
3.175010
70
0
0
VERTEX
8
Layer 1
10
0.793749
20
2.381261
70
0
0
VERTEX
8
Layer 1
10
0.793749
20
3.968759
70
0
0
VERTEX
8
Layer 1
10
1.058332
20
4.233342
70
0
0
VERTEX
8
Layer 1
10
0.000000
20
4.497925
70
0
0
VERTEX
8
Layer 1
10
0.000000
20
8.466670
70
0
0
VERTEX
8
Layer 1
10
0.000000
20
8.466670
70
0
0
SEQEND
8
Layer 1
0
POLYLINE
8
Layer 1
62
7
70
1
10
0.000000
20
0.000000
66
1
0
VERTEX
8
Layer 1
10
44.185400
20
21.695800
70
0
0
VERTEX
8
Layer 1
10
45.243732
20
21.695800
70
0
0
VERTEX
8
Layer 1
10
45.293341
20
19.909865
70
0
0
VERTEX
8
Layer 1
10
45.321247
20
18.905276
70
0
0
VERTEX
8
Layer 1
10
45.110639
20
17.807716
70
0
0
VERTEX
8
Layer 1
10
44.449983
20
16.933306
70
0
0
VERTEX
8
Layer 1
10
43.920817
20
16.933306
70
0
0
VERTEX
8
Layer 1
10
44.185400
20
19.579136
70
0
0
VERTEX
8
Layer 1
10
42.862485
20
19.314553
70
0
0
VERTEX
8
Layer 1
10
43.393823
20
20.582561
70
0
0
VERTEX
8
Layer 1
10
44.185400
20
21.695800
70
0
0
VERTEX
8
Layer 1
10
44.185400
20
21.695800
70
0
0
SEQEND
8
Layer 1
0
POLYLINE
8
Layer 1
62
7
70
1
10
0.000000
20
0.000000
66
1
0
VERTEX
8
Layer 1
10
20.637500
20
19.050000
70
0
0
VERTEX
8
Layer 1
10
24.341662
20
18.785417
70
0
0
VERTEX
8
Layer 1
10
24.870828
20
17.197919
70
0
0
VERTEX
8
Layer 1
10
23.179383
20
17.215620
70
0
0
VERTEX
8
Layer 1
10
21.497395
20
17.379820
70
0
0
VERTEX
8
Layer 1
10
20.580341
20
17.434293
70
0
0
VERTEX
8
Layer 1
10
19.727996
20
17.082164
70
0
0
VERTEX
8
Layer 1
10
19.314585
20
16.668753
70
0
0
VERTEX
8
Layer 1
10
18.785419
20
16.668753
70
0
0
VERTEX
8
Layer 1
10
19.050002
20
17.991668
70
0
0
VERTEX
8
Layer 1
10
21.431249
20
18.256251
70
0
0
VERTEX
8
Layer 1
10
20.637500
20
18.520834
70
0
0
VERTEX
8
Layer 1
10
20.637500
20
19.050000
70
0
0
VERTEX
8
Layer 1
10
20.637500
20
19.050000
70
0
0
SEQEND
8
Layer 1
0
POLYLINE
8
Layer 1
62
7
70
1
10
0.000000
20
0.000000
66
1
0
VERTEX
8
Layer 1
10
34.953800
20
16.174800
70
0
0
VERTEX
8
Layer 1
10
37.114380
20
16.132204
70
0
0
VERTEX
8
Layer 1
10
38.364440
20
15.875077
70
0
0
VERTEX
8
Layer 1
10
38.364440
20
15.610494
70
0
0
VERTEX
8
Layer 1
10
34.660278
20
15.875077
70
0
0
VERTEX
8
Layer 1
10
34.924861
20
13.229247
70
0
0
VERTEX
8
Layer 1
10
34.330981
20
13.042223
70
0
0
VERTEX
8
Layer 1
10
33.764552
20
13.048999
70
0
0
VERTEX
8
Layer 1
10
32.560151
20
13.328466
70
0
0
VERTEX
8
Layer 1
10
31.560730
20
13.549641
70
0
0
VERTEX
8
Layer 1
10
29.897784
20
14.022996
70
0
0
VERTEX
8
Layer 1
10
30.162367
20
14.816745
70
0
0
VERTEX
8
Layer 1
10
34.131112
20
14.022996
70
0
0
VERTEX
8
Layer 1
10
34.131112
20
15.875077
70
0
0
VERTEX
8
Layer 1
10
34.432385
20
16.110980
70
0
0
VERTEX
8
Layer 1
10
34.953800
20
16.174800
70
0
0
VERTEX
8
Layer 1
10
34.953800
20
16.174800
70
0
0
SEQEND
8
Layer 1
0
POLYLINE
8
Layer 1
62
7
70
1
10
0.000000
20
0.000000
66
1
0
VERTEX
8
Layer 1
10
44.383900
20
22.258100
70
0
0
VERTEX
8
Layer 1
10
44.979212
20
21.960444
70
0
0
VERTEX
8
Layer 1
10
44.367364
20
21.365132
70
0
0
VERTEX
8
Layer 1
10
42.862548
20
19.579197
70
0
0
VERTEX
8
Layer 1
10
41.225440
20
19.827244
70
0
0
VERTEX
8
Layer 1
10
40.481301
20
20.372946
70
0
0
VERTEX
8
Layer 1
10
40.481301
20
21.166695
70
0
0
VERTEX
8
Layer 1
10
41.473487
20
21.530497
70
0
0
VERTEX
8
Layer 1
10
43.176740
20
22.307709
70
0
0
VERTEX
8
Layer 1
10
43.687303
20
22.437934
70
0
0
VERTEX
8
Layer 1
10
44.383900
20
22.258100
70
0
0
VERTEX
8
Layer 1
10
44.383900
20
22.258100
70
0
0
SEQEND
8
Layer 1
0
POLYLINE
8
Layer 1
62
7
70
1
10
0.000000
20
0.000000
66
1
0
VERTEX
8
Layer 1
10
28.310400
20
20.108300
70
0
0
VERTEX
8
Layer 1
10
28.839566
20
19.843717
70
0
0
VERTEX
8
Layer 1
10
27.516651
20
18.520802
70
0
0
VERTEX
8
Layer 1
10
28.227718
20
18.289292
70
0
0
VERTEX
8
Layer 1
10
29.715997
20
17.677444
70
0
0
VERTEX
8
Layer 1
10
30.493299
20
17.526201
70
0
0
VERTEX
8
Layer 1
10
31.254864
20
17.517595
70
0
0
VERTEX
8
Layer 1
10
32.808311
20
17.727053
70
0
0
VERTEX
8
Layer 1
10
32.543728
20
16.668721
70
0
0
VERTEX
8
Layer 1
10
27.781234
20
16.668721
70
0
0
VERTEX
8
Layer 1
10
27.252068
20
17.727053
70
0
0
VERTEX
8
Layer 1
10
26.458319
20
18.520802
70
0
0
VERTEX
8
Layer 1
10
26.970949
20
18.735776
70
0
0
VERTEX
8
Layer 1
10
27.547257
20
19.087425
70
0
0
VERTEX
8
Layer 1
10
27.781234
20
19.843717
70
0
0
VERTEX
8
Layer 1
10
28.310400
20
20.108300
70
0
0
VERTEX
8
Layer 1
10
28.310400
20
20.108300
70
0
0
SEQEND
8
Layer 1
0
POLYLINE
8
Layer 1
62
7
70
1
10
0.000000
20
0.000000
66
1
0
VERTEX
8
Layer 1
10
34.660400
20
15.875000
70
0
0
VERTEX
8
Layer 1
10
35.718732
20
15.875000
70
0
0
VERTEX
8
Layer 1
10
35.851024
20
14.469403
70
0
0
VERTEX
8
Layer 1
10
35.925437
20
13.678754
70
0
0
VERTEX
8
Layer 1
10
35.983315
20
12.170838
70
0
0
VERTEX
8
Layer 1
10
35.454149
20
11.906255
70
0
0
VERTEX
8
Layer 1
10
33.930730
20
12.478829
70
0
0
VERTEX
8
Layer 1
10
31.220821
20
13.229170
70
0
0
VERTEX
8
Layer 1
10
31.220821
20
13.493753
70
0
0
VERTEX
8
Layer 1
10
34.660400
20
13.229170
70
0
0
VERTEX
8
Layer 1
10
34.660400
20
15.875000
70
0
0
VERTEX
8
Layer 1
10
34.660400
20
15.875000
70
0
0
SEQEND
8
Layer 1
0
POLYLINE
8
Layer 1
62
7
70
1
10
0.000000
20
0.000000
66
1
0
VERTEX
8
Layer 1
10
8.731250
20
32.808300
70
0
0
VERTEX
8
Layer 1
10
8.937825
20
31.982814
70
0
0
VERTEX
8
Layer 1
10
8.799463
20
31.144321
70
0
0
VERTEX
8
Layer 1
10
8.499740
20
30.526272
70
0
0
VERTEX
8
Layer 1
10
8.204151
20
29.904088
70
0
0
VERTEX
8
Layer 1
10
7.672918
20
28.839555
70
0
0
VERTEX
8
Layer 1
10
7.143752
20
28.839555
70
0
0
VERTEX
8
Layer 1
10
6.614586
20
26.722891
70
0
0
VERTEX
8
Layer 1
10
6.085420
20
26.722891
70
0
0
VERTEX
8
Layer 1
10
6.390039
20
28.977939
70
0
0
VERTEX
8
Layer 1
10
6.712064
20
30.280836
70
0
0
VERTEX
8
Layer 1
10
7.249933
20
31.127676
70
0
0
VERTEX
8
Layer 1
10
8.202084
20
32.014551
70
0
0
VERTEX
8
Layer 1
10
8.731250
20
32.808300
70
0
0
VERTEX
8
Layer 1
10
8.731250
20
32.808300
70
0
0
SEQEND
8
Layer 1
0
POLYLINE
8
Layer 1
62
7
70
1
10
0.000000
20
0.000000
66
1
0
VERTEX
8
Layer 1
10
43.656200
20
33.866700
70
0
0
VERTEX
8
Layer 1
10
43.656200
20
33.602117
70
0
0
VERTEX
8
Layer 1
10
41.274953
20
33.337534
70
0
0
VERTEX
8
Layer 1
10
43.127034
20
33.072951
70
0
0
VERTEX
8
Layer 1
10
43.127034
20
32.808368
70
0
0
VERTEX
8
Layer 1
10
42.670667
20
32.768190
70
0
0
VERTEX
8
Layer 1
10
40.596959
20
32.576858
70
0
0
VERTEX
8
Layer 1
10
39.879174
20
32.513813
70
0
0
VERTEX
8
Layer 1
10
38.326600
20
32.332649
70
0
0
VERTEX
8
Layer 1
10
36.802880
20
31.996016
70
0
0
VERTEX
8
Layer 1
10
35.953450
20
31.780783
70
0
0
VERTEX
8
Layer 1
10
34.924961
20
31.750036
70
0
0
VERTEX
8
Layer 1
10
34.924961
20
32.279202
70
0
0
VERTEX
8
Layer 1
10
37.066307
20
33.036965
70
0
0
VERTEX
8
Layer 1
10
39.204496
20
33.556968
70
0
0
VERTEX
8
Layer 1
10
41.385727
20
33.834963
70
0
0
VERTEX
8
Layer 1
10
43.656200
20
33.866700
70
0
0
VERTEX
8
Layer 1
10
43.656200
20
33.866700
70
0
0
SEQEND
8
Layer 1
0
POLYLINE
8
Layer 1
62
7
70
1
10
0.000000
20
0.000000
66
1
0
VERTEX
8
Layer 1
10
29.368800
20
14.816700
70
0
0
VERTEX
8
Layer 1
10
28.686930
20
13.655879
70
0
0
VERTEX
8
Layer 1
10
27.781302
20
12.650427
70
0
0
VERTEX
8
Layer 1
10
27.101640
20
11.800848
70
0
0
VERTEX
8
Layer 1
10
26.654247
20
10.972069
70
0
0
VERTEX
8
Layer 1
10
26.373507
20
10.068831
70
0
0
VERTEX
8
Layer 1
10
26.193804
20
8.995874
70
0
0
VERTEX
8
Layer 1
10
25.664638
20
8.995874
70
0
0
VERTEX
8
Layer 1
10
25.673382
20
10.216934
70
0
0
VERTEX
8
Layer 1
10
25.799364
20
11.337573
70
0
0
VERTEX
8
Layer 1
10
26.147371
20
12.387035
70
0
0
VERTEX
8
Layer 1
10
26.822189
20
13.394566
70
0
0
VERTEX
8
Layer 1
10
28.198114
20
14.638933
70
0
0
VERTEX
8
Layer 1
10
28.689740
20
14.794479
70
0
0
VERTEX
8
Layer 1
10
29.368800
20
14.816700
70
0
0
VERTEX
8
Layer 1
10
29.368800
20
14.816700
70
0
0
SEQEND
8
Layer 1
0
POLYLINE
8
Layer 1
62
7
70
1
10
0.000000
20
0.000000
66
1
0
VERTEX
8
Layer 1
10
3.175000
20
17.727100
70
0
0
VERTEX
8
Layer 1
10
2.744666
20
16.897500
70
0
0
VERTEX
8
Layer 1
10
2.133204
20
16.189211
70
0
0
VERTEX
8
Layer 1
10
1.338567
20
15.050468
70
0
0
VERTEX
8
Layer 1
10
0.793753
20
13.758355
70
0
0
VERTEX
8
Layer 1
10
0.479561
20
12.981142
70
0
0
VERTEX
8
Layer 1
10
0.264587
20
12.435440
70
0
0
VERTEX
8
Layer 1
10
0.000004
20
12.435440
70
0
0
VERTEX
8
Layer 1
10
-0.162719
20
14.711274
70
0
0
VERTEX
8
Layer 1
10
0.007169
20
15.312300
70
0
0
VERTEX
8
Layer 1
10
0.393778
20
16.001109
70
0
0
VERTEX
8
Layer 1
10
1.878231
20
17.511351
70
0
0
VERTEX
8
Layer 1
10
2.419706
20
17.700131
70
0
0
VERTEX
8
Layer 1
10
3.175000
20
17.727100
70
0
0
VERTEX
8
Layer 1
10
3.175000
20
17.727100
70
0
0
SEQEND
8
Layer 1
0
POLYLINE
8
Layer 1
62
7
70
1
10
0.000000
20
0.000000
66
1
0
VERTEX
8
Layer 1
10
28.310400
20
16.933300
70
0
0
VERTEX
8
Layer 1
10
30.578619
20
16.839764
70
0
0
VERTEX
8
Layer 1
10
32.808311
20
16.404134
70
0
0
VERTEX
8
Layer 1
10
31.867939
20
15.691495
70
0
0
VERTEX
8
Layer 1
10
30.790866
20
15.180438
70
0
0
VERTEX
8
Layer 1
10
29.986781
20
14.822837
70
0
0
VERTEX
8
Layer 1
10
29.368732
20
14.552053
70
0
0
VERTEX
8
Layer 1
10
28.839566
20
15.081219
70
0
0
VERTEX
8
Layer 1
10
29.897898
20
15.874968
70
0
0
VERTEX
8
Layer 1
10
28.045817
20
16.404134
70
0
0
VERTEX
8
Layer 1
10
28.310400
20
16.933300
70
0
0
VERTEX
8
Layer 1
10
28.310400
20
16.933300
70
0
0
SEQEND
8
Layer 1
0
POLYLINE
8
Layer 1
62
7
70
1
10
0.000000
20
0.000000
66
1
0
VERTEX
8
Layer 1
10
12.170800
20
25.664600
70
0
0
VERTEX
8
Layer 1
10
12.435383
20
25.664600
70
0
0
VERTEX
8
Layer 1
10
12.435383
20
23.812519
70
0
0
VERTEX
8
Layer 1
10
14.099362
20
23.443550
70
0
0
VERTEX
8
Layer 1
10
14.717411
20
23.332962
70
0
0
VERTEX
8
Layer 1
10
15.339595
20
23.228576
70
0
0
VERTEX
8
Layer 1
10
15.850157
20
22.976395
70
0
0
VERTEX
8
Layer 1
10
16.211892
20
22.469967
70
0
0
VERTEX
8
Layer 1
10
16.404128
20
21.960438
70
0
0
VERTEX
8
Layer 1
10
15.746805
20
22.027617
70
0
0
VERTEX
8
Layer 1
10
14.882776
20
22.109266
70
0
0
VERTEX
8
Layer 1
10
14.027015
20
22.192982
70
0
0
VERTEX
8
Layer 1
10
13.157158
20
22.217623
70
0
0
VERTEX
8
Layer 1
10
12.170800
20
21.960438
70
0
0
VERTEX
8
Layer 1
10
12.170800
20
25.664600
70
0
0
VERTEX
8
Layer 1
10
12.170800
20
25.664600
70
0
0
SEQEND
8
Layer 1
0
POLYLINE
8
Layer 1
62
7
70
1
10
0.000000
20
0.000000
66
1
0
VERTEX
8
Layer 1
10
20.902100
20
15.081200
70
0
0
VERTEX
8
Layer 1
10
22.225015
20
13.758285
70
0
0
VERTEX
8
Layer 1
10
21.695849
20
13.229119
70
0
0
VERTEX
8
Layer 1
10
21.249365
20
13.642530
70
0
0
VERTEX
8
Layer 1
10
20.646893
20
14.020558
70
0
0
VERTEX
8
Layer 1
10
19.959523
20
13.973259
70
0
0
VERTEX
8
Layer 1
10
19.253576
20
13.728438
70
0
0
VERTEX
8
Layer 1
10
18.520853
20
13.229119
70
0
0
VERTEX
8
Layer 1
10
19.050019
20
12.964536
70
0
0
VERTEX
8
Layer 1
10
19.050019
20
11.906204
70
0
0
VERTEX
8
Layer 1
10
17.727104
20
12.170787
70
0
0
VERTEX
8
Layer 1
10
18.163776
20
13.402751
70
0
0
VERTEX
8
Layer 1
10
18.785436
20
14.552034
70
0
0
VERTEX
8
Layer 1
10
18.256270
20
14.816617
70
0
0
VERTEX
8
Layer 1
10
19.897433
20
15.149218
70
0
0
VERTEX
8
Layer 1
10
20.902100
20
15.081200
70
0
0
VERTEX
8
Layer 1
10
20.902100
20
15.081200
70
0
0
SEQEND
8
Layer 1
0
POLYLINE
8
Layer 1
62
7
70
1
10
0.000000
20
0.000000
66
1
0
VERTEX
8
Layer 1
10
10.847900
20
22.489600
70
0
0
VERTEX
8
Layer 1
10
11.375886
20
21.457910
70
0
0
VERTEX
8
Layer 1
10
11.542430
20
20.323327
70
0
0
VERTEX
8
Layer 1
10
11.602375
20
19.600891
70
0
0
VERTEX
8
Layer 1
10
11.641649
20
19.050021
70
0
0
VERTEX
8
Layer 1
10
9.690349
20
19.033485
70
0
0
VERTEX
8
Layer 1
10
9.130178
20
19.026767
70
0
0
VERTEX
8
Layer 1
10
7.833876
20
19.057708
70
0
0
VERTEX
8
Layer 1
10
7.143738
20
19.314604
70
0
0
VERTEX
8
Layer 1
10
7.143738
20
19.843770
70
0
0
VERTEX
8
Layer 1
10
8.100875
20
20.166332
70
0
0
VERTEX
8
Layer 1
10
8.973805
20
20.287817
70
0
0
VERTEX
8
Layer 1
10
10.847900
20
20.108353
70
0
0
VERTEX
8
Layer 1
10
10.847900
20
22.489600
70
0
0
VERTEX
8
Layer 1
10
10.847900
20
22.489600
70
0
0
SEQEND
8
Layer 1
0
POLYLINE
8
Layer 1
62
7
70
1
10
0.000000
20
0.000000
66
1
0
VERTEX
8
Layer 1
10
39.952100
20
20.637500
70
0
0
VERTEX
8
Layer 1
10
40.613557
20
20.273698
70
0
0
VERTEX
8
Layer 1
10
42.359483
20
19.747602
70
0
0
VERTEX
8
Layer 1
10
44.185428
20
19.579168
70
0
0
VERTEX
8
Layer 1
10
44.185428
20
18.256253
70
0
0
VERTEX
8
Layer 1
10
43.920845
20
18.785419
70
0
0
VERTEX
8
Layer 1
10
43.523971
20
18.653128
70
0
0
VERTEX
8
Layer 1
10
42.141721
20
18.510887
70
0
0
VERTEX
8
Layer 1
10
40.745849
20
18.520836
70
0
0
VERTEX
8
Layer 1
10
40.481266
20
19.314585
70
0
0
VERTEX
8
Layer 1
10
39.422934
20
20.372917
70
0
0
VERTEX
8
Layer 1
10
39.952100
20
20.637500
70
0
0
VERTEX
8
Layer 1
10
39.952100
20
20.637500
70
0
0
SEQEND
8
Layer 1
0
POLYLINE
8
Layer 1
62
7
70
1
10
0.000000
20
0.000000
66
1
0
VERTEX
8
Layer 1
10
51.858300
20
4.233330
70
0
0
VERTEX
8
Layer 1
10
52.387466
20
4.233330
70
0
0
VERTEX
8
Layer 1
10
52.517271
20
2.908449
70
0
0
VERTEX
8
Layer 1
10
52.387466
20
1.587500
70
0
0
VERTEX
8
Layer 1
10
51.061041
20
0.482134
70
0
0
VERTEX
8
Layer 1
10
50.288241
20
0.124672
70
0
0
VERTEX
8
Layer 1
10
49.435712
20
-0.095083
70
0
0
VERTEX
8
Layer 1
10
48.154138
20
0.000002
70
0
0
VERTEX
8
Layer 1
10
48.154138
20
0.529168
70
0
0
VERTEX
8
Layer 1
10
48.839367
20
0.809254
70
0
0
VERTEX
8
Layer 1
10
49.725100
20
1.174089
70
0
0
VERTEX
8
Layer 1
10
50.608765
20
1.536857
70
0
0
VERTEX
8
Layer 1
10
51.245509
20
1.795002
70
0
0
VERTEX
8
Layer 1
10
51.593717
20
2.116666
70
0
0
VERTEX
8
Layer 1
10
51.742545
20
3.191534
70
0
0
VERTEX
8
Layer 1
10
51.858300
20
4.233330
70
0
0
VERTEX
8
Layer 1
10
51.858300
20
4.233330
70
0
0
SEQEND
8
Layer 1
0
POLYLINE
8
Layer 1
62
7
70
1
10
0.000000
20
0.000000
66
1
0
VERTEX
8
Layer 1
10
18.785400
20
17.991700
70
0
0
VERTEX
8
Layer 1
10
19.314566
20
17.462534
70
0
0
VERTEX
8
Layer 1
10
18.363721
20
16.065205
70
0
0
VERTEX
8
Layer 1
10
17.993718
20
15.806823
70
0
0
VERTEX
8
Layer 1
10
17.462485
20
15.610453
70
0
0
VERTEX
8
Layer 1
10
15.560795
20
15.858500
70
0
0
VERTEX
8
Layer 1
10
14.540703
20
16.014562
70
0
0
VERTEX
8
Layer 1
10
13.758323
20
16.139619
70
0
0
VERTEX
8
Layer 1
10
13.758323
20
16.668785
70
0
0
VERTEX
8
Layer 1
10
12.435408
20
16.933368
70
0
0
VERTEX
8
Layer 1
10
12.699991
20
17.727117
70
0
0
VERTEX
8
Layer 1
10
13.165078
20
17.504909
70
0
0
VERTEX
8
Layer 1
10
14.865614
20
16.766029
70
0
0
VERTEX
8
Layer 1
10
16.668736
20
16.404202
70
0
0
VERTEX
8
Layer 1
10
17.811289
20
17.085509
70
0
0
VERTEX
8
Layer 1
10
18.785400
20
17.991700
70
0
0
VERTEX
8
Layer 1
10
18.785400
20
17.991700
70
0
0
SEQEND
8
Layer 1
0
POLYLINE
8
Layer 1
62
7
70
1
10
0.000000
20
0.000000
66
1
0
VERTEX
8
Layer 1
10
39.952100
20
19.050000
70
0
0
VERTEX
8
Layer 1
10
40.745849
20
18.785417
70
0
0
VERTEX
8
Layer 1
10
42.250665
20
18.636589
70
0
0
VERTEX
8
Layer 1
10
43.047514
20
18.569410
70
0
0
VERTEX
8
Layer 1
10
43.656262
20
18.520834
70
0
0
VERTEX
8
Layer 1
10
43.391679
20
17.197919
70
0
0
VERTEX
8
Layer 1
10
41.600547
20
17.161095
70
0
0
VERTEX
8
Layer 1
10
40.481266
20
17.677476
70
0
0
VERTEX
8
Layer 1
10
40.018246
20
18.283123
70
0
0
VERTEX
8
Layer 1
10
39.952100
20
19.050000
70
0
0
VERTEX
8
Layer 1
10
39.952100
20
19.050000
70
0
0
SEQEND
8
Layer 1
0
POLYLINE
8
Layer 1
62
7
70
1
10
0.000000
20
0.000000
66
1
0
VERTEX
8
Layer 1
10
16.404200
20
31.220800
70
0
0
VERTEX
8
Layer 1
10
16.349811
20
30.703003
70
0
0
VERTEX
8
Layer 1
10
15.969085
20
30.253418
70
0
0
VERTEX
8
Layer 1
10
15.395477
20
29.765594
70
0
0
VERTEX
8
Layer 1
10
14.828071
20
29.277769
70
0
0
VERTEX
8
Layer 1
10
13.700198
20
28.431310
70
0
0
VERTEX
8
Layer 1
10
12.964621
20
28.310387
70
0
0
VERTEX
8
Layer 1
10
12.170872
20
28.045804
70
0
0
VERTEX
8
Layer 1
10
12.829755
20
29.163933
70
0
0
VERTEX
8
Layer 1
10
13.758370
20
30.079786
70
0
0
VERTEX
8
Layer 1
10
14.320609
20
30.562443
70
0
0
VERTEX
8
Layer 1
10
15.256473
20
31.129569
70
0
0
VERTEX
8
Layer 1
10
16.404200
20
31.220800
70
0
0
VERTEX
8
Layer 1
10
16.404200
20
31.220800
70
0
0
SEQEND
8
Layer 1
0
POLYLINE
8
Layer 1
62
7
70
1
10
0.000000
20
0.000000
66
1
0
VERTEX
8
Layer 1
10
32.279200
20
16.668700
70
0
0
VERTEX
8
Layer 1
10
34.528156
20
16.701773
70
0
0
VERTEX
8
Layer 1
10
35.162741
20
16.715209
70
0
0
VERTEX
8
Layer 1
10
37.181539
20
16.581165
70
0
0
VERTEX
8
Layer 1
10
39.158358
20
16.139534
70
0
0
VERTEX
8
Layer 1
10
39.158358
20
15.610368
70
0
0
VERTEX
8
Layer 1
10
40.481273
20
15.345785
70
0
0
VERTEX
8
Layer 1
10
39.762494
20
15.195269
70
0
0
VERTEX
8
Layer 1
10
39.136097
20
15.235160
70
0
0
VERTEX
8
Layer 1
10
37.813739
20
15.673413
70
0
0
VERTEX
8
Layer 1
10
36.039881
20
15.959368
70
0
0
VERTEX
8
Layer 1
10
34.239543
20
16.039153
70
0
0
VERTEX
8
Layer 1
10
32.960340
20
16.153910
70
0
0
VERTEX
8
Layer 1
10
32.279200
20
16.668700
70
0
0
VERTEX
8
Layer 1
10
32.279200
20
16.668700
70
0
0
SEQEND
8
Layer 1
0
POLYLINE
8
Layer 1
62
7
70
1
10
0.000000
20
0.000000
66
1
0
VERTEX
8
Layer 1
10
34.395800
20
17.197900
70
0
0
VERTEX
8
Layer 1
10
36.859729
20
17.247509
70
0
0
VERTEX
8
Layer 1
10
37.566145
20
17.267663
70
0
0
VERTEX
8
Layer 1
10
38.245689
20
17.275415
70
0
0
VERTEX
8
Layer 1
10
38.871296
20
17.288011
70
0
0
VERTEX
8
Layer 1
10
39.646135
20
17.010626
70
0
0
VERTEX
8
Layer 1
10
40.216626
20
16.404151
70
0
0
VERTEX
8
Layer 1
10
40.216626
20
15.874985
70
0
0
VERTEX
8
Layer 1
10
36.264417
20
16.552979
70
0
0
VERTEX
8
Layer 1
10
35.716131
20
16.664083
70
0
0
VERTEX
8
Layer 1
10
34.395800
20
16.933317
70
0
0
VERTEX
8
Layer 1
10
34.395800
20
17.197900
70
0
0
VERTEX
8
Layer 1
10
34.395800
20
17.197900
70
0
0
SEQEND
8
Layer 1
0
POLYLINE
8
Layer 1
62
7
70
1
10
0.000000
20
0.000000
66
1
0
VERTEX
8
Layer 1
10
24.920400
20
5.076820
70
0
0
VERTEX
8
Layer 1
10
25.521396
20
5.065968
70
0
0
VERTEX
8
Layer 1
10
26.987455
20
5.027211
70
0
0
VERTEX
8
Layer 1
10
26.439234
20
4.607759
70
0
0
VERTEX
8
Layer 1
10
25.891460
20
4.417916
70
0
0
VERTEX
8
Layer 1
10
24.573135
20
4.332680
70
0
0
VERTEX
8
Layer 1
10
23.545809
20
4.272736
70
0
0
VERTEX
8
Layer 1
10
22.754127
20
4.233462
70
0
0
VERTEX
8
Layer 1
10
22.754127
20
2.381381
70
0
0
VERTEX
8
Layer 1
10
21.960378
20
2.381381
70
0
0
VERTEX
8
Layer 1
10
21.921796
20
3.935639
70
0
0
VERTEX
8
Layer 1
10
22.224961
20
4.688214
70
0
0
VERTEX
8
Layer 1
10
22.865380
20
4.980860
70
0
0
VERTEX
8
Layer 1
10
23.526566
20
5.096883
70
0
0
VERTEX
8
Layer 1
10
24.920400
20
5.076820
70
0
0
VERTEX
8
Layer 1
10
24.920400
20
5.076820
70
0
0
SEQEND
8
Layer 1
0
POLYLINE
8
Layer 1
62
7
70
1
10
0.000000
20
0.000000
66
1
0
VERTEX
8
Layer 1
10
17.991700
20
14.552100
70
0
0
VERTEX
8
Layer 1
10
18.785449
20
14.552100
70
0
0
VERTEX
8
Layer 1
10
18.553939
20
14.105616
70
0
0
VERTEX
8
Layer 1
10
17.880553
20
12.404995
70
0
0
VERTEX
8
Layer 1
10
17.732657
20
11.548803
70
0
0
VERTEX
8
Layer 1
10
17.727117
20
10.583355
70
0
0
VERTEX
8
Layer 1
10
17.991700
20
10.054189
70
0
0
VERTEX
8
Layer 1
10
16.668785
20
10.318772
70
0
0
VERTEX
8
Layer 1
10
17.031173
20
13.227771
70
0
0
VERTEX
8
Layer 1
10
17.374657
20
13.889582
70
0
0
VERTEX
8
Layer 1
10
17.991700
20
14.552100
70
0
0
VERTEX
8
Layer 1
10
17.991700
20
14.552100
70
0
0
SEQEND
8
Layer 1
0
POLYLINE
8
Layer 1
62
7
70
1
10
0.000000
20
0.000000
66
1
0
VERTEX
8
Layer 1
10
12.170800
20
16.404200
70
0
0
VERTEX
8
Layer 1
10
12.170800
20
15.610451
70
0
0
VERTEX
8
Layer 1
10
11.377051
20
15.081285
70
0
0
VERTEX
8
Layer 1
10
11.195150
20
13.460714
70
0
0
VERTEX
8
Layer 1
10
11.142440
20
12.582216
70
0
0
VERTEX
8
Layer 1
10
11.112468
20
11.906289
70
0
0
VERTEX
8
Layer 1
10
10.847885
20
11.906289
70
0
0
VERTEX
8
Layer 1
10
10.583302
20
15.081285
70
0
0
VERTEX
8
Layer 1
10
10.357694
20
13.586446
70
0
0
VERTEX
8
Layer 1
10
10.302183
20
12.088190
70
0
0
VERTEX
8
Layer 1
10
10.309417
20
11.231396
70
0
0
VERTEX
8
Layer 1
10
10.318719
20
10.583374
70
0
0
VERTEX
8
Layer 1
10
9.789553
20
10.847957
70
0
0
VERTEX
8
Layer 1
10
9.756480
20
12.485064
70
0
0
VERTEX
8
Layer 1
10
9.737877
20
13.405937
70
0
0
VERTEX
8
Layer 1
10
9.994768
20
14.879433
70
0
0
VERTEX
8
Layer 1
10
10.315692
20
15.499042
70
0
0
VERTEX
8
Layer 1
10
10.831349
20
16.090008
70
0
0
VERTEX
8
Layer 1
10
11.408057
20
16.364926
70
0
0
VERTEX
8
Layer 1
10
12.170800
20
16.404200
70
0
0
VERTEX
8
Layer 1
10
12.170800
20
16.404200
70
0
0
SEQEND
8
Layer 1
0
POLYLINE
8
Layer 1
62
7
70
1
10
0.000000
20
0.000000
66
1
0
VERTEX
8
Layer 1
10
38.100000
20
20.637500
70
0
0
VERTEX
8
Layer 1
10
38.934761
20
20.474777
70
0
0
VERTEX
8
Layer 1
10
39.587554
20
20.153476
70
0
0
VERTEX
8
Layer 1
10
40.745830
20
19.050002
70
0
0
VERTEX
8
Layer 1
10
39.952081
20
19.050002
70
0
0
VERTEX
8
Layer 1
10
39.952081
20
17.727087
70
0
0
VERTEX
8
Layer 1
10
39.051153
20
18.195621
70
0
0
VERTEX
8
Layer 1
10
38.430729
20
19.033466
70
0
0
VERTEX
8
Layer 1
10
38.141341
20
19.841684
70
0
0
VERTEX
8
Layer 1
10
38.100000
20
20.637500
70
0
0
VERTEX
8
Layer 1
10
38.100000
20
20.637500
70
0
0
SEQEND
8
Layer 1
0
POLYLINE
8
Layer 1
62
7
70
1
10
0.000000
20
0.000000
66
1
0
VERTEX
8
Layer 1
10
28.872700
20
16.156000
70
0
0
VERTEX
8
Layer 1
10
29.602370
20
16.148765
70
0
0
VERTEX
8
Layer 1
10
30.162542
20
16.139464
70
0
0
VERTEX
8
Layer 1
10
28.926309
20
14.969486
70
0
0
VERTEX
8
Layer 1
10
27.516712
20
14.022800
70
0
0
VERTEX
8
Layer 1
10
27.516712
20
14.551966
70
0
0
VERTEX
8
Layer 1
10
26.722963
20
14.816549
70
0
0
VERTEX
8
Layer 1
10
27.252129
20
15.081132
70
0
0
VERTEX
8
Layer 1
10
26.987546
20
15.874881
70
0
0
VERTEX
8
Layer 1
10
27.901524
20
16.144270
70
0
0
VERTEX
8
Layer 1
10
28.872700
20
16.156000
70
0
0
VERTEX
8
Layer 1
10
28.872700
20
16.156000
70
0
0
SEQEND
8
Layer 1
0
POLYLINE
8
Layer 1
62
7
70
1
10
0.000000
20
0.000000
66
1
0
VERTEX
8
Layer 1
10
52.387500
20
3.704170
70
0
0
VERTEX
8
Layer 1
10
52.916666
20
3.439587
70
0
0
VERTEX
8
Layer 1
10
52.986980
20
1.471310
70
0
0
VERTEX
8
Layer 1
10
52.833751
20
0.959566
70
0
0
VERTEX
8
Layer 1
10
52.503255
20
0.380346
70
0
0
VERTEX
8
Layer 1
10
51.887551
20
0.095751
70
0
0
VERTEX
8
Layer 1
10
51.300005
20
-0.028874
70
0
0
VERTEX
8
Layer 1
10
50.006253
20
0.000008
70
0
0
VERTEX
8
Layer 1
10
50.926822
20
0.924173
70
0
0
VERTEX
8
Layer 1
10
51.643360
20
1.256777
70
0
0
VERTEX
8
Layer 1
10
52.114277
20
1.575025
70
0
0
VERTEX
8
Layer 1
10
52.247974
20
2.089800
70
0
0
VERTEX
8
Layer 1
10
52.387500
20
3.704170
70
0
0
VERTEX
8
Layer 1
10
52.387500
20
3.704170
70
0
0
SEQEND
8
Layer 1
0
POLYLINE
8
Layer 1
62
7
70
1
10
0.000000
20
0.000000
66
1
0
VERTEX
8
Layer 1
10
11.377100
20
25.400000
70
0
0
VERTEX
8
Layer 1
10
11.906266
20
25.400000
70
0
0
VERTEX
8
Layer 1
10
11.906266
20
20.372923
70
0
0
VERTEX
8
Layer 1
10
11.422834
20
20.658823
70
0
0
VERTEX
8
Layer 1
10
11.213803
20
21.072621
70
0
0
VERTEX
8
Layer 1
10
11.079444
20
23.465237
70
0
0
VERTEX
8
Layer 1
10
11.077377
20
24.394378
70
0
0
VERTEX
8
Layer 1
10
11.141197
20
25.075860
70
0
0
VERTEX
8
Layer 1
10
11.377100
20
25.400000
70
0
0
VERTEX
8
Layer 1
10
11.377100
20
25.400000
70
0
0
SEQEND
8
Layer 1
0
POLYLINE
8
Layer 1
62
7
70
1
10
0.000000
20
0.000000
66
1
0
VERTEX
8
Layer 1
10
43.656200
20
17.727100
70
0
0
VERTEX
8
Layer 1
10
43.920783
20
16.933351
70
0
0
VERTEX
8
Layer 1
10
44.979115
20
17.462517
70
0
0
VERTEX
8
Layer 1
10
44.979115
20
16.404185
70
0
0
VERTEX
8
Layer 1
10
46.831196
20
16.404185
70
0
0
VERTEX
8
Layer 1
10
45.988142
20
15.940312
70
0
0
VERTEX
8
Layer 1
10
45.192698
20
15.698562
70
0
0
VERTEX
8
Layer 1
10
43.391617
20
15.610436
70
0
0
VERTEX
8
Layer 1
10
43.656200
20
17.727100
70
0
0
VERTEX
8
Layer 1
10
43.656200
20
17.727100
70
0
0
SEQEND
8
Layer 1
0
POLYLINE
8
Layer 1
62
7
70
1
10
0.000000
20
0.000000
66
1
0
VERTEX
8
Layer 1
10
38.893700
20
18.256200
70
0
0
VERTEX
8
Layer 1
10
39.687449
20
17.462451
70
0
0
VERTEX
8
Layer 1
10
39.422866
20
16.933285
70
0
0
VERTEX
8
Layer 1
10
35.718704
20
16.933285
70
0
0
VERTEX
8
Layer 1
10
35.718704
20
16.668702
70
0
0
VERTEX
8
Layer 1
10
33.602040
20
16.668702
70
0
0
VERTEX
8
Layer 1
10
33.602040
20
17.462451
70
0
0
VERTEX
8
Layer 1
10
38.893700
20
17.727034
70
0
0
VERTEX
8
Layer 1
10
38.893700
20
18.256200
70
0
0
VERTEX
8
Layer 1
10
38.893700
20
18.256200
70
0
0
SEQEND
8
Layer 1
0
POLYLINE
8
Layer 1
62
7
70
1
10
0.000000
20
0.000000
66
1
0
VERTEX
8
Layer 1
10
7.937500
20
19.314600
70
0
0
VERTEX
8
Layer 1
10
9.789581
20
19.314600
70
0
0
VERTEX
8
Layer 1
10
9.789581
20
18.520851
70
0
0
VERTEX
8
Layer 1
10
9.260415
20
18.256268
70
0
0
VERTEX
8
Layer 1
10
8.731249
20
17.727102
70
0
0
VERTEX
8
Layer 1
10
7.176824
20
17.809784
70
0
0
VERTEX
8
Layer 1
10
6.335533
20
17.889366
70
0
0
VERTEX
8
Layer 1
10
4.497921
20
18.256268
70
0
0
VERTEX
8
Layer 1
10
5.633163
20
18.536717
70
0
0
VERTEX
8
Layer 1
10
6.796486
20
18.669679
70
0
0
VERTEX
8
Layer 1
10
7.593335
20
18.736858
70
0
0
VERTEX
8
Layer 1
10
8.202083
20
18.785434
70
0
0
VERTEX
8
Layer 1
10
7.937500
20
19.314600
70
0
0
VERTEX
8
Layer 1
10
7.937500
20
19.314600
70
0
0
SEQEND
8
Layer 1
0
POLYLINE
8
Layer 1
62
7
70
1
10
0.000000
20
0.000000
66
1
0
VERTEX
8
Layer 1
10
44.714600
20
32.808300
70
0
0
VERTEX
8
Layer 1
10
45.227488
20
32.642160
70
0
0
VERTEX
8
Layer 1
10
45.772932
20
32.279134
70
0
0
VERTEX
8
Layer 1
10
46.120197
20
30.179006
70
0
0
VERTEX
8
Layer 1
10
46.183113
20
29.568773
70
0
0
VERTEX
8
Layer 1
10
46.259516
20
27.215877
70
0
0
VERTEX
8
Layer 1
10
46.037515
20
24.870810
70
0
0
VERTEX
8
Layer 1
10
45.772932
20
24.870810
70
0
0
VERTEX
8
Layer 1
10
45.733658
20
25.847493
70
0
0
VERTEX
8
Layer 1
10
45.673713
20
27.136302
70
0
0
VERTEX
8
Layer 1
10
45.648909
20
27.777606
70
0
0
VERTEX
8
Layer 1
10
45.442272
20
29.655036
70
0
0
VERTEX
8
Layer 1
10
44.979183
20
31.485385
70
0
0
VERTEX
8
Layer 1
10
44.714600
20
32.808300
70
0
0
VERTEX
8
Layer 1
10
44.714600
20
32.808300
70
0
0
SEQEND
8
Layer 1
0
POLYLINE
8
Layer 1
62
7
70
1
10
0.000000
20
0.000000
66
1
0
VERTEX
8
Layer 1
10
14.022900
20
7.672920
70
0
0
VERTEX
8
Layer 1
10
15.782083
20
7.280319
70
0
0
VERTEX
8
Layer 1
10
17.462479
20
6.614588
70
0
0
VERTEX
8
Layer 1
10
19.049977
20
6.085422
70
0
0
VERTEX
8
Layer 1
10
19.049977
20
5.820839
70
0
0
VERTEX
8
Layer 1
10
16.337692
20
6.209681
70
0
0
VERTEX
8
Layer 1
10
13.758317
20
7.143754
70
0
0
VERTEX
8
Layer 1
10
14.022900
20
7.672920
70
0
0
VERTEX
8
Layer 1
10
14.022900
20
7.672920
70
0
0
SEQEND
8
Layer 1
0
POLYLINE
8
Layer 1
62
7
70
1
10
0.000000
20
0.000000
66
1
0
VERTEX
8
Layer 1
10
31.750000
20
38.100000
70
0
0
VERTEX
8
Layer 1
10
32.014583
20
37.570834
70
0
0
VERTEX
8
Layer 1
10
32.543749
20
37.570834
70
0
0
VERTEX
8
Layer 1
10
32.543749
20
34.395838
70
0
0
VERTEX
8
Layer 1
10
32.279166
20
34.395838
70
0
0
VERTEX
8
Layer 1
10
32.279166
20
37.041668
70
0
0
VERTEX
8
Layer 1
10
30.263788
20
36.989992
70
0
0
VERTEX
8
Layer 1
10
29.645997
20
37.101354
70
0
0
VERTEX
8
Layer 1
10
29.104170
20
37.570834
70
0
0
VERTEX
8
Layer 1
10
31.750000
20
38.100000
70
0
0
VERTEX
8
Layer 1
10
31.750000
20
38.100000
70
0
0
SEQEND
8
Layer 1
0
POLYLINE
8
Layer 1
62
7
70
1
10
0.000000
20
0.000000
66
1
0
VERTEX
8
Layer 1
10
6.350000
20
29.633300
70
0
0
VERTEX
8
Layer 1
10
6.535443
20
28.878973
70
0
0
VERTEX
8
Layer 1
10
6.504807
20
28.173374
70
0
0
VERTEX
8
Layer 1
10
6.085417
20
26.722887
70
0
0
VERTEX
8
Layer 1
10
6.614583
20
26.722887
70
0
0
VERTEX
8
Layer 1
10
6.879166
20
27.252053
70
0
0
VERTEX
8
Layer 1
10
6.879166
20
24.606223
70
0
0
VERTEX
8
Layer 1
10
5.937881
20
25.384211
70
0
0
VERTEX
8
Layer 1
10
5.698878
20
26.067631
70
0
0
VERTEX
8
Layer 1
10
5.721615
20
26.822106
70
0
0
VERTEX
8
Layer 1
10
5.731951
20
27.572446
70
0
0
VERTEX
8
Layer 1
10
5.956249
20
28.627732
70
0
0
VERTEX
8
Layer 1
10
6.350000
20
29.633300
70
0
0
VERTEX
8
Layer 1
10
6.350000
20
29.633300
70
0
0
SEQEND
8
Layer 1
0
POLYLINE
8
Layer 1
62
7
70
1
10
0.000000
20
0.000000
66
1
0
VERTEX
8
Layer 1
10
1.852080
20
3.439580
70
0
0
VERTEX
8
Layer 1
10
2.116663
20
3.439580
70
0
0
VERTEX
8
Layer 1
10
1.852080
20
0.000001
70
0
0
VERTEX
8
Layer 1
10
0.793748
20
0.000001
70
0
0
VERTEX
8
Layer 1
10
1.050267
20
1.808962
70
0
0
VERTEX
8
Layer 1
10
1.347549
20
2.619687
70
0
0
VERTEX
8
Layer 1
10
1.852080
20
3.439580
70
0
0
VERTEX
8
Layer 1
10
1.852080
20
3.439580
70
0
0
SEQEND
8
Layer 1
0
POLYLINE
8
Layer 1
62
7
70
1
10
0.000000
20
0.000000
66
1
0
VERTEX
8
Layer 1
10
51.064600
20
9.260420
70
0
0
VERTEX
8
Layer 1
10
51.329183
20
9.260420
70
0
0
VERTEX
8
Layer 1
10
51.593766
20
6.350007
70
0
0
VERTEX
8
Layer 1
10
52.122932
20
6.614590
70
0
0
VERTEX
8
Layer 1
10
52.387515
20
8.202088
70
0
0
VERTEX
8
Layer 1
10
52.652098
20
8.202088
70
0
0
VERTEX
8
Layer 1
10
52.652098
20
6.085424
70
0
0
VERTEX
8
Layer 1
10
52.122932
20
5.820841
70
0
0
VERTEX
8
Layer 1
10
51.858349
20
4.233343
70
0
0
VERTEX
8
Layer 1
10
51.197463
20
5.137956
70
0
0
VERTEX
8
Layer 1
10
50.987085
20
6.263191
70
0
0
VERTEX
8
Layer 1
10
51.014991
20
7.342193
70
0
0
VERTEX
8
Layer 1
10
51.025843
20
7.901332
70
0
0
VERTEX
8
Layer 1
10
51.064600
20
9.260420
70
0
0
VERTEX
8
Layer 1
10
51.064600
20
9.260420
70
0
0
SEQEND
8
Layer 1
0
POLYLINE
8
Layer 1
62
7
70
1
10
0.000000
20
0.000000
66
1
0
VERTEX
8
Layer 1
10
52.999200
20
11.939300
70
0
0
VERTEX
8
Layer 1
10
54.033052
20
11.865524
70
0
0
VERTEX
8
Layer 1
10
55.033182
20
11.641644
70
0
0
VERTEX
8
Layer 1
10
55.033182
20
10.847895
70
0
0
VERTEX
8
Layer 1
10
52.122769
20
11.112478
70
0
0
VERTEX
8
Layer 1
10
51.858186
20
10.318729
70
0
0
VERTEX
8
Layer 1
10
51.858186
20
11.641644
70
0
0
VERTEX
8
Layer 1
10
52.199250
20
11.877288
70
0
0
VERTEX
8
Layer 1
10
52.999200
20
11.939300
70
0
0
VERTEX
8
Layer 1
10
52.999200
20
11.939300
70
0
0
SEQEND
8
Layer 1
0
POLYLINE
8
Layer 1
62
7
70
1
10
0.000000
20
0.000000
66
1
0
VERTEX
8
Layer 1
10
17.727100
20
18.256200
70
0
0
VERTEX
8
Layer 1
10
18.256266
20
18.256200
70
0
0
VERTEX
8
Layer 1
10
18.066296
20
17.239833
70
0
0
VERTEX
8
Layer 1
10
17.445981
20
16.420655
70
0
0
VERTEX
8
Layer 1
10
16.677623
20
16.236687
70
0
0
VERTEX
8
Layer 1
10
15.999729
20
16.255970
70
0
0
VERTEX
8
Layer 1
10
14.552104
20
16.668702
70
0
0
VERTEX
8
Layer 1
10
14.552104
20
16.933285
70
0
0
VERTEX
8
Layer 1
10
15.112276
20
17.021135
70
0
0
VERTEX
8
Layer 1
10
15.841946
20
17.148259
70
0
0
VERTEX
8
Layer 1
10
16.567482
20
17.269181
70
0
0
VERTEX
8
Layer 1
10
17.253560
20
17.503878
70
0
0
VERTEX
8
Layer 1
10
17.727100
20
18.256200
70
0
0
VERTEX
8
Layer 1
10
17.727100
20
18.256200
70
0
0
SEQEND
8
Layer 1
0
POLYLINE
8
Layer 1
62
7
70
1
10
0.000000
20
0.000000
66
1
0
VERTEX
8
Layer 1
10
32.279200
20
39.687500
70
0
0
VERTEX
8
Layer 1
10
33.337532
20
39.687500
70
0
0
VERTEX
8
Layer 1
10
33.337532
20
37.835419
70
0
0
VERTEX
8
Layer 1
10
33.072949
20
37.835419
70
0
0
VERTEX
8
Layer 1
10
33.072949
20
39.422917
70
0
0
VERTEX
8
Layer 1
10
32.543783
20
39.422917
70
0
0
VERTEX
8
Layer 1
10
32.674460
20
38.841881
70
0
0
VERTEX
8
Layer 1
10
32.834204
20
36.813260
70
0
0
VERTEX
8
Layer 1
10
32.831620
20
36.102710
70
0
0
VERTEX
8
Layer 1
10
32.824902
20
35.371490
70
0
0
VERTEX
8
Layer 1
10
32.821285
20
34.624766
70
0
0
VERTEX
8
Layer 1
10
32.808366
20
32.808342
70
0
0
VERTEX
8
Layer 1
10
32.543783
20
32.808342
70
0
0
VERTEX
8
Layer 1
10
32.543783
20
37.570836
70
0
0
VERTEX
8
Layer 1
10
32.014617
20
37.570836
70
0
0
VERTEX
8
Layer 1
10
32.279200
20
39.687500
70
0
0
VERTEX
8
Layer 1
10
32.279200
20
39.687500
70
0
0
SEQEND
8
Layer 1
0
POLYLINE
8
Layer 1
62
7
70
1
10
0.000000
20
0.000000
66
1
0
VERTEX
8
Layer 1
10
10.583300
20
15.345800
70
0
0
VERTEX
8
Layer 1
10
10.847883
20
15.345800
70
0
0
VERTEX
8
Layer 1
10
10.864419
20
13.526792
70
0
0
VERTEX
8
Layer 1
10
10.873721
20
12.503600
70
0
0
VERTEX
8
Layer 1
10
10.818040
20
11.683237
70
0
0
VERTEX
8
Layer 1
10
10.583300
20
11.112472
70
0
0
VERTEX
8
Layer 1
10
10.054134
20
11.112472
70
0
0
VERTEX
8
Layer 1
10
10.073097
20
13.263249
70
0
0
VERTEX
8
Layer 1
10
10.239485
20
14.295700
70
0
0
VERTEX
8
Layer 1
10
10.583300
20
15.345800
70
0
0
VERTEX
8
Layer 1
10
10.583300
20
15.345800
70
0
0
SEQEND
8
Layer 1
0
POLYLINE
8
Layer 1
62
7
70
1
10
0.000000
20
0.000000
66
1
0
VERTEX
8
Layer 1
10
44.450000
20
24.341700
70
0
0
VERTEX
8
Layer 1
10
44.714583
20
23.812534
70
0
0
VERTEX
8
Layer 1
10
45.508332
20
23.547951
70
0
0
VERTEX
8
Layer 1
10
42.641327
20
21.708272
70
0
0
VERTEX
8
Layer 1
10
42.082964
20
21.506218
70
0
0
VERTEX
8
Layer 1
10
41.622269
20
21.530506
70
0
0
VERTEX
8
Layer 1
10
41.010421
20
21.695870
70
0
0
VERTEX
8
Layer 1
10
43.434043
20
22.967109
70
0
0
VERTEX
8
Layer 1
10
44.065131
20
23.557245
70
0
0
VERTEX
8
Layer 1
10
44.450000
20
24.341700
70
0
0
VERTEX
8
Layer 1
10
44.450000
20
24.341700
70
0
0
SEQEND
8
Layer 1
0
POLYLINE
8
Layer 1
62
7
70
1
10
0.000000
20
0.000000
66
1
0
VERTEX
8
Layer 1
10
14.287500
20
15.610400
70
0
0
VERTEX
8
Layer 1
10
15.874998
20
15.610400
70
0
0
VERTEX
8
Layer 1
10
15.874998
20
15.081234
70
0
0
VERTEX
8
Layer 1
10
18.256245
20
14.816651
70
0
0
VERTEX
8
Layer 1
10
17.197913
20
13.758319
70
0
0
VERTEX
8
Layer 1
10
16.619138
20
14.138657
70
0
0
VERTEX
8
Layer 1
10
15.618432
20
14.583820
70
0
0
VERTEX
8
Layer 1
10
14.552083
20
14.816651
70
0
0
VERTEX
8
Layer 1
10
14.287500
20
15.610400
70
0
0
VERTEX
8
Layer 1
10
14.287500
20
15.610400
70
0
0
SEQEND
8
Layer 1
0
POLYLINE
8
Layer 1
62
7
70
1
10
0.000000
20
0.000000
66
1
0
VERTEX
8
Layer 1
10
14.287500
20
35.189600
70
0
0
VERTEX
8
Layer 1
10
17.016012
20
33.965904
70
0
0
VERTEX
8
Layer 1
10
17.723978
20
33.608303
70
0
0
VERTEX
8
Layer 1
10
18.256245
20
33.337519
70
0
0
VERTEX
8
Layer 1
10
17.341387
20
33.123451
70
0
0
VERTEX
8
Layer 1
10
16.400030
20
33.336485
70
0
0
VERTEX
8
Layer 1
10
15.544269
20
33.717857
70
0
0
VERTEX
8
Layer 1
10
14.680240
20
34.097162
70
0
0
VERTEX
8
Layer 1
10
14.022917
20
34.395851
70
0
0
VERTEX
8
Layer 1
10
14.287500
20
35.189600
70
0
0
VERTEX
8
Layer 1
10
14.287500
20
35.189600
70
0
0
SEQEND
8
Layer 1
0
POLYLINE
8
Layer 1
62
7
70
1
10
0.000000
20
0.000000
66
1
0
VERTEX
8
Layer 1
10
6.879170
20
19.050000
70
0
0
VERTEX
8
Layer 1
10
6.879170
20
18.520834
70
0
0
VERTEX
8
Layer 1
10
6.404781
20
18.423682
70
0
0
VERTEX
8
Layer 1
10
4.763159
20
18.031910
70
0
0
VERTEX
8
Layer 1
10
3.175008
20
17.462502
70
0
0
VERTEX
8
Layer 1
10
2.645842
20
17.991668
70
0
0
VERTEX
8
Layer 1
10
3.581640
20
18.571766
70
0
0
VERTEX
8
Layer 1
10
4.682986
20
19.051175
70
0
0
VERTEX
8
Layer 1
10
5.824092
20
19.265414
70
0
0
VERTEX
8
Layer 1
10
6.879170
20
19.050000
70
0
0
VERTEX
8
Layer 1
10
6.879170
20
19.050000
70
0
0
SEQEND
8
Layer 1
0
POLYLINE
8
Layer 1
62
7
70
1
10
0.000000
20
0.000000
66
1
0
VERTEX
8
Layer 1
10
31.220800
20
32.014600
70
0
0
VERTEX
8
Layer 1
10
32.907517
20
32.047673
70
0
0
VERTEX
8
Layer 1
10
33.856295
20
32.066276
70
0
0
VERTEX
8
Layer 1
10
34.626014
20
31.954914
70
0
0
VERTEX
8
Layer 1
10
35.189545
20
31.485434
70
0
0
VERTEX
8
Layer 1
10
33.768458
20
31.255738
70
0
0
VERTEX
8
Layer 1
10
32.328741
20
31.204315
70
0
0
VERTEX
8
Layer 1
10
31.546361
20
31.211549
70
0
0
VERTEX
8
Layer 1
10
30.956217
20
31.220851
70
0
0
VERTEX
8
Layer 1
10
31.220800
20
32.014600
70
0
0
VERTEX
8
Layer 1
10
31.220800
20
32.014600
70
0
0
SEQEND
8
Layer 1
0
POLYLINE
8
Layer 1
62
7
70
1
10
0.000000
20
0.000000
66
1
0
VERTEX
8
Layer 1
10
39.158300
20
33.072900
70
0
0
VERTEX
8
Layer 1
10
38.205302
20
32.517718
70
0
0
VERTEX
8
Layer 1
10
37.190464
20
32.113787
70
0
0
VERTEX
8
Layer 1
10
36.579649
20
31.905014
70
0
0
VERTEX
8
Layer 1
10
34.924972
20
31.749985
70
0
0
VERTEX
8
Layer 1
10
34.924972
20
32.279151
70
0
0
VERTEX
8
Layer 1
10
35.975540
20
32.733764
70
0
0
VERTEX
8
Layer 1
10
36.977483
20
32.994987
70
0
0
VERTEX
8
Layer 1
10
39.158300
20
33.072900
70
0
0
VERTEX
8
Layer 1
10
39.158300
20
33.072900
70
0
0
SEQEND
8
Layer 1
0
POLYLINE
8
Layer 1
62
7
70
1
10
0.000000
20
0.000000
66
1
0
VERTEX
8
Layer 1
10
18.785400
20
38.364600
70
0
0
VERTEX
8
Layer 1
10
20.108315
20
38.100017
70
0
0
VERTEX
8
Layer 1
10
20.637481
20
37.306268
70
0
0
VERTEX
8
Layer 1
10
19.843732
20
37.306268
70
0
0
VERTEX
8
Layer 1
10
19.843732
20
35.189604
70
0
0
VERTEX
8
Layer 1
10
19.307280
20
36.165587
70
0
0
VERTEX
8
Layer 1
10
19.016910
20
37.223586
70
0
0
VERTEX
8
Layer 1
10
18.882552
20
37.871607
70
0
0
VERTEX
8
Layer 1
10
18.785400
20
38.364600
70
0
0
VERTEX
8
Layer 1
10
18.785400
20
38.364600
70
0
0
SEQEND
8
Layer 1
0
POLYLINE
8
Layer 1
62
7
70
1
10
0.000000
20
0.000000
66
1
0
VERTEX
8
Layer 1
10
9.789580
20
19.314600
70
0
0
VERTEX
8
Layer 1
10
11.906244
20
19.050017
70
0
0
VERTEX
8
Layer 1
10
12.246630
20
18.546753
70
0
0
VERTEX
8
Layer 1
10
12.399897
20
18.085176
70
0
0
VERTEX
8
Layer 1
10
12.435410
20
16.933353
70
0
0
VERTEX
8
Layer 1
10
12.964576
20
16.668770
70
0
0
VERTEX
8
Layer 1
10
13.229159
20
16.139604
70
0
0
VERTEX
8
Layer 1
10
12.170827
20
15.875021
70
0
0
VERTEX
8
Layer 1
10
12.170827
20
16.404187
70
0
0
VERTEX
8
Layer 1
10
11.641661
20
16.404187
70
0
0
VERTEX
8
Layer 1
10
11.807025
20
17.016035
70
0
0
VERTEX
8
Layer 1
10
11.893957
20
17.780867
70
0
0
VERTEX
8
Layer 1
10
11.377078
20
18.520851
70
0
0
VERTEX
8
Layer 1
10
9.789580
20
19.050017
70
0
0
VERTEX
8
Layer 1
10
9.789580
20
19.314600
70
0
0
VERTEX
8
Layer 1
10
9.789580
20
19.314600
70
0
0
SEQEND
8
Layer 1
0
POLYLINE
8
Layer 1
62
7
70
1
10
0.000000
20
0.000000
66
1
0
VERTEX
8
Layer 1
10
27.781200
20
23.018700
70
0
0
VERTEX
8
Layer 1
10
28.277293
20
22.787190
70
0
0
VERTEX
8
Layer 1
10
29.995060
20
22.301736
70
0
0
VERTEX
8
Layer 1
10
31.749945
20
21.960368
70
0
0
VERTEX
8
Layer 1
10
31.749945
20
21.166619
70
0
0
VERTEX
8
Layer 1
10
30.956196
20
21.166619
70
0
0
VERTEX
8
Layer 1
10
30.956196
20
21.695785
70
0
0
VERTEX
8
Layer 1
10
30.129374
20
21.662712
70
0
0
VERTEX
8
Layer 1
10
28.795151
20
21.821740
70
0
0
VERTEX
8
Layer 1
10
27.516617
20
22.224951
70
0
0
VERTEX
8
Layer 1
10
27.781200
20
23.018700
70
0
0
VERTEX
8
Layer 1
10
27.781200
20
23.018700
70
0
0
SEQEND
8
Layer 1
0
POLYLINE
8
Layer 1
62
7
70
1
10
0.000000
20
0.000000
66
1
0
VERTEX
8
Layer 1
10
43.391700
20
32.543800
70
0
0
VERTEX
8
Layer 1
10
43.656283
20
32.014634
70
0
0
VERTEX
8
Layer 1
10
44.450032
20
31.750051
70
0
0
VERTEX
8
Layer 1
10
44.450032
20
26.722974
70
0
0
VERTEX
8
Layer 1
10
43.935485
20
27.665946
70
0
0
VERTEX
8
Layer 1
10
43.753435
20
28.693911
70
0
0
VERTEX
8
Layer 1
10
43.686255
20
29.373455
70
0
0
VERTEX
8
Layer 1
10
43.623210
20
30.079871
70
0
0
VERTEX
8
Layer 1
10
43.553964
20
30.795588
70
0
0
VERTEX
8
Layer 1
10
43.391700
20
32.543800
70
0
0
VERTEX
8
Layer 1
10
43.391700
20
32.543800
70
0
0
SEQEND
8
Layer 1
0
POLYLINE
8
Layer 1
62
7
70
1
10
0.000000
20
0.000000
66
1
0
VERTEX
8
Layer 1
10
8.731250
20
34.131200
70
0
0
VERTEX
8
Layer 1
10
9.789582
20
33.337451
70
0
0
VERTEX
8
Layer 1
10
9.260416
20
31.749953
70
0
0
VERTEX
8
Layer 1
10
8.731250
20
32.279119
70
0
0
VERTEX
8
Layer 1
10
7.408335
20
31.220787
70
0
0
VERTEX
8
Layer 1
10
7.963041
20
32.725248
70
0
0
VERTEX
8
Layer 1
10
8.731250
20
34.131200
70
0
0
VERTEX
8
Layer 1
10
8.731250
20
34.131200
70
0
0
SEQEND
8
Layer 1
0
POLYLINE
8
Layer 1
62
7
70
1
10
0.000000
20
0.000000
66
1
0
VERTEX
8
Layer 1
10
32.808300
20
16.404200
70
0
0
VERTEX
8
Layer 1
10
31.867928
20
15.691561
70
0
0
VERTEX
8
Layer 1
10
30.790855
20
15.180504
70
0
0
VERTEX
8
Layer 1
10
29.986770
20
14.822903
70
0
0
VERTEX
8
Layer 1
10
29.368721
20
14.552119
70
0
0
VERTEX
8
Layer 1
10
28.839555
20
15.081285
70
0
0
VERTEX
8
Layer 1
10
29.767917
20
15.740435
70
0
0
VERTEX
8
Layer 1
10
30.682479
20
16.164238
70
0
0
VERTEX
8
Layer 1
10
31.667766
20
16.377294
70
0
0
VERTEX
8
Layer 1
10
32.808300
20
16.404200
70
0
0
VERTEX
8
Layer 1
10
32.808300
20
16.404200
70
0
0
SEQEND
8
Layer 1
0
POLYLINE
8
Layer 1
62
7
70
1
10
0.000000
20
0.000000
66
1
0
VERTEX
8
Layer 1
10
42.862500
20
18.785400
70
0
0
VERTEX
8
Layer 1
10
43.920832
20
18.785400
70
0
0
VERTEX
8
Layer 1
10
43.687912
20
17.278406
70
0
0
VERTEX
8
Layer 1
10
43.127083
20
15.874987
70
0
0
VERTEX
8
Layer 1
10
42.862500
20
16.404153
70
0
0
VERTEX
8
Layer 1
10
41.539585
20
16.933319
70
0
0
VERTEX
8
Layer 1
10
41.275002
20
16.404153
70
0
0
VERTEX
8
Layer 1
10
40.745836
20
17.462485
70
0
0
VERTEX
8
Layer 1
10
43.391666
20
17.197902
70
0
0
VERTEX
8
Layer 1
10
43.656249
20
18.520817
70
0
0
VERTEX
8
Layer 1
10
42.862500
20
18.785400
70
0
0
VERTEX
8
Layer 1
10
42.862500
20
18.785400
70
0
0
SEQEND
8
Layer 1
0
POLYLINE
8
Layer 1
62
7
70
1
10
0.000000
20
0.000000
66
1
0
VERTEX
8
Layer 1
10
26.193800
20
42.862500
70
0
0
VERTEX
8
Layer 1
10
26.722966
20
42.862500
70
0
0
VERTEX
8
Layer 1
10
26.987549
20
40.481253
70
0
0
VERTEX
8
Layer 1
10
26.193800
20
40.481253
70
0
0
VERTEX
8
Layer 1
10
25.135468
20
39.952087
70
0
0
VERTEX
8
Layer 1
10
25.515806
20
41.109638
70
0
0
VERTEX
8
Layer 1
10
25.729746
20
41.760760
70
0
0
VERTEX
8
Layer 1
10
26.193800
20
42.862500
70
0
0
VERTEX
8
Layer 1
10
26.193800
20
42.862500
70
0
0
SEQEND
8
Layer 1
0
POLYLINE
8
Layer 1
62
7
70
1
10
0.000000
20
0.000000
66
1
0
VERTEX
8
Layer 1
10
26.193800
20
18.256200
70
0
0
VERTEX
8
Layer 1
10
27.269915
20
17.820949
70
0
0
VERTEX
8
Layer 1
10
27.996272
20
16.900212
70
0
0
VERTEX
8
Layer 1
10
28.310464
20
16.139536
70
0
0
VERTEX
8
Layer 1
10
26.458383
20
16.404119
70
0
0
VERTEX
8
Layer 1
10
26.193800
20
18.256200
70
0
0
VERTEX
8
Layer 1
10
26.193800
20
18.256200
70
0
0
SEQEND
8
Layer 1
0
POLYLINE
8
Layer 1
62
7
70
1
10
0.000000
20
0.000000
66
1
0
VERTEX
8
Layer 1
10
44.185400
20
19.579200
70
0
0
VERTEX
8
Layer 1
10
44.185400
20
18.256285
70
0
0
VERTEX
8
Layer 1
10
43.920817
20
18.785451
70
0
0
VERTEX
8
Layer 1
10
43.523943
20
18.653160
70
0
0
VERTEX
8
Layer 1
10
42.141693
20
18.510919
70
0
0
VERTEX
8
Layer 1
10
40.745821
20
18.520868
70
0
0
VERTEX
8
Layer 1
10
41.278088
20
19.232322
70
0
0
VERTEX
8
Layer 1
10
41.828958
20
19.450009
70
0
0
VERTEX
8
Layer 1
10
42.465611
20
19.496518
70
0
0
VERTEX
8
Layer 1
10
43.102263
20
19.549228
70
0
0
VERTEX
8
Layer 1
10
44.185400
20
19.579200
70
0
0
VERTEX
8
Layer 1
10
44.185400
20
19.579200
70
0
0
SEQEND
8
Layer 1
0
POLYLINE
8
Layer 1
62
7
70
1
10
0.000000
20
0.000000
66
1
0
VERTEX
8
Layer 1
10
34.131300
20
22.754200
70
0
0
VERTEX
8
Layer 1
10
35.498050
20
22.340457
70
0
0
VERTEX
8
Layer 1
10
36.777130
20
21.695868
70
0
0
VERTEX
8
Layer 1
10
37.041713
20
20.902119
70
0
0
VERTEX
8
Layer 1
10
35.468094
20
21.096309
70
0
0
VERTEX
8
Layer 1
10
34.544711
20
21.679332
70
0
0
VERTEX
8
Layer 1
10
34.182976
20
22.222967
70
0
0
VERTEX
8
Layer 1
10
34.131300
20
22.754200
70
0
0
VERTEX
8
Layer 1
10
34.131300
20
22.754200
70
0
0
SEQEND
8
Layer 1
0
POLYLINE
8
Layer 1
62
7
70
1
10
0.000000
20
0.000000
66
1
0
VERTEX
8
Layer 1
10
10.847900
20
35.454200
70
0
0
VERTEX
8
Layer 1
10
10.383479
20
34.365473
70
0
0
VERTEX
8
Layer 1
10
9.789568
20
33.337536
70
0
0
VERTEX
8
Layer 1
10
8.995819
20
33.602119
70
0
0
VERTEX
8
Layer 1
10
9.260402
20
34.925034
70
0
0
VERTEX
8
Layer 1
10
10.009887
20
35.334192
70
0
0
VERTEX
8
Layer 1
10
10.847900
20
35.454200
70
0
0
VERTEX
8
Layer 1
10
10.847900
20
35.454200
70
0
0
SEQEND
8
Layer 1
0
POLYLINE
8
Layer 1
62
7
70
1
10
0.000000
20
0.000000
66
1
0
VERTEX
8
Layer 1
10
24.341700
20
7.143750
70
0
0
VERTEX
8
Layer 1
10
24.870866
20
6.879167
70
0
0
VERTEX
8
Layer 1
10
23.584330
20
6.116368
70
0
0
VERTEX
8
Layer 1
10
22.355761
20
5.712828
70
0
0
VERTEX
8
Layer 1
10
21.061830
20
5.561729
70
0
0
VERTEX
8
Layer 1
10
19.579206
20
5.556252
70
0
0
VERTEX
8
Layer 1
10
19.579206
20
5.820835
70
0
0
VERTEX
8
Layer 1
10
20.217926
20
5.908685
70
0
0
VERTEX
8
Layer 1
10
22.340506
20
6.328729
70
0
0
VERTEX
8
Layer 1
10
24.341700
20
7.143750
70
0
0
VERTEX
8
Layer 1
10
24.341700
20
7.143750
70
0
0
SEQEND
8
Layer 1
0
POLYLINE
8
Layer 1
62
7
70
1
10
0.000000
20
0.000000
66
1
0
VERTEX
8
Layer 1
10
33.337500
20
16.139600
70
0
0
VERTEX
8
Layer 1
10
33.072917
20
15.081268
70
0
0
VERTEX
8
Layer 1
10
30.427087
20
15.081268
70
0
0
VERTEX
8
Layer 1
10
31.784597
20
15.935432
70
0
0
VERTEX
8
Layer 1
10
32.447842
20
16.096110
70
0
0
VERTEX
8
Layer 1
10
33.337500
20
16.139600
70
0
0
VERTEX
8
Layer 1
10
33.337500
20
16.139600
70
0
0
SEQEND
8
Layer 1
0
POLYLINE
8
Layer 1
62
7
70
1
10
0.000000
20
0.000000
66
1
0
VERTEX
8
Layer 1
10
30.956300
20
21.166700
70
0
0
VERTEX
8
Layer 1
10
32.014632
20
21.166700
70
0
0
VERTEX
8
Layer 1
10
32.014632
20
20.637534
70
0
0
VERTEX
8
Layer 1
10
32.543798
20
20.637534
70
0
0
VERTEX
8
Layer 1
10
32.543798
20
20.108368
70
0
0
VERTEX
8
Layer 1
10
33.072964
20
20.108368
70
0
0
VERTEX
8
Layer 1
10
33.337547
20
18.520870
70
0
0
VERTEX
8
Layer 1
10
32.808381
20
18.520870
70
0
0
VERTEX
8
Layer 1
10
32.576871
20
19.033500
70
0
0
VERTEX
8
Layer 1
10
32.284361
20
19.574237
70
0
0
VERTEX
8
Layer 1
10
31.750049
20
19.843785
70
0
0
VERTEX
8
Layer 1
10
31.750049
20
20.637534
70
0
0
VERTEX
8
Layer 1
10
30.956300
20
20.637534
70
0
0
VERTEX
8
Layer 1
10
30.956300
20
21.166700
70
0
0
VERTEX
8
Layer 1
10
30.956300
20
21.166700
70
0
0
SEQEND
8
Layer 1
0
POLYLINE
8
Layer 1
62
7
70
1
10
0.000000
20
0.000000
66
1
0
VERTEX
8
Layer 1
10
7.143750
20
29.897900
70
0
0
VERTEX
8
Layer 1
10
7.329635
20
28.796073
70
0
0
VERTEX
8
Layer 1
10
7.027995
20
27.715090
70
0
0
VERTEX
8
Layer 1
10
6.797518
20
27.148717
70
0
0
VERTEX
8
Layer 1
10
6.614584
20
26.722904
70
0
0
VERTEX
8
Layer 1
10
6.085418
20
26.722904
70
0
0
VERTEX
8
Layer 1
10
6.379836
20
28.782442
70
0
0
VERTEX
8
Layer 1
10
6.614584
20
29.633317
70
0
0
VERTEX
8
Layer 1
10
7.143750
20
29.897900
70
0
0
VERTEX
8
Layer 1
10
7.143750
20
29.897900
70
0
0
SEQEND
8
Layer 1
0
POLYLINE
8
Layer 1
62
7
70
1
10
0.000000
20
0.000000
66
1
0
VERTEX
8
Layer 1
10
10.847900
20
35.189600
70
0
0
VERTEX
8
Layer 1
10
11.377066
20
34.925017
70
0
0
VERTEX
8
Layer 1
10
10.501585
20
33.211981
70
0
0
VERTEX
8
Layer 1
10
9.955494
20
32.452575
70
0
0
VERTEX
8
Layer 1
10
9.260402
20
31.750021
70
0
0
VERTEX
8
Layer 1
10
10.032454
20
34.083881
70
0
0
VERTEX
8
Layer 1
10
10.847900
20
35.189600
70
0
0
VERTEX
8
Layer 1
10
10.847900
20
35.189600
70
0
0
SEQEND
8
Layer 1
0
POLYLINE
8
Layer 1
62
7
70
1
10
0.000000
20
0.000000
66
1
0
VERTEX
8
Layer 1
10
24.077100
20
39.422900
70
0
0
VERTEX
8
Layer 1
10
23.812517
20
38.364568
70
0
0
VERTEX
8
Layer 1
10
22.827391
20
37.755170
70
0
0
VERTEX
8
Layer 1
10
21.695853
20
37.570819
70
0
0
VERTEX
8
Layer 1
10
22.051499
20
38.300435
70
0
0
VERTEX
8
Layer 1
10
22.581804
20
38.888174
70
0
0
VERTEX
8
Layer 1
10
23.264445
20
39.280255
70
0
0
VERTEX
8
Layer 1
10
24.077100
20
39.422900
70
0
0
VERTEX
8
Layer 1
10
24.077100
20
39.422900
70
0
0
SEQEND
8
Layer 1
0
POLYLINE
8
Layer 1
62
7
70
1
10
0.000000
20
0.000000
66
1
0
VERTEX
8
Layer 1
10
50.800000
20
13.493700
70
0
0
VERTEX
8
Layer 1
10
52.652081
20
11.906202
70
0
0
VERTEX
8
Layer 1
10
52.023696
20
11.707765
70
0
0
VERTEX
8
Layer 1
10
51.259300
20
11.308501
70
0
0
VERTEX
8
Layer 1
10
50.800000
20
10.318704
70
0
0
VERTEX
8
Layer 1
10
50.800000
20
13.493700
70
0
0
VERTEX
8
Layer 1
10
50.800000
20
13.493700
70
0
0
SEQEND
8
Layer 1
0
POLYLINE
8
Layer 1
62
7
70
1
10
0.000000
20
0.000000
66
1
0
VERTEX
8
Layer 1
10
33.866700
20
16.139600
70
0
0
VERTEX
8
Layer 1
10
34.395866
20
15.875017
70
0
0
VERTEX
8
Layer 1
10
34.131283
20
14.022936
70
0
0
VERTEX
8
Layer 1
10
30.956287
20
14.287519
70
0
0
VERTEX
8
Layer 1
10
30.956287
20
14.552102
70
0
0
VERTEX
8
Layer 1
10
33.602117
20
14.552102
70
0
0
VERTEX
8
Layer 1
10
33.602117
20
15.875017
70
0
0
VERTEX
8
Layer 1
10
33.866700
20
16.139600
70
0
0
VERTEX
8
Layer 1
10
33.866700
20
16.139600
70
0
0
SEQEND
8
Layer 1
0
POLYLINE
8
Layer 1
62
7
70
1
10
0.000000
20
0.000000
66
1
0
VERTEX
8
Layer 1
10
0.264583
20
15.610400
70
0
0
VERTEX
8
Layer 1
10
1.322915
20
15.081234
70
0
0
VERTEX
8
Layer 1
10
0.264583
20
12.435404
70
0
0
VERTEX
8
Layer 1
10
0.000000
20
12.435404
70
0
0
VERTEX
8
Layer 1
10
-0.016536
20
13.874074
70
0
0
VERTEX
8
Layer 1
10
-0.025838
20
14.683326
70
0
0
VERTEX
8
Layer 1
10
0.029843
20
15.296078
70
0
0
VERTEX
8
Layer 1
10
0.264583
20
15.610400
70
0
0
VERTEX
8
Layer 1
10
0.264583
20
15.610400
70
0
0
SEQEND
8
Layer 1
0
POLYLINE
8
Layer 1
62
7
70
1
10
0.000000
20
0.000000
66
1
0
VERTEX
8
Layer 1
10
3.968750
20
17.991700
70
0
0
VERTEX
8
Layer 1
10
4.497916
20
17.727117
70
0
0
VERTEX
8
Layer 1
10
3.356902
20
16.553030
70
0
0
VERTEX
8
Layer 1
10
2.715081
20
15.892606
70
0
0
VERTEX
8
Layer 1
10
2.092252
20
15.381139
70
0
0
VERTEX
8
Layer 1
10
1.322920
20
15.081287
70
0
0
VERTEX
8
Layer 1
10
1.994276
20
16.211281
70
0
0
VERTEX
8
Layer 1
10
2.943491
20
17.131805
70
0
0
VERTEX
8
Layer 1
10
3.524333
20
17.623764
70
0
0
VERTEX
8
Layer 1
10
3.968750
20
17.991700
70
0
0
VERTEX
8
Layer 1
10
3.968750
20
17.991700
70
0
0
SEQEND
8
Layer 1
0
POLYLINE
8
Layer 1
62
7
70
1
10
0.000000
20
0.000000
66
1
0
VERTEX
8
Layer 1
10
40.481300
20
16.404200
70
0
0
VERTEX
8
Layer 1
10
41.716478
20
15.837283
70
0
0
VERTEX
8
Layer 1
10
42.597964
20
14.816702
70
0
0
VERTEX
8
Layer 1
10
42.597964
20
14.287536
70
0
0
VERTEX
8
Layer 1
10
41.539632
20
14.287536
70
0
0
VERTEX
8
Layer 1
10
41.539632
20
15.081285
70
0
0
VERTEX
8
Layer 1
10
40.745883
20
15.081285
70
0
0
VERTEX
8
Layer 1
10
40.481300
20
16.404200
70
0
0
VERTEX
8
Layer 1
10
40.481300
20
16.404200
70
0
0
SEQEND
8
Layer 1
0
POLYLINE
8
Layer 1
62
7
70
1
10
0.000000
20
0.000000
66
1
0
VERTEX
8
Layer 1
10
30.691700
20
31.485400
70
0
0
VERTEX
8
Layer 1
10
28.774642
20
30.575538
70
0
0
VERTEX
8
Layer 1
10
27.762745
20
30.276039
70
0
0
VERTEX
8
Layer 1
10
26.722955
20
30.162485
70
0
0
VERTEX
8
Layer 1
10
26.722955
20
30.691651
70
0
0
VERTEX
8
Layer 1
10
28.645263
20
31.385929
70
0
0
VERTEX
8
Layer 1
10
30.691700
20
31.485400
70
0
0
VERTEX
8
Layer 1
10
30.691700
20
31.485400
70
0
0
SEQEND
8
Layer 1
0
POLYLINE
8
Layer 1
62
7
70
1
10
0.000000
20
0.000000
66
1
0
VERTEX
8
Layer 1
10
25.664600
20
44.714600
70
0
0
VERTEX
8
Layer 1
10
26.193766
20
43.656268
70
0
0
VERTEX
8
Layer 1
10
26.722932
20
43.656268
70
0
0
VERTEX
8
Layer 1
10
26.722932
20
42.862519
70
0
0
VERTEX
8
Layer 1
10
25.929183
20
42.597936
70
0
0
VERTEX
8
Layer 1
10
25.664600
20
41.804187
70
0
0
VERTEX
8
Layer 1
10
25.135434
20
41.804187
70
0
0
VERTEX
8
Layer 1
10
25.664600
20
44.714600
70
0
0
VERTEX
8
Layer 1
10
25.664600
20
44.714600
70
0
0
SEQEND
8
Layer 1
0
POLYLINE
8
Layer 1
62
7
70
1
10
0.000000
20
0.000000
66
1
0
VERTEX
8
Layer 1
10
10.583300
20
18.785400
70
0
0
VERTEX
8
Layer 1
10
11.641632
20
18.520817
70
0
0
VERTEX
8
Layer 1
10
12.170798
20
17.197902
70
0
0
VERTEX
8
Layer 1
10
11.112466
20
16.139570
70
0
0
VERTEX
8
Layer 1
10
11.145539
20
16.867173
70
0
0
VERTEX
8
Layer 1
10
11.012078
20
17.877319
70
0
0
VERTEX
8
Layer 1
10
10.583300
20
18.785400
70
0
0
VERTEX
8
Layer 1
10
10.583300
20
18.785400
70
0
0
SEQEND
8
Layer 1
0
POLYLINE
8
Layer 1
62
7
70
1
10
0.000000
20
0.000000
66
1
0
VERTEX
8
Layer 1
10
14.998600
20
21.795100
70
0
0
VERTEX
8
Layer 1
10
15.909062
20
21.491119
70
0
0
VERTEX
8
Layer 1
10
16.668780
20
20.902132
70
0
0
VERTEX
8
Layer 1
10
16.078636
20
20.969312
70
0
0
VERTEX
8
Layer 1
10
15.296256
20
21.050960
70
0
0
VERTEX
8
Layer 1
10
14.524211
20
21.134676
70
0
0
VERTEX
8
Layer 1
10
13.470793
20
21.097416
70
0
0
VERTEX
8
Layer 1
10
12.435452
20
20.902132
70
0
0
VERTEX
8
Layer 1
10
13.025878
20
21.473229
70
0
0
VERTEX
8
Layer 1
10
13.582807
20
21.796754
70
0
0
VERTEX
8
Layer 1
10
14.206845
20
21.896211
70
0
0
VERTEX
8
Layer 1
10
14.998600
20
21.795100
70
0
0
VERTEX
8
Layer 1
10
14.998600
20
21.795100
70
0
0
SEQEND
8
Layer 1
0
POLYLINE
8
Layer 1
62
7
70
1
10
0.000000
20
0.000000
66
1
0
VERTEX
8
Layer 1
10
14.585200
20
22.241400
70
0
0
VERTEX
8
Layer 1
10
15.314870
20
22.085337
70
0
0
VERTEX
8
Layer 1
10
15.875042
20
21.960281
70
0
0
VERTEX
8
Layer 1
10
15.875042
20
21.431115
70
0
0
VERTEX
8
Layer 1
10
14.899392
20
21.596479
70
0
0
VERTEX
8
Layer 1
10
13.634023
20
21.603800
70
0
0
VERTEX
8
Layer 1
10
12.435463
20
21.166532
70
0
0
VERTEX
8
Layer 1
10
12.700046
20
22.224864
70
0
0
VERTEX
8
Layer 1
10
13.620807
20
22.431780
70
0
0
VERTEX
8
Layer 1
10
14.585200
20
22.241400
70
0
0
VERTEX
8
Layer 1
10
14.585200
20
22.241400
70
0
0
SEQEND
8
Layer 1
0
POLYLINE
8
Layer 1
62
7
70
1
10
0.000000
20
0.000000
66
1
0
VERTEX
8
Layer 1
10
36.512500
20
16.404200
70
0
0
VERTEX
8
Layer 1
10
38.157876
20
16.395932
70
0
0
VERTEX
8
Layer 1
10
39.158330
20
16.139617
70
0
0
VERTEX
8
Layer 1
10
39.158330
20
15.610451
70
0
0
VERTEX
8
Layer 1
10
40.481245
20
15.345868
70
0
0
VERTEX
8
Layer 1
10
39.792427
20
15.170689
70
0
0
VERTEX
8
Layer 1
10
39.181143
20
15.183973
70
0
0
VERTEX
8
Layer 1
10
37.901561
20
15.593915
70
0
0
VERTEX
8
Layer 1
10
37.111946
20
15.898805
70
0
0
VERTEX
8
Layer 1
10
36.512500
20
16.139617
70
0
0
VERTEX
8
Layer 1
10
36.512500
20
16.404200
70
0
0
VERTEX
8
Layer 1
10
36.512500
20
16.404200
70
0
0
SEQEND
8
Layer 1
0
POLYLINE
8
Layer 1
62
7
70
1
10
0.000000
20
0.000000
66
1
0
VERTEX
8
Layer 1
10
8.863540
20
20.025800
70
0
0
VERTEX
8
Layer 1
10
9.500193
20
19.962755
70
0
0
VERTEX
8
Layer 1
10
10.051063
20
19.792610
70
0
0
VERTEX
8
Layer 1
10
10.583330
20
19.314733
70
0
0
VERTEX
8
Layer 1
10
9.161196
20
19.165905
70
0
0
VERTEX
8
Layer 1
10
8.361246
20
19.082190
70
0
0
VERTEX
8
Layer 1
10
7.692812
20
19.087228
70
0
0
VERTEX
8
Layer 1
10
7.143751
20
19.314733
70
0
0
VERTEX
8
Layer 1
10
7.143751
20
19.843899
70
0
0
VERTEX
8
Layer 1
10
7.978406
20
20.086932
70
0
0
VERTEX
8
Layer 1
10
8.863540
20
20.025800
70
0
0
VERTEX
8
Layer 1
10
8.863540
20
20.025800
70
0
0
SEQEND
8
Layer 1
0
POLYLINE
8
Layer 1
62
7
70
1
10
0.000000
20
0.000000
66
1
0
VERTEX
8
Layer 1
10
51.064600
20
10.318700
70
0
0
VERTEX
8
Layer 1
10
51.761585
20
9.534899
70
0
0
VERTEX
8
Layer 1
10
51.877986
20
8.810784
70
0
0
VERTEX
8
Layer 1
10
51.775667
20
8.020135
70
0
0
VERTEX
8
Layer 1
10
51.679549
20
7.223286
70
0
0
VERTEX
8
Layer 1
10
51.593766
20
6.614538
70
0
0
VERTEX
8
Layer 1
10
52.122932
20
6.349955
70
0
0
VERTEX
8
Layer 1
10
51.329183
20
6.085372
70
0
0
VERTEX
8
Layer 1
10
51.064600
20
10.318700
70
0
0
VERTEX
8
Layer 1
10
51.064600
20
10.318700
70
0
0
SEQEND
8
Layer 1
0
POLYLINE
8
Layer 1
62
7
70
1
10
0.000000
20
0.000000
66
1
0
VERTEX
8
Layer 1
10
34.660400
20
15.875000
70
0
0
VERTEX
8
Layer 1
10
35.189566
20
15.875000
70
0
0
VERTEX
8
Layer 1
10
35.454149
20
12.964587
70
0
0
VERTEX
8
Layer 1
10
34.131234
20
12.700004
70
0
0
VERTEX
8
Layer 1
10
33.602068
20
13.229170
70
0
0
VERTEX
8
Layer 1
10
34.660400
20
13.229170
70
0
0
VERTEX
8
Layer 1
10
34.660400
20
15.875000
70
0
0
VERTEX
8
Layer 1
10
34.660400
20
15.875000
70
0
0
SEQEND
8
Layer 1
0
POLYLINE
8
Layer 1
62
7
70
1
10
0.000000
20
0.000000
66
1
0
VERTEX
8
Layer 1
10
38.364600
20
19.314600
70
0
0
VERTEX
8
Layer 1
10
38.827620
20
18.719288
70
0
0
VERTEX
8
Layer 1
10
38.893766
20
17.727102
70
0
0
VERTEX
8
Layer 1
10
37.455096
20
17.826321
70
0
0
VERTEX
8
Layer 1
10
36.645844
20
17.882131
70
0
0
VERTEX
8
Layer 1
10
35.983353
20
17.991685
70
0
0
VERTEX
8
Layer 1
10
35.718770
20
18.520851
70
0
0
VERTEX
8
Layer 1
10
38.364600
20
18.256268
70
0
0
VERTEX
8
Layer 1
10
38.364600
20
19.314600
70
0
0
VERTEX
8
Layer 1
10
38.364600
20
19.314600
70
0
0
SEQEND
8
Layer 1
0
POLYLINE
8
Layer 1
62
7
70
1
10
0.000000
20
0.000000
66
1
0
VERTEX
8
Layer 1
10
43.920800
20
21.431200
70
0
0
VERTEX
8
Layer 1
10
44.185383
20
20.902034
70
0
0
VERTEX
8
Layer 1
10
43.920800
20
20.372868
70
0
0
VERTEX
8
Layer 1
10
44.449966
20
20.372868
70
0
0
VERTEX
8
Layer 1
10
44.185383
20
19.314536
70
0
0
VERTEX
8
Layer 1
10
42.862468
20
19.314536
70
0
0
VERTEX
8
Layer 1
10
43.326889
20
20.403263
70
0
0
VERTEX
8
Layer 1
10
43.920800
20
21.431200
70
0
0
VERTEX
8
Layer 1
10
43.920800
20
21.431200
70
0
0
SEQEND
8
Layer 1
0
POLYLINE
8
Layer 1
62
7
70
1
10
0.000000
20
0.000000
66
1
0
VERTEX
8
Layer 1
10
12.170800
20
25.664600
70
0
0
VERTEX
8
Layer 1
10
12.435383
20
25.664600
70
0
0
VERTEX
8
Layer 1
10
12.699966
20
23.018770
70
0
0
VERTEX
8
Layer 1
10
13.493715
20
23.018770
70
0
0
VERTEX
8
Layer 1
10
13.229132
20
22.225021
70
0
0
VERTEX
8
Layer 1
10
12.170800
20
21.960438
70
0
0
VERTEX
8
Layer 1
10
12.170800
20
25.664600
70
0
0
VERTEX
8
Layer 1
10
12.170800
20
25.664600
70
0
0
SEQEND
8
Layer 1
0
POLYLINE
8
Layer 1
62
7
70
1
10
0.000000
20
0.000000
66
1
0
VERTEX
8
Layer 1
10
26.458300
20
12.170800
70
0
0
VERTEX
8
Layer 1
10
26.655851
20
11.152379
70
0
0
VERTEX
8
Layer 1
10
26.474836
20
10.136818
70
0
0
VERTEX
8
Layer 1
10
26.318774
20
9.488797
70
0
0
VERTEX
8
Layer 1
10
26.193717
20
8.995804
70
0
0
VERTEX
8
Layer 1
10
25.664551
20
8.995804
70
0
0
VERTEX
8
Layer 1
10
25.763770
20
10.285646
70
0
0
VERTEX
8
Layer 1
10
25.819580
20
11.011182
70
0
0
VERTEX
8
Layer 1
10
25.981586
20
11.628973
70
0
0
VERTEX
8
Layer 1
10
26.458300
20
12.170800
70
0
0
VERTEX
8
Layer 1
10
26.458300
20
12.170800
70
0
0
SEQEND
8
Layer 1
0
POLYLINE
8
Layer 1
62
7
70
1
10
0.000000
20
0.000000
66
1
0
VERTEX
8
Layer 1
10
46.037500
20
13.229200
70
0
0
VERTEX
8
Layer 1
10
47.682876
20
13.212664
70
0
0
VERTEX
8
Layer 1
10
48.683330
20
12.700034
70
0
0
VERTEX
8
Layer 1
10
48.683330
20
12.170868
70
0
0
VERTEX
8
Layer 1
10
46.037500
20
12.700034
70
0
0
VERTEX
8
Layer 1
10
46.037500
20
13.229200
70
0
0
VERTEX
8
Layer 1
10
46.037500
20
13.229200
70
0
0
SEQEND
8
Layer 1
0
POLYLINE
8
Layer 1
62
7
70
1
10
0.000000
20
0.000000
66
1
0
VERTEX
8
Layer 1
10
43.656200
20
17.727100
70
0
0
VERTEX
8
Layer 1
10
43.920783
20
16.933351
70
0
0
VERTEX
8
Layer 1
10
44.979115
20
17.462517
70
0
0
VERTEX
8
Layer 1
10
45.243698
20
16.139602
70
0
0
VERTEX
8
Layer 1
10
44.615313
20
16.172675
70
0
0
VERTEX
8
Layer 1
10
43.909473
20
16.134599
70
0
0
VERTEX
8
Layer 1
10
43.391617
20
15.610436
70
0
0
VERTEX
8
Layer 1
10
43.656200
20
17.727100
70
0
0
VERTEX
8
Layer 1
10
43.656200
20
17.727100
70
0
0
SEQEND
8
Layer 1
0
POLYLINE
8
Layer 1
62
7
70
1
10
0.000000
20
0.000000
66
1
0
VERTEX
8
Layer 1
10
16.933300
20
20.902100
70
0
0
VERTEX
8
Layer 1
10
17.596934
20
20.743840
70
0
0
VERTEX
8
Layer 1
10
18.128254
20
20.477133
70
0
0
VERTEX
8
Layer 1
10
19.049964
20
19.579185
70
0
0
VERTEX
8
Layer 1
10
19.049964
20
18.785436
70
0
0
VERTEX
8
Layer 1
10
18.520798
20
18.785436
70
0
0
VERTEX
8
Layer 1
10
17.991632
20
20.108351
70
0
0
VERTEX
8
Layer 1
10
17.197883
20
20.108351
70
0
0
VERTEX
8
Layer 1
10
16.933300
20
20.902100
70
0
0
VERTEX
8
Layer 1
10
16.933300
20
20.902100
70
0
0
SEQEND
8
Layer 1
0
POLYLINE
8
Layer 1
62
7
70
1
10
0.000000
20
0.000000
66
1
0
VERTEX
8
Layer 1
10
11.641700
20
24.077100
70
0
0
VERTEX
8
Layer 1
10
11.906283
20
24.077100
70
0
0
VERTEX
8
Layer 1
10
11.906283
20
20.372938
70
0
0
VERTEX
8
Layer 1
10
11.377117
20
20.637521
70
0
0
VERTEX
8
Layer 1
10
11.112534
20
22.489602
70
0
0
VERTEX
8
Layer 1
10
11.641700
20
22.489602
70
0
0
VERTEX
8
Layer 1
10
11.641700
20
24.077100
70
0
0
VERTEX
8
Layer 1
10
11.641700
20
24.077100
70
0
0
SEQEND
8
Layer 1
0
POLYLINE
8
Layer 1
62
7
70
1
10
0.000000
20
0.000000
66
1
0
VERTEX
8
Layer 1
10
25.664600
20
11.641700
70
0
0
VERTEX
8
Layer 1
10
25.861773
20
10.327378
70
0
0
VERTEX
8
Layer 1
10
25.664600
20
8.995870
70
0
0
VERTEX
8
Layer 1
10
26.193766
20
8.995870
70
0
0
VERTEX
8
Layer 1
10
26.193766
20
7.672955
70
0
0
VERTEX
8
Layer 1
10
25.400017
20
8.202121
70
0
0
VERTEX
8
Layer 1
10
25.333871
20
9.508500
70
0
0
VERTEX
8
Layer 1
10
25.346274
20
10.210265
70
0
0
VERTEX
8
Layer 1
10
25.664600
20
11.641700
70
0
0
VERTEX
8
Layer 1
10
25.664600
20
11.641700
70
0
0
SEQEND
8
Layer 1
0
POLYLINE
8
Layer 1
62
7
70
1
10
0.000000
20
0.000000
66
1
0
VERTEX
8
Layer 1
10
28.839600
20
14.022900
70
0
0
VERTEX
8
Layer 1
10
29.368766
20
13.758317
70
0
0
VERTEX
8
Layer 1
10
28.624626
20
12.881886
70
0
0
VERTEX
8
Layer 1
10
28.206048
20
12.388893
70
0
0
VERTEX
8
Layer 1
10
26.987519
20
11.112487
70
0
0
VERTEX
8
Layer 1
10
27.170978
20
12.040693
70
0
0
VERTEX
8
Layer 1
10
27.568044
20
12.758577
70
0
0
VERTEX
8
Layer 1
10
28.839600
20
14.022900
70
0
0
VERTEX
8
Layer 1
10
28.839600
20
14.022900
70
0
0
SEQEND
8
Layer 1
0
POLYLINE
8
Layer 1
62
7
70
1
10
0.000000
20
0.000000
66
1
0
VERTEX
8
Layer 1
10
33.602100
20
28.575000
70
0
0
VERTEX
8
Layer 1
10
33.866683
20
28.575000
70
0
0
VERTEX
8
Layer 1
10
33.767464
20
27.268621
70
0
0
VERTEX
8
Layer 1
10
33.711654
20
26.533783
70
0
0
VERTEX
8
Layer 1
10
33.602100
20
25.929170
70
0
0
VERTEX
8
Layer 1
10
33.072934
20
25.664587
70
0
0
VERTEX
8
Layer 1
10
33.039861
20
26.822138
70
0
0
VERTEX
8
Layer 1
10
33.021258
20
27.473260
70
0
0
VERTEX
8
Layer 1
10
33.132620
20
28.040408
70
0
0
VERTEX
8
Layer 1
10
33.602100
20
28.575000
70
0
0
VERTEX
8
Layer 1
10
33.602100
20
28.575000
70
0
0
SEQEND
8
Layer 1
0
POLYLINE
8
Layer 1
62
7
70
1
10
0.000000
20
0.000000
66
1
0
VERTEX
8
Layer 1
10
11.377100
20
35.189600
70
0
0
VERTEX
8
Layer 1
10
13.229181
20
34.925017
70
0
0
VERTEX
8
Layer 1
10
12.964598
20
34.395851
70
0
0
VERTEX
8
Layer 1
10
10.847934
20
34.131268
70
0
0
VERTEX
8
Layer 1
10
11.377100
20
35.189600
70
0
0
VERTEX
8
Layer 1
10
11.377100
20
35.189600
70
0
0
SEQEND
8
Layer 1
0
POLYLINE
8
Layer 1
62
7
70
1
10
0.000000
20
0.000000
66
1
0
VERTEX
8
Layer 1
10
20.372900
20
10.847900
70
0
0
VERTEX
8
Layer 1
10
19.647274
20
10.302843
70
0
0
VERTEX
8
Layer 1
10
18.905890
20
10.008273
70
0
0
VERTEX
8
Layer 1
10
17.197904
20
9.789568
70
0
0
VERTEX
8
Layer 1
10
17.718802
20
10.506836
70
0
0
VERTEX
8
Layer 1
10
18.190090
20
10.765218
70
0
0
VERTEX
8
Layer 1
10
20.372900
20
10.847900
70
0
0
VERTEX
8
Layer 1
10
20.372900
20
10.847900
70
0
0
SEQEND
8
Layer 1
0
POLYLINE
8
Layer 1
62
7
70
1
10
0.000000
20
0.000000
66
1
0
VERTEX
8
Layer 1
10
49.741700
20
14.287500
70
0
0
VERTEX
8
Layer 1
10
50.800032
20
14.022917
70
0
0
VERTEX
8
Layer 1
10
51.064615
20
12.170836
70
0
0
VERTEX
8
Layer 1
10
50.535449
20
12.435419
70
0
0
VERTEX
8
Layer 1
10
50.535449
20
12.964585
70
0
0
VERTEX
8
Layer 1
10
50.006283
20
12.964585
70
0
0
VERTEX
8
Layer 1
10
49.741700
20
14.287500
70
0
0
VERTEX
8
Layer 1
10
49.741700
20
14.287500
70
0
0
SEQEND
8
Layer 1
0
POLYLINE
8
Layer 1
62
7
70
1
10
0.000000
20
0.000000
66
1
0
VERTEX
8
Layer 1
10
11.377100
20
20.637500
70
0
0
VERTEX
8
Layer 1
10
11.641683
20
19.843751
70
0
0
VERTEX
8
Layer 1
10
12.170849
20
19.843751
70
0
0
VERTEX
8
Layer 1
10
12.435432
20
20.637500
70
0
0
VERTEX
8
Layer 1
10
12.435432
20
18.256253
70
0
0
VERTEX
8
Layer 1
10
11.906266
20
18.256253
70
0
0
VERTEX
8
Layer 1
10
11.493033
20
19.404748
70
0
0
VERTEX
8
Layer 1
10
11.377100
20
20.637500
70
0
0
VERTEX
8
Layer 1
10
11.377100
20
20.637500
70
0
0
SEQEND
8
Layer 1
0
POLYLINE
8
Layer 1
62
7
70
1
10
0.000000
20
0.000000
66
1
0
VERTEX
8
Layer 1
10
37.835400
20
16.933300
70
0
0
VERTEX
8
Layer 1
10
39.472507
20
16.693522
70
0
0
VERTEX
8
Layer 1
10
40.216647
20
16.404134
70
0
0
VERTEX
8
Layer 1
10
40.216647
20
15.874968
70
0
0
VERTEX
8
Layer 1
10
38.364566
20
16.139551
70
0
0
VERTEX
8
Layer 1
10
37.835400
20
16.933300
70
0
0
VERTEX
8
Layer 1
10
37.835400
20
16.933300
70
0
0
SEQEND
8
Layer 1
0
POLYLINE
8
Layer 1
62
7
70
1
10
0.000000
20
0.000000
66
1
0
VERTEX
8
Layer 1
10
38.893700
20
18.256200
70
0
0
VERTEX
8
Layer 1
10
39.687449
20
17.462451
70
0
0
VERTEX
8
Layer 1
10
39.422866
20
16.933285
70
0
0
VERTEX
8
Layer 1
10
37.306202
20
17.197868
70
0
0
VERTEX
8
Layer 1
10
37.306202
20
17.727034
70
0
0
VERTEX
8
Layer 1
10
38.893700
20
17.727034
70
0
0
VERTEX
8
Layer 1
10
38.893700
20
18.256200
70
0
0
VERTEX
8
Layer 1
10
38.893700
20
18.256200
70
0
0
SEQEND
8
Layer 1
0
POLYLINE
8
Layer 1
62
7
70
1
10
0.000000
20
0.000000
66
1
0
VERTEX
8
Layer 1
10
32.808300
20
28.045800
70
0
0
VERTEX
8
Layer 1
10
33.072883
20
28.045800
70
0
0
VERTEX
8
Layer 1
10
33.337466
20
25.929136
70
0
0
VERTEX
8
Layer 1
10
33.602049
20
25.929136
70
0
0
VERTEX
8
Layer 1
10
33.602049
20
24.606221
70
0
0
VERTEX
8
Layer 1
10
32.808300
20
24.870804
70
0
0
VERTEX
8
Layer 1
10
32.808300
20
28.045800
70
0
0
VERTEX
8
Layer 1
10
32.808300
20
28.045800
70
0
0
SEQEND
8
Layer 1
0
POLYLINE
8
Layer 1
62
7
70
1
10
0.000000
20
0.000000
66
1
0
VERTEX
8
Layer 1
10
6.879170
20
30.691700
70
0
0
VERTEX
8
Layer 1
10
7.672919
20
30.691700
70
0
0
VERTEX
8
Layer 1
10
8.202085
20
29.633368
70
0
0
VERTEX
8
Layer 1
10
7.408336
20
28.839619
70
0
0
VERTEX
8
Layer 1
10
7.143753
20
29.633368
70
0
0
VERTEX
8
Layer 1
10
6.614587
20
29.633368
70
0
0
VERTEX
8
Layer 1
10
6.879170
20
30.691700
70
0
0
VERTEX
8
Layer 1
10
6.879170
20
30.691700
70
0
0
SEQEND
8
Layer 1
0
POLYLINE
8
Layer 1
62
7
70
1
10
0.000000
20
0.000000
66
1
0
VERTEX
8
Layer 1
10
52.122900
20
1.587500
70
0
0
VERTEX
8
Layer 1
10
52.387483
20
1.058334
70
0
0
VERTEX
8
Layer 1
10
51.692540
20
0.389130
70
0
0
VERTEX
8
Layer 1
10
50.750376
20
0.082684
70
0
0
VERTEX
8
Layer 1
10
50.006236
20
0.000002
70
0
0
VERTEX
8
Layer 1
10
50.977614
20
0.915276
70
0
0
VERTEX
8
Layer 1
10
52.122900
20
1.587500
70
0
0
VERTEX
8
Layer 1
10
52.122900
20
1.587500
70
0
0
SEQEND
8
Layer 1
0
POLYLINE
8
Layer 1
62
7
70
1
10
0.000000
20
0.000000
66
1
0
VERTEX
8
Layer 1
10
45.243700
20
16.668700
70
0
0
VERTEX
8
Layer 1
10
47.624947
20
16.668700
70
0
0
VERTEX
8
Layer 1
10
47.624947
20
15.610368
70
0
0
VERTEX
8
Layer 1
10
46.319400
20
15.860369
70
0
0
VERTEX
8
Layer 1
10
45.243700
20
16.668700
70
0
0
VERTEX
8
Layer 1
10
45.243700
20
16.668700
70
0
0
SEQEND
8
Layer 1
0
POLYLINE
8
Layer 1
62
7
70
1
10
0.000000
20
0.000000
66
1
0
VERTEX
8
Layer 1
10
39.952100
20
19.050000
70
0
0
VERTEX
8
Layer 1
10
42.862513
20
18.520834
70
0
0
VERTEX
8
Layer 1
10
42.862513
20
18.256251
70
0
0
VERTEX
8
Layer 1
10
40.745849
20
18.256251
70
0
0
VERTEX
8
Layer 1
10
40.481266
20
17.727085
70
0
0
VERTEX
8
Layer 1
10
39.952100
20
18.256251
70
0
0
VERTEX
8
Layer 1
10
39.952100
20
19.050000
70
0
0
VERTEX
8
Layer 1
10
39.952100
20
19.050000
70
0
0
SEQEND
8
Layer 1
0
POLYLINE
8
Layer 1
62
7
70
1
10
0.000000
20
0.000000
66
1
0
VERTEX
8
Layer 1
10
28.310400
20
20.108300
70
0
0
VERTEX
8
Layer 1
10
28.839566
20
19.843717
70
0
0
VERTEX
8
Layer 1
10
27.252068
20
18.256219
70
0
0
VERTEX
8
Layer 1
10
26.458319
20
18.520802
70
0
0
VERTEX
8
Layer 1
10
26.970949
20
18.735776
70
0
0
VERTEX
8
Layer 1
10
27.547257
20
19.087425
70
0
0
VERTEX
8
Layer 1
10
27.781234
20
19.843717
70
0
0
VERTEX
8
Layer 1
10
28.310400
20
20.108300
70
0
0
VERTEX
8
Layer 1
10
28.310400
20
20.108300
70
0
0
SEQEND
8
Layer 1
0
POLYLINE
8
Layer 1
62
7
70
1
10
0.000000
20
0.000000
66
1
0
VERTEX
8
Layer 1
10
21.067400
20
37.868500
70
0
0
VERTEX
8
Layer 1
10
21.695785
20
37.835427
70
0
0
VERTEX
8
Layer 1
10
21.695785
20
37.041678
70
0
0
VERTEX
8
Layer 1
10
20.108287
20
37.041678
70
0
0
VERTEX
8
Layer 1
10
19.843704
20
36.512512
70
0
0
VERTEX
8
Layer 1
10
19.887647
20
37.152969
70
0
0
VERTEX
8
Layer 1
10
20.062861
20
37.559003
70
0
0
VERTEX
8
Layer 1
10
20.434420
20
37.780788
70
0
0
VERTEX
8
Layer 1
10
21.067400
20
37.868500
70
0
0
VERTEX
8
Layer 1
10
21.067400
20
37.868500
70
0
0
SEQEND
8
Layer 1
0
POLYLINE
8
Layer 1
62
7
70
1
10
0.000000
20
0.000000
66
1
0
VERTEX
8
Layer 1
10
12.435400
20
8.731250
70
0
0
VERTEX
8
Layer 1
10
13.470115
20
8.394237
70
0
0
VERTEX
8
Layer 1
10
14.287481
20
7.672918
70
0
0
VERTEX
8
Layer 1
10
13.229149
20
7.408335
70
0
0
VERTEX
8
Layer 1
10
12.435400
20
8.731250
70
0
0
VERTEX
8
Layer 1
10
12.435400
20
8.731250
70
0
0
SEQEND
8
Layer 1
0
POLYLINE
8
Layer 1
62
7
70
1
10
0.000000
20
0.000000
66
1
0
VERTEX
8
Layer 1
10
16.668700
20
11.906200
70
0
0
VERTEX
8
Layer 1
10
17.197866
20
11.906200
70
0
0
VERTEX
8
Layer 1
10
17.197866
20
10.583285
70
0
0
VERTEX
8
Layer 1
10
17.991615
20
10.318702
70
0
0
VERTEX
8
Layer 1
10
16.933283
20
10.054119
70
0
0
VERTEX
8
Layer 1
10
16.699706
20
10.386915
70
0
0
VERTEX
8
Layer 1
10
16.652164
20
11.128987
70
0
0
VERTEX
8
Layer 1
10
16.668700
20
11.906200
70
0
0
VERTEX
8
Layer 1
10
16.668700
20
11.906200
70
0
0
SEQEND
8
Layer 1
0
POLYLINE
8
Layer 1
62
7
70
1
10
0.000000
20
0.000000
66
1
0
VERTEX
8
Layer 1
10
51.329200
20
11.641700
70
0
0
VERTEX
8
Layer 1
10
51.858366
20
11.377117
70
0
0
VERTEX
8
Layer 1
10
51.858366
20
9.525036
70
0
0
VERTEX
8
Layer 1
10
51.064617
20
10.318785
70
0
0
VERTEX
8
Layer 1
10
51.329200
20
11.641700
70
0
0
VERTEX
8
Layer 1
10
51.329200
20
11.641700
70
0
0
SEQEND
8
Layer 1
0
POLYLINE
8
Layer 1
62
7
70
1
10
0.000000
20
0.000000
66
1
0
VERTEX
8
Layer 1
10
36.777100
20
12.700000
70
0
0
VERTEX
8
Layer 1
10
37.306266
20
12.435417
70
0
0
VERTEX
8
Layer 1
10
37.306266
20
11.112502
70
0
0
VERTEX
8
Layer 1
10
36.247934
20
10.583336
70
0
0
VERTEX
8
Layer 1
10
35.983351
20
11.112502
70
0
0
VERTEX
8
Layer 1
10
36.512517
20
11.377085
70
0
0
VERTEX
8
Layer 1
10
36.777100
20
12.700000
70
0
0
VERTEX
8
Layer 1
10
36.777100
20
12.700000
70
0
0
SEQEND
8
Layer 1
0
POLYLINE
8
Layer 1
62
7
70
1
10
0.000000
20
0.000000
66
1
0
VERTEX
8
Layer 1
10
17.462500
20
13.493700
70
0
0
VERTEX
8
Layer 1
10
17.727083
20
13.493700
70
0
0
VERTEX
8
Layer 1
10
17.462500
20
10.583287
70
0
0
VERTEX
8
Layer 1
10
17.197917
20
10.583287
70
0
0
VERTEX
8
Layer 1
10
16.982943
20
12.460173
70
0
0
VERTEX
8
Layer 1
10
17.123503
20
12.945931
70
0
0
VERTEX
8
Layer 1
10
17.462500
20
13.493700
70
0
0
VERTEX
8
Layer 1
10
17.462500
20
13.493700
70
0
0
SEQEND
8
Layer 1
0
POLYLINE
8
Layer 1
62
7
70
1
10
0.000000
20
0.000000
66
1
0
VERTEX
8
Layer 1
10
33.337500
20
16.139600
70
0
0
VERTEX
8
Layer 1
10
33.866666
20
15.875017
70
0
0
VERTEX
8
Layer 1
10
33.602083
20
14.552102
70
0
0
VERTEX
8
Layer 1
10
31.485419
20
14.816685
70
0
0
VERTEX
8
Layer 1
10
31.485419
20
15.081268
70
0
0
VERTEX
8
Layer 1
10
33.072917
20
15.345851
70
0
0
VERTEX
8
Layer 1
10
33.337500
20
16.139600
70
0
0
VERTEX
8
Layer 1
10
33.337500
20
16.139600
70
0
0
SEQEND
8
Layer 1
0
POLYLINE
8
Layer 1
62
7
70
1
10
0.000000
20
0.000000
66
1
0
VERTEX
8
Layer 1
10
2.381250
20
17.727100
70
0
0
VERTEX
8
Layer 1
10
3.174999
20
17.727100
70
0
0
VERTEX
8
Layer 1
10
2.542753
20
16.666801
70
0
0
VERTEX
8
Layer 1
10
1.587501
20
15.875019
70
0
0
VERTEX
8
Layer 1
10
1.871911
20
16.835026
70
0
0
VERTEX
8
Layer 1
10
2.381250
20
17.727100
70
0
0
VERTEX
8
Layer 1
10
2.381250
20
17.727100
70
0
0
SEQEND
8
Layer 1
0
POLYLINE
8
Layer 1
62
7
70
1
10
0.000000
20
0.000000
66
1
0
VERTEX
8
Layer 1
10
32.808300
20
17.462500
70
0
0
VERTEX
8
Layer 1
10
32.543717
20
16.668751
70
0
0
VERTEX
8
Layer 1
10
30.691636
20
16.668751
70
0
0
VERTEX
8
Layer 1
10
30.691636
20
17.197917
70
0
0
VERTEX
8
Layer 1
10
32.097233
20
17.652669
70
0
0
VERTEX
8
Layer 1
10
32.440364
20
17.625797
70
0
0
VERTEX
8
Layer 1
10
32.808300
20
17.462500
70
0
0
VERTEX
8
Layer 1
10
32.808300
20
17.462500
70
0
0
SEQEND
8
Layer 1
0
POLYLINE
8
Layer 1
62
7
70
1
10
0.000000
20
0.000000
66
1
0
VERTEX
8
Layer 1
10
4.762500
20
18.520800
70
0
0
VERTEX
8
Layer 1
10
3.704168
20
17.462468
70
0
0
VERTEX
8
Layer 1
10
2.645836
20
17.991634
70
0
0
VERTEX
8
Layer 1
10
3.655742
20
18.489659
70
0
0
VERTEX
8
Layer 1
10
4.762500
20
18.520800
70
0
0
VERTEX
8
Layer 1
10
4.762500
20
18.520800
70
0
0
SEQEND
8
Layer 1
0
POLYLINE
8
Layer 1
62
7
70
1
10
0.000000
20
0.000000
66
1
0
VERTEX
8
Layer 1
10
6.350000
20
19.579200
70
0
0
VERTEX
8
Layer 1
10
7.536568
20
19.288259
70
0
0
VERTEX
8
Layer 1
10
8.466664
20
18.520868
70
0
0
VERTEX
8
Layer 1
10
6.879166
20
18.520868
70
0
0
VERTEX
8
Layer 1
10
6.350000
20
19.579200
70
0
0
VERTEX
8
Layer 1
10
6.350000
20
19.579200
70
0
0
SEQEND
8
Layer 1
0
POLYLINE
8
Layer 1
62
7
70
1
10
0.000000
20
0.000000
66
1
0
VERTEX
8
Layer 1
10
40.481300
20
21.166700
70
0
0
VERTEX
8
Layer 1
10
42.068798
20
21.166700
70
0
0
VERTEX
8
Layer 1
10
41.539632
20
20.108368
70
0
0
VERTEX
8
Layer 1
10
40.481300
20
20.372951
70
0
0
VERTEX
8
Layer 1
10
40.481300
20
21.166700
70
0
0
VERTEX
8
Layer 1
10
40.481300
20
21.166700
70
0
0
SEQEND
8
Layer 1
0
POLYLINE
8
Layer 1
62
7
70
1
10
0.000000
20
0.000000
66
1
0
VERTEX
8
Layer 1
10
41.539600
20
21.695800
70
0
0
VERTEX
8
Layer 1
10
41.539600
20
21.166634
70
0
0
VERTEX
8
Layer 1
10
39.422936
20
20.902051
70
0
0
VERTEX
8
Layer 1
10
39.158353
20
21.431217
70
0
0
VERTEX
8
Layer 1
10
40.336495
20
21.662672
70
0
0
VERTEX
8
Layer 1
10
41.539600
20
21.695800
70
0
0
VERTEX
8
Layer 1
10
41.539600
20
21.695800
70
0
0
SEQEND
8
Layer 1
0
POLYLINE
8
Layer 1
62
7
70
1
10
0.000000
20
0.000000
66
1
0
VERTEX
8
Layer 1
10
1.058330
20
4.233330
70
0
0
VERTEX
8
Layer 1
10
1.852079
20
4.233330
70
0
0
VERTEX
8
Layer 1
10
1.322913
20
2.645832
70
0
0
VERTEX
8
Layer 1
10
0.793747
20
2.381249
70
0
0
VERTEX
8
Layer 1
10
0.793747
20
3.968747
70
0
0
VERTEX
8
Layer 1
10
1.058330
20
4.233330
70
0
0
VERTEX
8
Layer 1
10
1.058330
20
4.233330
70
0
0
SEQEND
8
Layer 1
0
POLYLINE
8
Layer 1
62
7
70
1
10
0.000000
20
0.000000
66
1
0
VERTEX
8
Layer 1
10
28.575000
20
16.139600
70
0
0
VERTEX
8
Layer 1
10
30.162498
20
16.139600
70
0
0
VERTEX
8
Layer 1
10
28.839583
20
14.816685
70
0
0
VERTEX
8
Layer 1
10
28.575000
20
14.816685
70
0
0
VERTEX
8
Layer 1
10
28.575000
20
16.139600
70
0
0
VERTEX
8
Layer 1
10
28.575000
20
16.139600
70
0
0
SEQEND
8
Layer 1
0
POLYLINE
8
Layer 1
62
7
70
1
10
0.000000
20
0.000000
66
1
0
VERTEX
8
Layer 1
10
47.625000
20
16.668700
70
0
0
VERTEX
8
Layer 1
10
48.947915
20
16.668700
70
0
0
VERTEX
8
Layer 1
10
49.212498
20
15.345785
70
0
0
VERTEX
8
Layer 1
10
47.625000
20
16.139534
70
0
0
VERTEX
8
Layer 1
10
47.625000
20
16.668700
70
0
0
VERTEX
8
Layer 1
10
47.625000
20
16.668700
70
0
0
SEQEND
8
Layer 1
0
POLYLINE
8
Layer 1
62
7
70
1
10
0.000000
20
0.000000
66
1
0
VERTEX
8
Layer 1
10
39.952100
20
20.637500
70
0
0
VERTEX
8
Layer 1
10
41.539598
20
19.843751
70
0
0
VERTEX
8
Layer 1
10
41.539598
20
19.579168
70
0
0
VERTEX
8
Layer 1
10
39.952100
20
19.579168
70
0
0
VERTEX
8
Layer 1
10
39.422934
20
20.372917
70
0
0
VERTEX
8
Layer 1
10
39.952100
20
20.637500
70
0
0
VERTEX
8
Layer 1
10
39.952100
20
20.637500
70
0
0
SEQEND
8
Layer 1
0
POLYLINE
8
Layer 1
62
7
70
1
10
0.000000
20
0.000000
66
1
0
VERTEX
8
Layer 1
10
44.450000
20
24.341700
70
0
0
VERTEX
8
Layer 1
10
44.714583
20
23.812534
70
0
0
VERTEX
8
Layer 1
10
45.508332
20
23.547951
70
0
0
VERTEX
8
Layer 1
10
43.920834
20
22.489619
70
0
0
VERTEX
8
Layer 1
10
43.391668
20
23.018785
70
0
0
VERTEX
8
Layer 1
10
44.185417
20
23.547951
70
0
0
VERTEX
8
Layer 1
10
44.450000
20
24.341700
70
0
0
VERTEX
8
Layer 1
10
44.450000
20
24.341700
70
0
0
SEQEND
8
Layer 1
0
POLYLINE
8
Layer 1
62
7
70
1
10
0.000000
20
0.000000
66
1
0
VERTEX
8
Layer 1
10
16.404200
20
31.220800
70
0
0
VERTEX
8
Layer 1
10
16.404200
20
30.691634
70
0
0
VERTEX
8
Layer 1
10
15.610451
20
30.228614
70
0
0
VERTEX
8
Layer 1
10
14.816702
20
30.162468
70
0
0
VERTEX
8
Layer 1
10
14.816702
20
30.956217
70
0
0
VERTEX
8
Layer 1
10
15.412014
20
31.187727
70
0
0
VERTEX
8
Layer 1
10
16.404200
20
31.220800
70
0
0
VERTEX
8
Layer 1
10
16.404200
20
31.220800
70
0
0
SEQEND
8
Layer 1
0
POLYLINE
8
Layer 1
62
7
70
1
10
0.000000
20
0.000000
66
1
0
VERTEX
8
Layer 1
10
8.731250
20
33.337500
70
0
0
VERTEX
8
Layer 1
10
8.995833
20
32.808334
70
0
0
VERTEX
8
Layer 1
10
7.672918
20
31.220836
70
0
0
VERTEX
8
Layer 1
10
7.781183
20
32.196802
70
0
0
VERTEX
8
Layer 1
10
8.202084
20
33.072917
70
0
0
VERTEX
8
Layer 1
10
8.731250
20
33.337500
70
0
0
VERTEX
8
Layer 1
10
8.731250
20
33.337500
70
0
0
SEQEND
8
Layer 1
 0 
ENDSEC
 0 
EOF